<?xml version="1.0" encoding="utf-8"?>
<!-- Generator: Adobe Illustrator 27.0.0, SVG Export Plug-In . SVG Version: 6.00 Build 0)  -->
<svg version="1.1" id="Layer_1" xmlns="http://www.w3.org/2000/svg" xmlns:xlink="http://www.w3.org/1999/xlink" x="0px" y="0px"
	 viewBox="0 0 306 308" style="enable-background:new 0 0 306 308;" xml:space="preserve">
<style type="text/css">
	.st0{fill:#FFFFFF;}
	.st1{fill:none;stroke:#D2122E;stroke-width:1.75;stroke-miterlimit:10;}
	.st2{fill:none;stroke:#D2122E;stroke-width:5;stroke-miterlimit:10;}
	.st3{fill-rule:evenodd;clip-rule:evenodd;}
</style>
<circle class="st0" cx="153" cy="154" r="153.1"/>
<path class="st1" d="M17.1,146.4c-0.1,2.5-0.2,5-0.2,7.6c0,75.1,60.9,136.1,136.1,136.1c17.8,0,34.8-3.4,50.3-9.6"/>
<path class="st1" d="M151.7,18c0.4,0,0.9,0,1.3,0c75.1,0,136.1,60.9,136.1,136.1c0,12.3-1.6,24.3-4.7,35.7"/>
<path class="st2" d="M22.8,146.9c-0.1,2.3-0.2,4.7-0.2,7.1c0,72,58.4,130.4,130.4,130.4c17,0,33.2-3.3,48.1-9.2"/>
<path class="st2" d="M151.7,23.6c0.4,0,0.8,0,1.3,0c72,0,130.4,58.4,130.4,130.4c0,11.8-1.6,23.3-4.5,34.2"/>
<path class="st1" d="M29.9,147.6c-0.1,2.1-0.2,4.3-0.2,6.4c0,68.1,55.2,123.3,123.3,123.3c16,0,31.3-3,45.4-8.6"/>
<path class="st1" d="M151.7,30.7c0.4,0,0.9,0,1.3,0c68.1,0,123.3,55.2,123.3,123.3c0,11.2-1.5,22-4.3,32.3"/>
<g>
	<path d="M223.3,270.7l-3,1.6l-5.8-3.4l-0.4,2.1l2,3.6l-2.5,1.4l-6.7-12.3l2.5-1.4l2.9,5.3l1.1-7.5l3-1.6l-1.3,7.4L223.3,270.7z"/>
	<path d="M227,251.3l8.1,11.4l-2.4,1.7l-2.6-3.8l-1.5,1l0.5,5.2l-2.7,1.9l-0.6-6c-1.8,0.4-3.4-0.3-4.6-2c-0.8-1.1-1.1-2.2-0.9-3.4
		c0.2-1.1,0.9-2.1,2-3c0.7-0.5,1.4-1.1,2.1-1.6L227,251.3z M226.7,259.8l1.8-1.3l-2.4-3.4l-0.4,0.3c-0.4,0.3-0.7,0.5-0.9,0.6
		c-0.2,0.1-0.4,0.3-0.7,0.6c-0.3,0.2-0.5,0.5-0.6,0.6c-0.1,0.2-0.2,0.4-0.3,0.6s-0.1,0.5,0,0.7c0.1,0.3,0.2,0.5,0.4,0.8
		c0.4,0.5,0.8,0.8,1.4,0.9C225.6,260.3,226.2,260.2,226.7,259.8z"/>
	<path d="M247.6,252l-2.5,2.2l-5-1.8l1.2,5.2l-2.4,2.1l-1.7-8.1l-7.5-2.5l2.5-2.2l4.7,1.7l-1.1-4.9l2.4-2.1l1.6,7.7L247.6,252z"/>
	<path d="M252.4,247.2c-0.6,0.7-1.3,1.1-2,1.3l-1-2.1c0.5-0.2,0.8-0.5,1-0.7c0.5-0.5,0.5-1.2,0.2-2.1l-10.9-3.5l2.1-2.4l7.2,2.4
		l-3.3-6.7l2-2.3l4.9,10.4c0.6,1.3,0.9,2.3,0.8,3.1C253.5,245.5,253.1,246.3,252.4,247.2z"/>
	<path d="M258.1,236.8c0.2-0.2,0.3-0.5,0.3-0.7s0-0.5-0.2-0.9s-0.4-0.8-0.9-1.2c-0.4-0.5-1.1-1-1.9-1.7c-0.8-0.7-1.9-1.5-3.1-2.4
		l-2.4-1.7l5.2-7.1l11.3,8.2l-1.7,2.3l-9.2-6.7l-1.9,2.6l1.3,0.9c2.2,1.6,3.8,2.9,4.7,4c1,1.1,1.5,2,1.6,2.8s-0.2,1.6-0.8,2.4
		c-0.2,0.3-0.6,0.7-1,1.1l-1.8-1.7C257.8,237.1,258,237,258.1,236.8z"/>
	<path d="M275.3,214.2l-1.4,2.6l-3.2-0.6l-2.3,4.2l2.2,2.4l-1.4,2.5l-9.9-11.2l1.3-2.4L275.3,214.2z M268,215.7l-4.7-0.9l3.2,3.6
		L268,215.7z"/>
	<path d="M265.6,199.2c-0.3,0.8-0.8,1.3-1.5,1.7c-0.7,0.3-1.4,0.4-2.3,0.1l0.3-1.6c0.9,0.1,1.4-0.1,1.7-0.8c0.3-0.7,0.1-1.3-0.6-1.8
		l0.9-1.4c0.8,0.5,1.3,1,1.6,1.7C265.9,197.7,265.9,198.5,265.6,199.2z M268.4,194.8l13,5.3l-1.1,2.6l-8.1-3.3l6.2,8l-1,2.5l-13-5.3
		l1.1-2.6l8,3.3l-6.1-7.9L268.4,194.8z"/>
</g>
<path class="st3" d="M21.5,117.6l14.3-1.2L33,126.5L21.5,117.6L21.5,117.6L21.5,117.6z M44.2,135.1l-5.9-4.5l4-14.7l7.3-0.6l2.5-9.1
	l-37.8,4l-2.7,9.9l30.1,24.2L44.2,135.1L44.2,135.1L44.2,135.1z"/>
<path class="st3" d="M60.2,100.5c1.2-1.8,1.7-3.3,1.4-4.4S60,93.6,57.7,92l-26-18.4l5.1-7.3L63.1,85c4.1,2.9,6.4,5.6,7.1,8.1
	s-0.2,5.5-2.4,8.9L60.2,100.5L60.2,100.5L60.2,100.5z"/>
<path class="st3" d="M72.5,43.9l12,7.9L76.2,58L72.5,43.9L72.5,43.9L72.5,43.9z M79.5,71.6l-1.8-7.2L90,55.3l6.1,4.1l7.5-5.6
	L71.5,33.5l-8.2,6.1l8.6,37.6L79.5,71.6L79.5,71.6L79.5,71.6z"/>
<polygon class="st3" points="109,51.1 119.5,29.9 102.1,16.4 113,13.9 123.5,22.2 129.5,10.2 140.3,7.8 130.2,27.4 149.3,42.1 
	138.2,44.5 126.4,35.3 119.8,48.7 "/>
<path d="M62.6,209.8c0,0,15.3-3.7,49.3,11.2c0.6,0.2,6.7,2.4,11.1,3c-0.1-0.3-0.4-0.8-1.4-1.8c-0.9-0.9-1.7-1.7,0-3.5
	c1.7-1.7,2.6-0.9,3.5,0c7.1,7.1-0.1,10.2-0.1,10.2l-1.2,0.2c-5.2-0.4-13.6-3.4-13.6-3.4l-0.1-0.1c-32.6-14.3-46.4-11-46.4-11
	c-1.2,0.3-2.4,0.5-2.9-1.9C60.2,210.3,61.4,210,62.6,209.8L62.6,209.8L62.6,209.8z M135.4,156c-1.1,0.9-3.8,3.6-4.2,6.5l-0.2,1.2
	l-1.1,0.6c0,0-5.3,2.9-11.9,4c-1.2,0.2-2.4,0.4-2.8-2s0.8-2.6,2-2.8c4.2-0.7,7.7-2.2,9.4-3c1-3.4,3.6-6.2,5.1-7.7l-2.3-14.3l3.9-2.4
	l13.4,9.8c1,0.5,1.3,1.1,1.4,1.6c0.1,0.5-0.1,1-0.6,1.8c-3.3,6.4-1.5,7.5-1.5,7.5l0.3,0.2c3.3,2.8,4.3,7.5,4.3,7.5v0.1
	c2.2,12.7-1.7,17.4-2.7,18.4c-2,2.5-5.2,9.9-5.8,11.3c-1.6,8-9.3,8.2-10.9,8.2c-6.8,1.3-9.2,2.7-9.2,2.7l-0.2,0.1
	c-6.8,3-12,1.2-13.5,0.5c-5.9-1.3-7.8-4-7.8-4l-0.3-0.6c-2.1-5.7-5.2-6.7-5.2-6.7l-0.8-0.4c-9-7.5-2.7-15.9-2.7-15.9l0.2-0.3
	c0.5-0.5,1.8-2.4,3-4.1c-0.7-0.2-1.2-0.8-1.2-2.4c0-2.5,1.2-2.5,2.5-2.5l0,0h2.2c0.4-0.3,1-0.4,1.7,0h3.3c1.2,0,2.5,0,2.5,2.5
	s-1.2,2.5-2.5,2.5h-2.6c-1.3,2-4,6.1-5.2,7.4c-0.5,0.8-2.8,4.9,1.7,8.8c1.4,0.7,5.3,3,7.6,9.1c0.4,0.4,1.6,1.3,4.9,1.9l0.7,0.3
	c0,0,3.6,2.1,9.5-0.5c0.8-0.4,4.2-2,10.8-3.3l0.6-0.1c0,0,5.2,0.4,6.1-4.3l0.2-0.5c0,0,4.1-9.8,6.8-13l0.3-0.3c0,0,3.2-2.4,1.2-13.9
	c-0.1-0.5-0.8-3.2-2.7-4.7l0,0c-1.1-0.8-4.3-4.2-0.9-12l-7.1-5.2l1.5,9.2c0.5,0.9,0.5,1.5,0.2,1.9
	C136.7,155.3,136.3,155.8,135.4,156L135.4,156z M198.4,247.1L198.4,247.1L198.4,247.1L198.4,247.1c0,0.2,0.1,1.9,0.2,1.7h0.1
	c0,0,4-3.3,5.5-18.1v-0.3c0,0,3.4-15,14.9-0.7c0.8,0.8,7.4,7.4,7.8,1.8c-0.8-2.4-4.5-13.5-5.3-15.7c-0.8-1.3-5.4-10.3,9-10.6h0.2
	c0,0,9,0.4,18.4,3.9c1.2,0.4,2.3,0.8,1.5,3.2c-0.8,2.3-2,1.9-3.2,1.5c-8.2-3-16.2-3.5-16.9-3.5c-6.6,0.2-4.6,3.2-4.6,3.2l0.2,0.4
	c0.7,1.9,5.6,16.5,5.6,16.5l0.1,0.8c-0.3,18.8-16.3,1.9-16.4,1.9l-0.1-0.2c-4.8-6-6.1-2.2-6.3-1.5c-1.8,16.7-7.2,21.2-7.2,21.2h0.1
	c-6.6,6-8.1-1.3-8.4-4.2c-0.1-0.3-0.1-0.7-0.1-1.1l0,0c0-0.3,0-0.5,0-0.8v-12.8c0-10.3-4-7.1-4.6-6.5c-14,15.4-21.9,40.1-21.9,40.2
	c-0.4,1.2-0.8,2.4-3.1,1.6s-2-1.9-1.6-3.1l0,0c0-0.1,8.2-25.8,22.9-42l0.1-0.1c0,0,12.9-12.8,13,9.6c0,0.1,0,0.3,0,0.4v0.1v0.1v0.1
	L198.4,247.1L198.4,247.1z M198.4,247.1L198.4,247.1L198.4,247.1z M188.9,227.1C188.8,227.1,188.8,227.1,188.9,227.1L188.9,227.1
	L188.9,227.1L188.9,227.1z M209,231.4L209,231.4L209,231.4L209,231.4L209,231.4z M109.6,125.6c0,0-3,3.4-1.5,3.5
	c1.5-0.1,10.4-0.7,10.4,6.6v-0.2c0,0,1,9.2-9,6.7l-0.8-0.4c0,0-0.7-0.5-0.5,4.9c0,0.2,0,0.5,0,0.8l0,0c0,0.3,0,0.7,0,1v8.5
	c1.9,2.5,6.7,10-4.4,9.9c-0.3,0.1-0.7,0-1.1,0s-0.9,0-1.3-0.2l-4.9-0.7c-1.2-0.2-2.4-0.3-2.1-2.8c0.3-2.4,1.6-2.3,2.8-2.1l5.8,0.8
	c2.2,0.1,1.8-1.1,1.4-1.8c-0.7-0.3-1-0.8-1-1.4c-0.3-0.5-0.5-1.1,0-1.8v-9.2c-0.8-14.2,5.9-11.3,7.7-10.3c2.8,0.5,2.5-1.6,2.5-1.6
	v-0.2c0-2.3-5-1.7-5-1.7h-0.3c-12.7,0-2.3-11.7-2.3-11.7c0.8-0.9,1.6-1.8,3.5-0.2C111.2,123.7,110.4,124.6,109.6,125.6L109.6,125.6
	L109.6,125.6z M95.2,123.4c0,0-4.1-4.4-4.7-5.5c-0.2-0.4-0.3-0.7-0.4-1c-1.2-1.8-5.7-9.5,8.8-8.1l0.5,0.1c0.1,0,38,10.9,97.1,69.3
	l0,0c0,0,8.6,8.3-3.1,11.7h-0.2c0,0-4.9,0.9-4.5,6.1c1.3,1.9,3.6,6.8-6.1,9.3h-0.2c0,0-6.3,1-9,2.3l-0.6,0.2c0,0-7.2,1.4-6.4-11
	l0.1-0.6c0,0,1.6-4.9-0.8-8.2c-0.7-1-1.9-1.2-2.9-1.4c-3.4-0.7-6.1-1.3-5.5-8.5c0-0.2,0-3,1-5.4c0.5-1.1,0.9-2.3,3.2-1.4
	c2.3,0.9,1.8,2.1,1.4,3.2c-0.6,1.6-0.6,3.6-0.6,3.6v0.2c-0.3,3.1,0.5,3.3,1.6,3.5c1.8,0.4,3.9,0.8,5.8,3.2
	c3.5,4.7,2.2,10.8,1.7,12.4c-0.3,4.7,0.3,5.4,0.5,5.6c3.3-1.3,8.7-2.3,9.7-2.4c3.9-1,3.1-1.9,3.1-1.9l-0.6-1.3
	c-1.5-9.7,7.1-12,8.2-12.2c3.4-1.1,1-3.4,1-3.5l0,0c-55.8-55.2-91.8-67.1-94.8-68c-4.8-0.4-3.9,0.6-3.9,0.6l0.5,1.5
	c0,0,0-0.4,0.1-0.1c0.2,0.5,3.9,4.3,3.9,4.3c0.8,0.9,1.7,1.8-0.1,3.5C96.9,125.2,96.1,124.3,95.2,123.4L95.2,123.4L95.2,123.4z
	 M89.8,115.7L89.8,115.7L89.8,115.7L89.8,115.7L89.8,115.7z M154.3,196.8c0,0-3,11.2-5.8,16.1l-0.1,0.2c0,0-4.9,6.7,0.7,3.6l0.3-0.1
	c0,0,8.1-3.2,13.3-3.8c1.2-0.2,2.4-0.3,2.7,2.1c0.3,2.4-0.9,2.6-2.1,2.8c-4.3,0.5-11.1,3.1-12.1,3.5c-23.9,13-8.3-9-7-10.8
	c2.5-4.3,5.2-14.7,5.2-14.7c0.3-1.2,0.6-2.4,3-1.8C155,194.4,154.6,195.6,154.3,196.8L154.3,196.8L154.3,196.8z M218.9,66.9
	c5.7,1.6,29.3,10.1,29.3,44.5l0,0c0,0.1,1.3,52-47.2,52h0.2c-0.1,0-22.3,2-33.3-23.7l-0.1-0.2c0,0-5.6-17.8-15.1-17.7l-0.6-0.1
	c0,0-2.7-0.7-6.7,2.6c-1,0.8-1.9,1.6-3.5-0.4c-1.6-1.9-0.6-2.7,0.4-3.5c5-4.1,9.4-3.8,10.5-3.6c12.2,0.1,18.8,18.9,19.5,21
	c9.6,22.4,28.3,20.7,28.4,20.7h0.2c43.4,0,42.3-46.9,42.3-47l0,0c0-27.8-16.7-36.6-23.6-39.1v14.9c12.8,9.3,13.1,19.9,13.1,20
	c0.1,1.2,0.1,2.5-2.3,2.6c-2.5,0.1-2.5-1.1-2.6-2.3l0,0c0,0-0.3-8.6-11.5-16.5c-1-0.2-1.4-0.6-1.5-1.2c-0.4-0.4-0.5-1-0.1-1.9V70
	c-0.1-0.3-0.1-0.7,0-1.3c0-0.8,0.1-1.5,0.8-1.9c0.5-0.6,1.2-0.5,1.9-0.3C218.1,66.5,218.5,66.7,218.9,66.9L218.9,66.9z M172.4,137.9
	L172.4,137.9L172.4,137.9L172.4,137.9L172.4,137.9z M99.3,135.7c0,0-7.1,11.8-7.8,13.6l-0.3,0.6c0,0-2,2.6,0.6,3l0.6,0.2
	c0,0,1.1,0.6,3,0.6c1.2,0,2.5,0,2.5,2.5s-1.2,2.5-2.5,2.5c-2.3,0-4.1-0.6-4.9-0.9c-9.1-1.9-4.5-9.1-3.4-10.6c1.4-2.9,8-14,8-14
	c0.6-1.1,1.3-2.1,3.4-0.8C100.6,133.6,100,134.6,99.3,135.7L99.3,135.7L99.3,135.7z M90.2,157.6L90.2,157.6L90.2,157.6L90.2,157.6
	L90.2,157.6z M145.8,165.6L145.8,165.6L145.8,165.6L145.8,165.6L145.8,165.6z M143.5,161L143.5,161L143.5,161L143.5,161L143.5,161z
	 M109.3,102.1c0,0,8.7,0,29.2-13.3h-0.1c0.1,0,24.2-17.1,43.5-17.3h0.1c0,0,13.7,0.3,22.8,6.6c1,0.7,2,1.4,0.6,3.4s-2.4,1.3-3.4,0.6
	c-7.7-5.3-19.5-5.7-20.1-5.7c-17.7,0.2-40.6,16.3-40.7,16.4h-0.1c-21.7,14.1-31.8,14.1-31.9,14.1c-1.2,0-2.5,0-2.5-2.4
	C106.8,102.2,108.1,102.2,109.3,102.1L109.3,102.1L109.3,102.1z M205.8,202.9c0,0-5.9,0.4-6,5.7c0,0.4,0.4,4.4,5.8,4.4l0.7,0.1
	c0,0,3.6,1.2,6.1-5.5c0.4-1.2,0.9-2.3,3.2-1.5c2.3,0.9,1.9,2,1.4,3.2c-3.5,9.5-9.9,8.9-11.6,8.6c-10.2-0.1-10.4-9.1-10.4-9.2v-0.1
	c0-9.9,10.5-10.7,10.5-10.7c1.2-0.1,2.5-0.2,2.7,2.2C208.3,202.7,207.1,202.8,205.8,202.9L205.8,202.9L205.8,202.9z M113.5,239.4
	c0,0,14.8,2.4,16.6,22.2c0.1,1.2,0.2,2.5-2.2,2.7c-2.4,0.2-2.6-1-2.7-2.2c-1.5-16-12.5-17.7-12.6-17.7c-1.2-0.2-2.4-0.4-2-2.8
	C111,238.9,112.3,239.2,113.5,239.4L113.5,239.4L113.5,239.4z"/>
</svg>
