<?xml version="1.0" encoding="UTF-8"?>
<svg id="_Слой_2" data-name="Слой 2" xmlns="http://www.w3.org/2000/svg" viewBox="0 0 250.52 294.87">
  <defs>
    <style>
      .cls-1 {
        fill: #00588d;
      }

      .cls-2 {
        fill: #fff;
      }

      .cls-3 {
        fill: #cf2e1f;
      }

      .cls-4 {
        fill: #dc281f;
      }

      .cls-5 {
        fill: #e40520;
      }

      .cls-6 {
        fill: #ca0538;
      }

      .cls-7 {
        fill: #a2863f;
      }
    </style>
  </defs>
  <g id="Layer_1" data-name="Layer 1">
    <g>
      <path class="cls-2" d="M125.26,1.15c39.02,0,76.58,8.06,112.05,23.9,7.34,29.95,11.99,61.05,12.11,81.49v1.15c0,20.16-2.94,40.03-8.69,58.75-5.63,18.43-13.94,35.7-24.83,51.83-10.76,15.55-23.98,29.95-39.27,42.62-16.27,13.53-35.47,25.92-51.38,32.83-15.78-6.91-34.98-19.3-51.25-32.83-15.29-12.67-28.5-27.07-39.27-42.62-10.89-16.13-19.2-33.4-24.83-51.83C4.16,147.72,1.22,127.85,1.22,107.7v-1.15c.12-20.44,4.77-51.54,12.11-81.49C48.81,9.22,86.36,1.15,125.26,1.15"/>
      <path class="cls-3" d="M125.26,116.34c8.69,0,16.76,2.3,23.85,6.33h72.29c.12-5.18,0-10.94-.12-16.13-.37-22.17-6.85-59.61-13.21-85.52-25.57-8.35-53.09-13.25-82.69-13.25"/>
      <path class="cls-4" d="M125.38,8.06c-29.11,0-55.78,4.32-82.81,12.96-6.61,26.78-12.11,62.49-12.97,79.48-1.22,25.05,.61,43.19,5.63,62.78,2.81,11.23,6.48,21.59,11.25,32.25,5.14-2.59,10.52-6.05,15.9-10.08,5.63-4.32,10.52-9.5,14.56-14.69-.12-2.01-.24-3.75-.24-5.76,0-2.88,.24-5.76,.73-8.35-10.03,.29-15.66,.29-20.18,.29-5.38,0-10.28-3.74-12.6-9.5h-2.57c-1.83,0-5.14-1.44-5.14-7.78s3.3-7.49,5.14-7.49h2.57c2.32-5.76,7.22-9.5,12.6-9.5h44.4c6.97-4.03,15.05-6.33,23.73-6.33"/>
      <path class="cls-1" d="M81.34,251.39c-13.7-13.54-24.95-28.51-33.88-44.63-9.05-16.12-15.54-34.27-19.33-52.41-3.91-18.72-5.14-37.72-3.79-57.59,1.22-18.72,6.12-47.22,12.23-73.72-5.75,2.02-11.62,4.32-17.37,6.91-6.48,25.92-11.01,58.74-11.13,76.6,0,20.16,2.81,39.45,8.32,57.59,5.87,19.29,13.7,34.84,24.1,50.11,10.28,15.26,23.12,29.08,37.92,41.46,13.83,11.52,29.72,21.6,46.85,30.24,0,0,0-.29,0,0-16.39-10.08-31.19-21.6-43.91-34.56"/>
      <path class="cls-1" d="M169.29,251.39c13.7-13.54,24.95-28.51,33.88-44.63,9.05-16.12,15.54-34.27,19.33-52.41,3.91-18.72,5.14-37.72,3.79-57.59-1.22-18.72-6.24-47.51-12.35-73.72,5.87,2.02,11.74,4.32,17.49,6.91,6.48,25.92,11.01,58.74,11.01,76.6,.12,20.16-2.69,39.45-8.32,57.59-5.38,17.85-13.45,34.56-23.97,50.11-10.4,15.26-23.12,29.08-37.92,41.46-13.82,11.52-29.72,21.6-46.97,30.24h0c16.39-10.08,31.32-21.6,44.04-34.56"/>
      <path class="cls-7" d="M125.26,118.93c-25.57,0-46.24,20.73-46.24,46.07s20.67,46.36,46.24,46.36,46.24-20.73,46.24-46.36-20.67-46.07-46.24-46.07"/>
      <path class="cls-4" d="M125.26,213.66c-15.66,0-29.6-7.49-38.53-19.01-10.89,6.34-22.26,11.23-33.27,14.69,8.68,14.97,19.33,29.09,32.29,42.04,11.62,11.81,24.83,22.46,39.51,31.96"/>
      <path class="cls-7" d="M57.25,154.63c-5.02,0-9.3-4.03-11.01-9.5h-4.16c-1.1,0-2.69-1.44-2.69-5.18,0-4.03,1.59-5.47,2.69-5.47h4.16c1.71-5.47,6-9.5,11.01-9.5h40.37c-9.79,6.91-17,16.99-19.7,29.08-9.05,.29-15.9,.58-20.67,.58"/>
      <path class="cls-7" d="M238.28,23.9C203.91,8.64,166.12,0,125.26,0S46.72,8.64,12.35,23.9C4.4,56.15,.12,87.25,0,106.54c0,20.73,2.81,40.89,8.68,60.18,5.75,18.43,14.19,35.99,25.08,51.83,10.77,15.84,24.1,30.52,39.51,43.19,14.43,12.09,34.13,25.34,51.99,33.12,17.98-7.77,37.55-21.02,52.11-33.12,15.41-12.67,28.75-27.35,39.51-43.19,10.89-15.84,19.33-33.4,25.08-51.83,5.75-19.29,8.68-39.45,8.56-60.18,0-19.29-4.28-50.39-12.23-82.64Zm-28.13,190.34c-10.28,14.97-23.12,29.08-37.92,41.46-13.82,11.52-29.72,21.6-46.97,29.95-17.12-8.35-33.02-18.43-46.85-29.95-14.8-12.38-27.64-26.49-37.92-41.46-.86-1.15-1.71-2.59-2.45-3.75,15.05-2.59,31.8-8.93,47.22-17.85-3.79-5.47-6.61-11.8-7.83-18.72-3.91,4.9-8.44,9.5-13.7,13.54-8.56,6.33-18.84,12.67-29.97,16.12-7.34-12.38-13.09-25.63-17.37-39.45-5.5-18.14-8.32-37.43-8.32-57.59,.12-17.85,4.65-50.68,11.13-76.6C52.72,15.26,88.44,8.06,125.26,8.06s72.66,7.2,106.18,21.88c6.48,25.92,11.01,58.74,11.13,76.6,0,6.33-.24,12.38-.86,18.43h-88.93c11.01,7.78,18.84,19.58,20.67,33.4l17-4.03c3.79-.87,5.26-3.46,5.75-5.76l42.57-2.88c-1.22,6.34-2.81,12.38-4.53,18.43-5.5,17.85-13.58,34.56-24.1,50.11"/>
      <path class="cls-2" d="M128.32,177.96v24.76c11.62-.86,21.77-7.2,28.13-16.12l-21.65-12.38c-1.71,1.72-3.92,3.17-6.48,3.74"/>
      <path class="cls-2" d="M122.2,127.28c-11.62,1.15-21.77,7.2-28.01,16.41l21.53,12.38c1.71-2.01,3.91-3.17,6.48-3.74"/>
      <path class="cls-2" d="M125.26,158.38c-3.67,0-6.73,2.88-6.73,6.62s3.06,6.91,6.73,6.91,6.73-3.17,6.73-6.91-2.94-6.62-6.73-6.62"/>
      <path class="cls-2" d="M128.32,127.28v25.05c2.57,.58,4.89,1.73,6.61,3.74l21.53-12.38c-6.36-9.21-16.51-15.26-28.13-16.41"/>
      <path class="cls-2" d="M122.2,177.96c-2.08-.58-3.91-1.44-5.51-2.88-.24-.29-.61-.58-.98-.86l-21.53,12.38c.49,.87,.98,1.44,1.59,2.02,6.24,8.06,15.78,13.25,26.42,14.11"/>
      <path class="cls-2" d="M137.86,168.74l21.65,12.67c4.16-8.92,5.38-21.31,0-32.54l-21.53,12.38c.61,2.3,.74,4.89-.12,7.49"/>
      <path class="cls-7" d="M97.74,142.83l17.61,10.08c1.35-.86,2.81-1.73,4.41-2.59v-20.16c-8.69,1.44-16.51,5.76-22.02,12.67"/>
      <path class="cls-7" d="M130.76,130.16v20.44c1.59,.58,3.06,1.44,4.4,2.3l17.62-10.08c-5.5-6.91-13.33-11.23-22.02-12.67"/>
      <path class="cls-7" d="M160.49,161.54c-.25-3.17-.98-6.33-2.2-9.21l-17.61,10.08c.12,.87,.24,1.73,.24,2.59v1.15c4.89-1.44,10.15-2.59,15.54-3.74,1.22-.29,2.69-.58,4.04-.87"/>
      <path class="cls-3" d="M125.26,283.35c14.68-9.5,28.01-20.16,39.63-31.96,13.7-13.54,24.95-28.79,33.76-44.92,8.93-16.42,15.29-34.56,19.08-52.7,.24-1.44,.49-2.88,.73-4.32l-20.43,1.44c-1.1,2.88-3.55,5.18-6.97,5.76h0c-.12,0-7.58,2.01-17.37,4.32,.12,1.15,.24,2.59,.24,4.03,0,27.07-21.77,48.66-48.68,48.66"/>
      <path class="cls-7" d="M129.54,165c0-2.3-1.84-4.32-4.28-4.32s-4.28,2.01-4.28,4.32c0,2.59,1.96,4.32,4.28,4.32,2.45,0,4.28-1.72,4.28-4.32"/>
      <path class="cls-6" d="M130.76,200.13c8.68-1.44,16.51-6.05,22.02-12.67l-17.62-10.37c-1.35,1.15-2.81,2.02-4.4,2.59v20.45"/>
      <path class="cls-5" d="M97.74,187.46l17.61-10.37c1.35,1.15,2.81,2.02,4.41,2.59v20.45c-8.69-1.44-16.51-6.05-22.02-12.67"/>
      <path class="cls-6" d="M160.73,165c0-.29,0-.86-.12-1.15-1.22,0-2.57,.29-3.79,.58-5.38,1.15-10.52,2.59-15.17,3.74l16.63,9.79c1.59-4.03,2.45-8.35,2.45-12.96"/>
      <path class="cls-2" d="M91.01,148.87c-4.89,10.65-4.65,22.46,.12,32.54l21.53-12.67c-.73-2.3-.73-4.9,0-7.49"/>
      <path class="cls-7" d="M92.35,177.96l17.49-10.37c-.25-1.73-.25-3.46,0-5.18l-17.61-10.08c-3.18,8.35-3.18,17.28,.12,25.63"/>
      <path class="cls-7" d="M142.87,85.81c0,1.15-.24,4.32-.36,5.18h14.07c-.86-3.74-1.22-8.93-1.35-12.96,0,.29-.25-8.06-.25-8.06,0-.58,.25-1.44,.61-1.73,.49-.58,.98-.58,1.59-.58,.61-.29,1.71-.29,1.84,2.02l.36,8.64c.12,4.03,.12,9.5-.36,12.67h13.58c-.12-1.15-.49-4.03-.61-4.89,1.71,3.74,5.38,5.76,10.28,5.76,2.94,0,5.14-1.15,6.85-2.3,0,.29,.74,1.44,.74,1.44h25.2c-1.1-3.74-1.83-8.93-2.2-12.96l-3.55-28.22-12.97-2.3c1.1,3.74,1.83,9.22,2.32,12.96l1.96,18.14c.37,3.17,.61,6.62,.61,10.37v.29l-.49-1.15c-.98-2.3-1.47-5.19-1.83-9.5l-.49-5.76c-.74-9.21-5.75-13.25-16.76-13.25-1.84,0-6.48,.29-9.29,1.15l.73,10.37,2.94-1.73c2.45-1.44,4.28-2.01,6.48-2.01,1.71,0,2.81,.58,3.3,1.73-2.08,.29-4.4,.86-6.97,2.02-3.91,1.73-6.36,4.32-7.46,7.2v-.29l-.37-9.5c-.25-6.05-4.16-10.08-10.15-10.08-2.69,0-5.14,.86-7.34,2.3-.12-.29-.25-.58-.37-.86l-.49-1.15-11.25-.58c.49,2.02,1.22,7.78,1.35,9.79-.61-2.88-2.2-6.05-5.14-8.35-2.33-1.44-5.26-2.3-8.32-2.3-4.16,0-8.44,1.73-11.25,4.61-2.94,2.88-4.4,6.91-4.53,11.52-1.1-1.15-2.57-2.3-4.28-2.88l-5.14-2.59h-.25c-1.22-.58-1.35-.86-1.35-1.15,.12-.58,1.35-1.15,2.94-1.15,2.2,0,5.26,1.15,7.71,2.59l.24-9.21c-1.83-.86-4.4-1.44-8.07-1.44-1.96,0-5.63,.29-8.81,2.02h0c-.86,.58-1.59,1.15-2.32,1.73l.12-2.59c-2.94-.58-6.12-.58-10.03,3.17-.12-.29-.37-1.73-.61-2.3l-12.11,.58c.86,3.45,.98,8.35,.73,12.67l-.24,4.61v.58c-.12,2.3-.25,4.89-.49,7.2-.98-3.17-2.08-7.49-2.94-10.94l-6-27.07-17.12,2.59c.12,.29,.37,1.15,.49,2.02,.12,1.15,.12,3.45-1.47,8.35-2.81,7.78-6.73,19.58-10.52,27.93-.49,1.15-1.47,2.88-1.47,2.88h13.33c.24-2.01,1.1-5.47,1.96-8.06,1.83,0,6.61,0,8.81-.29,.49,2.02,.98,4.61,1.1,6.34l.24,2.01h26.67c-.61-4.32-.37-10.08-.12-13.25,.25-3.74,.98-6.34,2.57-7.78,1.22-1.44,2.57-1.73,3.55-1.73-.12,5.18,3.18,7.49,6.12,8.93l5.26,2.59c1.84,1.15,1.84,1.44,1.84,2.02-.12,.86-1.59,1.15-2.94,1.15-2.81,0-6.61-1.73-10.76-6.34l-.24,12.1c3.3,1.73,7.46,2.59,11.13,2.59,6.12,0,12.6-2.88,14.31-8.35,3.06,5.76,9.05,8.35,14.92,8.35,5.26,0,9.17-1.73,12.6-5.47Zm-91.86-11.81c.74-2.02,1.35-3.74,2.45-6.91,.73,3.17,1.1,5.18,1.47,6.62-1.47,.29-2.2,.29-3.92,.29Zm74.86-3.17h0c0-4.03,1.47-5.76,2.94-5.76,.49,0,1.59-.29,2.08,1.73,.25,.86,.37,1.44,.37,1.73,0,1.15-.61,1.44-1.35,1.44v.29s-2.08,.58-4.04,1.44v-.86Zm13.94,8.35c-2.57,2.3-4.4,3.74-7.46,3.74-2.45-.29-3.91-1.73-4.77-3.74,2.57-.86,12.48-4.61,15.29-5.76,0,2.3,.12,4.9,.12,4.9h0v4.89h0l-3.18-4.03Zm45.62,4.03c-2.32,0-2.81-1.73-2.94-2.88,.12-1.15,.49-2.88,4.16-4.03,.12,1.44,.25,2.59,.25,2.59v1.15c.12,.87,.12,1.73,.24,2.59-.49,.29-1.1,.29-1.71,.58"/>
      <path class="cls-2" d="M111.31,60.47c-1.22-.29-3.06-.86-5.99-.86-2.33,0-5.38,.58-7.71,1.73-2.69,1.73-4.65,4.03-4.77,6.62-.25,4.03,1.83,5.76,4.89,7.2,2.08,1.15,4.04,2.3,5.26,2.88,1.59,.86,3.06,1.73,2.93,3.74-.12,2.01-1.96,3.46-5.01,3.46-2.57,0-6.24-1.73-8.81-4.03l-.12,6.05c2.2,1.15,5.75,1.73,9.05,1.73,5.63,0,12.6-2.59,12.72-8.93,.12-4.89-3.3-6.62-5.38-7.77-2.08-.86-4.16-2.02-5.14-2.3-.98-.58-2.94-1.15-2.81-3.45,.24-2.02,2.57-2.88,5.02-2.88,2.08,0,4.16,.58,5.75,1.44"/>
      <path class="cls-2" d="M61.04,49.82l-12.97,1.73c.25,1.73-.24,5.18-1.59,9.21-2.69,7.77-7.09,20.73-10.52,28.22h8.07c.49-2.59,1.1-4.9,2.32-8.06l11.99-.29c.49,2.3,1.35,6.05,1.47,8.35h10.89c-1.35-3.17-3.06-9.79-4.16-14.4l-5.5-24.77Zm-12.97,26.2l5.87-16.99,3.55,16.7"/>
      <path class="cls-2" d="M92.11,60.47l-.24,5.76c-1.96-.29-4.4,.29-6.36,2.3-1.71,1.73-2.81,4.32-3.06,8.93-.25,3.74-.37,8.06-.12,11.52h-9.18c.61-3.46,.86-7.49,.98-11.23l.25-4.61c.24-3.75,.24-7.49-.37-10.94l8.07-.29c.37,1.15,.61,3.17,.49,5.18,3.55-5.47,6.97-6.62,9.54-6.62"/>
      <path class="cls-2" d="M207.46,51.55l-8.32-1.44c.86,3.74,1.1,6.33,1.59,10.08l1.96,18.14c.37,3.74,.73,7.2,.61,10.66h9.05c-.85-3.46-1.22-6.91-1.59-10.66"/>
      <path class="cls-2" d="M170.15,88.98c-.49-3.46-.73-6.91-.86-10.66l-.37-9.5c-.25-5.18-3.18-8.06-8.08-8.06-2.69,0-5.87,.86-8.56,4.32-.12-.87-.49-3.17-.98-4.32l-7.34-.29c.61,3.46,.86,6.91,.98,10.65l.12,7.2c.12,3.74,0,7.2-.24,10.66h9.17c-.49-3.46-.74-6.91-.86-10.66l-.24-8.06c-.12-2.88,2.08-4.9,4.28-4.9,2.57,0,3.79,1.73,3.91,4.32l.37,8.64c.12,3.74,.12,7.2-.12,10.66"/>
      <path class="cls-2" d="M198.77,88.98c-1.1-2.88-1.71-6.34-1.96-10.08l-.49-5.76c-.49-6.91-3.42-11.52-14.68-11.52-1.96,0-4.77,.29-7.09,.86l.37,5.18c2.33-1.44,4.65-2.59,7.58-2.59s5.63,1.44,5.87,5.76c-2.94,.29-5.63,.86-8.69,2.3-3.42,1.44-6.97,4.32-6.61,8.93,.37,5.18,4.28,7.49,9.18,7.49,3.79,0,6.36-1.73,7.83-3.45,.25,1.15,.61,2.02,.98,2.88h7.71Zm-13.33-3.74c-2.69,0-4.89-1.44-5.01-4.61,0-3.17,1.96-5.76,8.19-6.62l.37,4.9c.12,1.73,.12,2.88,.37,4.32-.86,1.15-2.32,1.73-3.92,2.02"/>
      <path class="cls-2" d="M136.39,61.34c-2.08-1.44-4.53-2.02-7.09-2.02-6,0-13.95,4.32-13.7,15.26,.12,11.23,8.68,14.69,14.68,14.69,5.26,0,8.44-2.02,11.01-4.61l-1.84-2.59c-1.35,1.15-3.55,2.88-7.09,2.88-3.79-.29-6.24-2.88-7.58-6.91l16.64-6.05c-.49-5.47-2.45-8.64-5.01-10.65Zm-5.75,10.65l-6.61,2.59c-.12-1.15-.25-2.3-.25-3.74,0-6.62,3.67-7.77,4.89-7.77,1.96-.29,3.67,.86,4.28,3.17,.73,2.59,.49,4.89-2.32,5.76"/>
    </g>
  </g>
</svg>