<?xml version="1.0" encoding="utf-8"?>
<!-- Generator: Adobe Illustrator 27.0.0, SVG Export Plug-In . SVG Version: 6.00 Build 0)  -->
<svg version="1.1" id="_Слой_2" xmlns="http://www.w3.org/2000/svg" xmlns:xlink="http://www.w3.org/1999/xlink" x="0px"
	 y="0px" viewBox="0 0 283.5 283.5" style="enable-background:new 0 0 283.5 283.5;" xml:space="preserve">
<style type="text/css">
	.st0{fill:#FFFFFF;}
	.st1{fill:#4E1625;}
	.st2{fill:#FFB300;}
	.st3{display:none;}
	.st4{display:inline;fill:#FFFFFF;}
	.st5{font-family:'DINCondensed-Bold';}
	.st6{font-size:60px;}
</style>
<circle class="st0" cx="141.8" cy="141.8" r="141.7"/>
<g id="Layer_1">
	<g>
		<path class="st1" d="M141.7,3c37.1,0,71.9,14.4,98.1,40.6c26.2,26.2,40.6,61,40.6,98.1s-14.4,71.9-40.6,98.1
			c-26.2,26.2-61,40.6-98.1,40.6S69.8,266,43.6,239.8S3,178.8,3,141.7s14.4-71.9,40.6-98.1S104.7,3,141.7,3 M141.7,0
			C63.5,0,0,63.5,0,141.7s63.5,141.7,141.7,141.7S283.5,220,283.5,141.7S220,0,141.7,0L141.7,0z"/>
		<g>
			<circle class="st1" cx="141.7" cy="141.7" r="79.3"/>
			<path class="st1" d="M141.7,63.9c42.9,0,77.8,34.9,77.8,77.8s-34.9,77.8-77.8,77.8s-77.8-34.9-77.8-77.8S98.8,63.9,141.7,63.9
				 M141.7,60.9c-44.6,0-80.8,36.2-80.8,80.8s36.2,80.8,80.8,80.8s80.8-36.2,80.8-80.8S186.3,60.9,141.7,60.9L141.7,60.9L141.7,60.9
				z"/>
		</g>
		<path class="st2" d="M215.6,141.7c0,4.4-0.4,8.8-1.1,13c-0.4,2.4-1,4.8-1.6,7.1c-0.9,3-1.9,6-3.1,8.8c-1.1,2.5-2.2,4.9-3.6,7.2
			l0,0c-2.4,4.3-5.3,8.4-8.5,12.1c-2.1,2.5-4.4,4.8-6.9,6.9c-13,11.5-30.1,18.5-48.9,18.5c-1.6-6.3-3.1-12.5-4.4-18.8
			c-0.4-2.1-0.8-4.2-1.2-6.2c-0.6-3.1-1.1-6.1-1.5-9.2c-0.3-2.2-0.6-4.3-0.9-6.5c-0.4-2.8-0.7-5.7-0.9-8.5c-0.2-2.6-0.4-5.1-0.6-7.7
			c-2.1-30.6,0.9-60.8,9.5-90.6C182.6,68,215.6,101,215.6,141.7L215.6,141.7z"/>
		<g>
			<path class="st1" d="M141.7,273.5c-62,0-115.8-43.6-128.8-103.9h44.5c5.7,17.2,16.8,32.5,31.4,43.4
				c15.4,11.5,33.7,17.5,52.9,17.5s37.5-6.1,52.9-17.5c14.6-10.9,25.7-26.2,31.4-43.4h44.5C257.6,229.9,203.7,273.5,141.7,273.5
				L141.7,273.5z"/>
			<path class="st1" d="M268.6,171c-6.4,27.7-21.9,52.8-43.9,71c-23.3,19.3-52.8,29.9-83,29.9S82,261.3,58.7,242
				c-22-18.2-37.5-43.4-43.9-71h41.6c5.9,17,17,32.3,31.6,43.1c15.7,11.7,34.3,17.8,53.8,17.8s38.1-6.2,53.8-17.8
				c14.5-10.8,25.7-26.1,31.6-43.1H268.6 M272.4,168H225c-11.2,35.3-44.2,60.9-83.2,60.9s-72-25.6-83.2-60.9H11.1
				c12.2,61,66.1,107,130.6,107S260.2,229,272.4,168L272.4,168L272.4,168z"/>
		</g>
		<g>
			<path class="st1" d="M226,113.9c-5.7-17.2-16.8-32.5-31.4-43.4C179.2,59.1,160.9,53,141.7,53s-37.5,6.1-52.9,17.5
				c-14.6,10.9-25.7,26.2-31.4,43.4H12.9C25.9,53.6,79.8,10,141.7,10s115.8,43.6,128.8,103.9H226L226,113.9z"/>
			<path class="st1" d="M141.7,11.5c30.3,0,59.8,10.6,83,29.9c22,18.2,37.5,43.4,43.9,71H227c-5.9-17-17-32.3-31.6-43.1
				c-15.7-11.7-34.3-17.8-53.8-17.8s-38.1,6.2-53.8,17.8c-14.5,10.8-25.7,26.1-31.6,43.1H14.8c6.4-27.7,21.8-52.8,43.9-71
				C82,22.1,111.4,11.5,141.7,11.5 M141.7,8.5c-64.5,0-118.4,46-130.6,106.9h47.4c11.2-35.3,44.2-60.9,83.2-60.9s72,25.6,83.2,60.9
				h47.5C260.2,54.5,206.3,8.5,141.7,8.5L141.7,8.5z"/>
		</g>
		<path class="st1" d="M214.4,154.7c-0.4,2.4-1,4.8-1.6,7.1c-3.9,0.3-6.1,1.3-8.6,2.4c-3.2,1.5-6.8,3.2-13.7,3.2s-10.5-1.7-13.7-3.2
			c-2.9-1.3-5.4-2.5-10.8-2.5s-7.9,1.2-10.8,2.5c-3.2,1.5-6.8,3.2-13.7,3.2c-3.6,0-6.3-0.5-8.5-1.1c-0.2-2.6-0.4-5.1-0.6-7.7
			c2.3,1,4.8,1.8,9.1,1.8c5.4,0,7.9-1.2,10.8-2.5c3.2-1.5,6.8-3.2,13.7-3.2s10.5,1.7,13.7,3.2c2.9,1.4,5.4,2.5,10.8,2.5
			s7.9-1.2,10.8-2.5C204.4,156.4,207.9,154.8,214.4,154.7L214.4,154.7z"/>
		<path class="st1" d="M209.7,170.6c-1.1,2.5-2.2,4.9-3.6,7.2l0,0c-0.7,0.3-1.4,0.6-2.1,0.9c-3.1,1.5-6.7,3.1-13.5,3.1
			s-10.4-1.6-13.5-3.1c-3-1.4-5.5-2.6-11-2.6s-8,1.2-11,2.6c-3.1,1.5-6.7,3.1-13.5,3.1c-2.7,0-4.9-0.2-6.7-0.7
			c-0.3-2.2-0.6-4.3-0.9-6.5c1.9,0.7,4.2,1.1,7.6,1.1c5.5,0,8-1.2,11-2.6c3.2-1.4,6.7-3.1,13.5-3.1s10.4,1.7,13.5,3.1
			c3,1.4,5.5,2.6,11,2.6s8-1.2,11-2.6C203.7,172.3,206.1,171.2,209.7,170.6L209.7,170.6z"/>
		<path class="st1" d="M197.6,189.9c-2.1,2.5-4.4,4.8-6.9,6.9h-0.2c-6.8,0-10.4-1.6-13.5-3.1c-3-1.4-5.5-2.6-11-2.6s-8,1.2-11,2.6
			c-3.1,1.5-6.7,3.1-13.5,3.1c-1.5,0-2.8-0.1-4-0.2c-0.4-2.1-0.8-4.2-1.2-6.2c1.4,0.3,3.1,0.5,5.2,0.5c5.5,0,8-1.2,11-2.6
			c3.2-1.4,6.7-3.1,13.5-3.1s10.4,1.7,13.5,3.1c3,1.4,5.5,2.6,11,2.6C193.6,190.9,195.8,190.5,197.6,189.9L197.6,189.9z"/>
		<g>
			<path class="st1" d="M158.5,114.8c-0.2,0-0.4,0.5-0.6,1.7c-0.3,2-0.5,2.5-0.9,3.2c-0.7,1-1.5,1.4-4.1,1.8
				c-1.5,0.2-1.9,0.4-1.6,0.7c0.1,0.1,0.8,0.2,1.6,0.3c2.2,0.3,3,0.6,3.7,1.3c0.7,0.7,1,1.6,1.4,3.8c0.2,1.1,0.4,1.7,0.6,1.7
				c0.1,0,0.1,0,0.2-0.1c0.1-0.1,0.2-1,0.4-2c0.6-3.3,1.3-4,4.6-4.6c2.7-0.5,2.8-0.7,0.3-1.2c-3.7-0.6-4.4-1.3-4.9-5
				c-0.1-0.8-0.3-1.5-0.3-1.6C158.6,114.8,158.6,114.8,158.5,114.8L158.5,114.8L158.5,114.8z"/>
			<path class="st1" d="M176.4,105.6c-0.2,0-0.4,0.7-0.6,2.2c-0.3,2-0.8,3.1-1.7,3.6s-1.4,0.7-3.2,0.9c-2.2,0.3-2.3,0.7-0.3,1
				c2.9,0.4,3.9,0.9,4.6,2.2c0.4,0.8,0.8,2.8,0.9,3.7c0,0.4,0.2,0.8,0.5,0.8h0.1c0.1-0.1,0.3-0.9,0.4-1.8c0.6-3.7,1.4-4.4,5.8-5
				c0.7-0.1,0.8-0.2,0.8-0.4c0-0.2-0.1-0.3-0.1-0.3c-0.1,0-0.8-0.1-1.7-0.2c-3.6-0.6-4.3-1.3-4.9-4.9
				C176.8,106.2,176.6,105.6,176.4,105.6L176.4,105.6L176.4,105.6z"/>
			<path class="st1" d="M158.6,85.4c-0.4,0-0.4,0.1-0.7,1.9c-0.9,6-1.8,7-7.5,7.9c-1.1,0.2-2.1,0.4-2.2,0.4
				c-0.1,0.1-0.1,0.3-0.1,0.4c0.1,0.2,0.4,0.3,2.3,0.6c3.6,0.5,5,1.1,6,2.6c0.6,0.9,1,2.2,1.4,4.8c0.3,1.9,0.4,2.4,0.8,2.4
				c0.1,0,0.1-0.1,0.3-0.1c0.1-0.1,0.3-1.1,0.5-2.3c0.5-3.2,0.8-4.2,1.8-5.3c1-1.1,2.4-1.6,5.8-2.1c1.7-0.2,2-0.3,2.1-0.6
				c0.1-0.2,0-0.4-0.1-0.4c-0.1-0.1-1.1-0.3-2.2-0.4c-5.7-0.8-6.7-1.8-7.5-7.9C159.1,85.5,159,85.5,158.6,85.4L158.6,85.4
				L158.6,85.4z"/>
		</g>
		<g>
			<path class="st0" d="M84.2,60c0-9.5,0-19,0-28.5c4.5-2.7,6.8-4,11.5-6.1c0,1.5,0,2.3,0,3.8c-3.1,1.4-4.7,2.2-7.7,3.9
				c0,3.5,0,5.2,0,8.6c2.6-1.5,4-2.2,6.7-3.5V42c-2.7,1.3-4.1,2-6.7,3.5c0,4.9,0,7.3,0,12.2C86.5,58.6,85.7,59.1,84.2,60z"/>
			<path class="st0" d="M113.1,39.4v1.8c0,0.9-0.2,1.8-0.5,2.6c-0.3,0.9-0.8,1.7-1.4,2.5s-1.3,1.5-2.1,2.1c-0.8,0.6-1.6,1.1-2.5,1.4
				c-0.8,0.3-1.6,0.4-2.3,0.5c-0.8,0.1-1.5,0-2.1-0.3s-1.2-0.8-1.6-1.5s-0.6-1.7-0.6-3c0-6.3,0-9.4,0-15.7c0-0.9,0.2-1.9,0.5-2.8
				s0.8-1.8,1.3-2.6c0.6-0.8,1.3-1.5,2.1-2.2c0.8-0.6,1.7-1.1,2.7-1.4c1.9-0.6,3.5-0.5,4.7,0.4c0.6,0.4,1.1,1,1.4,1.8
				s0.5,1.6,0.5,2.6v1.6c-1.7,0.4-2.5,0.7-4.1,1.2c0-0.5,0-0.8,0-1.4c0-0.8-0.2-1.4-0.7-1.9c-0.4-0.4-1.1-0.5-1.8-0.3
				c-1,0.3-1.7,0.9-2,1.6c-0.3,0.8-0.5,1.6-0.5,2.6c0,5.8,0,8.7,0,14.6c0,0.8,0.2,1.5,0.5,1.9c0.4,0.4,1,0.5,1.9,0.2
				c0.3-0.1,0.6-0.2,0.9-0.4s0.6-0.4,0.9-0.7c0.2-0.3,0.4-0.7,0.6-1.1c0.2-0.4,0.2-0.9,0.2-1.5s0-0.8,0-1.4
				C110.6,40.1,111.5,39.8,113.1,39.4L113.1,39.4z"/>
			<path class="st0" d="M128.2,44.6c0-9.5,0-19,0-28.5c2.5-0.3,3.7-0.4,6.2-0.6c1.4-0.1,2.5,0.1,3.5,0.4c1,0.4,1.7,0.9,2.4,1.5
				s1.1,1.4,1.3,2.3s0.4,1.8,0.4,2.7v1c0,0.8-0.1,1.4-0.2,2c-0.1,0.5-0.3,1-0.6,1.4c-0.5,0.8-1.2,1.4-2.2,2c1,0.4,1.7,1.1,2.2,2
				s0.7,2.1,0.7,3.6V36c0,2.5-0.6,4.4-1.9,5.8s-3.3,2.1-6.1,2.3C131.7,44.2,130.5,44.3,128.2,44.6L128.2,44.6z M132.5,19.5
				c0,3.1,0,4.7,0,7.8c0.8-0.1,1.1-0.1,1.9-0.1c1.4-0.1,2.4-0.5,2.9-1.2s0.7-1.7,0.7-3s-0.3-2.2-0.8-2.9s-1.5-0.9-2.9-0.8
				C133.5,19.4,133.2,19.4,132.5,19.5L132.5,19.5z M132.5,30.9c0,3.7,0,5.5,0,9.1c0.7-0.1,1.1-0.1,1.8-0.1c0.9-0.1,1.5-0.2,2-0.5
				s0.9-0.6,1.1-1s0.4-1,0.5-1.5c0.1-0.6,0.1-1.2,0.1-1.9s0-1.3-0.1-1.9c-0.1-0.5-0.2-1-0.5-1.3c-0.3-0.4-0.6-0.6-1.1-0.8
				s-1.1-0.2-1.9-0.1C133.6,30.8,133.2,30.9,132.5,30.9L132.5,30.9z"/>
			<path class="st0" d="M145.6,43.8c2.2-9.3,4.4-18.7,6.6-28c1.4,0.1,2.1,0.2,3.5,0.4c2.2,9.8,4.4,19.7,6.6,29.5
				c-1.7-0.3-2.5-0.5-4.2-0.7c-0.5-2.5-0.7-3.8-1.2-6.3c-2.3-0.3-3.4-0.5-5.8-0.6c-0.5,2.4-0.8,3.6-1.2,6
				C148.2,43.9,147.3,43.9,145.6,43.8z M156.1,34.7c-0.8-4.2-1.2-6.4-2.1-10.6h-0.1c-0.8,4-1.2,6.1-2.1,10.1
				C153.5,34.4,154.4,34.5,156.1,34.7L156.1,34.7z"/>
			<path class="st0" d="M166.4,46.5c0-9.5,0-19,0-28.5c2.5,0.6,3.7,0.9,6.1,1.6c2.4,0.7,4.1,1.9,5.4,3.6c1.2,1.7,1.8,3.7,1.8,6.1
				v13.3c0,2.7-0.6,4.4-1.9,5.2s-3.1,0.8-5.6,0.1C169.8,47.3,168.7,47,166.4,46.5L166.4,46.5z M170.5,22.9c0,8.3,0,12.5,0,20.8
				c0.8,0.2,1.1,0.3,1.9,0.5c1.2,0.3,2,0.3,2.4-0.1s0.7-1.2,0.7-2.5V28c0-1.1-0.2-2.1-0.7-2.8s-1.3-1.3-2.5-1.7
				C171.6,23.2,171.3,23.1,170.5,22.9z"/>
			<path class="st0" d="M185.4,52.8c0-9.5,0-19,0-28.5c2.6,1.1,3.8,1.7,6.3,3c4.6,2.3,6.8,6.5,6.8,12.1c0,1.7-0.2,3-0.7,3.8
				s-1.3,1.3-2.6,1.4c1.6,6.1,2.5,9.2,4.1,15.4c-1.6-1-2.4-1.4-4-2.3c-1.4-5.7-2.1-8.5-3.6-14.1c-0.9-0.5-1.4-0.7-2.3-1.2
				c0,4.9,0,7.3,0,12.2C187.8,53.8,187,53.5,185.4,52.8L185.4,52.8z M189.3,29.9v8.9c0.9,0.4,1.3,0.7,2.2,1.1
				c0.7,0.3,1.2,0.5,1.6,0.5c0.4,0,0.7-0.1,0.9-0.3s0.3-0.7,0.4-1.2c0.1-0.5,0.1-1.1,0.1-1.8s0-1.4-0.1-2s-0.2-1.1-0.4-1.7
				c-0.5-1-1.4-1.9-2.7-2.5C190.5,30.5,190.1,30.3,189.3,29.9L189.3,29.9z"/>
		</g>
		<g class="st3">
			<path class="st4" d="M59.3,229.2l14.6-15.6l2.2,2.1l-6.2,6.7l2.8,2.6l6.2-6.7l2.2,2.1L66.5,236l-2.2-2.1l6.5-6.9l-2.8-2.6
				l-6.5,6.9C61.5,231.3,59.3,229.2,59.3,229.2z"/>
			<path class="st4" d="M81.8,227.3c0.5-0.7,1-1.2,1.7-1.6s1.3-0.6,1.9-0.7c0.6-0.1,1.3,0,1.9,0.1s1.2,0.4,1.7,0.8s1,0.8,1.3,1.3
				c0.4,0.5,0.7,1.1,0.8,1.7c0.2,0.6,0.2,1.3,0,2s-0.4,1.4-0.9,2.1l-6.4,9.3c-0.5,0.7-1.1,1.3-1.7,1.6c-0.6,0.4-1.2,0.6-1.9,0.6
				c-0.7,0.1-1.3,0-1.9-0.1c-0.6-0.2-1.2-0.4-1.7-0.8s-1-0.8-1.3-1.3c-0.4-0.5-0.6-1.1-0.8-1.7c-0.2-0.6-0.2-1.3-0.1-2
				s0.4-1.4,0.9-2.2L81.8,227.3L81.8,227.3z M77.9,238.4c-0.4,0.6-0.6,1.2-0.4,1.7c0.1,0.5,0.4,0.9,0.9,1.2s1,0.4,1.5,0.4
				s1-0.4,1.4-1l6.4-9.3c0.4-0.6,0.6-1.2,0.4-1.7s-0.4-0.9-0.9-1.2s-1-0.4-1.5-0.4c-0.5,0.1-1,0.4-1.4,1L77.9,238.4L77.9,238.4z"/>
			<path class="st4" d="M87.8,250.5l9.2-19.3l4,1.9c0.9,0.4,1.6,0.9,2.1,1.5s0.8,1.2,1,1.8s0.2,1.3,0.1,2s-0.3,1.3-0.6,1.9l-0.3,0.7
				c-0.2,0.5-0.5,0.9-0.8,1.3s-0.5,0.6-0.8,0.8c-0.6,0.4-1.2,0.6-2,0.6c0.5,0.6,0.8,1.3,0.8,2s-0.2,1.6-0.7,2.7l-0.5,1.1
				c-0.8,1.7-1.8,2.8-3.1,3.3s-2.8,0.3-4.6-0.5L87.8,250.5L87.8,250.5z M94.8,242.8l-2.9,6.2l1.2,0.6c0.6,0.3,1,0.4,1.4,0.4
				s0.7-0.1,1-0.3s0.6-0.5,0.8-0.9c0.2-0.4,0.4-0.8,0.7-1.3c0.2-0.5,0.4-0.9,0.5-1.3c0.1-0.4,0.2-0.8,0.1-1.1s-0.2-0.6-0.5-0.9
				s-0.6-0.5-1.1-0.8L94.8,242.8L94.8,242.8z M98.5,235.1l-2.5,5.3l1.2,0.6c0.9,0.4,1.7,0.5,2.2,0.2s1-0.9,1.4-1.8
				c0.4-0.9,0.6-1.6,0.4-2.2c-0.2-0.6-0.7-1.1-1.6-1.6L98.5,235.1L98.5,235.1z"/>
			<path class="st4" d="M110,237.2l2.9,0.8l-2.3,8.4l1.1,0.3c1,0.3,1.8,0.6,2.4,1.1s1.1,1,1.3,1.6c0.3,0.7,0.4,1.3,0.4,2
				c-0.1,0.6-0.2,1.4-0.4,2.1l-0.3,1.2c-0.5,1.8-1.3,3.1-2.5,3.8c-1.1,0.7-2.7,0.8-4.6,0.3l-3.8-1L110,237.2L110,237.2z M109.9,249
				l-1.8,6.6l1,0.3c0.6,0.2,1.1,0.2,1.5,0.1s0.7-0.2,1-0.5s0.5-0.6,0.6-1c0.2-0.4,0.3-0.9,0.4-1.4s0.2-1,0.3-1.4
				c0-0.4,0-0.7-0.1-1.1c-0.1-0.3-0.3-0.6-0.6-0.8s-0.7-0.4-1.2-0.6L109.9,249L109.9,249z M115.2,260.7l5.6-20.6l2.9,0.8l-5.6,20.6
				L115.2,260.7z"/>
			<path class="st4" d="M133.4,263.4l1.2-13.8h-0.1l-5.2,13.5l-3.1-0.3l1.9-21.3l3.1,0.3l-1.2,13.8h0.1l5.2-13.5l3.1,0.3l-1.9,21.3
				L133.4,263.4L133.4,263.4z M132,237.6c0,0.1,0,0.3,0,0.4s0.1,0.4,0.1,0.5c0.1,0.2,0.2,0.3,0.4,0.5s0.5,0.2,0.9,0.3
				c0.4,0,0.7,0,0.9-0.1s0.4-0.2,0.5-0.4s0.2-0.3,0.2-0.5s0.1-0.3,0.1-0.4l2.5,0.2c-0.2,1.2-0.7,2-1.4,2.5s-1.7,0.7-3.1,0.6
				c-1.3-0.1-2.3-0.5-2.9-1.1c-0.6-0.6-0.9-1.5-0.9-2.7L132,237.6L132,237.6z"/>
			<path class="st4" d="M155.9,262.9l-2.5-18.3l-3.5,0.5l-0.4-2.9l10.1-1.4l0.4,2.9l-3.5,0.5l2.5,18.3L155.9,262.9L155.9,262.9z"/>
			<path class="st4" d="M165.7,261.4l-0.9-21.9l2.5-0.7l10.1,19.4l-3,0.8l-2.1-4.2l-4,1.1l0.3,4.7L165.7,261.4L165.7,261.4z
				 M171.1,252.2l-3.4-7.1h-0.1l0.5,7.9L171.1,252.2L171.1,252.2z"/>
			<path class="st4" d="M183.5,256l-8.5-19.6l4.2-1.8c0.8-0.3,1.5-0.5,2.2-0.6s1.4,0.1,2.1,0.4s1.3,0.8,1.8,1.4
				c0.5,0.6,1,1.5,1.5,2.7c0.4,0.9,0.7,1.6,0.8,2.3s0.2,1.3,0.1,2c-0.1,0.8-0.4,1.5-0.9,2.2s-1.2,1.2-2.3,1.6l-1.4,0.6l3.3,7.6
				L183.5,256L183.5,256z M178.9,237.9l2.9,6.7l1.4-0.6c0.6-0.2,1-0.5,1.2-0.8s0.4-0.6,0.4-1c0-0.3,0-0.7-0.2-1.1
				c-0.1-0.4-0.3-0.9-0.6-1.4c-0.2-0.5-0.4-0.9-0.6-1.3c-0.2-0.4-0.4-0.7-0.7-1s-0.6-0.4-1-0.4s-0.8,0.1-1.4,0.3L178.9,237.9
				L178.9,237.9z"/>
			<path class="st4" d="M198.2,227.3c-0.2,0.1-0.4,0.3-0.5,0.5s-0.2,0.4-0.2,0.6c0,0.2,0,0.5,0.1,0.7s0.2,0.5,0.3,0.8l1.1,2.2
				c0.1,0.2,0.2,0.4,0.3,0.7c0.1,0.2,0.1,0.4,0.2,0.6s0.1,0.4,0.1,0.6c0.1,0.3,0.1,0.6,0,0.9c0,0.3-0.1,0.5-0.2,0.7l8.5,7.5
				l-2.6,1.7L198,238l-1.4,0.9l5.1,8.1l-2.6,1.6l-11.4-18.1l2.6-1.6l4.9,7.8l0.9-0.5c0.3-0.2,0.5-0.4,0.7-0.6s0.2-0.4,0.2-0.6
				c0-0.2,0-0.4-0.1-0.7s-0.2-0.5-0.3-0.7l-1.1-2.3c0-0.1-0.1-0.2-0.2-0.5s-0.2-0.5-0.3-0.8s-0.2-0.6-0.2-1s-0.1-0.7-0.1-1.1
				c0.1-0.6,0.3-1.1,0.6-1.6s0.8-0.9,1.5-1.3L198.2,227.3L198.2,227.3z"/>
			<path class="st4" d="M218.9,234.2l-9.1-10.5h-0.1l6.1,13.1l-2.3,2l-14-16.1l2.3-2l9.1,10.5l0,0l-6.1-13.1l2.3-2l14,16.1
				L218.9,234.2L218.9,234.2z"/>
		</g>
		<text transform="matrix(1 0 0 1 10.76 162.71)" class="st1 st5 st6">20</text>
		<text transform="matrix(1 0 0 1 226.38 162.71)" class="st1 st5 st6">21</text>
	</g>
</g>
<g>
	<g>
		<path class="st0" d="M66.5,218.9c1.1,0.7,1.6,1.1,2.7,1.8c3.4,8.4,5.2,12.5,8.7,20.5c0,0,0,0,0.1,0c0-6.1,0-9.1,0-15.2
			c1.2,0.7,1.8,1,3,1.6c0,8.5,0,12.8,0,21.4c-1.1-0.6-1.7-0.9-2.8-1.5c-3.5-8-5.3-12.1-8.7-20.5c0,0,0,0-0.1,0c0,6.1,0,9.1,0,15.2
			c-1.1-0.8-1.7-1.1-2.8-1.9C66.5,231.7,66.5,227.5,66.5,218.9z"/>
		<path class="st0" d="M85.7,230.1c5.1,2.4,7.8,3.5,13.1,5.3c0,1.2,0,1.8,0,3c-4.1-1.4-6.1-2.2-10-3.9c0,2.4,0,3.7,0,6.1
			c3.4,1.5,5.1,2.2,8.5,3.4c0,1.1,0,1.7,0,2.9c-3.4-1.2-5.2-1.9-8.5-3.4c0,2.5,0,3.8,0,6.3c4,1.7,6,2.5,10,3.9c0,1.2,0,1.8,0,3
			c-5.3-1.8-7.9-2.9-13.1-5.3C85.7,243,85.7,238.7,85.7,230.1z"/>
		<path class="st0" d="M100.4,236c1.3,0.4,2,0.7,3.3,1.1c1.3,6.5,2,9.7,3.3,16.1c0,0,0,0,0.1,0c1.6-5.6,2.5-8.4,4.1-14.1
			c0.9,0.2,1.4,0.3,2.3,0.5c1.6,6.4,2.5,9.6,4.1,16c0,0,0,0,0.1,0c1.4-5.8,2-8.7,3.4-14.6c1.4,0.2,2.1,0.3,3.4,0.5
			c-2.2,8.3-3.2,12.4-5.4,20.5c-1.1-0.2-1.6-0.3-2.7-0.5c-1.6-6.5-2.4-9.7-4.1-16.3c0,0,0,0-0.1,0c-1.6,5.8-2.4,8.7-4.1,14.4
			c-1.1-0.3-1.6-0.4-2.7-0.7C103.6,249.9,102.5,245.3,100.4,236z"/>
		<path class="st0" d="M139.3,245.6c-2.4,0-3.6-0.1-5.9-0.2c0-1.1,0-1.7,0-2.9c6.1,0.4,9.1,0.4,15.2,0.1c0,1.1,0,1.7,0,2.9
			c-2.4,0.1-3.6,0.2-6,0.2c0,7.4,0,11.1,0,18.5c-1.3,0-2,0-3.3,0C139.3,256.7,139.3,253,139.3,245.6z"/>
		<path class="st0" d="M160.1,258c-3.3,0.5-4.9,0.6-8.2,0.9c-0.7,2-1,2.9-1.7,4.9c-1.4,0.1-2.1,0.1-3.5,0.2c3.2-8.7,4.7-13,7.9-21.9
			c1.1-0.1,1.6-0.2,2.7-0.3c3.1,8.2,4.7,12.2,7.8,20.2c-1.4,0.2-2.1,0.4-3.4,0.6C161.1,260.7,160.7,259.8,160.1,258z M159.1,255.3
			c-1.2-3.6-1.9-5.4-3.1-9c0,0,0,0-0.1,0c-1.3,3.9-1.9,5.8-3.1,9.6C155.4,255.7,156.6,255.6,159.1,255.3z"/>
		<path class="st0" d="M168.1,240c3.3-0.7,5-1.1,8.3-2c1.8-0.5,3.2-0.4,4.3,0.1c1.3,0.7,2.1,2,2.1,3.9c0,2.9-1.4,5.3-4,7.2
			c1.9,3.2,2.9,4.8,4.8,7.9c-1.5,0.5-2.3,0.7-3.8,1.2c-1.7-3.1-2.6-4.7-4.4-7.9c-1.6,0.4-2.5,0.6-4.1,1c0,3.7,0,5.5,0,9.1
			c-1.3,0.3-1.9,0.4-3.2,0.7C168.1,252.9,168.1,248.6,168.1,240z M171.3,248.7c2-0.5,2.9-0.7,4.9-1.2c1.2-0.3,2.1-1,2.7-1.8
			c0.6-0.8,0.9-1.7,0.9-2.6c0-1.1-0.4-1.8-1.1-2.1c-0.5-0.3-1.3-0.3-2.3,0c-2,0.6-3,0.8-5,1.3C171.3,244.8,171.3,246.1,171.3,248.7z
			"/>
		<path class="st0" d="M186.7,234.8c1.3-0.5,1.9-0.7,3.1-1.2c0,4.4,0,6.6,0,11c0,0,0,0,0.1,0c3.4-5.7,5.1-8.7,8.4-14.7
			c1.4-0.7,2.2-1,3.6-1.8c-2.5,4.7-3.8,7-6.4,11.5c2.9,3.9,4.3,5.8,7.1,9.5c-1.4,0.7-2.1,1.1-3.6,1.8c-2.2-3.1-3.3-4.7-5.5-7.9
			c-1.4,2.2-2.1,3.3-3.6,5.4c0,2.6,0,3.9,0,6.5c-1.2,0.5-1.9,0.7-3.1,1.2C186.7,247.6,186.7,243.3,186.7,234.8z"/>
		<path class="st0" d="M208.5,237c-2.3-3.6-3.5-5.5-5.9-9.3c1.3-0.7,1.9-1,3.2-1.7c1.7,2.9,2.5,4.3,4.1,7.1c1.6-4.8,2.4-7.2,4-12
			c1.2-0.8,1.8-1.2,3-2.1c-2.2,6.6-3.4,9.9-5.7,16.3c0,3.5,0,5.3,0,8.8c-1.1,0.7-1.6,1-2.7,1.7C208.5,242.2,208.5,240.5,208.5,237z"
			/>
	</g>
</g>
</svg>
