<?xml version="1.0" encoding="UTF-8"?>
<svg id="_Слой_2" data-name="Слой 2" xmlns="http://www.w3.org/2000/svg" viewBox="0 0 280 280">
  <defs>
    <style>
      .cls-1 {
        fill: #fff;
      }

      .cls-2 {
        fill: #1a316b;
      }
    </style>
  </defs>
  <g id="_Слой_1-2" data-name="Слой 1">
    <g>
      <g>
        <circle class="cls-2" cx="140" cy="140" r="137.5"/>
        <path class="cls-1" d="M140,5c36.06,0,69.96,14.04,95.46,39.54,25.5,25.5,39.54,59.4,39.54,95.46s-14.04,69.96-39.54,95.46c-25.5,25.5-59.4,39.54-95.46,39.54s-69.96-14.04-95.46-39.54C19.04,209.96,5,176.06,5,140S19.04,70.04,44.54,44.54C70.04,19.04,103.94,5,140,5m0-5C62.68,0,0,62.68,0,140s62.68,140,140,140,140-62.68,140-140S217.32,0,140,0h0Z"/>
      </g>
      <g>
        <circle class="cls-2" cx="140" cy="140" r="124.55" transform="translate(-42.92 215.77) rotate(-67.5)"/>
        <path class="cls-1" d="M140,17.95c32.6,0,63.25,12.7,86.3,35.75,23.05,23.05,35.75,53.7,35.75,86.3s-12.7,63.25-35.75,86.3c-23.05,23.05-53.7,35.75-86.3,35.75s-63.25-12.7-86.3-35.75c-23.05-23.05-35.75-53.7-35.75-86.3s12.7-63.25,35.75-86.3c23.05-23.05,53.7-35.75,86.3-35.75m0-5C69.83,12.95,12.95,69.83,12.95,140s56.88,127.05,127.05,127.05,127.05-56.88,127.05-127.05S210.17,12.95,140,12.95h0Z"/>
      </g>
      <g>
        <circle class="cls-2" cx="140" cy="140" r="74.98" transform="translate(-42.92 64.23) rotate(-22.5)"/>
        <path class="cls-1" d="M140,66.52c40.51,0,73.48,32.96,73.48,73.48s-32.96,73.48-73.48,73.48-73.48-32.96-73.48-73.48,32.96-73.48,73.48-73.48m0-3c-42.24,0-76.48,34.24-76.48,76.48s34.24,76.48,76.48,76.48,76.48-34.24,76.48-76.48-34.24-76.48-76.48-76.48h0Z"/>
      </g>
      <g>
        <path class="cls-1" d="M66.67,223.32l-4.62-4.18,17.22-19.02,8.17,7.4-2.46,2.72-5.25-4.76-4.4,4.86,1.7,1.54c1.45,1.31,2.18,2.71,2.2,4.19,.01,1.48-.67,2.98-2.05,4.5l-1.85,2.04c-1.38,1.52-2.8,2.35-4.28,2.48-1.47,.13-2.94-.46-4.39-1.77Zm.76-4.26l1.7,1.54c.99,.9,2.03,.75,3.11-.45l2.19-2.42c1.08-1.2,1.13-2.24,.14-3.14l-1.7-1.54-5.44,6Z"/>
        <path class="cls-1" d="M97.96,214.64l-10.3,23.84-3.36-2.12,1.91-4.3-4.09-2.58-3.06,3.57-3.06-1.93,17.08-19.56,4.88,3.08Zm-5.03,2.2l-8.53,9.96,3.21,2.03,5.32-11.99Z"/>
        <path class="cls-1" d="M101.78,244.77l.31-10.92-2.01,1.71-2.97,7.3-3.65-1.49,9.68-23.76,3.65,1.49-4.22,10.35,8.99-8.41,3.65,1.49-9.39,8.53-.29,15.24-3.75-1.53Z"/>
        <path class="cls-1" d="M115.13,226.37l.73-3.59,6.63,1.36-1.93,9.44,1.82,.37c3.84,.78,5.33,3.25,4.48,7.39l-.67,3.27c-.85,4.14-3.19,5.82-7.02,5.04l-5.68-1.16,4.4-21.55-2.77-.57Zm2.96,19.31l1.82,.37c.63,.13,1.14,.05,1.53-.25s.67-.87,.85-1.73l.77-3.77c.18-.86,.14-1.5-.1-1.93-.24-.42-.68-.7-1.31-.83l-1.82-.37-1.74,8.51Z"/>
        <path class="cls-1" d="M141.33,226.02l3.54,25.73-3.97-.07-.6-4.67-4.83-.09-.76,4.64-3.62-.07,4.48-25.58,5.76,.1Zm-3.16,4.49l-2.13,12.94,3.79,.07-1.66-13.01Z"/>
        <path class="cls-1" d="M162.26,223.02l9.89,24.01-3.86,.93-1.75-4.37-4.7,1.13,.43,4.69-3.52,.84-2.09-25.88,5.61-1.35Zm-1.93,5.14l1.18,13.06,3.69-.89-4.87-12.17Z"/>
        <path class="cls-1" d="M179.85,216.17l3.81,19.22c.54,2.48,.51,4.42-.08,5.8-.59,1.38-2.12,2.52-4.57,3.4l-1.44-3.29c1.01-.36,1.71-.79,2.1-1.28,.39-.49,.47-1.17,.24-2.03l-.06-.22-12.93-15.94,3.57-1.57,5.48,7.16,3.53,5.02-1.55-5.85-1.89-8.78,3.77-1.65Z"/>
        <path class="cls-1" d="M194.86,237.17l-2.06-3.03c.79-.54,1.23-1.02,1.33-1.45,.1-.43-.17-1.13-.79-2.1l-10.35-16.41,9.22-6.25,14.4,21.23-3.32,2.25-12.34-18.2-2.84,1.93,8.35,13.07c1.26,1.98,1.8,3.63,1.63,4.96-.17,1.33-1.07,2.54-2.71,3.66l-.5,.34Z"/>
        <path class="cls-1" d="M200.81,199.8l20.81,15.53-2.84,2.78-3.74-2.85-3.46,3.38,2.77,3.8-2.59,2.53-15.08-21.14,4.12-4.03Zm.98,5.4l7.72,10.6,2.71-2.65-10.43-7.95Z"/>
      </g>
      <polygon class="cls-2" points="66.52 108.81 76.46 109.33 72.94 124.85 62.38 123.92 66.52 108.81"/>
      <polygon class="cls-2" points="204.87 95.05 202.09 104.49 209.22 135.71 219.15 144.4 227.12 138.82 204.87 95.05"/>
      <path class="cls-1" d="M163.16,152.03c-.94,1.41-2.99,4.5-3.37,5.21-.38,.71-1.1,1.81,.97,2.04,2.07,.23,4.84,.61,5.95,.4,1.24-.23,2.15-.76,1.29-2.33-.63-1.15-2.99-4.76-3.32-5.21-.34-.45-.86-1.11-1.52-.11m-16.15,1.56c.25,1.39,1.67,1.54,3.05,1.55,1.81-2.36,2.75-4.51,3.24-5.96-.27-.6-.77-2.19-1.09-3.03-.32-.83-1.22-.46-2.14-.3-6.45,1.13-13.22-3.5-18.76-4.42-2.02-.33-1.59,.85-1.33,2.15,.26,1.3,1.95,7.64,3.33,10.91,1.1,2.61,3.36,3.53,6.01,3.99,3.27,.57,4.05,2.67,5.72,3.51,.68-.46,1.52-1.4,1.8-2.09-.33-1.08-1.33-1.13-2.56-1.56-2.14-.74-2.65-1.65-3.62-2.34-2.96-2.13-2.27-3.8-.66-3.67,1.61,.13,4.56,.13,5.5-.02,.77-.12,1.25-.11,1.51,1.29m78.9-19.86c.61,.87,.37,1.04,.43,1.99,.07,1.29-1.37,1.5-2.29,3.45-.51,1.07-.88,1.66-2.06,2.01-1.18,.35-4.16-.38-5.38-1.7-1.23-1.32-.28-3.01-.87-4.08-1.35-2.43-3.73-3.35-4.75-4.26-1.02-.91-2.17-1.25-3.62-1.61-4.01-1-4.53-3.12-5.97-5.15-1.44-2.02-2.31-1.66-2.81-1.54-6.24,1.53-13.62,4.36-17.03,6.45-5.75,3.53-8.15,7.58-9.28,13.93,2.81,4.56,1.6,5.97,1.51,7.79-.25,4.83,1.64,7.25,2.07,8.46,.44,1.21,.4,1.78-.21,2.46-.61,.68-1.42,1.97-2.4,2.88-.97,.9-1.91,.48-2.85,.24-4.94-1.26-8.96-1.79-13.8-1.99-3.27-.14-6.26,3.08-7.08,3.98-.83,.9,.41,1.46,1.08,1.91,1.88,1.24,2.66,2.76,4.27,3.48,1.62,.72,3.07,1.19,3.89,2.87,.59,1.21-.19,2.22-.78,2.72,.78,.45,2.56,1.85,3.39,2.6,.82,.75,1,2.32-.14,2.68-1.14,.36-3.12,.91-4.28,1.05-1.42,.17-1.57-.77-1.86-1.19-1.26-1.82-3.95-4.63-6.29-5.2-4.19-1.02-4.4-3.23-7.12-5.66-1.57-1.41-1.8-.23-3.73,1.32-3.72,2.99-3.87,.59-7.18,2.64-5.48,3.38-5.67,1.28-5.38,.4,.28-.88,.97-2.23,2.27-4.91,1.47-3.03,3.74-.44,5.66-2.15,1.48-1.32,2.58-3.15,2.58-3.15-2.69-2.82-3.36-1.39-8.62-1.62-4.89-.22-5.13-1.92-6.25-5.34-2.89-8.82-7.76-10.89-14.65-15.45-5.77-3.82-3.3-5.74-6.78-9.11-1.79-1.73-1.81-2.83-2.18-4.7-.36-1.87-.66-1.87-2.33-2.12-1.67-.25-8.11-.92-11.42-3.8-3.57-3.1-3.64-1.86-7.83-1.66-13.62,.65-21.94-8.86-22.19-13.81-.13-2.69,1.26-3.29,2.68-1.95,1.42,1.33,5.57,4.43,11.87,5.11,8.47,.91,11.5-1.35,14.1-.88,5.13,.92,4.89,3.19,7.76,7.57,1.66,2.53,11.78-1.83,13.18-2.54,6.41-3.28,13.61-7.59,25.6-5.72,13.9,2.17,24.24-.32,29.52-2.21,4.07-1.45,2.04-1.77,1.09-2.47-.94-.69-3.86-2.81-3.25-4.07,.9-1.88,11.33,3.77,12.95,1.76,.76-.95-7.15-4.87-5.27-7.15,1.86-2.28,4.38,2.39,10.81,4.18,3.66,1.02,4.93,1.47,5.41,.88,.96-1.19-.94-2.06,.02-2.91,1.27-1.14,4.78,1.47,7.84,2.83,3.23,1.44-.21-3.86,5.44,.01,4.19,2.87,7.02,3.25,10.13,3.28,2.02,.02,1.28-.65,1.56-2.12,.28-1.47,1.12-5.71,2.17-6.4,2.09-1.37,2.43,3.32,3.07,6.74,.64,3.42,2.1,5.84,5.87,9.2,2.91,2.59,2.54,4.35,3.31,6.91,1.31,4.36,2.58,9.45,6.38,14.86"/>
      <g>
        <path class="cls-1" d="M65.13,55.43c1.65-1.51,3.2-2.24,4.66-2.17,1.46,.07,2.92,.9,4.38,2.49l.67,.73c1.92,2.09,2.49,4.09,1.71,5.99,2.16-.84,4.29-.12,6.39,2.16l1.52,1.66c1.44,1.57,2.13,3.14,2.07,4.72-.07,1.58-.89,3.1-2.48,4.56l-5.02,4.62-18.71-20.33,4.82-4.44Zm2.59,2.98l-1.54,1.42,4.95,5.37,1.25-1.15c.64-.59,.97-1.19,.98-1.82,.02-.62-.33-1.32-1.04-2.1l-1.04-1.13c-1.28-1.39-2.47-1.59-3.55-.59Zm7.5,8.38l-1.42,1.31,5.75,6.24,1.83-1.68c.56-.52,.84-1.05,.83-1.6,0-.55-.35-1.19-1.02-1.93l-1.63-1.77c-.86-.93-1.61-1.43-2.26-1.49-.65-.06-1.34,.24-2.08,.92Z"/>
        <path class="cls-1" d="M93.44,55.97l3.5-2.14,1.91,3.13c1.17,1.91,1.59,3.66,1.27,5.26-.32,1.6-1.38,2.95-3.17,4.04-1.8,1.1-3.48,1.43-5.05,.98-1.57-.45-2.93-1.62-4.1-3.53l-7.5-12.26c-1.17-1.91-1.59-3.66-1.27-5.26,.32-1.6,1.38-2.95,3.17-4.04,1.8-1.1,3.48-1.43,5.04-.98,1.57,.44,2.94,1.62,4.1,3.53l1.4,2.29-3.5,2.14-1.54-2.53c-.95-1.55-2.06-1.93-3.34-1.15-1.28,.78-1.45,1.95-.5,3.5l7.78,12.73c.93,1.53,2.04,1.9,3.32,1.12,1.28-.78,1.45-1.94,.52-3.46l-2.06-3.37Z"/>
        <path class="cls-1" d="M104.85,31.91l13.68,24.41-4.11,1.51-2.43-4.45-5,1.84,1.03,4.96-3.74,1.38-5.38-27.46,5.96-2.19Zm-1.5,5.77l2.86,13.84,3.93-1.44-6.78-12.39Z"/>
        <path class="cls-1" d="M138.22,57.11l-4.26,.57-.49-3.68-9.2,1.22,.49,3.68-4.19,.56-1-7.51,1.68-.22c.52-.87,.72-2.1,.58-3.7l-1.67-20.13,12.05-1.6,3.12,23.56,1.88-.25,1,7.51Zm-13.5-25.84l1.34,16.11c.13,1.76-.12,3.03-.73,3.8l5.63-.75-2.6-19.64-3.64,.48Z"/>
        <path class="cls-1" d="M146.15,42.18l-1.22,11.78-4.32-.45,2.85-27.48,4.32,.45-1.22,11.78,4.91,.51,1.22-11.78,4.4,.46-2.85,27.48-4.4-.46,1.22-11.78-4.91-.51Z"/>
        <path class="cls-1" d="M169.52,45.85l-7.21,11.03-4.26-1.32,8.16-26.4,3.7,1.14-5.16,16.71,3.3-5.34,6.76-9.85,4.56,1.41-8.16,26.4-3.73-1.15,5.74-18.59-3.7,5.96Z"/>
        <path class="cls-1" d="M183.26,65.94l1.67-11.68-2.4,1.56-4.13,7.41-3.79-2.11,13.44-24.14,3.79,2.11-5.86,10.52,10.82-7.75,3.79,2.11-11.27,7.82-2.17,16.32-3.9-2.17Z"/>
        <path class="cls-1" d="M203.65,65.43l-11.05,7.18-3.37-2.92,18.12-20.86,2.92,2.54-11.47,13.2,5.18-3.55,10.16-6.28,3.61,3.13-18.12,20.86-2.95-2.56,12.76-14.69-5.79,3.96Z"/>
      </g>
      <g>
        <path class="cls-1" d="M36.59,136.05c0-.67-.11-1.13-.32-1.39-.21-.26-.53-.39-.94-.39-.84,0-1.27,.51-1.27,1.53v1.67h-2.31v-1.51c0-1.26,.31-2.22,.93-2.9,.62-.67,1.52-1.01,2.71-1.01s2.09,.34,2.71,1.01c.62,.67,.93,1.64,.93,2.9,0,.9-.17,1.76-.5,2.58-.33,.81-.74,1.51-1.22,2.09-.48,.58-.96,1.12-1.43,1.62-.47,.5-.88,1.01-1.21,1.52s-.5,1-.5,1.45c0,.15,0,.26,.02,.33h4.62v2.22h-7.06v-1.91c0-.84,.17-1.62,.5-2.32,.33-.7,.74-1.32,1.21-1.84s.95-1.04,1.42-1.55c.47-.51,.88-1.11,1.21-1.81s.5-1.46,.5-2.29Z"/>
        <path class="cls-1" d="M41.45,144.04v-8.08c0-1.24,.32-2.2,.95-2.89,.64-.68,1.55-1.02,2.75-1.02s2.12,.34,2.75,1.02c.64,.68,.95,1.64,.95,2.89v8.08c0,1.24-.32,2.21-.95,2.89-.64,.68-1.55,1.02-2.75,1.02s-2.12-.34-2.75-1.02c-.64-.68-.95-1.64-.95-2.89Zm2.44-8.24v8.39c0,1.02,.42,1.53,1.27,1.53s1.27-.51,1.27-1.53v-8.39c0-1.02-.42-1.53-1.27-1.53s-1.27,.51-1.27,1.53Z"/>
      </g>
      <g>
        <path class="cls-1" d="M237.64,136.05c0-.67-.11-1.13-.32-1.39s-.53-.39-.94-.39c-.84,0-1.27,.51-1.27,1.53v1.67h-2.31v-1.51c0-1.26,.31-2.22,.93-2.9,.62-.67,1.52-1.01,2.71-1.01s2.09,.34,2.71,1.01c.62,.67,.93,1.64,.93,2.9,0,.9-.17,1.76-.5,2.58-.33,.81-.74,1.51-1.22,2.09-.48,.58-.96,1.12-1.43,1.62-.47,.5-.88,1.01-1.21,1.52s-.5,1-.5,1.45c0,.15,0,.26,.02,.33h4.62v2.22h-7.06v-1.91c0-.84,.17-1.62,.5-2.32,.33-.7,.74-1.32,1.21-1.84,.47-.53,.95-1.04,1.42-1.55,.47-.51,.88-1.11,1.21-1.81s.5-1.46,.5-2.29Z"/>
        <path class="cls-1" d="M244.22,135.91v-1.73c.84,0,1.44-.16,1.8-.49,.35-.33,.65-.81,.89-1.47h1.64v15.54h-2.44v-11.86h-1.89Z"/>
      </g>
    </g>
  </g>
</svg>