<?xml version="1.0" encoding="UTF-8"?>
<svg id="_Слой_2" data-name="Слой 2" xmlns="http://www.w3.org/2000/svg" viewBox="0 0 283.46 283.46">
  <defs>
    <style>
      .cls-1 {
        fill: #060306;
      }

      .cls-2 {
        fill: #fff;
      }

      .cls-3 {
        fill: #e5a535;
      }

      .cls-4 {
        fill: #1d1d1b;
      }
    </style>
  </defs>
  <g id="_Слой_1-2" data-name="Слой 1">
    <g>
      <circle class="cls-1" cx="141.73" cy="141.73" r="141.73"/>
      <g>
        <circle class="cls-1" cx="141.73" cy="141.73" r="128.81"/>
        <path class="cls-3" d="M141.73,17.42c33.21,0,64.42,12.93,87.9,36.41,23.48,23.48,36.41,54.7,36.41,87.9s-12.93,64.42-36.41,87.9c-23.48,23.48-54.7,36.41-87.9,36.41s-64.42-12.93-87.9-36.41c-23.48-23.48-36.41-54.7-36.41-87.9S30.35,77.31,53.83,53.83c23.48-23.48,54.7-36.41,87.9-36.41m0-9C68.11,8.42,8.42,68.11,8.42,141.73s59.69,133.31,133.31,133.31,133.31-59.69,133.31-133.31S215.36,8.42,141.73,8.42h0Z"/>
      </g>
      <g>
        <circle class="cls-1" cx="141.73" cy="141.73" r="74.08" transform="translate(-20.87 258.93) rotate(-80.78)"/>
        <path class="cls-3" d="M141.73,72.15c38.37,0,69.58,31.22,69.58,69.58s-31.22,69.58-69.58,69.58-69.58-31.22-69.58-69.58,31.22-69.58,69.58-69.58m0-9c-43.4,0-78.58,35.18-78.58,78.58s35.18,78.58,78.58,78.58,78.58-35.18,78.58-78.58-35.18-78.58-78.58-78.58h0Z"/>
      </g>
      <g>
        <path class="cls-2" d="M130.82,234.19l-1.5,21-3.21-.75,.31-3.8-3.9-.91-1.41,3.54-2.92-.68,7.98-19.49,4.66,1.09Zm-3.33,3l-3.93,9.88,3.07,.72,.86-10.6Z"/>
        <path class="cls-2" d="M146.11,235.3l-3.9,15.41c-.47,2.01-1.17,3.42-2.1,4.23-.93,.81-2.48,1.12-4.63,.92l.07-2.91c.89,.08,1.56,0,2.03-.22,.46-.23,.76-.69,.9-1.4l.03-.18-4.11-16.15,3.24,.08,1.6,7.14,.89,4.9,.89-4.82,1.67-7.09,3.42,.09Z"/>
        <path class="cls-2" d="M150.16,255.81l-.55-2.92c.78-.15,1.28-.37,1.49-.66,.22-.29,.25-.9,.09-1.82l-2.4-15.54,9.08-1.72,3.87,20.43-3.27,.62-3.32-17.51-2.8,.53,1.99,12.41c.3,1.88,.16,3.29-.41,4.22-.57,.93-1.66,1.55-3.28,1.86l-.5,.09Z"/>
      </g>
      <g>
        <path class="cls-2" d="M96.05,59.58l-3.89,2.28-8.39-14.34,6.88-4.04,1.2,2.05-4.43,2.6,2.14,3.67,1.43-.84c1.22-.72,2.32-.95,3.31-.71,.98,.24,1.81,.94,2.48,2.08l.9,1.54c.67,1.15,.87,2.21,.6,3.18-.27,.98-1.02,1.82-2.24,2.54Zm-2.63-1.21l1.43-.84c.83-.49,.99-1.18,.46-2.09l-1.07-1.82c-.53-.9-1.21-1.11-2.04-.62l-1.43,.84,2.65,4.53Z"/>
        <path class="cls-2" d="M99.22,42l1.82,4.26,3.59-1.55,.94,2.18-3.59,1.55,1.92,4.47,4.52-1.95,.94,2.18-7.14,3.07-6.54-15.28,7.14-3.07,.94,2.18-4.52,1.95Z"/>
        <path class="cls-2" d="M124.66,48.69l-13.02,3.45-4.23-16.08,2.75-.73,3.62,13.78,2.38-.63-3.62-13.78,2.75-.73,3.62,13.78,2.38-.63-3.62-13.78,2.75-.73,4.23,16.08Z"/>
        <path class="cls-2" d="M125.01,34.33l-.27-2.36,8.74-1.03,.27,2.36-2.96,.35,1.63,14.16-2.83,.33-1.63-14.16-2.96,.35Z"/>
        <path class="cls-2" d="M142.88,39.72l-2.5,7.59-2.92-.04,.27-16.63,2.54,.03-.17,10.53,1.09-3.64,2.44-6.83,3.13,.04-.27,16.63-2.56-.04,.19-11.71-1.23,4.07Z"/>
        <path class="cls-2" d="M155.51,31.52c2.81,.34,4.05,1.86,3.72,4.59l-.26,2.15c-.33,2.72-1.9,3.91-4.71,3.58l-1.34-.16-.76,6.21-2.83-.34,2.02-16.52,4.16,.5Zm-.29,2.36l-1.34-.16-.68,5.59,1.34,.16c.46,.05,.82-.02,1.08-.23,.26-.21,.42-.6,.49-1.16l.3-2.48c.07-.57,0-.98-.2-1.24s-.54-.42-1-.48Z"/>
        <path class="cls-2" d="M167.82,33.74l-1,11.96,4.9-10.93,3.83,1-4.26,16.09-2.6-.68,3.05-11.54-4.95,11.04-2.6-.68,.96-11.92-3.01,11.38-2.4-.63,4.26-16.09,3.83,1Z"/>
        <path class="cls-2" d="M182.08,40.85l-1.8,4.28,3.6,1.51-.92,2.19-3.6-1.51-1.89,4.5,4.53,1.9-.92,2.19-7.16-2.99,6.45-15.35,7.16,2.99-.92,2.19-4.53-1.89Z"/>
        <path class="cls-2" d="M189.4,52.24l-3.56,6.18-2.47-1.42,8.32-14.43,2.47,1.42-3.56,6.18,2.8,1.61,3.56-6.18,2.51,1.44-8.31,14.43-2.51-1.44,3.56-6.18-2.8-1.61Z"/>
      </g>
      <g>
        <path class="cls-2" d="M227.31,172.86c6.8,5.12,7.54,9.9,2.94,17.58-7.35-1.45-8.34-7.04-2.94-17.58Z"/>
        <path class="cls-2" d="M52.62,141.39c-.38,3.4-.52,6.73-1.2,9.93-.31,1.43-1.43,3.15-2.67,3.8-1.74,.91-3.93,.93-5.93,1.34-.2-1.65-.72-3.33-.55-4.93,.69-6.43,3.56-9.29,10.35-10.14Z"/>
        <path class="cls-2" d="M210.47,220.49c6.06-7.42,10.46-8.45,17.36-4.23-7.27,9.89-13.52,9.77-17.36,4.23Z"/>
        <path class="cls-2" d="M240.7,156.4c-8.67,1.26-10.28-6.2-9.38-14.8,7.62-.02,11.37,7.26,9.38,14.8Z"/>
        <path class="cls-2" d="M43.53,83.14c6.31,5.45,6.71,10.47,1.58,17.7-8.03-1.95-7.09-9.52-1.58-17.7Z"/>
        <path class="cls-2" d="M198.68,210.58c3.91,6.64,2.09,11.65-6.04,16.61-6.2-5.29-2.37-11.67,6.04-16.61Z"/>
        <path class="cls-2" d="M53.14,84.76c-6.61-4.23-6.23-9.17,1.18-17.73,5.69,4.78,5.36,10.47-1.18,17.73Z"/>
        <path class="cls-2" d="M53.35,190.56c-4.94-7.29-4.11-12.83,2.64-17.49,5.81,9.65,4.24,16.25-2.64,17.49Z"/>
        <path class="cls-2" d="M54.08,124.26c-.62,11.58-4.21,15.63-11.77,13.52,.71-9.54,3.32-12.6,11.77-13.52Z"/>
        <path class="cls-2" d="M218.97,94.46c6.89-2.97,12.1-.11,15.47,8.48-6.32,5.6-12.07,.1-15.47-8.48Z"/>
        <path class="cls-2" d="M28.18,141.5c8.12,1.34,11.19,6.15,9.7,14.91-7.48,.86-10.45-3.6-9.7-14.91Z"/>
        <path class="cls-2" d="M239.97,83.13c4.98,7.75,6.7,15.15-1.42,17.74-5.43-6.22-4.98-12.54,1.42-17.74Z"/>
        <path class="cls-2" d="M195.11,230.84c6.51-6.44,12.3-6.77,17.79-1.14-8.02,7.28-13.44,7.71-17.79,1.14Z"/>
        <path class="cls-2" d="M248.51,101.64c4.12,11.25,2.92,15.66-4.48,17.1-4.43-7.42-3.05-12.97,4.48-17.1Z"/>
        <path class="cls-2" d="M43.79,120.27c2.04-9.17,6.03-12.45,13.59-11.38-.44,9.42-6.18,14.35-13.59,11.38Z"/>
        <path class="cls-2" d="M210.69,200c4.75,6.45,3.65,12.13-3.36,17.42-6.06-3.6-5.31-10.2,3.36-17.42Z"/>
        <path class="cls-2" d="M37.84,137.24c-7.89,.18-9.53-5.66-7.54-15.86,7.28,.98,10.53,7.81,7.54,15.86Z"/>
        <path class="cls-2" d="M59.84,207.34c-6.47,4.72-11.47,2.52-16.35-6.97,6.52-3.73,11.71-1.57,16.35,6.97Z"/>
        <path class="cls-2" d="M216.75,72.09c-3.35,7.3-10.26,5.79-17.65-.98,5.46-6.2,12.25-4.57,17.65,.98Z"/>
        <path class="cls-2" d="M243.35,175.12c-.79-8.26,3.49-13.38,11.25-13.45-.02,11.56-4.81,15.85-11.25,13.45Z"/>
        <path class="cls-2" d="M28.7,161.53c8.11,.64,11.71,4.94,11.5,13.46-7.45,3.01-11.35-3.51-11.5-13.46Z"/>
        <path class="cls-2" d="M48.94,102.96c3.45-8.63,8.5-11.41,15.52-8.53-3.61,8.84-9.11,13.98-15.52,8.53Z"/>
        <path class="cls-2" d="M229.25,124.25c8.65,.96,11.74,4.65,11.68,13.63-7.63,1.72-10.64-1.72-11.68-13.63Z"/>
        <path class="cls-2" d="M66.64,72.13c6.3-6.15,11.13-6.54,17.6-1.41-5.43,7.53-13.87,8.21-17.6,1.41Z"/>
        <path class="cls-2" d="M220.23,186.89c5.8,5.74,5.76,10.55,0,17.79-7.09-2.7-7.14-8.28,0-17.79Z"/>
        <path class="cls-2" d="M223.67,207.37c3.97-8.1,8.53-10.15,16.18-7.42-2.8,8.85-9.84,12.19-16.18,7.42Z"/>
        <path class="cls-2" d="M72.85,199.99c8.31,7.38,9.31,12.38,3.48,17.42-7.17-4.5-8.53-11.27-3.48-17.42Z"/>
        <path class="cls-2" d="M239.46,120.36c-7.37,2.72-12.06-1.28-13.55-11.26,7.09-1.79,12.19,2.37,13.55,11.26Z"/>
        <path class="cls-2" d="M55.53,216.36c6.56-4.41,12.04-3.14,17.28,4-4.4,6.33-10.8,4.85-17.28-4Z"/>
        <path class="cls-2" d="M63.92,68.63c-5.04-6.08-3.06-11.14,6.27-16.68,3.88,6.6,1.9,11.98-6.27,16.68Z"/>
        <path class="cls-2" d="M39.76,118.79c-7.58-1.26-8.95-6.1-4.99-16.9,6.83,2.13,8.64,8.08,4.99,16.9Z"/>
        <path class="cls-2" d="M56.52,87.38c4.86-7.83,9.66-9.54,16.65-6.06-4.08,8.85-10.82,11.4-16.65,6.06Z"/>
        <path class="cls-2" d="M228.87,66.91c7.6,8.32,8.04,13.72,1.62,17.68-6.48-5.44-7.12-11.66-1.62-17.68Z"/>
        <path class="cls-2" d="M245.56,156.6c-1.52-8.98,1.58-13.8,9.45-15.05,1.58,9.96-1.66,15.22-9.45,15.05Z"/>
        <path class="cls-2" d="M52.11,158.39c2.84,10.35,.5,15.52-7.2,16.22-3.03-7.8-.6-13.46,7.2-16.22Z"/>
        <path class="cls-2" d="M234.19,192.36c2.69-8.67,6.61-11.32,14.54-9.82-1,9.26-7.89,13.92-14.54,9.82Z"/>
        <path class="cls-2" d="M245.52,137.36c-2.67-7.84-.13-14.71,7.4-16.01,2.69,10.27,.39,15.39-7.4,16.01Z"/>
        <path class="cls-2" d="M212.93,51.86c9.54,5.4,11.56,10.51,6.74,16.59-7.71-3.18-10.04-8.75-6.74-16.59Z"/>
        <path class="cls-2" d="M90.88,227.27c-8.09-4.96-9.79-9.47-6.36-16.47,8.79,3.56,11.57,10.53,6.36,16.47Z"/>
        <path class="cls-2" d="M70.34,229.73c6.13-5.68,11.82-5.26,17.85,1.13-3.94,6.58-8.47,6.33-17.85-1.13Z"/>
        <path class="cls-2" d="M238.73,174.51c-7.21,.6-10.32-5.41-7.41-15.97,7.41,2,9.89,7.35,7.41,15.97Z"/>
        <path class="cls-2" d="M63.14,186.87c7,9.17,7.1,14.07,.49,17.88-6.07-5.48-6.32-11.86-.49-17.88Z"/>
        <path class="cls-2" d="M34.4,182.65c7.88-1.78,11.86,.85,14.84,9.62-6.26,4.31-11.66,.9-14.84-9.62Z"/>
        <path class="cls-2" d="M210,81.41c7.51-3.51,12.41-1.74,16.7,5.84-4.89,5.7-10.94,3.65-16.7-5.84Z"/>
      </g>
      <g>
        <g>
          <polygon class="cls-4" points="84.02 176.96 97.48 74.67 187.05 74.67 199.4 177 141.73 213.2 84.02 176.96"/>
          <path class="cls-4" d="M179.96,82.67l10.89,90.25-49.12,30.84-49.12-30.84,11.88-90.25h75.46m14.19-16H90.47l-1.83,13.91-11.88,90.25-1.34,10.18,8.7,5.46,49.12,30.84,8.51,5.34,8.51-5.34,49.12-30.84,8.59-5.39-1.22-10.07-10.89-90.25-1.7-14.08h0Z"/>
        </g>
        <path class="cls-2" d="M179.96,82.67l10.89,90.25-49.12,30.84-49.12-30.84,11.88-90.25h75.46m7.02-7.92H97.55l-.91,6.89-11.88,90.25-.66,5.04,4.3,2.7,49.12,30.84,4.21,2.64,4.21-2.64,49.12-30.84,4.25-2.67-.6-4.99-10.89-90.25-.84-6.97h0Z"/>
      </g>
      <path id="ball" class="cls-2" d="M150.34,181.95l-3.24-2.26,1.76-3.52,.9-.1c-1.11-1.52-2.68-2.68-4.5-3.29l.21,1.42-2.99,2.58-2.98-2.58,.21-1.49c-1.9,.59-3.53,1.78-4.68,3.35l.96,.11,1.76,3.52-3.24,2.26-1.24-.51c0,2.01,.65,3.87,1.76,5.39l.29-.6,3.91-.49,1.05,3.8-.56,.63c.85,.26,1.74,.4,2.67,.4s1.78-.13,2.6-.38l-.58-.65,1.06-3.8,3.91,.49,.33,.67c1.13-1.51,1.79-3.4,1.8-5.43l-1.17,.49Zm-5.37,2.47h-4.97l-.5-3.49,2.98-2.57,2.99,2.57-.5,3.49Z"/>
      <g>
        <path class="cls-2" d="M150.41,142.62l-8.47-10.34-8.76,10.77s-3.73,16.66-4.95,20.03h28.07l-5.89-20.46Zm-12.42,9.56c0-4.05,1.38-9.18,4.25-9.18s4.54,4.9,4.54,9.18c-5.2,1.97-8.79,0-8.79,0Z"/>
        <path class="cls-2" d="M141.91,126.57c-3.27,0-5.93-2.66-5.93-5.93s2.66-5.93,5.93-5.93,5.93,2.66,5.93,5.93-2.66,5.93-5.93,5.93Zm0-10.49c-2.52,0-4.57,2.05-4.57,4.57s2.05,4.57,4.57,4.57,4.57-2.05,4.57-4.57-2.05-4.57-4.57-4.57Z"/>
        <path class="cls-2" d="M144.02,120.65c0,1.16-.94,2.11-2.1,2.11s-2.11-.94-2.11-2.11,.94-2.1,2.11-2.1,2.1,.94,2.1,2.1Z"/>
        <g>
          <path class="cls-2" d="M147.48,120.54l-.85-1.06,20.2-16.18c.11-.09,.13-.2,.14-.26,0-.06,0-.18-.1-.28l-6.52-7.02c-.1-.11-.23-.12-.29-.12-.06,0-.18,.02-.28,.14l-16.16,20.13-1.06-.85,16.16-20.13c.32-.39,.79-.63,1.29-.64,.49-.04,.99,.18,1.33,.55l6.52,7.02c.33,.35,.49,.83,.46,1.3-.03,.48-.27,.92-.64,1.22l-20.2,16.18Z"/>
          <polygon class="cls-2" points="163.43 107.03 156.17 98.92 157.19 98.01 164.45 106.12 163.43 107.03"/>
          <rect class="cls-2" x="155.38" y="101.93" width="1.36" height="9.48" transform="translate(-31.21 132.42) rotate(-42.18)"/>
          <rect class="cls-2" x="151.38" y="106.75" width="1.36" height="8" transform="translate(-35.03 130.35) rotate(-42.05)"/>
          <rect class="cls-2" x="147.4" y="111.33" width="1.36" height="6.96" transform="translate(-38.87 127.31) rotate(-41.61)"/>
        </g>
        <g>
          <path class="cls-2" d="M159.65,147.08s-.08,0-.12,0c-.48-.03-.92-.27-1.22-.64l-16.18-20.2,1.06-.85,16.18,20.2c.09,.11,.2,.13,.26,.14,.06,0,.18,0,.28-.1l7.02-6.52c.11-.1,.12-.22,.12-.29,0-.06-.02-.18-.14-.28l-20.13-16.16,.85-1.06,20.13,16.16c.39,.32,.63,.79,.64,1.29,.02,.5-.18,.99-.55,1.33l-7.02,6.52c-.32,.3-.74,.46-1.18,.46Z"/>
          <polygon class="cls-2" points="156.53 143.2 155.63 142.19 163.74 134.93 164.65 135.94 156.53 143.2"/>
          <rect class="cls-2" x="151.24" y="134.13" width="9.48" height="1.36" transform="translate(-50.12 139.82) rotate(-42.23)"/>
          <rect class="cls-2" x="147.91" y="130.14" width="8" height="1.36" transform="translate(-48.51 135.49) rotate(-42.07)"/>
          <rect class="cls-2" x="144.37" y="126.16" width="6.96" height="1.36" transform="translate(-46.92 130.14) rotate(-41.6)"/>
        </g>
        <g>
          <path class="cls-2" d="M135.98,120.54l-20.2-16.18c-.37-.3-.61-.75-.64-1.22-.03-.48,.13-.95,.46-1.3l6.52-7.01c.34-.37,.81-.58,1.33-.55,.5,.02,.97,.25,1.29,.64l16.17,20.13-1.06,.85-16.17-20.13c-.09-.12-.21-.14-.28-.14-.05,0-.18,0-.29,.12l-6.52,7.01c-.1,.1-.1,.22-.1,.28,0,.06,.03,.18,.14,.26l20.2,16.18-.85,1.06Z"/>
          <polygon class="cls-2" points="120.03 107.03 119.01 106.12 126.27 98.01 127.29 98.92 120.03 107.03"/>
          <rect class="cls-2" x="122.66" y="105.99" width="9.48" height="1.36" transform="translate(-37.21 129.32) rotate(-47.77)"/>
          <rect class="cls-2" x="127.4" y="110.07" width="8" height="1.36" transform="translate(-38.86 134.08) rotate(-47.93)"/>
          <rect class="cls-2" x="131.9" y="114.13" width="6.96" height="1.36" transform="translate(-40.35 139.83) rotate(-48.4)"/>
        </g>
        <g>
          <path class="cls-2" d="M123.82,147.08c-.44,0-.86-.17-1.18-.46l-7.01-6.52c-.37-.34-.57-.83-.55-1.33,.02-.5,.25-.97,.64-1.29l20.56-16.53,.85,1.06-20.56,16.53c-.12,.09-.14,.21-.14,.28,0,.06,.01,.19,.12,.29l7.01,6.52c.1,.1,.23,.1,.28,.1,.06,0,.17-.03,.26-.14l16.18-20.2,1.06,.85-16.18,20.2c-.3,.37-.74,.61-1.22,.64-.04,0-.08,0-.13,0Z"/>
          <polygon class="cls-2" points="126.93 143.2 118.82 135.94 119.72 134.93 127.84 142.19 126.93 143.2"/>
          <rect class="cls-2" x="126.8" y="130.07" width="1.36" height="9.48" transform="translate(-58.02 138.76) rotate(-47.82)"/>
          <rect class="cls-2" x="130.88" y="126.82" width="1.36" height="8" transform="translate(-53.7 140.87) rotate(-47.95)"/>
          <rect class="cls-2" x="134.93" y="123.36" width="1.36" height="6.96" transform="translate(-49.27 144.04) rotate(-48.4)"/>
        </g>
      </g>
    </g>
  </g>
</svg>