<svg width="1024" height="1024" viewBox="0 0 1024 1024" fill="none" xmlns="http://www.w3.org/2000/svg">
<path d="M512 1024C794.77 1024 1024 794.77 1024 512C1024 229.23 794.77 0 512 0C229.23 0 0 229.23 0 512C0 794.77 229.23 1024 512 1024Z" fill="#0094FF"/>
<path d="M138.281 454.984C126.939 454.984 115.853 458.347 106.422 464.648C96.9922 470.949 89.6423 479.905 85.3021 490.383C80.9619 500.862 79.8263 512.392 82.0389 523.515C84.2515 534.639 89.713 544.857 97.7327 552.876C105.752 560.896 115.97 566.358 127.094 568.57C138.217 570.783 149.747 569.647 160.226 565.307C170.704 560.967 179.66 553.617 185.961 544.187C192.262 534.756 195.625 523.67 195.625 512.328C195.625 497.119 189.583 482.534 178.829 471.78C168.075 461.026 153.49 454.984 138.281 454.984Z" fill="white"/>
<path d="M125.911 511.345L133.857 530.842L154.747 529.449L159.908 508.969L142.049 497.828L125.911 511.345Z" fill="#0094FF"/>
<path d="M181.699 493.65C179.475 488.076 176.193 482.985 172.032 478.659C167.731 474.345 162.642 470.896 157.041 468.501C151.214 466.07 144.963 464.818 138.65 464.818C132.336 464.818 126.085 466.07 120.259 468.501C114.658 470.896 109.568 474.345 105.267 478.659C96.433 487.506 91.4709 499.498 91.4709 512.001C91.4709 524.503 96.433 536.495 105.267 545.342C109.637 549.757 114.845 553.255 120.584 555.633C126.323 558.01 132.479 559.218 138.691 559.186C144.993 559.2 151.233 557.946 157.041 555.5C162.642 553.105 167.731 549.656 172.032 545.342C178.688 538.721 183.206 530.257 185.002 521.042C186.799 511.828 185.791 502.286 182.108 493.65H181.699ZM175.882 537.068C176.251 535.312 176.251 533.499 175.882 531.743L162.448 539.116L152.289 552.715C152.289 552.715 153.027 552.715 158.352 552.715C152.133 555.777 145.295 557.375 138.363 557.384C134.212 557.386 130.08 556.835 126.075 555.746C128.453 555.408 130.753 554.66 132.874 553.534L124.682 543.048L106.496 537.396C105.947 539.346 105.617 541.352 105.513 543.376C97.7061 535.344 93.2031 524.672 92.8974 513.475C94.7876 516.155 97.0181 518.579 99.533 520.684L109.855 507.905L107.561 490.046C104.195 489.651 100.789 490.309 97.8126 491.93C103.27 481.185 112.751 473.029 124.191 469.238C123.149 471.921 122.247 474.655 121.488 477.43C127.867 478.108 134.093 479.824 139.92 482.509C144.067 479.494 148.514 476.913 153.191 474.809C152.007 472.451 150.459 470.294 148.603 468.419C158.778 470.721 167.823 476.519 174.162 484.803L169.083 483.329L171.049 501.433L180.634 512.41C180.634 512.41 181.453 510.444 183.091 506.102C183.216 507.984 183.216 509.873 183.091 511.755C183.251 520.721 180.742 529.532 175.882 537.068Z" fill="#0094FF"/>
<path d="M885.719 454.984C874.377 454.984 863.291 458.347 853.86 464.648C844.43 470.949 837.08 479.905 832.74 490.383C828.4 500.862 827.264 512.392 829.477 523.515C831.69 534.639 837.151 544.857 845.171 552.876C853.19 560.896 863.408 566.358 874.532 568.57C885.655 570.783 897.185 569.647 907.664 565.307C918.142 560.967 927.098 553.617 933.399 544.187C939.7 534.756 943.063 523.67 943.063 512.328C943.063 497.119 937.021 482.534 926.267 471.78C915.513 461.026 900.928 454.984 885.719 454.984Z" fill="white"/>
<path d="M873.349 511.345L881.377 530.842L902.267 529.449L907.428 508.969L889.569 497.828L873.349 511.345Z" fill="#0094FF"/>
<path d="M929.218 493.65C926.873 488.042 923.45 482.949 919.142 478.659C914.772 474.244 909.565 470.746 903.826 468.368C898.087 465.991 891.931 464.783 885.719 464.815C879.417 464.801 873.177 466.055 867.369 468.501C861.768 470.896 856.678 474.345 852.377 478.659C843.543 487.506 838.581 499.498 838.581 512C838.581 524.503 843.543 536.495 852.377 545.342C856.678 549.656 861.768 553.105 867.369 555.5C873.195 557.931 879.446 559.183 885.76 559.183C892.073 559.183 898.324 557.931 904.151 555.5C909.752 553.105 914.841 549.656 919.142 545.342C925.751 538.691 930.236 530.229 932.03 521.026C933.824 511.824 932.845 502.296 929.218 493.65ZM923.402 537.068C923.771 535.312 923.771 533.499 923.402 531.743L909.967 539.116L899.809 552.715C899.809 552.715 900.546 552.715 905.871 552.715C899.627 555.787 892.76 557.384 885.801 557.384C881.678 557.379 877.573 556.828 873.595 555.746C875.972 555.408 878.273 554.66 880.394 553.534L872.202 543.048L854.507 537.56C853.958 539.51 853.628 541.516 853.524 543.54C845.717 535.508 841.214 524.835 840.909 513.639C842.799 516.319 845.029 518.743 847.544 520.848L857.375 507.904L855.081 490.046C851.715 489.651 848.309 490.309 845.332 491.93C850.79 481.185 860.27 473.029 871.711 469.238C870.669 471.921 869.767 474.655 869.007 477.43C875.387 478.108 881.613 479.824 887.439 482.509C891.57 479.468 896.02 476.885 900.71 474.809C899.527 472.451 897.979 470.294 896.123 468.419C906.289 470.74 915.328 476.534 921.682 484.803L916.603 483.82L918.569 501.924L928.153 512.902C928.153 512.902 928.973 510.936 930.611 506.594C930.873 508.467 931.01 510.355 931.021 512.246C930.962 521.087 928.313 529.717 923.402 537.068Z" fill="#0094FF"/>
<path d="M512 984.76C418.497 984.76 327.094 957.033 249.348 905.085C171.603 853.138 111.009 779.303 75.2264 692.917C39.4443 606.531 30.0821 511.475 48.3237 419.769C66.5652 328.062 111.591 243.824 177.708 177.708C243.825 111.591 328.063 66.5647 419.769 48.3232C511.476 30.0816 606.532 39.4438 692.918 75.226C779.303 111.008 853.138 171.603 905.086 249.348C957.034 327.093 984.76 418.496 984.76 512C984.609 637.337 934.751 757.497 846.125 846.124C757.498 934.751 637.337 984.608 512 984.76ZM512 59.7192C422.547 59.7192 335.104 86.245 260.727 135.942C186.349 185.639 128.38 256.276 94.1475 338.919C59.9155 421.563 50.9588 512.501 68.4102 600.235C85.8615 687.969 128.937 768.558 192.19 831.81C255.442 895.063 336.031 938.138 423.765 955.589C511.498 973.041 602.437 964.084 685.08 929.852C767.724 895.62 838.36 837.65 888.057 763.273C937.755 688.896 964.28 601.452 964.28 512C964.129 392.094 916.429 277.143 831.643 192.357C746.857 107.571 631.906 59.871 512 59.7192Z" fill="white"/>
<path d="M512 811.008C452.955 810.943 395.253 793.379 346.186 760.534C297.118 727.69 258.886 681.039 236.321 626.476C213.755 571.913 207.868 511.885 219.403 453.977C230.938 396.07 259.378 342.88 301.129 301.129C342.88 259.377 396.07 230.937 453.978 219.402C511.886 207.867 571.913 213.754 626.476 236.32C681.04 258.886 727.69 297.118 760.535 346.185C793.379 395.253 810.943 452.954 811.008 512C810.986 591.295 779.477 667.336 723.407 723.406C667.336 779.476 591.295 810.986 512 811.008ZM512 227.328C455.618 227.328 400.504 244.051 353.629 275.382C306.754 306.712 270.225 351.242 248.663 403.338C227.102 455.434 221.477 512.755 232.501 568.048C243.524 623.342 270.7 674.123 310.591 713.968C350.482 753.813 401.294 780.931 456.6 791.891C511.907 802.85 569.221 797.16 621.292 775.538C673.363 753.917 717.851 717.337 749.128 670.426C780.405 623.515 797.065 568.381 797 512C796.913 436.44 766.858 363.999 713.429 310.57C660 257.141 587.56 227.087 512 227V227.328Z" fill="white"/>
<path d="M192.266 778.896C189.4 775.837 187.309 772.135 186.168 768.101C185.028 764.068 184.872 759.819 185.713 755.712C187.699 746.421 192.854 738.11 200.294 732.201C207.204 725.571 216.219 721.57 225.772 720.896C229.947 720.684 234.114 721.464 237.931 723.172C241.747 724.881 245.104 727.47 247.726 730.727C251.228 734.648 253.38 739.588 253.867 744.822C254.353 750.057 253.148 755.309 250.429 759.808L238.797 754.32C240.141 751.795 240.871 748.988 240.927 746.128C240.936 743.5 239.973 740.961 238.223 739.001C236.706 737.264 234.749 735.968 232.558 735.247C230.368 734.527 228.024 734.408 225.772 734.905C219.926 736.388 214.51 739.221 209.958 743.176C205.405 747.131 201.843 752.098 199.557 757.678C198.729 759.827 198.505 762.162 198.91 764.429C199.314 766.696 200.331 768.81 201.851 770.54C203.615 772.614 206.107 773.933 208.814 774.226C211.78 774.504 214.767 774.025 217.498 772.834L221.43 785.122C216.558 787.424 211.065 788.062 205.796 786.937C200.526 785.813 195.773 782.987 192.266 778.896Z" fill="white"/>
<path d="M281.313 854.753L269.681 846.561L287.621 821.985L268.616 808.059L250.757 832.635L239.207 824.443L281.313 767.099L292.782 775.291L276.398 797.983L294.912 811.745L311.296 788.972L322.847 797.164L281.313 854.753Z" fill="white"/>
<path d="M369.214 898.09L354.959 891.864L356.926 879.084L336.855 870.401L328.663 880.559L314.491 874.415L362.168 817.644L377.979 824.525L369.214 898.09ZM359.383 866.468L364.216 834.847L344.474 860.161L359.383 866.468Z" fill="white"/>
<path d="M433.029 915.293C428.915 914.662 425.007 913.074 421.62 910.654C418.233 908.235 415.463 905.054 413.532 901.366C409.263 892.794 408.133 882.997 410.337 873.677C411.626 864.181 416.276 855.462 423.444 849.101C426.6 846.382 430.344 844.434 434.382 843.41C438.42 842.386 442.64 842.315 446.71 843.203C451.879 844.004 456.619 846.547 460.145 850.412C463.475 854.162 465.787 858.703 466.862 863.601L454.492 866.796C454.163 864.115 453.009 861.602 451.189 859.606C449.369 857.61 446.974 856.229 444.334 855.655C442.117 855.239 439.83 855.414 437.702 856.162C435.574 856.91 433.68 858.204 432.21 859.915C428.494 864.797 425.967 870.478 424.829 876.507C423.692 882.537 423.975 888.748 425.656 894.649C426.409 896.756 427.708 898.625 429.421 900.065C431.134 901.504 433.199 902.462 435.405 902.841C437.33 903.339 439.341 903.407 441.295 903.038C443.249 902.67 445.098 901.875 446.71 900.711L448.758 890.143L435.651 887.685L438.026 875.316L464.404 880.313L458.752 908.739C455.246 911.716 451.106 913.855 446.648 914.99C442.191 916.126 437.533 916.229 433.029 915.293Z" fill="white"/>
<path d="M553.288 919.961L537.723 920.453L534.037 908.001L512.246 908.656L509.379 921.272L493.896 921.764L512.82 850.165L530.023 849.592L553.288 919.961ZM530.924 895.385L521.913 864.829L514.704 895.959L530.924 895.385Z" fill="white"/>
<path d="M638.484 902.103L623.083 905.953L606.699 883.671L599.245 885.555L605.552 910.131L591.708 913.654L574.341 844.759L600.064 838.287C602.805 837.514 605.676 837.319 608.497 837.714C611.317 838.108 614.024 839.085 616.448 840.581C620.774 843.7 624.016 848.093 625.72 853.147C627.424 858.2 627.504 863.66 625.95 868.761C624.709 872.351 622.319 875.432 619.151 877.527L638.484 902.103ZM605.716 870.891C606.932 870.66 608.079 870.157 609.072 869.419C610.065 868.682 610.878 867.729 611.451 866.632C612.11 865.382 612.509 864.011 612.621 862.603C612.734 861.195 612.559 859.778 612.106 858.44C611.588 855.808 610.059 853.484 607.846 851.968C606.818 851.259 605.641 850.794 604.406 850.61C603.171 850.425 601.91 850.525 600.719 850.903L590.971 853.36L595.886 873.021L605.716 870.891Z" fill="white"/>
<path d="M746.783 850.002L733.266 857.702L724.173 848.527L705.249 859.422L708.608 871.956L695.255 879.657L678.052 807.567L693.043 799.375L746.783 850.002ZM715.489 839.024L693.043 816.332L701.235 847.052L715.489 839.024Z" fill="white"/>
<path d="M807.321 791.756C807.041 795.23 806.071 798.614 804.467 801.708C802.863 804.803 800.659 807.546 797.982 809.779C795.566 812.312 792.671 814.34 789.465 815.747C786.258 817.153 782.805 817.909 779.305 817.971C775.817 817.773 772.408 816.856 769.293 815.277C766.177 813.698 763.422 811.491 761.2 808.796L729.661 774.635L740.229 764.805L771.85 799.129C774.075 801.837 777.229 803.619 780.697 804.126C782.307 804.21 783.916 803.946 785.414 803.352C786.912 802.759 788.265 801.849 789.381 800.686C790.621 799.703 791.631 798.46 792.339 797.045C793.047 795.629 793.435 794.076 793.477 792.494C793.227 789 791.678 785.727 789.135 783.319L757.514 748.748L768 738.918L799.621 773.16C802.144 775.541 804.135 778.429 805.462 781.634C806.789 784.839 807.423 788.289 807.321 791.756Z" fill="white"/>
<path d="M866.959 726.221L844.84 757.269L787.005 716.309L795.197 704.676L842.792 738.591L856.637 719.176L866.959 726.221Z" fill="white"/>
<path d="M239.616 314.901L231.424 330.138L217.416 326.779L205.947 348.16L216.515 357.909L208.323 373.064L149.914 315.146L159.007 298.271L239.616 314.901ZM203.653 323.093L169.165 314.901L195.133 339.477L203.653 323.093Z" fill="white"/>
<path d="M258.458 292.045L248.299 304.169L187.843 253.952L216.842 219.3L227.574 228.311L208.732 250.757L222.413 262.144L240.681 240.271L251.412 249.283L233.144 271.073L258.458 292.045Z" fill="white"/>
<path d="M314.327 239.698C310.77 242.69 306.556 244.798 302.029 245.852C297.501 246.905 292.789 246.874 288.277 245.76C278.006 243.1 268.991 236.926 262.799 228.311C255.903 220.291 251.995 210.131 251.74 199.557C251.708 194.909 252.774 190.32 254.853 186.163C256.931 182.006 259.963 178.399 263.701 175.636C268.287 171.919 273.944 169.77 279.842 169.505C285.739 169.24 291.567 170.872 296.469 174.162L289.751 186.777C287.055 185.116 283.984 184.159 280.822 183.992C277.841 183.775 274.896 184.747 272.63 186.696C270.621 188.266 269.079 190.354 268.169 192.736C267.26 195.118 267.018 197.703 267.469 200.212C268.453 206.845 271.293 213.065 275.661 218.153C279.592 223.63 284.986 227.888 291.226 230.441C293.551 231.48 296.118 231.862 298.646 231.544C301.173 231.227 303.566 230.222 305.562 228.639C307.965 226.788 309.575 224.095 310.067 221.102C310.507 217.814 310.142 214.469 309.002 211.353L322.765 207.667C324.999 213.202 325.384 219.311 323.864 225.083C322.343 230.855 318.998 235.982 314.327 239.698Z" fill="white"/>
<path d="M438.436 180.716C433.956 181.993 429.238 182.191 424.668 181.294C420.097 180.397 415.804 178.43 412.139 175.555C403.95 168.865 398.334 159.543 396.247 149.176C393.26 139.01 393.897 128.123 398.049 118.374C399.928 114.111 402.795 110.356 406.413 107.422C410.032 104.487 414.297 102.457 418.857 101.499C424.51 100.09 430.463 100.495 435.873 102.656C441.283 104.818 445.877 108.625 449.003 113.541L437.617 122.307C435.844 119.689 433.452 117.55 430.653 116.081C428.116 114.819 425.213 114.5 422.461 115.18C419.984 115.792 417.72 117.069 415.915 118.874C414.111 120.678 412.833 122.942 412.221 125.42C410.333 131.893 410.333 138.771 412.221 145.244C413.559 151.845 416.708 157.944 421.314 162.857C423.024 164.747 425.216 166.134 427.656 166.871C430.095 167.607 432.69 167.664 435.159 167.035C438.099 166.37 440.659 164.575 442.286 162.038C444.115 159.253 445.162 156.027 445.317 152.699L459.489 155.075C459.233 161.053 457.041 166.786 453.244 171.41C449.447 176.035 444.25 179.301 438.436 180.716Z" fill="white"/>
<path d="M537.477 170.393H521.093L520.519 136.806L494.387 137.216L494.96 170.803H479.15L477.839 91.9138H493.649L494.223 123.289L520.765 122.88L520.191 91.75H536.575L537.477 170.393Z" fill="white"/>
<path d="M614.973 185.221L598.016 181.535L597.442 167.117L573.44 162.038L566.968 174.899L550.584 171.213L589.824 99.123L608.583 103.137L614.973 185.221ZM597.442 152.863L595.968 117.473L579.584 149.012L597.442 152.863Z" fill="white"/>
<path d="M651.92 203.162C647.66 201.362 643.884 198.585 640.895 195.055C637.907 191.526 635.79 187.344 634.716 182.846C632.399 172.444 633.851 161.557 638.812 152.126C642.79 142.248 650.131 134.095 659.538 129.106C663.673 127.044 668.23 125.97 672.85 125.97C677.471 125.97 682.028 127.044 686.162 129.106C691.513 131.367 695.933 135.384 698.696 140.493C701.391 145.518 702.665 151.182 702.382 156.877H688.128C688.529 154.145 688.117 151.355 686.944 148.854C685.772 146.353 683.891 144.253 681.534 142.812C679.178 141.372 676.45 140.656 673.69 140.754C670.93 140.851 668.259 141.758 666.01 143.36C660.387 147.319 656.056 152.847 653.558 159.253C650.297 165.322 648.901 172.218 649.544 179.078C649.777 181.552 650.656 183.922 652.094 185.949C653.532 187.977 655.478 189.59 657.736 190.628C659.688 191.705 661.857 192.33 664.083 192.458C666.309 192.585 668.535 192.212 670.597 191.366L675.676 180.224L662.242 173.998L668.14 161.301L695.173 173.835L681.657 203.162C677.027 205.427 671.942 206.604 666.788 206.604C661.634 206.604 656.549 205.427 651.92 203.162Z" fill="white"/>
<path d="M739 259.031L725.319 248.463L730.972 235.192L711.802 220.364L700.334 229.376L686.735 218.726L753.663 170.557L768.819 182.272L739 259.031ZM737.279 222.249L751.124 189.481L723.107 211.189L737.279 222.249Z" fill="white"/>
<path d="M782.582 310.149L771.277 296.632L785.367 269.025L779.96 262.554L758.088 280.822L747.93 268.616L808.387 218.071L827.392 240.599C829.562 243 831.202 245.831 832.204 248.908C833.207 251.985 833.549 255.239 833.208 258.458C832.285 264.964 828.843 270.848 823.624 274.842C819.706 278.413 814.789 280.7 809.533 281.395C805.342 281.84 801.118 280.921 797.491 278.774L782.582 310.149ZM797.819 262.144C798.673 263.24 799.75 264.143 800.978 264.792C802.207 265.442 803.559 265.824 804.946 265.912C807.897 265.786 810.725 264.69 812.99 262.794C815.256 260.899 816.834 258.309 817.48 255.426C817.672 254.047 817.559 252.643 817.149 251.312C816.738 249.981 816.04 248.757 815.104 247.726L807.895 239.534L790.61 253.952L797.819 262.144Z" fill="white"/>
<path d="M801.095 345.457C798.592 341.183 796.982 336.446 796.363 331.531C795.743 326.617 796.127 321.629 797.491 316.867L811.909 318.014C810.614 321.378 810.074 324.986 810.329 328.582C810.584 332.178 811.627 335.674 813.383 338.822C814.611 341.389 816.698 343.446 819.282 344.638C820.36 345.137 821.534 345.395 822.722 345.395C823.911 345.395 825.085 345.137 826.163 344.638C828.031 343.537 829.386 341.74 829.931 339.641C830.434 337.154 830.434 334.591 829.931 332.104C829.931 329.401 829.276 326.288 829.112 322.929C828.945 319.682 828.945 316.428 829.112 313.181C829.463 309.931 830.587 306.814 832.389 304.087C834.472 300.994 837.286 298.462 840.581 296.715C843.285 295.22 846.279 294.323 849.359 294.082C852.44 293.842 855.536 294.265 858.439 295.322C864.958 297.729 870.26 302.618 873.185 308.921C877.569 316.534 878.804 325.559 876.626 334.07L862.617 332.923C863.482 329.933 863.746 326.801 863.395 323.707C863.043 320.614 862.083 317.621 860.569 314.901C859.571 312.67 857.752 310.91 855.49 309.986C854.457 309.581 853.346 309.416 852.239 309.501C851.133 309.586 850.06 309.92 849.101 310.477C848.099 311.109 847.269 311.978 846.684 313.006C846.098 314.035 845.774 315.192 845.742 316.375C845.334 319.667 845.334 322.996 845.742 326.288C846.21 330.065 846.429 333.869 846.397 337.675C846.364 341.681 845.351 345.618 843.448 349.143C841.327 353.078 838.035 356.256 834.027 358.237C831.232 359.834 828.132 360.826 824.929 361.151C821.726 361.476 818.49 361.125 815.431 360.121C808.947 357.255 803.814 352.004 801.095 345.457Z" fill="white"/>
<path opacity="0.25" d="M512 0C376.209 0 245.98 53.9427 149.961 149.961C53.9427 245.98 0 376.209 0 512C341.361 768 682.639 256 1024 512C1024 376.209 970.057 245.98 874.039 149.961C778.02 53.9427 647.791 0 512 0V0Z" fill="url(#paint0_linear_105_2641)"/>
<path fill-rule="evenodd" clip-rule="evenodd" d="M536.665 322.755C544.959 318.654 550.227 312.517 550.227 305.659C550.227 293.312 532.624 268.836 512.088 257C488.619 268.836 473.95 293.312 473.95 305.659C473.95 312.517 479.218 318.654 487.512 322.755H467.282C462.863 322.755 459.282 326.337 459.282 330.755V362.208C459.282 362.208 466.616 346.427 479.818 346.427C485.621 346.427 487.456 359.132 487.69 373.373C481.822 423.335 448.758 450.372 406.029 484.171C365.245 512.561 339 556.942 339 606.818C339 692.522 416.494 762 512.089 762C607.683 762 685.177 692.522 685.177 606.818C685.177 556.374 658.332 511.552 616.751 483.209C572.755 449.231 540.891 421.852 536.165 370.571C536.009 357.507 537.473 346.427 542.892 346.427C556.094 346.427 564.895 362.208 564.895 362.208V330.755C564.895 326.337 561.313 322.755 556.895 322.755H536.665Z" fill="white"/>
<path d="M475.222 518.167H493.167V649.056H536.444V518.167H554.389V649.056H597.667V583.611H615.611V667H414V583.611H431.944V649.056H475.222V518.167Z" fill="#0094FF"/>
<path d="M515.333 477L520.31 492.317H536.415L523.386 501.783L528.363 517.1L515.333 507.634L502.304 517.1L507.281 501.783L494.252 492.317H510.357L515.333 477Z" fill="#FFA800"/>
<path d="M578.667 519.222L583.643 534.539H599.748L586.719 544.005L591.696 559.322L578.667 549.856L565.637 559.322L570.614 544.005L557.585 534.539H573.69L578.667 519.222Z" fill="#FFA800"/>
<path d="M448.833 519.222L453.81 534.539H469.915L456.886 544.005L461.863 559.322L448.833 549.856L435.804 559.322L440.781 544.005L427.752 534.539H443.857L448.833 519.222Z" fill="#FFA800"/>
<defs>
<linearGradient id="paint0_linear_105_2641" x1="512" y1="585.892" x2="512" y2="0" gradientUnits="userSpaceOnUse">
<stop stop-color="white"/>
<stop offset="1" stop-color="white"/>
</linearGradient>
</defs>
</svg>
