<?xml version="1.0" encoding="utf-8"?>
<!-- Generator: Adobe Illustrator 27.0.0, SVG Export Plug-In . SVG Version: 6.00 Build 0)  -->
<svg version="1.1" id="_Слой_1" xmlns="http://www.w3.org/2000/svg" xmlns:xlink="http://www.w3.org/1999/xlink" x="0px"
	 y="0px" viewBox="0 0 283.5 283.5" style="enable-background:new 0 0 283.5 283.5;" xml:space="preserve">
<style type="text/css">
	.st0{fill:#711514;}
	.st1{fill:#D9AA62;}
	.st2{fill:#FFFFFF;}
	.st3{fill:#711514;stroke:#711514;stroke-width:0.5;stroke-miterlimit:10;}
	.st4{fill:#BB754D;}
	.st5{fill:#E3903E;}
	.st6{fill:#BE8E6B;}
</style>
<g>
	<circle class="st0" cx="141.7" cy="141.7" r="136"/>
	<path class="st1" d="M141.7,5.8c75.1,0,136,60.9,136,136s-60.9,136-136,136s-136-60.9-136-136S66.6,5.8,141.7,5.8 M141.7,0
		C103.9,0,68.3,14.7,41.5,41.5S0,103.9,0,141.7s14.7,73.5,41.5,100.2c26.8,26.8,62.4,41.5,100.2,41.5s73.5-14.7,100.2-41.5
		c26.8-26.8,41.5-62.4,41.5-100.2s-14.7-73.5-41.5-100.2S179.6,0,141.7,0L141.7,0z"/>
</g>
<path class="st1" d="M141.7,65.9c41.8,0,75.8,34,75.8,75.8s-34,75.8-75.8,75.8s-75.8-34-75.8-75.8S99.9,65.9,141.7,65.9 M141.7,60.1
	c-45.1,0-81.6,36.5-81.6,81.6s36.5,81.6,81.6,81.6s81.6-36.5,81.6-81.6S186.8,60.1,141.7,60.1L141.7,60.1L141.7,60.1z"/>
<path class="st2" d="M141.7,271.6c-71.6,0-129.9-58.3-129.9-129.9S70.1,11.8,141.7,11.8s129.9,58.3,129.9,129.9
	S213.4,271.6,141.7,271.6L141.7,271.6z M141.7,54.1c-48.3,0-87.7,39.3-87.7,87.7s39.3,87.7,87.7,87.7s87.7-39.3,87.7-87.7
	S190.1,54.1,141.7,54.1z"/>
<g>
	<path class="st0" d="M117.3,47l1.5-25.2l2.9-0.5l9.4,23.4l-3.5,0.6l-1.9-5l-4.7,0.8l-0.2,5.4L117.3,47L117.3,47z M124.5,37.1
		l-3.1-8.5h-0.1l-0.3,9.1L124.5,37.1L124.5,37.1z"/>
	<path class="st0" d="M137,44.5L136.6,20l10.5-0.2l0.1,3.3l-7,0.1l0.1,7.5l6.1-0.1l0.1,3.3l-6.1,0.1l0.2,10.5
		C140.5,44.5,137,44.5,137,44.5z"/>
	<path class="st0" d="M166.2,39.9l-0.2,1.5c-0.1,0.7-0.4,1.4-0.8,2.1c-0.4,0.6-0.9,1.2-1.5,1.6c-0.6,0.4-1.2,0.8-2,1
		c-0.7,0.2-1.5,0.2-2.2,0.1c-0.7-0.1-1.3-0.3-2-0.6c-0.7-0.3-1.2-0.7-1.7-1.3c-0.5-0.5-0.8-1.2-1.1-2c-0.2-0.8-0.3-1.7-0.1-2.8
		l2.2-13.4c0.1-0.8,0.4-1.5,0.8-2.1c0.4-0.6,0.9-1.2,1.4-1.6c0.6-0.4,1.2-0.7,2-0.9c0.7-0.2,1.5-0.2,2.4,0c1.6,0.3,2.9,1,3.7,2.3
		c0.4,0.6,0.7,1.3,0.9,2.1c0.2,0.8,0.2,1.6,0,2.4l-0.2,1.4l-3.5-0.6l0.2-1.2c0.1-0.7,0-1.3-0.3-1.9c-0.3-0.6-0.8-0.9-1.4-1
		c-0.9-0.1-1.5,0-1.9,0.5c-0.4,0.5-0.6,1.1-0.8,2l-2,12.4c-0.1,0.7-0.1,1.3,0.2,1.9c0.2,0.5,0.7,0.9,1.5,1c0.2,0,0.5,0,0.7,0
		c0.3,0,0.5-0.1,0.8-0.3c0.2-0.1,0.4-0.4,0.6-0.7c0.2-0.3,0.3-0.7,0.4-1.2l0.2-1.2L166.2,39.9L166.2,39.9z"/>
</g>
<g>
	<path class="st3" d="M73.3,219.7c0.6-0.8,1.3-1.4,2-1.7c0.7-0.4,1.5-0.6,2.3-0.6c0.7,0,1.5,0.1,2.2,0.3c0.7,0.2,1.3,0.6,1.9,1
		c0.6,0.4,1,1,1.4,1.6c0.4,0.6,0.7,1.3,0.8,2.1c0.1,0.7,0.1,1.5-0.1,2.3c-0.2,0.8-0.6,1.6-1.2,2.4l-0.8,1l-2.8-2.2l0.8-1
		c0.5-0.7,0.7-1.3,0.6-1.9c-0.1-0.6-0.4-1.1-0.9-1.5c-0.5-0.4-1.1-0.6-1.7-0.6c-0.6,0-1.2,0.4-1.7,1l-8,10.2
		c-0.5,0.7-0.7,1.3-0.6,1.9s0.4,1.1,0.9,1.5c0.5,0.4,1.1,0.6,1.7,0.6c0.6,0,1.2-0.4,1.7-1l2.8-3.6l-2.2-1.7l1.9-2.4l5,3.9l-4.8,6.1
		c-0.6,0.8-1.3,1.4-2,1.8c-0.7,0.4-1.5,0.6-2.2,0.6c-0.8,0-1.5,0-2.2-0.3c-0.7-0.2-1.3-0.6-1.9-1s-1-1-1.4-1.6
		c-0.4-0.6-0.7-1.3-0.8-2.1c-0.2-0.7-0.1-1.5,0-2.3c0.2-0.8,0.6-1.6,1.2-2.4L73.3,219.7L73.3,219.7z"/>
	<path class="st3" d="M101.8,231.2L93,248.1c-0.4,0.7-0.8,1.3-1.4,1.8c-0.6,0.5-1.2,0.8-1.9,1s-1.4,0.3-2.2,0.3
		c-0.7-0.1-1.5-0.3-2.2-0.6c-0.7-0.4-1.3-0.8-1.7-1.4c-0.5-0.6-0.8-1.2-1-1.9c-0.2-0.7-0.3-1.4-0.3-2.2c0-0.7,0.3-1.5,0.6-2.2
		l8.8-16.9l3.1,1.6l-8.6,16.6c-0.4,0.8-0.5,1.4-0.3,2c0.2,0.6,0.5,1,1.1,1.3c0.5,0.3,1.1,0.3,1.7,0.2c0.6-0.2,1-0.7,1.4-1.4
		l8.6-16.6L101.8,231.2L101.8,231.2z"/>
	<path class="st3" d="M100.9,257.3l7-23.6l3.2,1l0.9,15.7l0.1,0l4.2-14.2l3.4,1l-7,23.6l-3.2-0.9l-0.9-15.7l-0.1,0l-4.2,14.2
		L100.9,257.3L100.9,257.3z"/>
	<path class="st3" d="M125.8,263.1l2.4-21.1l-4-0.5l0.4-3.3l11.6,1.3l-0.4,3.3l-4-0.5l-2.4,21.1L125.8,263.1L125.8,263.1z"/>
	<path class="st3" d="M142.3,264.1l-0.5-24.6l3.5-0.1l0.5,24.6L142.3,264.1z"/>
	<path class="st3" d="M159.7,262.8l-1.7-10.3l-7-13.2l3.7-0.6l4.4,9.2h0.1l1.2-10.1l3.7-0.6l-2.5,14.8l1.7,10.3L159.7,262.8z"/>
	<path class="st3" d="M177.7,259l-8.7-23l3.2-1.2l8.9,10.6l0.1,0l-0.4-13.8l3.2-1.2l8.7,23l-3.3,1.2l-5.3-14l-0.1,0l0.5,11.1
		l-1.7,0.6l-7-8.7l-0.1,0l5.3,14L177.7,259L177.7,259z"/>
	<path class="st3" d="M202.8,247.9l-13.1-20.8l8.9-5.6l1.8,2.8l-5.9,3.7l3.8,6.1l5.1-3.2l1.8,2.8L200,237l3.8,6.1l5.9-3.7l1.9,3
		L202.8,247.9L202.8,247.9z"/>
	<path class="st3" d="M216.4,215.6l-2.6,2.4l-0.5-0.6c-0.5-0.6-1.2-1-1.8-1.2c-0.7-0.2-1.3,0-2,0.6c-0.4,0.3-0.6,0.7-0.7,1
		c-0.1,0.3-0.1,0.7-0.1,1c0.1,0.3,0.2,0.7,0.4,1c0.2,0.3,0.4,0.6,0.7,0.9c0.3,0.4,0.6,0.6,0.8,0.9c0.2,0.2,0.5,0.4,0.8,0.5
		s0.6,0.1,0.9,0.1c0.3,0,0.7-0.1,1.2-0.3l2.7-1c0.8-0.3,1.5-0.5,2.1-0.5s1.2,0.1,1.8,0.3c0.6,0.2,1.1,0.6,1.6,1.1
		c0.5,0.5,1.1,1,1.7,1.7c0.7,0.8,1.3,1.6,1.7,2.4c0.4,0.8,0.7,1.6,0.8,2.4c0.1,0.8-0.1,1.6-0.4,2.4c-0.3,0.8-0.9,1.6-1.8,2.3
		c-0.6,0.6-1.3,1-2.1,1.3c-0.7,0.3-1.5,0.4-2.2,0.3c-0.7,0-1.5-0.2-2.2-0.5c-0.7-0.3-1.3-0.8-1.9-1.4l-0.9-1l2.6-2.4l0.7,0.8
		c0.4,0.5,1,0.8,1.6,0.9c0.6,0.1,1.3-0.1,1.9-0.7c0.4-0.4,0.7-0.8,0.9-1.1c0.1-0.4,0.2-0.7,0.1-1.1c-0.1-0.4-0.3-0.7-0.5-1.1
		c-0.3-0.4-0.6-0.7-1-1.2c-0.4-0.5-0.8-0.9-1.1-1.1c-0.3-0.3-0.6-0.5-0.9-0.6c-0.3-0.1-0.6-0.1-0.9,0c-0.3,0.1-0.7,0.2-1.1,0.3
		l-2.6,0.9c-1.5,0.6-2.8,0.6-3.9,0.2s-2.1-1.2-3.2-2.3c-0.6-0.7-1.1-1.4-1.5-2.2c-0.4-0.8-0.6-1.6-0.6-2.4c0-0.8,0.1-1.5,0.4-2.3
		c0.3-0.8,0.9-1.5,1.6-2.2c0.7-0.6,1.4-1,2.1-1.2s1.5-0.3,2.3-0.3c1.5,0.1,2.8,0.7,3.7,1.8L216.4,215.6L216.4,215.6z"/>
</g>
<g>
	<path class="st4" d="M153.7,123c-0.2,0-0.3,0-0.5-0.2c-0.3-0.3-0.4-0.7-0.1-1.1c2.9-3.9,2.8-7.2,2.7-11c-0.1-3-0.2-6.4,1.3-10.3
		c-3,3.4-3.3,6.4-3.7,9.5c-0.4,3.3-0.7,6.8-4.5,10.4c-0.3,0.3-0.8,0.3-1.1,0c-0.3-0.3-0.3-0.8,0-1.1c3.4-3.2,3.7-6.2,4.1-9.4
		c0.4-4,0.9-8.5,7.5-13.5c0.3-0.2,0.7-0.2,1,0c0.3,0.3,0.3,0.7,0.1,1c-3.4,5.2-3.3,9.3-3.2,13.3s0.2,7.7-3,12
		C154.2,122.9,153.9,123,153.7,123L153.7,123z"/>
	<path class="st5" d="M164,137.2c-0.4,0-0.7-0.3-0.8-0.7c-0.1-0.4,0.2-0.8,0.7-0.9c4.8-0.7,7.1-3.1,9.7-5.9c2.1-2.2,4.4-4.7,8.2-6.3
		c-4.5,0.3-6.9,2.2-9.4,4.2c-2.6,2.1-5.3,4.3-10.6,4.2c-0.4,0-0.8-0.4-0.8-0.8c0-0.4,0.4-0.8,0.8-0.8c4.7,0.1,7-1.8,9.5-3.8
		c3.1-2.5,6.7-5.4,14.9-4.3c0.4,0,0.7,0.4,0.7,0.7c0,0.4-0.2,0.7-0.6,0.8c-6.1,1.3-8.9,4.3-11.6,7.2c-2.7,2.9-5.3,5.7-10.6,6.4
		C164,137.2,164,137.2,164,137.2L164,137.2z"/>
	<path class="st5" d="M186.5,160.6c-0.1,0-0.3,0-0.4-0.1c-5.2-3.4-9.3-3.3-13.3-3.1c-4,0.1-7.7,0.3-12.1-3c-0.3-0.3-0.4-0.7-0.2-1.1
		c0.3-0.3,0.7-0.4,1.1-0.2c3.9,2.9,7.2,2.8,11.1,2.7c3-0.1,6.4-0.2,10.3,1.3c-3.4-3-6.4-3.3-9.6-3.7c-3.3-0.4-6.8-0.7-10.4-4.5
		c-0.3-0.3-0.3-0.8,0-1.1c0.3-0.3,0.8-0.3,1.1,0c3.2,3.4,6.2,3.7,9.5,4c4,0.4,8.5,0.9,13.5,7.5c0.2,0.3,0.2,0.7,0,1
		C186.9,160.6,186.7,160.6,186.5,160.6L186.5,160.6z"/>
	<path class="st4" d="M160.4,187.1c-0.4,0-0.7-0.3-0.8-0.6c-1.2-6.1-4.3-8.9-7.2-11.7c-2.9-2.7-5.6-5.3-6.4-10.7
		c-0.1-0.4,0.2-0.8,0.7-0.9c0.4-0.1,0.8,0.2,0.9,0.7c0.6,4.8,3.1,7.1,5.9,9.7c2.2,2.1,4.7,4.4,6.3,8.2c-0.2-4.5-2.1-6.9-4.1-9.4
		c-2.1-2.6-4.3-5.3-4.1-10.6c0-0.4,0.4-0.8,0.8-0.7c0.4,0,0.8,0.4,0.7,0.8c-0.1,4.7,1.8,7,3.8,9.6c2.5,3.1,5.4,6.7,4.3,14.9
		C161.1,186.8,160.8,187.1,160.4,187.1C160.4,187.1,160.4,187.1,160.4,187.1L160.4,187.1z"/>
	<path class="st6" d="M123.4,187.4c-0.2,0-0.4-0.1-0.5-0.2c-0.3-0.3-0.3-0.7-0.1-1c3.4-5.2,3.3-9.3,3.1-13.3c-0.1-4-0.3-7.7,3-12
		c0.3-0.3,0.7-0.4,1.1-0.1c0.3,0.3,0.4,0.7,0.1,1.1c-2.9,3.9-2.8,7.2-2.7,11.1c0.1,3,0.2,6.4-1.3,10.3c3-3.4,3.3-6.4,3.7-9.6
		c0.4-3.3,0.7-6.8,4.5-10.4c0.3-0.3,0.8-0.3,1.1,0c0.3,0.3,0.3,0.8,0,1.1c-3.4,3.2-3.7,6.2-4,9.5c-0.4,4-0.9,8.5-7.5,13.5
		C123.7,187.3,123.6,187.4,123.4,187.4L123.4,187.4z"/>
	<path class="st5" d="M100.3,161.4c-1.1,0-2.2-0.1-3.5-0.3c-0.4,0-0.7-0.4-0.7-0.7c0-0.4,0.2-0.7,0.6-0.8c6.1-1.2,8.9-4.2,11.7-7.1
		c2.7-2.9,5.3-5.6,10.7-6.3c0.4-0.1,0.8,0.2,0.9,0.7c0.1,0.4-0.2,0.8-0.7,0.9c-4.8,0.6-7.1,3.1-9.7,5.9c-2.1,2.2-4.4,4.6-8.2,6.3
		c4.5-0.2,6.9-2.1,9.4-4.1c2.6-2.1,5.4-4.3,10.6-4.1c0.4,0,0.8,0.4,0.7,0.8c0,0.4-0.4,0.8-0.8,0.7c-4.7-0.1-7,1.8-9.6,3.8
		C109,159,106.1,161.4,100.3,161.4L100.3,161.4z"/>
	<path class="st5" d="M119.7,135.8c-0.2,0-0.4-0.1-0.6-0.2c-3.2-3.4-6.2-3.7-9.5-4c-4-0.4-8.5-0.9-13.5-7.5c-0.2-0.3-0.2-0.7,0-1
		c0.3-0.3,0.7-0.3,1-0.1c5.2,3.4,9.3,3.3,13.3,3.2s7.7-0.3,12,3c0.3,0.3,0.4,0.7,0.1,1.1s-0.7,0.4-1.1,0.1
		c-3.9-2.9-7.2-2.8-11.1-2.7c-3,0.1-6.4,0.2-10.3-1.3c3.4,3,6.4,3.3,9.6,3.7c3.3,0.4,6.8,0.7,10.4,4.5c0.3,0.3,0.3,0.8,0,1.1
		C120,135.7,119.8,135.8,119.7,135.8L119.7,135.8z"/>
	<path class="st6" d="M130.9,122.2L130.9,122.2c-0.5,0-0.8-0.4-0.8-0.8c0.1-4.7-1.8-7-3.8-9.6c-2.5-3.1-5.4-6.7-4.3-14.9
		c0-0.4,0.4-0.7,0.7-0.7c0.4,0,0.7,0.2,0.8,0.6c1.2,6.1,4.3,8.9,7.1,11.7c2.9,2.7,5.6,5.3,6.4,10.7c0.1,0.4-0.2,0.8-0.7,0.9
		c-0.4,0.1-0.8-0.2-0.9-0.7c-0.6-4.8-3.1-7.1-5.9-9.7c-2.2-2.1-4.7-4.4-6.3-8.2c0.2,4.5,2.1,6.9,4.1,9.4c2.1,2.6,4.3,5.3,4.1,10.6
		C131.7,121.9,131.3,122.2,130.9,122.2L130.9,122.2z"/>
	<path class="st5" d="M147,119.6C147,119.6,147,119.6,147,119.6c-0.4,0-0.8-0.4-0.8-0.8c0-2-0.8-4.7-2.2-7.5
		c-2.4-4.8-1.4-7.5-0.3-10.5c0.6-1.6,1.2-3.3,1.3-5.4c0-2.4-0.6-4-1.2-5.8c-0.2-0.6-0.5-1.2-0.7-1.8c0,0.4,0.1,0.8,0.2,1.3
		c0.3,1.8,0.6,3.6-0.4,6.1c-0.8,2-1.8,3.6-2.6,4.9c-1.5,2.4-2.6,4.2-2.6,7.7c0,1.8,0.3,3.4,0.7,5.2c0.4,1.8,0.8,3.7,0.8,5.9
		c0,0.4-0.3,0.8-0.8,0.8c-0.4,0-0.8-0.3-0.8-0.8c0-2-0.4-3.8-0.8-5.6c-0.4-1.9-0.8-3.6-0.7-5.5c0-3.9,1.3-6,2.9-8.5
		c0.8-1.4,1.7-2.8,2.5-4.7c0.8-2.1,0.6-3.6,0.3-5.3c-0.3-1.9-0.6-3.8,0.6-6.5c0.2-0.3,0.5-0.5,0.9-0.4c0.4,0.1,0.6,0.4,0.6,0.7
		c0.1,2.6,0.7,4.3,1.4,6c0.7,1.8,1.4,3.6,1.4,6.4c0,2.4-0.7,4.3-1.4,5.9c-1,2.8-1.9,5.1,0.2,9.2c1.5,3,2.4,6,2.4,8.3
		C147.7,119.3,147.4,119.6,147,119.6L147,119.6z"/>
	<path class="st4" d="M164.6,147.9c0,0-0.1,0-0.1,0c-0.4,0-0.8-0.4-0.8-0.8c0-0.4,0.4-0.8,0.8-0.8c0,0,0,0,0,0c2,0,4.7-0.8,7.5-2.2
		c4.8-2.4,7.5-1.4,10.5-0.3c1.6,0.6,3.3,1.2,5.4,1.3c2.4,0,4-0.6,5.8-1.2c0.6-0.2,1.2-0.5,1.8-0.7c-0.4,0-0.8,0.1-1.3,0.2
		c-1.8,0.3-3.6,0.6-6.1-0.4c-2-0.8-3.6-1.8-4.9-2.6c-2.4-1.5-4.2-2.6-7.7-2.6c-1.8,0-3.4,0.3-5.2,0.7c-1.8,0.4-3.7,0.8-5.9,0.8
		c-0.4,0-0.8-0.3-0.8-0.8s0.3-0.8,0.8-0.8c2,0,3.8-0.4,5.6-0.8c1.9-0.4,3.6-0.8,5.5-0.7c3.9,0,6,1.3,8.5,2.9
		c1.4,0.8,2.8,1.7,4.7,2.5c2.1,0.8,3.6,0.6,5.3,0.3c1.9-0.3,3.8-0.6,6.5,0.6c0.3,0.2,0.5,0.5,0.4,0.9c-0.1,0.4-0.4,0.6-0.7,0.6
		c-2.6,0.1-4.3,0.7-6,1.4c-1.8,0.7-3.6,1.4-6.4,1.4c-2.4,0-4.3-0.7-5.9-1.4c-2.8-1-5.1-1.9-9.2,0.2
		C169.8,147,166.8,147.9,164.6,147.9L164.6,147.9z"/>
	<path class="st5" d="M140.2,201.1c0,0-0.1,0-0.2,0c-0.4-0.1-0.6-0.4-0.6-0.7c-0.1-2.6-0.7-4.3-1.4-6c-0.7-1.8-1.4-3.6-1.4-6.4
		c0-2.4,0.7-4.3,1.4-5.9c1-2.8,1.9-5.1-0.2-9.2c-1.5-3-2.4-6-2.4-8.3c0-0.4,0.4-0.8,0.8-0.8c0.4,0,0.8,0.4,0.8,0.8
		c0,2,0.8,4.7,2.2,7.5c2.4,4.8,1.4,7.5,0.3,10.5c-0.6,1.6-1.2,3.3-1.3,5.4c0,2.4,0.6,4,1.2,5.8c0.2,0.6,0.5,1.2,0.7,1.8
		c0-0.4-0.1-0.8-0.2-1.3c-0.3-1.8-0.6-3.6,0.4-6.1c0.8-2,1.8-3.6,2.6-4.9c1.5-2.4,2.6-4.2,2.6-7.7c0-1.8-0.3-3.4-0.7-5.2
		c-0.4-1.8-0.8-3.7-0.8-5.9c0-0.4,0.3-0.8,0.8-0.8c0.4,0,0.8,0.3,0.8,0.8c0,2,0.4,3.8,0.8,5.6c0.4,1.9,0.8,3.6,0.7,5.5
		c0,3.9-1.3,6-2.9,8.5c-0.8,1.4-1.7,2.8-2.5,4.7c-0.8,2.1-0.6,3.6-0.3,5.3c0.3,1.9,0.6,3.8-0.6,6.5
		C140.8,200.9,140.5,201.1,140.2,201.1L140.2,201.1z"/>
	<path class="st6" d="M107.7,147.4C107.7,147.4,107.6,147.4,107.7,147.4c-4,0-6.1-1.3-8.6-2.9c-1.4-0.8-2.8-1.7-4.7-2.5
		c-2.1-0.8-3.6-0.6-5.3-0.3c-1.9,0.3-3.8,0.6-6.5-0.6c-0.3-0.2-0.5-0.5-0.4-0.9c0.1-0.4,0.4-0.6,0.7-0.6c2.6-0.1,4.3-0.7,6-1.4
		c1.8-0.7,3.6-1.4,6.4-1.4c2.4,0,4.3,0.7,5.9,1.4c2.8,1,5.1,1.9,9.2-0.2c3-1.5,6-2.4,8.3-2.4c0.4,0,0.8,0.4,0.8,0.8
		c0,0.4-0.4,0.8-0.8,0.8c0,0,0,0,0,0c-2,0-4.7,0.8-7.5,2.2c-4.8,2.4-7.5,1.4-10.5,0.3c-1.6-0.6-3.3-1.2-5.4-1.3
		c-2.4,0-4,0.6-5.8,1.2c-0.6,0.2-1.2,0.5-1.8,0.7c0.4,0,0.8-0.1,1.3-0.2c1.8-0.3,3.6-0.6,6.1,0.4c2,0.8,3.6,1.8,4.9,2.6
		c2.4,1.5,4.2,2.6,7.7,2.6c0,0,0,0,0.1,0c1.7,0,3.4-0.3,5.1-0.7c1.8-0.4,3.7-0.8,5.9-0.8c0.4,0,0.8,0.3,0.8,0.8s-0.3,0.8-0.8,0.8
		c-2,0-3.8,0.4-5.6,0.8C111.3,147,109.6,147.4,107.7,147.4L107.7,147.4z"/>
	<path class="st4" d="M123.1,128.7c-0.2,0-0.4-0.1-0.5-0.2c-1.5-1.4-3-2.4-4.5-3.4c-1.6-1-3.1-2-4.4-3.4c-2.8-2.8-3.3-5.2-4-8
		c-0.4-1.6-0.7-3.2-1.5-5.1c-0.9-2.1-2.1-3-3.5-4c-1.5-1.1-3.1-2.3-4.2-5c-0.1-0.3,0-0.7,0.3-0.9c0.3-0.2,0.7-0.2,1,0.1
		c1.9,1.8,3.6,2.5,5.2,3.3c1.8,0.8,3.6,1.6,5.4,3.5c1.7,1.7,2.5,3.6,3.3,5.2c1.3,2.7,2.3,4.9,6.7,6.4c3.2,1,5.9,2.6,7.5,4.2
		c0.3,0.3,0.3,0.8,0,1.1c-0.3,0.3-0.8,0.3-1.1,0c-1.4-1.4-3.9-2.8-6.9-3.8c-5.1-1.7-6.3-4.3-7.6-7.2c-0.7-1.6-1.5-3.2-3-4.7
		c-1.7-1.7-3.3-2.4-5-3.2c-0.6-0.3-1.2-0.5-1.8-0.8c0.3,0.3,0.7,0.5,1,0.8c1.5,1.1,3,2.1,4,4.6c0.9,2,1.3,3.8,1.6,5.3
		c0.6,2.7,1.1,4.8,3.6,7.3c1.2,1.3,2.7,2.2,4.2,3.2c1.6,1,3.2,2.1,4.7,3.6c0.3,0.3,0.3,0.8,0,1.1
		C123.5,128.6,123.3,128.7,123.1,128.7L123.1,128.7z"/>
	<path class="st6" d="M161.6,130.1c-0.2,0-0.4-0.1-0.6-0.2c-0.3-0.3-0.3-0.8,0-1.1c1.4-1.4,2.8-3.9,3.8-6.9c1.7-5.1,4.3-6.3,7.2-7.6
		c1.6-0.7,3.2-1.5,4.7-3c1.7-1.7,2.4-3.3,3.2-5c0.3-0.6,0.5-1.2,0.8-1.8c-0.3,0.3-0.5,0.7-0.8,1c-1.1,1.5-2.1,3-4.6,4
		c-2,0.9-3.8,1.3-5.3,1.6c-2.7,0.6-4.8,1.1-7.3,3.6c-1.3,1.2-2.2,2.7-3.2,4.2c-1,1.6-2.1,3.2-3.6,4.7c-0.3,0.3-0.8,0.3-1.1,0
		c-0.3-0.3-0.3-0.8,0-1.1c1.4-1.5,2.4-3,3.4-4.5c1-1.6,2-3.1,3.4-4.4c2.8-2.8,5.2-3.3,8-4c1.6-0.4,3.2-0.7,5.1-1.5
		c2.1-0.9,3-2.1,4-3.5c1.1-1.5,2.3-3.1,5-4.2c0.3-0.1,0.7,0,0.9,0.3c0.2,0.3,0.2,0.7-0.1,1c-1.8,1.9-2.5,3.6-3.3,5.2
		c-0.8,1.8-1.6,3.6-3.5,5.4c-1.7,1.7-3.6,2.5-5.2,3.3c-2.7,1.3-4.9,2.3-6.4,6.7c-1,3.2-2.6,5.9-4.2,7.5
		C162,130,161.8,130.1,161.6,130.1L161.6,130.1z"/>
	<path class="st6" d="M182.1,184.9c-0.2,0-0.4-0.1-0.5-0.2c-1.9-1.8-3.6-2.5-5.2-3.3c-1.8-0.8-3.6-1.6-5.4-3.5
		c-1.7-1.7-2.5-3.6-3.3-5.2c-1.3-2.7-2.3-4.9-6.7-6.4c-3.2-1-5.9-2.6-7.5-4.2c-0.3-0.3-0.3-0.8,0-1.1c0.3-0.3,0.8-0.3,1.1,0
		c1.4,1.4,3.9,2.8,6.9,3.8c5.1,1.7,6.3,4.3,7.6,7.2c0.7,1.6,1.5,3.2,3,4.7c1.7,1.7,3.3,2.4,5,3.2c0.6,0.3,1.2,0.5,1.8,0.8
		c-0.3-0.3-0.7-0.5-1-0.8c-1.5-1.1-3-2.1-4-4.6c-0.9-2-1.3-3.8-1.6-5.3c-0.6-2.7-1.1-4.8-3.6-7.3c-1.2-1.3-2.7-2.2-4.2-3.2
		c-1.6-1-3.2-2.1-4.7-3.6c-0.3-0.3-0.3-0.8,0-1.1c0.3-0.3,0.8-0.3,1.1,0c1.5,1.4,3,2.4,4.5,3.4c1.6,1,3.1,2,4.4,3.4
		c2.8,2.8,3.3,5.2,4,8c0.4,1.6,0.7,3.2,1.5,5.1c0.9,2.1,2.1,3,3.5,4c1.5,1.1,3.1,2.3,4.2,5c0.1,0.3,0,0.7-0.3,0.9
		C182.4,184.9,182.2,184.9,182.1,184.9L182.1,184.9z"/>
	<path class="st4" d="M99.2,183c-0.2,0-0.5-0.1-0.6-0.3c-0.2-0.3-0.2-0.7,0.1-1c1.8-1.9,2.5-3.6,3.3-5.2c0.8-1.8,1.6-3.6,3.5-5.4
		c1.7-1.7,3.6-2.5,5.2-3.3c2.7-1.3,4.9-2.3,6.4-6.7c1-3.2,2.6-5.9,4.2-7.5c0.3-0.3,0.8-0.3,1.1,0c0.3,0.3,0.3,0.8,0,1.1
		c-1.4,1.4-2.8,3.9-3.8,6.9c-1.7,5.1-4.3,6.3-7.2,7.6c-1.6,0.7-3.2,1.5-4.7,3c-1.7,1.7-2.4,3.3-3.2,5c-0.3,0.6-0.5,1.2-0.8,1.8
		c0.3-0.3,0.5-0.7,0.8-1c1.1-1.5,2.1-3,4.6-4c2-0.9,3.8-1.3,5.3-1.6c2.7-0.6,4.8-1.1,7.3-3.6c1.3-1.2,2.2-2.7,3.2-4.2
		c1-1.6,2.1-3.2,3.6-4.7c0.3-0.3,0.8-0.3,1.1,0c0.3,0.3,0.3,0.8,0,1.1c-1.4,1.5-2.4,3-3.4,4.5c-1,1.6-2,3.1-3.4,4.4
		c-2.8,2.8-5.2,3.3-8,4c-1.6,0.4-3.2,0.7-5.1,1.5c-2.1,0.9-3,2.1-4,3.5c-1.1,1.5-2.3,3.1-5,4.2C99.4,183,99.3,183,99.2,183L99.2,183
		z"/>
	<path class="st6" d="M186.6,100.8c-0.6,0-1.1-0.5-1.1-1.1c0-0.6,0.5-1.1,1.1-1.1c0.6,0,1.1,0.5,1.1,1.1
		C187.6,100.4,187.1,100.8,186.6,100.8z M186.6,99.6c-0.1,0-0.2,0.1-0.2,0.2s0.1,0.2,0.2,0.2s0.2-0.1,0.2-0.2S186.7,99.6,186.6,99.6
		z"/>
	<path class="st5" d="M143.6,81.3c-0.3,0-0.5-0.1-0.8-0.3c-0.4-0.4-0.4-1.1,0-1.5c0.4-0.4,1.1-0.4,1.5,0c0.4,0.4,0.4,1.1,0,1.5
		C144.1,81.2,143.8,81.3,143.6,81.3L143.6,81.3z M143.6,80c-0.1,0-0.1,0-0.2,0.1c-0.1,0.1-0.1,0.2,0,0.3c0.1,0.1,0.2,0.1,0.3,0
		c0.1-0.1,0.1-0.2,0-0.3C143.7,80.1,143.6,80,143.6,80z"/>
	<path class="st4" d="M99.7,97.8L99.7,97.8c-0.3,0-0.6-0.1-0.8-0.3c-0.2-0.2-0.3-0.5-0.3-0.8c0-0.6,0.5-1.1,1.1-1.1l0,0l0,0
		c0.3,0,0.6,0.1,0.8,0.3c0.2,0.2,0.3,0.5,0.3,0.8c0,0.3-0.1,0.6-0.3,0.8C100.3,97.7,100,97.8,99.7,97.8z M99.7,96.5
		c-0.1,0-0.1,0-0.2,0.1c0,0-0.1,0.1-0.1,0.2c0,0.1,0,0.1,0.1,0.2c0,0,0.1,0.1,0.2,0.1l0,0l0,0c0.1,0,0.1,0,0.2-0.1
		c0,0,0.1-0.1,0.1-0.2c0-0.1,0-0.1-0.1-0.2C99.8,96.6,99.8,96.5,99.7,96.5z"/>
	<path class="st6" d="M80.3,141.2c-0.3,0-0.5-0.1-0.7-0.3c-0.2-0.2-0.3-0.5-0.3-0.8c0-0.3,0.1-0.6,0.3-0.8c0.2-0.2,0.5-0.3,0.8-0.3
		c0.3,0,0.6,0.1,0.8,0.3c0.2,0.2,0.3,0.5,0.3,0.8c0,0.3-0.1,0.6-0.3,0.8C80.8,141.1,80.5,141.2,80.3,141.2L80.3,141.2z M80.3,139.9
		L80.3,139.9c-0.1,0-0.1,0-0.2,0.1c0,0-0.1,0.1-0.1,0.2s0,0.1,0.1,0.2c0,0,0.1,0.1,0.2,0.1c0.1,0,0.1,0,0.2-0.1c0,0,0.1-0.1,0.1-0.2
		s0-0.1-0.1-0.2C80.4,140,80.3,139.9,80.3,139.9z"/>
	<path class="st4" d="M96.9,185c-0.3,0-0.5-0.1-0.7-0.3c-0.2-0.2-0.3-0.5-0.3-0.8c0-0.6,0.5-1.1,1.1-1.1l0,0c0.6,0,1.1,0.5,1.1,1.1
		c0,0.3-0.1,0.6-0.3,0.8C97.5,184.9,97.2,185,96.9,185L96.9,185L96.9,185z M96.7,184c0,0.1,0.1,0.2,0.2,0.2l0,0
		c0.1,0,0.2-0.1,0.2-0.2C97.2,184,96.7,184,96.7,184z M96.9,183.8L96.9,183.8c-0.1,0-0.1,0-0.2,0.1s-0.1,0.1-0.1,0.2l0,0h0.4
		c0-0.1,0-0.1-0.1-0.2C97.1,183.8,97,183.8,96.9,183.8z"/>
	<path class="st5" d="M139.8,204.3c-0.3,0-0.5-0.1-0.7-0.3c-0.2-0.2-0.3-0.5-0.3-0.8c0-0.3,0.1-0.6,0.3-0.8c0.4-0.4,1.1-0.4,1.5,0
		c0.2,0.2,0.3,0.5,0.3,0.8s-0.1,0.6-0.3,0.8C140.3,204.2,140.1,204.3,139.8,204.3L139.8,204.3L139.8,204.3z M139.8,203
		c-0.1,0-0.1,0-0.2,0.1c-0.1,0.1-0.1,0.2,0,0.3c0,0,0.1,0.1,0.2,0.1l0,0c0.1,0,0.1,0,0.2-0.1c0,0,0.1-0.1,0.1-0.2
		c0-0.1,0-0.1-0.1-0.2C139.9,203,139.8,203,139.8,203z"/>
	<path class="st6" d="M184,187.1c-0.3,0-0.5-0.1-0.7-0.3c-0.2-0.2-0.3-0.5-0.3-0.7c0-0.6,0.5-1.1,1.1-1.1c0.3,0,0.6,0.1,0.8,0.3
		s0.3,0.5,0.3,0.7C185.1,186.7,184.7,187.1,184,187.1C184.1,187.1,184,187.1,184,187.1L184,187.1z M184,185.9L184,185.9
		c-0.1,0-0.2,0.1-0.2,0.2c0,0.1,0,0.1,0.1,0.2c0,0,0.1,0.1,0.2,0.1c0.1,0,0.2-0.1,0.2-0.2C184.3,185.9,184.2,185.9,184,185.9
		L184,185.9z"/>
	<path class="st4" d="M203.2,144.3c-0.3,0-0.5-0.1-0.7-0.3c-0.2-0.2-0.3-0.5-0.3-0.8c0-0.3,0.1-0.6,0.3-0.8c0.2-0.2,0.5-0.3,0.8-0.3
		c0.3,0,0.6,0.1,0.8,0.3c0.2,0.2,0.3,0.5,0.3,0.8c0,0.3-0.1,0.6-0.3,0.8C203.8,144.2,203.5,144.3,203.2,144.3L203.2,144.3z
		 M203.1,143.1c0,0-0.1,0.1-0.1,0.2s0,0.1,0.1,0.2c0,0,0.1,0.1,0.2,0.1c0.1,0,0.1,0,0.2-0.1c0,0,0.1-0.1,0.1-0.2s0-0.1-0.1-0.2
		c0,0-0.1-0.1-0.2-0.1C203.2,143,203.1,143,203.1,143.1L203.1,143.1z"/>
	<path class="st5" d="M189.4,123.9c-0.3,0-0.5-0.1-0.7-0.3c-0.2-0.2-0.3-0.5-0.3-0.8c0-0.3,0.1-0.6,0.3-0.8c0.4-0.4,1.1-0.4,1.5,0
		c0.2,0.2,0.3,0.5,0.3,0.8c0,0.3-0.1,0.6-0.3,0.8l0,0C189.9,123.7,189.7,123.9,189.4,123.9C189.4,123.9,189.4,123.9,189.4,123.9
		L189.4,123.9z M189.2,122.6c0,0-0.1,0.1-0.1,0.2c0,0.1,0,0.1,0.1,0.2s0.1,0.1,0.2,0.1c0.1,0,0.1,0,0.2-0.1c0,0,0.1-0.1,0.1-0.2
		s0-0.1-0.1-0.2c0,0-0.1-0.1-0.2-0.1C189.3,122.6,189.3,122.6,189.2,122.6L189.2,122.6z"/>
	<path class="st4" d="M161.9,95.6c-0.6,0-1.1-0.5-1.1-1.1c0-0.6,0.5-1.1,1.1-1.1c0,0,0,0,0,0c0.6,0,1.1,0.5,1.1,1.1l0,0
		C163,95.1,162.5,95.6,161.9,95.6C161.9,95.6,161.9,95.6,161.9,95.6z M162.1,94.5h-0.4c0,0.1,0.1,0.2,0.2,0.2l0,0
		c0.1,0,0.1,0,0.2-0.1C162.1,94.6,162.1,94.6,162.1,94.5z M161.9,94.3L161.9,94.3c-0.1,0-0.1,0-0.2,0.1c0,0-0.1,0.1-0.1,0.2h0.4
		C162.1,94.4,162.1,94.3,161.9,94.3z"/>
	<path class="st6" d="M123,95.2c-0.3,0-0.5-0.1-0.7-0.3c-0.4-0.4-0.4-1.1,0-1.5c0.4-0.4,1.1-0.4,1.5,0c0.4,0.4,0.4,1.1,0,1.5
		C123.6,95.1,123.3,95.2,123,95.2z M123,94c-0.1,0-0.1,0-0.2,0.1c0,0-0.1,0.1-0.1,0.2s0,0.1,0.1,0.2s0.1,0.1,0.2,0.1
		c0.1,0,0.1,0,0.2-0.1c0.1-0.1,0.1-0.2,0-0.3C123.1,94,123.1,94,123,94z"/>
	<path class="st5" d="M94.6,122.5c-0.3,0-0.5-0.1-0.7-0.3c-0.2-0.2-0.3-0.5-0.3-0.8c0-0.6,0.5-1.1,1.1-1.1c0,0,0,0,0,0
		c0.3,0,0.5,0.1,0.7,0.3c0.2,0.2,0.3,0.5,0.3,0.8C95.7,122,95.2,122.4,94.6,122.5C94.7,122.5,94.7,122.5,94.6,122.5z M94.6,121.2
		c-0.1,0-0.2,0.1-0.2,0.2c0,0.1,0,0.1,0.1,0.2s0.1,0.1,0.2,0.1C94.6,121.6,94.6,121.2,94.6,121.2z M94.6,121.2v0.4
		c0.1,0,0.2-0.1,0.2-0.2c0-0.1,0-0.1-0.1-0.2C94.8,121.2,94.7,121.2,94.6,121.2C94.6,121.2,94.6,121.2,94.6,121.2z"/>
	<path class="st5" d="M93.8,161.2c-0.3,0-0.5-0.1-0.8-0.3c-0.4-0.4-0.4-1.1,0-1.5c0.2-0.2,0.5-0.3,0.8-0.3l0,0
		c0.3,0,0.6,0.1,0.8,0.3c0.2,0.2,0.3,0.5,0.3,0.8c0,0.3-0.1,0.6-0.3,0.8C94.4,161.1,94.1,161.2,93.8,161.2L93.8,161.2z M93.8,159.9
		c-0.1,0-0.1,0-0.2,0.1c0,0-0.1,0.1-0.1,0.2c0,0.1,0,0.1,0.1,0.2c0,0,0.1,0.1,0.2,0.1l0,0c0.1,0,0.1,0,0.2-0.1
		c0.1-0.1,0.1-0.2,0-0.3C94,160,93.9,159.9,93.8,159.9z"/>
	<path class="st6" d="M121.5,190c-0.3,0-0.5-0.1-0.7-0.3c-0.2-0.2-0.3-0.5-0.3-0.7l0,0c0-0.6,0.5-1.1,1.1-1.1c0.6,0,1.1,0.5,1.1,1.1
		c0,0.3-0.1,0.6-0.3,0.8C122.1,189.9,121.8,190,121.5,190C121.5,190,121.5,190,121.5,190L121.5,190z M121.5,188.7L121.5,188.7
		c-0.1,0-0.1,0-0.2,0.1s-0.1,0.1-0.1,0.2c0,0.1,0,0.1,0.1,0.2c0,0,0.1,0.1,0.2,0.1c0.1,0,0.1,0,0.2-0.1c0,0,0.1-0.1,0.1-0.2l0,0
		c0-0.1,0-0.1-0.1-0.2S121.6,188.7,121.5,188.7z"/>
	<path class="st4" d="M160.3,190.6c-0.3,0-0.5-0.1-0.8-0.3l0,0c-0.2-0.2-0.3-0.5-0.3-0.8c0-0.3,0.1-0.6,0.3-0.8
		c0.4-0.4,1.1-0.4,1.5,0c0.2,0.2,0.3,0.5,0.3,0.8c0,0.3-0.1,0.6-0.3,0.8C160.9,190.5,160.6,190.6,160.3,190.6L160.3,190.6z
		 M160.3,189.3c-0.1,0-0.1,0-0.2,0.1c-0.1,0.1-0.1,0.2,0,0.3c0.1,0.1,0.2,0.1,0.3,0c0,0,0.1-0.1,0.1-0.2c0-0.1,0-0.1-0.1-0.2l0,0
		C160.5,189.3,160.4,189.3,160.3,189.3z"/>
	<path class="st5" d="M188.5,162.9c-0.3,0-0.5-0.1-0.7-0.3c-0.2-0.2-0.3-0.5-0.3-0.8c0-0.6,0.5-1.1,1.1-1.1c0.3,0,0.6,0.1,0.8,0.3
		s0.3,0.5,0.3,0.8C189.6,162.4,189.1,162.9,188.5,162.9L188.5,162.9C188.6,162.9,188.6,162.9,188.5,162.9z M188.5,162.3L188.5,162.3
		z M188.5,161.6c-0.1,0-0.2,0.1-0.2,0.2c0,0.1,0,0.1,0.1,0.2c0,0,0.1,0.1,0.2,0.1L188.5,161.6L188.5,161.6z M188.5,161.6
		L188.5,161.6v0.4l0,0c0.1,0,0.2-0.1,0.2-0.2c0-0.1,0-0.1-0.1-0.2S188.6,161.6,188.5,161.6L188.5,161.6z"/>
	<path class="st5" d="M142.5,119.4C142.5,119.4,142.5,119.4,142.5,119.4c-0.3,0-0.5-0.3-0.5-0.5c0.1-2.5-0.8-5-1.5-6.8l-0.1-0.2
		c-1.1-2.8-1.9-6.3,1.3-12.1c3.6-6.4,0.6-12.5,0.5-12.6c-0.1-0.2,0-0.6,0.2-0.7c0.2-0.1,0.6,0,0.7,0.2c0.1,0.3,3.3,6.6-0.6,13.6
		c-3.3,5.9-2.1,9.1-1.3,11.2l0.1,0.2c0.7,1.9,1.7,4.5,1.6,7.3C143,119.2,142.8,119.4,142.5,119.4L142.5,119.4z"/>
	<path class="st6" d="M158.3,126.7c-0.1,0-0.3-0.1-0.4-0.2c-0.2-0.2-0.2-0.5,0-0.7c1.9-1.7,2.9-4.1,3.7-5.9l0.1-0.2
		c1.2-2.7,3-5.8,9.5-7.6c7.1-2,9.2-8.5,9.2-8.5c0.1-0.3,0.4-0.4,0.7-0.3c0.3,0.1,0.4,0.4,0.3,0.7c-0.1,0.3-2.3,7.1-9.9,9.2
		c-6.5,1.9-7.9,5-8.8,7.1l-0.1,0.2c-0.8,1.9-2,4.5-4,6.3C158.6,126.6,158.5,126.7,158.3,126.7L158.3,126.7z"/>
	<path class="st4" d="M190.3,144.6c-2.1,0-4.7-0.5-7.3-1.9c-5.9-3.3-9.1-2.1-11.2-1.3l-0.2,0.1c-1.9,0.7-4.5,1.7-7.3,1.6
		c-0.3,0-0.5-0.3-0.5-0.5c0-0.3,0.3-0.5,0.5-0.5c2.5,0.1,5-0.8,6.8-1.5l0.2-0.1c2.8-1.1,6.3-1.9,12.1,1.3c6.4,3.6,12.5,0.6,12.6,0.5
		c0.2-0.1,0.6,0,0.7,0.2c0.1,0.2,0,0.6-0.2,0.7C196.5,143.4,193.9,144.6,190.3,144.6L190.3,144.6z"/>
	<path class="st6" d="M179.7,181.7c0,0-0.1,0-0.2,0c-0.3-0.1-7.1-2.3-9.2-9.9c-1.9-6.5-5-7.9-7.1-8.8l-0.2-0.1c-1.9-0.8-4.5-2-6.3-4
		c-0.2-0.2-0.2-0.5,0-0.7c0.2-0.2,0.5-0.2,0.7,0c1.7,1.9,4.1,2.9,5.9,3.7l0.2,0.1c2.7,1.2,5.8,3,7.6,9.5c2,7.1,8.5,9.2,8.5,9.2
		c0.3,0.1,0.4,0.4,0.3,0.7C180.1,181.5,179.9,181.7,179.7,181.7L179.7,181.7z"/>
	<path class="st5" d="M140.8,197c-0.2,0-0.4-0.1-0.5-0.3c-0.1-0.3-3.4-6.6,0.5-13.6c3.3-5.9,2-9.1,1.2-11.2l-0.1-0.2
		c-0.7-1.9-1.8-4.5-1.6-7.2c0-0.3,0.3-0.5,0.5-0.5c0.3,0,0.5,0.3,0.5,0.5c-0.1,2.5,0.8,5,1.6,6.8l0.1,0.2c1.1,2.8,2,6.2-1.3,12.1
		c-3.6,6.5-0.5,12.5-0.5,12.6c0.1,0.2,0,0.6-0.2,0.7C140.9,197,140.8,197,140.8,197L140.8,197z"/>
	<path class="st4" d="M102.3,180.5c0,0-0.1,0-0.2,0c-0.3-0.1-0.4-0.4-0.3-0.6c0.1-0.3,2.3-7.1,9.9-9.3c6.5-1.9,7.9-5,8.8-7.1
		l0.1-0.2c0.8-1.9,2-4.5,4-6.3c0.2-0.2,0.5-0.2,0.7,0c0.2,0.2,0.2,0.5,0,0.7c-1.8,1.7-2.9,4.1-3.7,5.9l-0.1,0.2
		c-1.2,2.7-3,5.8-9.4,7.7c-7.1,2-9.2,8.5-9.2,8.6C102.8,180.3,102.6,180.5,102.3,180.5L102.3,180.5z"/>
	<path class="st6" d="M107.1,144.2c-2,0-4.4-0.6-7.4-2.2c-6.5-3.5-12.5-0.5-12.6-0.4c-0.2,0.1-0.6,0-0.7-0.2c-0.1-0.3,0-0.6,0.2-0.7
		c0.3-0.1,6.6-3.4,13.6,0.4c5.9,3.3,9.1,2,11.2,1.2l0.2-0.1c1.9-0.7,4.5-1.8,7.2-1.7c0.3,0,0.5,0.3,0.5,0.5c0,0.3-0.2,0.5-0.5,0.5
		c-2.5-0.1-5,0.9-6.8,1.6l-0.2,0.1C110.4,143.7,108.9,144.2,107.1,144.2L107.1,144.2z"/>
	<path class="st4" d="M125.9,125.6c-0.1,0-0.3-0.1-0.4-0.2c-1.7-1.8-4.1-2.9-5.9-3.7l-0.2-0.1c-2.7-1.2-5.8-3-7.7-9.4
		c-2.1-7.1-8.5-9.2-8.6-9.2c-0.3-0.1-0.4-0.4-0.3-0.6c0.1-0.3,0.4-0.4,0.6-0.3c0.3,0.1,7.1,2.3,9.3,9.9c1.9,6.5,5,7.8,7.1,8.7
		l0.2,0.1c1.9,0.8,4.5,1.9,6.3,3.9c0.2,0.2,0.2,0.5,0,0.7C126.1,125.6,126,125.6,125.9,125.6L125.9,125.6z"/>
	<g>
		<path class="st5" d="M141.6,165.4c-13,0-23.7-10.6-23.7-23.7c0-13,10.6-23.7,23.7-23.7c13,0,23.7,10.6,23.7,23.7
			C165.3,154.8,154.7,165.4,141.6,165.4z M141.6,119.6c-12.2,0-22.1,9.9-22.1,22.1s9.9,22.1,22.1,22.1s22.1-9.9,22.1-22.1
			S153.8,119.6,141.6,119.6z"/>
		<path class="st4" d="M141.6,156.3c-8.1,0-14.6-6.6-14.6-14.6s6.6-14.6,14.6-14.6s14.6,6.6,14.6,14.6S149.7,156.3,141.6,156.3z
			 M141.6,128.7c-7.2,0-13.1,5.9-13.1,13.1s5.9,13.1,13.1,13.1s13.1-5.9,13.1-13.1S148.8,128.7,141.6,128.7z"/>
		<path class="st6" d="M141.6,149.8c-4.5,0-8.1-3.6-8.1-8.1s3.6-8.1,8.1-8.1s8.1,3.6,8.1,8.1S146.1,149.8,141.6,149.8z M141.6,135.2
			c-3.6,0-6.5,2.9-6.5,6.5s2.9,6.5,6.5,6.5s6.5-2.9,6.5-6.5S145.2,135.2,141.6,135.2z"/>
	</g>
</g>
<g>
	<path class="st0" d="M22.1,154v-2.8l5.3-10c0.3-0.5,0.4-0.9,0.5-1.3c0-0.4,0.1-0.8,0.1-1.4c0-0.2,0-0.5,0-0.8
		c0-0.3-0.1-0.5-0.2-0.7c-0.1-0.2-0.2-0.4-0.4-0.5c-0.2-0.1-0.5-0.2-0.8-0.2c-0.4,0-0.8,0.1-1.1,0.4c-0.3,0.2-0.4,0.6-0.4,1.1v1.7
		h-2.9v-1.6c0-0.6,0.1-1.2,0.3-1.7c0.2-0.5,0.5-1,0.9-1.4c0.4-0.4,0.8-0.7,1.4-1c0.5-0.2,1.1-0.4,1.7-0.4c0.8,0,1.4,0.1,2,0.4
		s1,0.7,1.4,1.1c0.3,0.5,0.6,1,0.8,1.6c0.2,0.6,0.2,1.3,0.2,2c0,0.5,0,0.9,0,1.2c0,0.3-0.1,0.7-0.1,1c-0.1,0.3-0.2,0.6-0.3,0.9
		c-0.1,0.3-0.3,0.7-0.5,1.1l-4.3,8.3h5.3v2.9L22.1,154L22.1,154z"/>
	<path class="st0" d="M34.2,137.8c0-0.7,0.1-1.3,0.4-1.8c0.2-0.5,0.6-1,1-1.4c0.4-0.4,0.9-0.7,1.4-0.9c0.5-0.2,1.1-0.3,1.7-0.3
		c0.6,0,1.1,0.1,1.7,0.3c0.5,0.2,1,0.5,1.4,0.9c0.4,0.4,0.7,0.8,1,1.4c0.2,0.5,0.4,1.2,0.4,1.8v12c0,0.7-0.1,1.3-0.4,1.8
		s-0.6,1-1,1.4c-0.4,0.4-0.9,0.7-1.4,0.9c-0.5,0.2-1.1,0.3-1.7,0.3c-0.6,0-1.1-0.1-1.7-0.3c-0.5-0.2-1-0.5-1.4-0.9
		c-0.4-0.4-0.7-0.8-1-1.4s-0.4-1.2-0.4-1.8C34.2,149.8,34.2,137.8,34.2,137.8z M37.1,149.8c0,0.4,0.1,0.8,0.4,1.1
		c0.3,0.3,0.6,0.4,1,0.4s0.8-0.1,1-0.4c0.3-0.3,0.4-0.6,0.4-1.1v-12c0-0.4-0.1-0.8-0.4-1c-0.3-0.3-0.6-0.4-1-0.4s-0.8,0.1-1,0.4
		c-0.3,0.3-0.4,0.6-0.4,1V149.8z"/>
</g>
<g>
	<path class="st0" d="M240.9,154.1v-2.8l5.3-10c0.3-0.5,0.4-0.9,0.5-1.3c0-0.4,0.1-0.8,0.1-1.4c0-0.2,0-0.5,0-0.8
		c0-0.3-0.1-0.5-0.2-0.7c-0.1-0.2-0.2-0.4-0.4-0.5s-0.5-0.2-0.8-0.2c-0.4,0-0.8,0.1-1.1,0.4c-0.3,0.2-0.4,0.6-0.4,1.1v1.7h-2.9v-1.6
		c0-0.6,0.1-1.2,0.3-1.7s0.5-1,0.9-1.4c0.4-0.4,0.8-0.7,1.4-1s1.1-0.4,1.7-0.4c0.8,0,1.4,0.1,2,0.4c0.5,0.3,1,0.7,1.4,1.1
		c0.3,0.5,0.6,1,0.8,1.6c0.2,0.6,0.2,1.3,0.2,2c0,0.5,0,0.9,0,1.2c0,0.3-0.1,0.7-0.1,1c-0.1,0.3-0.2,0.6-0.3,0.9
		c-0.1,0.3-0.3,0.7-0.5,1.1l-4.3,8.3h5.3v2.9L240.9,154.1L240.9,154.1z"/>
	<path class="st0" d="M256.5,154.1v-17.4l-2.9,2.2v-3.1l2.9-2.2h2.9v20.5H256.5z"/>
</g>
</svg>
