<svg width="1024" height="1024" viewBox="0 0 1024 1024" fill="none" xmlns="http://www.w3.org/2000/svg">
<path d="M916.358 682.789C894.293 735.086 862.598 782.019 822.37 822.248C782.141 862.476 735.208 894.171 682.91 916.236C628.663 939.276 571.246 950.857 512 950.857C452.754 950.857 395.337 939.276 341.211 916.358C288.914 894.293 241.981 862.598 201.752 822.37C161.524 782.141 129.829 735.208 107.764 682.91C84.7238 628.663 73.1428 571.246 73.1428 512C73.1428 452.754 84.7238 395.337 107.642 341.211C129.707 288.914 161.402 241.981 201.63 201.752C241.859 161.524 288.792 129.829 341.089 107.764C395.337 84.7238 452.754 73.1429 512 73.1429C571.246 73.1429 628.663 84.7238 682.789 107.642C735.086 129.707 782.019 161.402 822.248 201.63C862.476 241.859 894.171 288.792 916.236 341.09C939.276 395.337 950.857 452.754 950.857 512C950.857 571.246 939.276 628.663 916.358 682.789Z" fill="#011EA0"/>
<path d="M983.65 312.686C957.806 251.733 920.991 196.998 873.935 149.943C827.002 103.01 772.267 66.0724 711.192 40.2286C648.168 13.5314 580.998 0 512 0C443.002 0 375.832 13.5314 312.686 40.3505C251.733 66.1943 196.998 103.01 149.943 150.065C102.888 197.12 66.0724 251.733 40.2286 312.808C13.5314 375.832 0 443.002 0 512C0 580.998 13.5314 648.168 40.3505 711.314C66.1943 772.267 103.01 827.002 150.065 874.057C196.998 920.991 251.733 957.928 312.808 983.771C375.832 1010.47 443.002 1024 512 1024C580.998 1024 648.168 1010.47 711.314 983.65C772.267 957.806 827.002 920.991 874.057 873.935C921.112 826.88 957.928 772.267 983.771 711.192C1010.47 648.168 1024 580.998 1024 512C1024 443.002 1010.47 375.832 983.65 312.686ZM916.358 682.789C894.293 735.086 862.598 782.019 822.37 822.248C782.141 862.476 735.208 894.171 682.911 916.236C628.663 939.276 571.246 950.857 512 950.857C452.754 950.857 395.337 939.276 341.211 916.358C288.914 894.293 241.981 862.598 201.752 822.37C161.524 782.141 129.829 735.208 107.764 682.911C84.7238 628.663 73.1429 571.246 73.1429 512C73.1429 452.754 84.7238 395.337 107.642 341.211C129.707 288.914 161.402 241.981 201.63 201.752C241.859 161.524 288.792 129.829 341.09 107.764C395.337 84.7238 452.754 73.1429 512 73.1429C571.246 73.1429 628.663 84.7238 682.789 107.642C735.086 129.707 782.019 161.402 822.248 201.63C862.476 241.859 894.171 288.792 916.236 341.09C939.276 395.337 950.857 452.754 950.857 512C950.857 571.246 939.276 628.663 916.358 682.789Z" fill="black"/>
<path d="M786.53 270.385L751.909 344.503C785.067 392.046 804.572 449.707 804.572 512C804.572 564.175 790.918 613.059 767.025 655.482L776.533 764.587C839.193 699.002 877.714 610.011 877.714 512.122C877.714 419.352 843.337 334.872 786.53 270.385Z" fill="white"/>
<path d="M549.059 802.255V776.655V731.307V691.931V678.888V518.827V357.669V221.745C579.779 225.646 609.036 234.301 635.977 246.979L666.941 180.663C619.886 158.598 567.345 146.286 512 146.286C456.655 146.286 404.114 158.598 357.059 180.663L388.023 246.979C415.33 234.179 444.952 225.524 476.038 221.623V357.669V521.874V675.596V694.979V731.916V776.655V802.377C447.025 798.842 419.231 790.918 393.509 779.581L386.804 855.771C425.813 869.912 467.992 877.714 512 877.714C556.13 877.714 598.552 869.912 637.684 855.528L630.979 779.337C605.501 790.796 577.951 798.598 549.059 802.255Z" fill="white"/>
<path d="M237.471 270.385C180.663 334.872 146.286 419.352 146.286 512C146.286 610.133 184.93 699.246 247.832 764.831L257.341 655.97C233.204 613.547 219.429 564.419 219.429 512C219.429 449.707 238.933 392.046 272.091 344.625L237.471 270.385Z" fill="white"/>
<path d="M725.577 603.185L705.219 369.981L704.244 359.01L725.943 312.442L758.735 242.103C740.328 225.28 720.335 210.408 698.758 197.608L667.673 264.29L633.905 336.823L585.875 439.954V613.059L642.438 491.764L652.8 609.646L665.966 760.93L672.915 840.533C697.783 828.343 721.067 813.349 742.4 796.038L734.233 702.293L725.577 603.185Z" fill="white"/>
<path d="M439.589 443.977L386.682 330.484L355.962 264.533L324.876 197.851C303.421 210.651 283.307 225.646 265.021 242.469L297.813 312.93L319.756 359.863L319.634 361.935L299.398 593.067L289.89 702.293L281.722 796.038C303.055 813.349 326.339 828.343 351.208 840.533L358.156 760.808L372.297 599.284L381.684 492.373L439.832 617.082V443.977H439.589Z" fill="white"/>
</svg>
