<?xml version="1.0" encoding="UTF-8"?>
<svg id="_Слой_2" data-name="Слой 2" xmlns="http://www.w3.org/2000/svg" viewBox="0 0 181.27 283.46">
  <defs>
    <style>
      .cls-1 {
        fill: #e4e4e6;
      }

      .cls-2 {
        fill: #8dd2f4;
      }

      .cls-3 {
        fill: #e31f24;
      }

      .cls-4 {
        fill: #231f20;
      }

      .cls-5 {
        fill: #1d1d1b;
        stroke: #000;
        stroke-miterlimit: 10;
      }
    </style>
  </defs>
  <g id="_Слой_1-2" data-name="Слой 1">
    <g id="layer1">
      <g id="g4644">
        <path id="path4646" class="cls-1" d="M119.99,24.81l-3.29,15.79c-.97,4.62-2.19,10.35-3.53,16.7l-.79,.37c1.52-17.02,1.47-30.57-1.54-37.06-2.5-5.38-6.41-10.37-11.35-14.34-6.94-5.58-11.4-6.26-11.4-6.26l.09,68.93L10.59,105.02C.02,109.97,0,122.42,0,122.42v118.68l90.64,42.37,90.63-42.37V25.61l-45.83,21.32c-1.75-4.37-3.95-8.48-6.55-12.15-1.05-1.57-2.14-3.01-3.19-4.33-1.87-2.36-5.71-5.65-5.71-5.65"/>
      </g>
      <g id="g4648">
        <path id="path4650" class="cls-1" d="M37.1,53.07l4.17,12.05,4.17-12.05,12.52,2.41-8.35-9.63,8.35-9.63-12.52,2.41-4.17-12.05-4.17,12.05-12.51-2.41,8.35,9.63-8.35,9.63,12.51-2.42Z"/>
      </g>
      <g id="g4652">
        <path id="path4654" class="cls-2" d="M10.59,162.71C.02,167.65,0,180.1,0,180.1v57.63s.02-12.45,10.59-17.4l170.68-79.41v-57.63L10.59,162.71Z"/>
      </g>
      <g id="g4656">
        <path id="path4658" class="cls-4" d="M162.71,169.35c5.27-6.26,6.38-12.11,6.38-12.11,0,0-45.09,14.69-59.93,19.57,3.72-1.64,6.41-2.56,8.04-3.26,6.05-2.6,45.29-15.8,49.68-24.03,4.28-8.02,4.13-14.64,4.13-14.64,0,0-43.99,25.44-59.78,34.62,3.69-2.66,6.43-4.3,8.04-5.44,5.97-4.22,45.57-27.63,48.45-37.6,2.8-9.71,1.11-16.87,1.11-16.87,0,0-41.8,37.7-56.9,51.38,3.13-3.41,5.53-5.65,6.94-7.18,5.51-5.96,43.15-40.56,43.97-52.05,.8-11.2-2.69-18.59-2.69-18.59,0,0-37.76,52.06-50.52,69.73,2.68-4.55,4.82-7.61,6.02-9.63,4.62-7.76,37.53-54.05,35.76-66.73-1.72-12.36-7.22-19.58-7.22-19.58,0,0-28.61,64.39-38.59,86.99,1.92-5.81,3.6-9.77,4.47-12.31,3.22-9.5,28.29-67.41,23.45-80.78-2.06-5.69-4.26-9.28-6.98-13.37-2.72-4.08-5.14-6.46-5.14-6.46-1.34,6.29-11.26,53.21-17.76,84.05l-3.8,21.75c-1.37,7.86-.08,13.11,.54,15l.49,1.39c7.23,21.44,1.66,31.83-1.1,35.33l-.11,.14c-.55,.69-1.86,2.3-3.98,3.51-1.68,.87-3.43,1.32-5.2,1.32-1.06,0-2.11-.16-3.12-.47-9.54-3.15-6.07-13.89-6.04-14-.8,4.47,.34,7.38,1.43,9.04,1.64,2.48,4.35,3.96,7.27,3.96,4.85,0,7.5-3.29,8.38-4.38l.11-.14c2.63-3.32,7.94-13.35,.56-34.57h0c-.2-.6-2.38-7.46-1.04-15.12l5.11-29.44c3.69-23.46,11.36-72.26,5.29-85.34-2.81-6.04-6.79-10.25-10.58-13.36-3.79-3.11-7.21-4.64-7.21-4.64l.15,116.31c.01,6.21,.21,11.33,.51,15.54,0,0,.22,2.95,.55,6,.33,3.06,1.76,9.37,2.59,12.23l1,3.36c3.78,13.23,2.03,21.6-1.01,25.45-.73,.9-1.94,2.5-4.34,2.5-2.69,0-5.55-3.19-2.12-11.2,3.44-8.01,5.15-16.46-2.14-23.7-.69-.71-1.43-1.39-2.24-2-5.18-3.89-8.15-5.59-11.32-7.33-1.66-.91-10.74,.95-10.74,.95l-21.75-9.73-.04,.4s31.22,22.48,36.89,27.24c5.22,4.37,2.48,11.29-2.54,15.24-5.74,4.51-22.71,14.05-22.71,14.05v1.01c0,11.35,1.68,16.02,9.4,25.5,14.9,18.26,21.63,25.61,21.63,44.66,.85,.59,3.85,1.89,3.85,1.89v-32.21c0-14.61,3.81-24.43,21.54-24.43l-12.39-11.6c1.8,1.34,2.95,2.38,3.75,2.98,3.11,2.33,21.42,18.49,26.92,18.31,5.37-.18,8.69-2.2,8.69-2.2,0,0-28.63-16.5-36.62-21.07,2.65,1.17,4.4,2.15,5.5,2.66,3.92,1.81,27.58,15.15,33.53,13.68,5.79-1.44,8.95-4.42,8.95-4.42,0,0-35.31-11.44-44.82-14.49,3.26,.68,5.46,1.36,6.82,1.66,4.68,1.06,33.48,10.09,39.6,7.11,5.97-2.9,8.71-6.87,8.71-6.87,0,0-40.26-4.12-52.15-5.33,2.88,.04,5.66,.21,6.98,.23,5.33,.07,38.72,3.23,44.68-1.41,5.81-4.53,7.88-9.47,7.88-9.47,0,0-43.67,4.62-57,6.07,3.57-.75,6.12-1.06,7.69-1.37,5.81-1.15,42.82-5.43,48.23-11.86"/>
      </g>
      <g id="g4660">
        <path id="path4662" class="cls-3" d="M74.98,150.61s-1.82,.49-3.21-.34c-1.39-.84-1.81-2.67-1.81-2.67,0,0,1.82-.48,3.21,.35,1.39,.83,1.81,2.67,1.81,2.67"/>
      </g>
      <g>
        <path class="cls-5" d="M95.16,271.88l-.07-19.22,10.07-4.7v2.59s-6.68,3.12-6.68,3.12l.02,5.83,5.83-2.72v2.59s-5.82,2.72-5.82,2.72l.03,8.21-3.38,1.58Z"/>
        <path class="cls-5" d="M119.78,254.89v1.19c0,.59-.13,1.22-.4,1.88-.27,.66-.65,1.31-1.14,1.95-.48,.64-1.05,1.24-1.7,1.78-.65,.55-1.35,1-2.1,1.35-.64,.3-1.29,.53-1.96,.7-.66,.17-1.26,.19-1.79,.08-.53-.11-.97-.37-1.31-.78-.35-.41-.52-1.05-.52-1.93l-.04-10.58c0-.63,.13-1.28,.39-1.94,.26-.66,.64-1.31,1.12-1.93,.48-.62,1.06-1.2,1.74-1.74,.67-.54,1.42-1,2.23-1.38,1.59-.74,2.88-.92,3.88-.54,.49,.19,.87,.5,1.15,.94,.28,.44,.42,.99,.42,1.66v1.08s-3.38,1.58-3.38,1.58v-.92c0-.54-.19-.92-.57-1.14-.38-.22-.89-.18-1.53,.12-.84,.39-1.4,.86-1.67,1.42s-.41,1.15-.41,1.8l.04,9.83c0,.56,.15,.96,.45,1.2,.3,.24,.84,.18,1.61-.18,.22-.1,.46-.25,.71-.43,.25-.18,.49-.4,.71-.64,.2-.24,.36-.51,.49-.83,.13-.31,.2-.66,.2-1.04v-.95s3.38-1.58,3.38-1.58Z"/>
        <path class="cls-5" d="M129.38,255.89l-.07-19.22,3.38-1.58,.07,19.22-3.38,1.58Z"/>
        <path class="cls-5" d="M148.58,233.21l-3.38,1.58v-.62c0-.63-.19-1.09-.56-1.38-.37-.29-.98-.23-1.84,.17-.46,.22-.84,.46-1.13,.74-.29,.28-.52,.57-.69,.86-.18,.32-.3,.64-.36,.97-.07,.33-.1,.65-.1,.98,0,.38,.02,.69,.05,.92,.03,.24,.12,.42,.25,.56,.13,.14,.33,.22,.58,.24,.25,.03,.6,0,1.04-.06l2.59-.37c.75-.12,1.36-.13,1.82-.03,.47,.1,.83,.29,1.1,.58,.24,.32,.41,.73,.5,1.24,.09,.51,.14,1.11,.14,1.81,0,.81-.09,1.61-.29,2.39-.2,.79-.51,1.52-.95,2.22-.46,.72-1.07,1.4-1.82,2.04-.75,.64-1.67,1.21-2.75,1.72-.82,.38-1.58,.62-2.29,.72-.71,.1-1.32,.06-1.83-.12-.51-.18-.91-.47-1.21-.88-.3-.41-.45-.94-.45-1.59v-1.03s3.38-1.58,3.38-1.58v.86c0,.5,.19,.87,.56,1.11,.36,.23,.98,.15,1.84-.25,.57-.27,1.02-.54,1.34-.83,.32-.28,.57-.59,.74-.93,.18-.33,.28-.69,.31-1.05,.03-.37,.05-.77,.05-1.2,0-.5-.03-.91-.07-1.21-.05-.3-.13-.52-.27-.66-.16-.13-.36-.19-.61-.2-.26,0-.59,.02-1.01,.07l-2.42,.32c-1.46,.19-2.44,0-2.94-.56-.5-.57-.75-1.46-.76-2.66,0-.72,.12-1.46,.36-2.22,.24-.76,.6-1.49,1.09-2.18,.46-.68,1.05-1.33,1.77-1.95,.72-.61,1.57-1.15,2.57-1.62,.84-.39,1.61-.62,2.3-.7,.7-.07,1.3-.02,1.81,.16,1.02,.39,1.53,1.14,1.53,2.26v1.35Z"/>
        <path class="cls-5" d="M163.68,226.16l-3.38,1.58v-.62c0-.63-.19-1.09-.56-1.38-.37-.29-.98-.23-1.84,.17-.46,.22-.84,.46-1.13,.74-.29,.28-.52,.57-.69,.87-.18,.32-.3,.64-.36,.97-.07,.33-.1,.65-.1,.98,0,.38,.02,.69,.05,.92,.03,.24,.12,.42,.25,.56,.13,.14,.33,.22,.58,.24,.25,.02,.6,0,1.04-.06l2.59-.37c.75-.12,1.36-.12,1.82-.03,.47,.1,.83,.29,1.1,.58,.24,.32,.41,.73,.5,1.24s.14,1.11,.14,1.81c0,.81-.09,1.61-.29,2.39-.2,.79-.51,1.52-.95,2.22-.46,.72-1.07,1.4-1.82,2.04-.75,.64-1.67,1.21-2.75,1.72-.82,.38-1.58,.62-2.29,.72-.71,.1-1.32,.06-1.83-.12-.51-.18-.91-.47-1.21-.88-.3-.41-.45-.94-.45-1.59v-1.03s3.38-1.58,3.38-1.58v.86c0,.5,.19,.87,.56,1.11,.37,.23,.98,.15,1.84-.25,.57-.27,1.02-.54,1.34-.83,.32-.28,.57-.59,.74-.93,.18-.33,.28-.69,.31-1.05,.03-.37,.05-.77,.05-1.2,0-.5-.03-.91-.07-1.21-.05-.3-.13-.52-.27-.66-.16-.13-.36-.19-.61-.2-.25,0-.59,.02-1.01,.07l-2.42,.32c-1.46,.19-2.44,0-2.94-.56-.5-.57-.75-1.46-.76-2.66,0-.72,.12-1.46,.36-2.22s.6-1.49,1.09-2.18c.46-.68,1.05-1.33,1.77-1.95,.72-.61,1.57-1.15,2.57-1.62,.84-.39,1.61-.62,2.3-.7,.7-.07,1.3-.02,1.81,.16,1.02,.39,1.53,1.14,1.54,2.26v1.35Z"/>
        <path class="cls-5" d="M168.01,237.85l-.07-19.22,3.38-1.58,.07,19.22-3.38,1.58Z"/>
      </g>
    </g>
  </g>
</svg>