<svg width="1024" height="1024" viewBox="0 0 1024 1024" fill="none" xmlns="http://www.w3.org/2000/svg">
<path d="M512 1024C794.77 1024 1024 794.77 1024 512C1024 229.23 794.77 0 512 0C229.23 0 0 229.23 0 512C0 794.77 229.23 1024 512 1024Z" fill="#4F0016"/>
<path d="M512 1001.8C415.127 1001.8 320.429 973.073 239.882 919.253C159.335 865.433 96.5558 788.937 59.484 699.438C22.4122 609.939 12.7126 511.456 31.6116 416.445C50.5106 321.433 97.1595 234.159 165.659 165.659C234.159 97.1595 321.433 50.5106 416.445 31.6115C511.457 12.7125 609.939 22.4122 699.438 59.4839C788.937 96.5557 865.434 159.335 919.253 239.882C973.073 320.429 1001.8 415.127 1001.8 512C1001.65 641.856 949.995 766.35 858.173 858.173C766.351 949.995 641.856 1001.65 512 1001.8ZM512 32.7679C417.124 32.703 324.361 60.7819 245.448 113.452C166.534 166.121 105.017 241.015 68.6797 328.657C32.3423 416.298 22.8178 512.748 41.3113 605.804C59.8048 698.86 105.485 784.34 172.572 851.427C239.66 918.515 325.139 964.195 418.195 982.688C511.251 1001.18 607.702 991.657 695.343 955.32C782.985 918.983 857.878 857.466 910.548 778.552C963.218 699.639 991.297 606.876 991.232 512C990.994 384.973 940.427 263.217 850.605 173.395C760.783 83.5729 639.027 33.006 512 32.7679Z" fill="#CDB500"/>
<path d="M512 54.6405C421.543 54.6405 333.117 81.4642 257.905 131.719C182.692 181.975 124.072 253.405 89.4551 336.976C54.8387 420.548 45.7814 512.507 63.4287 601.226C81.0761 689.945 124.635 771.439 188.598 835.402C252.561 899.365 334.055 942.924 422.774 960.571C511.493 978.219 603.452 969.161 687.024 934.545C770.595 899.928 842.025 841.307 892.281 766.095C942.536 690.883 969.359 602.457 969.359 512C969.229 390.741 921.002 274.485 835.258 188.742C749.515 102.998 633.259 54.7706 512 54.6405ZM512 873.841C440.435 873.841 370.477 852.619 310.972 812.859C251.468 773.1 205.09 716.588 177.703 650.47C150.316 584.353 143.15 511.598 157.112 441.408C171.074 371.218 205.536 306.744 256.14 256.14C306.744 205.536 371.218 171.074 441.408 157.112C511.599 143.15 584.353 150.316 650.471 177.703C716.588 205.09 773.1 251.468 812.86 310.972C852.619 370.476 873.841 440.435 873.841 512C873.711 607.926 835.547 699.886 767.716 767.716C699.886 835.546 607.926 873.711 512 873.841Z" fill="#688FB5"/>
<path d="M512 849.101C445.328 849.101 380.153 829.33 324.717 792.289C269.281 755.248 226.074 702.6 200.559 641.003C175.045 579.406 168.369 511.626 181.376 446.235C194.384 380.844 226.489 320.778 273.634 273.634C320.778 226.489 380.844 194.384 446.235 181.376C511.626 168.369 579.406 175.045 641.003 200.559C702.6 226.074 755.248 269.281 792.289 324.717C829.33 380.153 849.101 445.328 849.101 512C848.992 601.371 813.442 687.051 750.246 750.246C687.051 813.442 601.371 848.992 512 849.101Z" fill="#CDB500"/>
<path d="M405.75 812.401C474.489 836.76 549.511 836.76 618.251 812.401V211.6C549.511 187.24 474.489 187.24 405.75 211.6V812.401Z" fill="#E7E7E7"/>
<path d="M618.25 211.599V812.401C680.388 790.454 734.191 749.779 772.246 695.978C810.302 642.177 830.738 577.9 830.738 512C830.738 446.101 810.302 381.823 772.246 328.022C734.191 274.222 680.388 233.546 618.25 211.599Z" fill="#688FB5"/>
<path d="M405.75 812.401V211.599C343.612 233.546 289.809 274.222 251.753 328.022C213.698 381.823 193.262 446.101 193.262 512C193.262 577.9 213.698 642.177 251.753 695.978C289.809 749.779 343.612 790.454 405.75 812.401Z" fill="#688FB5"/>
<path d="M728.023 308.101C592.363 342.835 512 261.406 512 261.406C512 261.406 431.636 342.835 295.977 308.101C295.977 308.101 204.882 633.078 512 819.282C819.2 633.078 728.023 308.101 728.023 308.101Z" fill="#4F0016"/>
<path d="M512 827.392L508.477 825.262C347.586 727.531 296.55 591.626 282.05 494.879C272.346 432.185 274.849 368.206 289.423 306.463L291.226 300.073L297.697 301.711C318.818 307.119 340.53 309.871 362.332 309.903C415.542 310.638 467.139 291.639 507.167 256.573L512 251.74L516.833 256.573C556.897 291.578 608.47 310.568 661.668 309.903C683.47 309.879 705.184 307.127 726.303 301.711L732.774 300.073L734.577 306.463C749.15 368.206 751.654 432.185 741.949 494.879C727.45 591.626 676.413 727.531 515.522 825.098L512 827.392ZM301.056 316.293C288.677 374.532 286.846 434.519 295.649 493.404C309.658 586.383 358.646 716.718 512 811.008C783.647 643.645 733.184 362.004 722.944 316.047C702.863 320.793 682.302 323.212 661.668 323.256C607.085 323.899 554.047 305.146 512 270.336C469.942 305.116 416.904 323.84 362.332 323.174C341.71 323.237 321.15 320.928 301.056 316.293Z" fill="#E7E7E7"/>
<path d="M626.36 539.935C624.007 534.448 620.509 529.528 616.102 525.501C611.694 521.475 606.478 518.436 600.801 516.588C614.809 490.455 562.545 481.034 562.545 481.034C581.96 492.093 563.2 501.678 576.471 517.571C586.219 529.203 594.084 524.452 597.524 521.093C604.933 524.655 611.099 530.364 615.219 537.477C624.312 552.714 620.544 566.149 603.341 570.245C598.451 571.004 593.452 570.622 588.734 569.13C584.017 567.638 579.708 565.076 576.143 561.644C575.64 557.373 573.988 553.32 571.362 549.915C568.736 546.51 565.236 543.882 561.234 542.31C549.519 538.132 527.81 544.44 527.81 512.901C527.341 504.522 529.796 496.24 534.757 489.471C539.718 482.702 546.876 477.867 555.008 475.791C558.521 469.955 560.288 463.235 560.099 456.425C559.911 449.616 557.774 443.003 553.943 437.371C553.943 437.371 563.2 436.879 578.519 451.871C578.519 451.871 583.27 426.312 540.754 411.648C546.676 411.147 552.637 411.862 558.272 413.75C563.907 415.638 569.097 418.658 573.522 422.625C571.932 414.655 567.925 407.367 562.048 401.754C556.171 396.14 548.707 392.473 540.672 391.25C548.671 388.734 557.249 388.734 565.248 391.25C565.248 391.25 553.369 369.132 513.802 370.688C513.802 370.688 517.079 366.592 536.904 366.592C529.707 359.43 520.107 355.197 509.965 354.712C499.824 354.228 489.864 357.527 482.017 363.971C482.017 363.971 463.585 363.971 462.602 367.739C462.03 371.238 462.03 374.807 462.602 378.307C458.065 376.342 453.123 375.494 448.19 375.837C443.258 376.179 438.48 377.7 434.258 380.273C435.528 389.175 437.584 397.947 440.402 406.487C442.941 410.911 456.786 405.013 464.241 410.092L465.305 410.911C458.989 412.487 453.285 415.91 448.921 420.741C446.9 422.205 444.418 422.887 441.933 422.661C439.448 422.435 437.129 421.316 435.405 419.512C432.537 416.399 431.063 415.252 429.506 421.396C427.95 427.54 441.713 437.78 450.642 425.82C452.521 422.804 455.033 420.231 458.003 418.28C460.973 416.328 464.331 415.044 467.845 414.515C471.449 420.495 470.139 428.687 452.444 428.524C452.444 428.524 447.447 439.91 462.52 440.73C462.375 441.872 462.375 443.028 462.52 444.17C460.285 445.414 458.173 446.868 456.212 448.512C438.19 441.713 433.357 448.512 420.659 447.365C409.839 446.16 399.613 441.801 391.25 434.831C385.024 429.67 385.024 417.792 381.01 410.911C379.86 408.779 377.927 407.178 375.62 406.444C373.312 405.711 370.809 405.902 368.64 406.979C365.318 403.98 361.066 402.216 356.598 401.981C360.199 403.453 363.26 405.999 365.363 409.272C362.66 412.795 365.363 419.348 372.08 421.151C378.798 422.953 379.289 428.851 376.095 429.343C372.9 429.834 364.708 421.151 359.711 418.857C358.586 418.482 357.372 418.47 356.239 418.822C355.107 419.175 354.115 419.875 353.403 420.823C350.03 419.673 346.417 419.419 342.917 420.086C346.271 420.403 349.418 421.847 351.846 424.182C351.407 426.371 351.694 428.643 352.665 430.653C356.106 437.78 369.049 436.388 374.702 437.535C380.354 438.682 376.75 444.088 370.032 444.416C363.315 444.744 356.352 443.105 353.648 448.348C353.247 449.09 353.037 449.921 353.037 450.765C353.037 451.609 353.247 452.439 353.648 453.181C351.429 454.971 349.872 457.451 349.225 460.227C349.225 460.227 350.126 457.769 355.942 456.049C357.238 457.329 358.821 458.28 360.56 458.822C362.299 459.363 364.143 459.48 365.936 459.162C372.326 457.523 376.095 447.283 384.614 449.167C393.134 451.052 396.247 457.359 405.913 465.551C408.894 468.051 412.338 469.939 416.049 471.106C419.761 472.272 423.665 472.696 427.54 472.351C423.69 467.026 424.427 465.06 424.427 465.06L445.808 469.893C444.946 475.486 445.833 481.208 448.348 486.277C450.089 483.874 452.423 481.963 455.122 480.728C457.82 479.494 460.792 478.978 463.749 479.232C474.235 479.887 471.286 487.424 464.814 494.223C458.342 501.023 429.343 497.992 419.84 495.698C410.337 493.404 403.456 482.918 399.032 478.495C397.865 477.092 396.292 476.085 394.53 475.611C392.767 475.137 390.902 475.22 389.188 475.848C387.475 476.476 385.997 477.619 384.958 479.119C383.92 480.619 383.37 482.404 383.385 484.229C381.747 495.206 391.004 493.158 399.769 493.158C408.535 493.158 412.549 496.517 409.518 500.367C406.487 504.218 399.606 500.367 391.414 498.074C383.222 495.78 378.47 506.266 379.945 511.836C381.419 517.407 388.137 518.144 393.707 515.195C399.278 512.246 401.408 505.774 408.371 507.904C415.334 510.034 410.747 518.308 405.258 521.175C399.769 524.042 396.247 525.763 400.015 534.938C403.784 544.113 413.86 539.771 416.399 535.675C418.939 531.579 415.744 523.551 416.399 520.192C418.775 508.15 442.45 508.15 452.034 512.901C456.966 515.607 462.353 517.384 467.927 518.144C466.434 517.883 465.025 517.271 463.815 516.36C462.604 515.449 461.627 514.263 460.964 512.901C458.015 507.986 461.947 502.497 479.15 510.116C489.911 515.501 498.247 524.745 502.497 536.003C464.241 521.749 447.365 541.164 447.365 541.164C447.365 541.164 452.526 547.717 456.786 552.223C468.892 565.981 475.664 583.623 475.873 601.948C476.692 612.024 463.749 615.465 457.359 611.041C450.969 606.618 448.512 596.951 443.924 595.149C442.219 594.372 440.312 594.152 438.474 594.52C436.636 594.887 434.96 595.824 433.684 597.197C430.621 595.574 427.102 595.026 423.69 595.64C426.545 596.729 429.14 598.403 431.309 600.556C430.947 601.582 430.815 602.676 430.921 603.76C431.028 604.843 431.37 605.89 431.925 606.827C432.479 607.764 433.232 608.568 434.13 609.183C435.029 609.798 436.051 610.208 437.125 610.386C441.713 611.369 448.676 615.957 447.037 617.841C445.399 619.725 438.845 615.629 431.309 612.68C425.574 610.386 420.577 612.68 420.659 618.578C417.225 619.702 414.146 621.707 411.73 624.394C414.801 623.26 418.041 622.651 421.314 622.592C421.496 623.259 421.715 623.916 421.97 624.558C426.23 635.044 441.958 627.753 446.546 626.77C451.133 625.787 451.215 630.211 445.727 632.013C443.014 632.6 440.577 634.083 438.809 636.223C437.041 638.362 436.044 641.034 435.978 643.809C435.972 645.488 436.618 647.104 437.78 648.315C436.614 650.884 436.054 653.687 436.142 656.507C437.272 654.367 438.559 652.313 439.992 650.363C444.252 652.739 450.56 652.001 452.526 643.318C455.639 629.719 465.305 631.194 473.416 630.374C479.381 630.028 485.365 630.524 491.192 631.849C488.147 629.524 485.934 626.277 484.884 622.592C480.461 608.911 510.689 575.652 510.689 575.652C518.234 578.398 526.358 579.16 534.282 577.864C534.282 577.864 534.282 579.748 536.822 601.375C537.049 607.168 539.19 612.723 542.911 617.17C546.631 621.617 551.721 624.705 557.384 625.951C550.011 623.493 551.321 614.482 555.581 619.807C559.841 625.132 567.542 625.213 575.242 626.934C582.943 628.654 587.202 648.888 581.878 652.739C576.553 656.589 567.296 652.739 567.296 652.739H561.562C555.909 652.739 548.946 654.868 551.322 664.289C548.742 668.012 547.034 672.268 546.324 676.741C548.305 673.666 550.735 670.904 553.533 668.549C557.384 672.072 564.101 668.549 566.641 666.993C569.18 665.436 573.194 668.058 570.818 670.024C569.537 671.639 568.76 673.596 568.586 675.651C568.411 677.705 568.845 679.766 569.835 681.574C568.718 684.544 568.055 687.664 567.869 690.831C569.169 687.994 570.675 685.256 572.375 682.639C573.271 682.773 574.182 682.773 575.078 682.639C584.581 681.493 586.793 664.863 586.793 664.863C586.793 664.863 595.64 670.27 591.135 678.298C586.629 686.326 594.575 687.555 594.575 687.555C594.94 691.051 596.337 694.359 598.589 697.057C597.92 695.563 597.575 693.944 597.575 692.306C597.575 690.668 597.92 689.049 598.589 687.555C601.269 687.49 603.815 686.369 605.672 684.435C607.528 682.502 608.546 679.913 608.502 677.233C608.535 674.103 607.944 670.999 606.763 668.101C605.581 665.203 603.833 662.57 601.62 660.357L607.437 659.456L600.719 654.541C594.002 649.544 594.411 640.451 596.378 626.197C597.112 622.432 596.898 618.543 595.754 614.882C594.609 611.22 592.572 607.902 589.824 605.225C574.423 618.004 565.248 601.047 573.44 581.386C574.176 579.576 574.779 577.714 575.242 575.816C586.518 580.201 598.693 581.775 610.714 580.403C626.196 577.536 634.634 559.677 626.36 539.935ZM468.664 388.055C466.289 387.4 464.814 382.157 473.334 381.174C475.559 380.747 477.861 381.004 479.937 381.911C482.013 382.817 483.767 384.331 484.966 386.253C476.119 384.287 471.04 388.71 468.664 388.055Z" fill="#CDB500"/>
<path d="M124.6 512C124.6 507.609 123.298 503.317 120.859 499.666C118.419 496.015 114.952 493.17 110.896 491.489C106.839 489.809 102.375 489.369 98.0688 490.226C93.7623 491.083 89.8066 493.197 86.7018 496.302C83.5971 499.407 81.4827 503.362 80.6261 507.669C79.7695 511.975 80.2091 516.439 81.8894 520.496C83.5697 524.552 86.4152 528.019 90.066 530.459C93.7168 532.898 98.009 534.2 102.4 534.2C108.288 534.2 113.934 531.861 118.098 527.698C122.261 523.534 124.6 517.888 124.6 512Z" fill="#4F0016"/>
<path d="M943.801 512C943.801 507.609 942.499 503.317 940.059 499.666C937.62 496.015 934.153 493.17 930.096 491.489C926.039 489.809 921.576 489.369 917.269 490.226C912.963 491.083 909.007 493.197 905.902 496.302C902.798 499.407 900.683 503.362 899.827 507.669C898.97 511.975 899.41 516.439 901.09 520.496C902.77 524.552 905.616 528.019 909.267 530.459C912.917 532.898 917.21 534.2 921.6 534.2C927.488 534.2 933.135 531.861 937.298 527.698C941.462 523.534 943.801 517.888 943.801 512Z" fill="#4F0016"/>
<path d="M313.016 190.167L301.302 198.359L292.127 190.577L275.743 202.128L279.921 213.433L268.206 221.625L246.661 156.744L259.686 147.651L313.016 190.167ZM283.361 182.549L260.915 163.462L271.155 191.151L283.361 182.549Z" fill="#4F0016"/>
<path d="M345.784 173.702L333.824 179.19L306.299 119.88L340.46 104.07L345.293 114.637L323.175 124.877L329.4 138.312L350.864 128.072L355.779 138.558L334.234 148.716L345.784 173.702Z" fill="#4F0016"/>
<path d="M417.792 149.126C414.087 150.223 410.176 150.431 406.375 149.734C402.575 149.037 398.993 147.453 395.919 145.112C389.036 139.624 384.261 131.926 382.402 123.321C379.806 114.926 380.212 105.89 383.549 97.7618C385.079 94.2053 387.427 91.0603 390.402 88.5833C393.377 86.1063 396.896 84.3672 400.671 83.5077C405.37 82.2479 410.348 82.5042 414.893 84.24C419.439 85.9759 423.32 89.1026 425.984 93.1743L416.563 100.629C415.041 98.3248 412.916 96.4829 410.419 95.3042C408.231 94.2265 405.723 93.9932 403.374 94.6488C401.366 95.2222 399.547 96.322 398.107 97.8343C396.666 99.3467 395.657 101.217 395.182 103.25C393.69 108.61 393.69 114.275 395.182 119.634C396.503 125.162 399.34 130.212 403.374 134.216C404.816 135.768 406.651 136.9 408.685 137.491C410.719 138.083 412.876 138.112 414.925 137.575C416.139 137.287 417.286 136.763 418.298 136.032C419.31 135.301 420.168 134.378 420.823 133.315C422.353 130.85 423.201 128.023 423.28 125.123L434.995 126.925C435.007 132.013 433.322 136.958 430.206 140.98C427.09 145.001 422.721 147.868 417.792 149.126Z" fill="#4F0016"/>
<path d="M518.963 136.264L483.82 137.329L481.854 71.793H494.961L496.599 125.696L518.636 125.041L518.963 136.264Z" fill="#4F0016"/>
<path d="M558.94 139.213L545.833 137.821L552.632 72.2845L565.74 73.6772L558.94 139.213Z" fill="#4F0016"/>
<path d="M611.86 150.764C608.193 149.835 604.797 148.052 601.95 145.56C599.102 143.069 596.884 139.94 595.476 136.428C592.338 128.243 592.049 119.239 594.657 110.869C596.605 102.346 601.367 94.7279 608.174 89.2421C611.207 86.8846 614.762 85.2896 618.54 84.5911C622.317 83.8926 626.207 84.111 629.883 85.228C633.657 86.0758 637.167 87.8323 640.108 90.345C643.049 92.8576 645.332 96.0504 646.758 99.6459C649.897 107.803 650.186 116.781 647.577 125.123C645.681 133.647 640.944 141.273 634.143 146.75C631.042 149.194 627.388 150.839 623.503 151.539C619.617 152.238 615.619 151.973 611.86 150.764ZM614.891 139.459C616.924 140.043 619.079 140.054 621.117 139.49C623.156 138.927 624.999 137.81 626.442 136.264C630.284 132.224 632.947 127.21 634.143 121.764C635.806 116.457 636.032 110.804 634.798 105.38C634.361 103.32 633.366 101.42 631.921 99.8887C630.476 98.357 628.637 97.2527 626.606 96.6968C624.584 96.1361 622.445 96.1536 620.432 96.7473C618.419 97.341 616.613 98.4871 615.219 100.056C611.408 104.117 608.749 109.123 607.519 114.555C605.879 119.869 605.681 125.524 606.945 130.939C607.354 132.954 608.313 134.817 609.716 136.321C611.118 137.824 612.91 138.911 614.891 139.459Z" fill="#4F0016"/>
<path d="M706.232 188.038L695.009 182.385L692.388 137.739L675.021 172.391L663.552 166.493L692.879 107.838L704.84 113.818L707.297 156.826L723.681 123.485L735.56 129.383L706.232 188.038Z" fill="#4F0016"/>
<path d="M744.571 215.89C741.175 213.555 738.295 210.546 736.111 207.052C733.926 203.557 732.484 199.65 731.873 195.574L743.178 191.478C743.35 194.45 744.172 197.348 745.588 199.967C747.004 202.586 748.978 204.862 751.37 206.633C753.166 208.187 755.467 209.032 757.842 209.009C758.831 208.953 759.795 208.673 760.66 208.19C761.526 207.708 762.271 207.035 762.839 206.224C763.379 205.522 763.76 204.713 763.958 203.85C764.156 202.988 764.166 202.093 763.986 201.226C763.589 199.149 762.781 197.172 761.61 195.41C760.381 193.444 759.071 191.232 757.76 188.775C756.528 186.382 755.434 183.92 754.483 181.402C753.609 178.764 753.384 175.953 753.828 173.21C754.485 169.159 756.437 165.429 759.39 162.58C762.343 159.73 766.14 157.912 770.212 157.399C775.969 156.953 781.673 158.776 786.104 162.478C792.084 166.718 796.17 173.127 797.491 180.337L786.514 184.351C786.088 181.754 785.144 179.269 783.736 177.045C782.329 174.821 780.487 172.904 778.322 171.408C776.762 170.112 774.777 169.44 772.751 169.523C771.808 169.58 770.893 169.861 770.081 170.345C769.27 170.829 768.586 171.5 768.089 172.303C767.591 173.106 767.293 174.017 767.221 174.959C767.148 175.9 767.303 176.846 767.672 177.715C768.572 180.295 769.753 182.767 771.195 185.088C772.853 187.73 774.358 190.465 775.7 193.28C777.379 196.373 778.252 199.838 778.24 203.356C778.003 207.066 776.63 210.612 774.308 213.514C772.792 215.75 770.817 217.638 768.514 219.05C766.212 220.463 763.635 221.368 760.955 221.706C757.974 221.88 754.988 221.455 752.174 220.456C749.36 219.457 746.775 217.904 744.571 215.89Z" fill="#4F0016"/>
<path d="M256.144 877.197L233.125 861.304L270.234 807.319L292.762 822.392C294.746 823.507 296.467 825.036 297.809 826.874C299.151 828.712 300.083 830.816 300.541 833.045C300.999 835.275 300.973 837.576 300.465 839.794C299.957 842.013 298.979 844.096 297.596 845.903C295.657 848.927 292.779 851.229 289.404 852.457C286.445 853.562 283.187 853.562 280.228 852.457C281.456 853.643 282.424 855.071 283.073 856.65C283.721 858.229 284.036 859.925 283.997 861.632C284.056 865.451 282.878 869.187 280.638 872.281C278.193 876.344 274.252 879.286 269.661 880.473C267.305 880.952 264.873 880.907 262.537 880.341C260.202 879.774 258.019 878.701 256.144 877.197ZM259.748 865.728C260.56 866.368 261.498 866.83 262.5 867.084C263.502 867.338 264.546 867.378 265.565 867.202C266.611 866.923 267.591 866.439 268.449 865.778C269.307 865.117 270.025 864.292 270.562 863.352C271.858 861.705 272.474 859.623 272.282 857.536C272.127 856.496 271.746 855.502 271.165 854.624C270.585 853.747 269.82 853.007 268.924 852.457L259.585 846.067L250.492 859.338L259.748 865.728ZM274.986 842.79C275.736 843.392 276.609 843.821 277.543 844.048C278.477 844.274 279.45 844.293 280.392 844.101C282.242 843.403 283.835 842.16 284.962 840.536C286.088 838.912 286.695 836.984 286.7 835.008C286.539 834.055 286.169 833.15 285.616 832.356C285.064 831.563 284.343 830.902 283.505 830.42L274.576 824.276L266.384 836.646L274.986 842.79Z" fill="#4F0016"/>
<path d="M347.976 925.365L334.869 919.467L336.917 907.671L318.485 899.479L310.948 908.736L298.005 902.919L342.651 851.146L357.151 857.7L347.976 925.365ZM339.293 896.12L344.208 867.038L325.694 889.976L339.293 896.12Z" fill="#4F0016"/>
<path d="M416.871 945.272L377.631 935.196L380.253 924.71L414.004 888.829L391.066 882.931L393.934 871.708L432.436 881.62L429.815 891.86L395.9 927.905L419.738 934.049L416.871 945.272Z" fill="#4F0016"/>
<path d="M501.904 955.266L487.568 954.12L485.52 942.323L465.368 940.767L461.436 952.072L447.263 950.925L471.839 887.109L487.732 888.42L501.904 955.266ZM483.882 930.69L478.721 901.691L469.136 929.38L483.882 930.69Z" fill="#4F0016"/>
<path d="M585.036 950.828L570.454 952.303L558.166 929.611L551.121 930.266L553.415 953.859L540.308 955.088L534 889.552L558.576 887.176C561.239 886.813 563.949 887.012 566.531 887.76C569.113 888.508 571.51 889.788 573.567 891.518C577.056 894.998 579.384 899.471 580.235 904.324C581.085 909.177 580.416 914.175 578.319 918.634C576.673 921.707 574.09 924.174 570.946 925.679L585.036 950.828ZM559.313 918.06C560.46 917.984 561.577 917.667 562.594 917.131C563.61 916.595 564.502 915.851 565.211 914.947C566.513 912.865 567.091 910.411 566.854 907.966C566.617 905.522 565.579 903.224 563.901 901.43C563.034 900.672 562.017 900.105 560.916 899.766C559.815 899.427 558.654 899.324 557.511 899.464L548.254 900.366L550.056 918.961L559.313 918.06Z" fill="#4F0016"/>
<path d="M685.733 921.679L672.134 926.266L665.58 916.272L646.493 922.744L647.312 934.704L633.795 939.21L631.256 870.889L646.329 865.81L685.733 921.679ZM659.436 906.114L643.052 881.538L645.1 910.947L659.436 906.114Z" fill="#4F0016"/>
<path d="M750.613 882.685C748.245 888.67 743.894 893.66 738.287 896.821C732.68 899.982 726.158 901.123 719.812 900.052C716.721 899.137 713.857 897.586 711.402 895.498C708.947 893.41 706.956 890.831 705.557 887.928L684.504 850.49L696.055 844.019L717.19 881.538C718.597 884.459 721.054 886.741 724.071 887.928C725.447 888.31 726.887 888.398 728.298 888.186C729.71 887.975 731.061 887.468 732.263 886.699C733.602 886.053 734.785 885.126 735.733 883.981C736.68 882.836 737.369 881.499 737.752 880.063C738.236 876.868 737.537 873.605 735.786 870.888L714.896 833.369L726.447 826.815L747.664 864.335C749.373 867.035 750.515 870.053 751.022 873.207C751.529 876.362 751.39 879.586 750.613 882.685Z" fill="#4F0016"/>
<path d="M818.361 838.776L791.082 861.058L749.63 810.268L759.788 802.076L793.949 843.937L810.988 830.011L818.361 838.776Z" fill="#4F0016"/>
<path opacity="0.25" d="M512 0C376.209 0 245.98 53.9427 149.961 149.961C53.9427 245.98 0 376.209 0 512C341.361 768 682.639 256 1024 512C1024 376.209 970.057 245.98 874.039 149.961C778.02 53.9427 647.791 0 512 0V0Z" fill="url(#paint0_linear_105_2526)"/>
<defs>
<linearGradient id="paint0_linear_105_2526" x1="512" y1="585.892" x2="512" y2="0" gradientUnits="userSpaceOnUse">
<stop stop-color="white"/>
<stop offset="1" stop-color="white"/>
</linearGradient>
</defs>
</svg>
