<?xml version="1.0" encoding="UTF-8"?>
<svg id="_Слой_2" data-name="Слой 2" xmlns="http://www.w3.org/2000/svg" viewBox="0 0 219.85 252.04">
  <defs>
    <style>
      .cls-1 {
        fill: #ebcd7e;
      }

      .cls-2 {
        fill: #fff;
      }

      .cls-3 {
        fill: #5a328a;
      }
    </style>
  </defs>
  <g id="_Слой_1-2" data-name="Слой 1">
    <g>
      <g>
        <path class="cls-3" d="M109.93,252c-17.89-7.18-52.89-24.64-79.23-58.79C-16.08,132.42,1.4,59.92,13.37,18.74,32.14,10.69,63.81,0,109.93,0s77.83,10.69,96.56,18.74c11.97,41.18,29.45,113.74-17.33,174.47-26.32,34.19-61.38,51.65-79.23,58.83"/>
        <path class="cls-2" d="M109.93,10.21c32.33,0,61.11,5.46,87.81,16.64,6,20.89,11.86,45.66,11.88,72.64,0,33.52-9.46,62.9-28.2,87.3-23.38,30.42-54.16,46.6-71.49,53.86-17.38-7.22-48.13-23.44-71.49-53.85-18.72-24.32-28.22-53.78-28.2-87.3,0-27.08,5.92-51.76,11.88-72.64C48.84,15.67,77.63,10.21,109.93,10.21m0-4.91c-43.89,.12-74,10.25-91.89,17.91C6.67,62.56-9.96,131.79,34.54,189.78c25,32.64,58.36,49.3,75.39,56.18,17-6.88,50.35-23.47,75.39-56.18,44.5-58,27.87-127.22,16.48-166.54-17.85-7.69-48-17.82-91.87-17.82"/>
        <path class="cls-1" d="M125.58,125.85v5.94l-2.2-.4c-.15,1.44-.79,2.79-1.81,3.82-.81,.61-3.61,1.57-4.66,3-.49-1.12-3.09-1.26-3.09-1.26l-3.92,4.62-3.72-4.56s-2.62,.14-3.09,1.28c-1.14-1.44-3.79-2.36-4.66-3-1.02-1.01-1.66-2.34-1.81-3.77l-2.27,.42v-6.09c0-.88,.32-1.52,1.62-2.35,1.62-.93,3.34-1.67,5.13-2.22,2.9-.7,5.87-1.04,8.85-1,2.98-.04,5.96,.3,8.86,1,1.8,.55,3.53,1.29,5.16,2.22,1.3,.83,1.62,1.46,1.62,2.35m48.45-12.74c-4.25,1.24-8.81,.98-12.89-.74,1.43,1.87,2.59,3.94,3.43,6.14,1.81,4.31,6.63,9.42,10.67,8.29,1.81-.49-3.5,4.33-9.87,4.21-4.29-.13-8.44-1.56-11.9-4.1,.71,2.09,1.13,4.27,1.26,6.48,.49,4.66,3.61,10.94,7.78,11,1.81,0-4.62,3.11-10.69,1.12-4.31-1.48-8.04-4.28-10.67-8,.16,2.48-.04,4.96-.61,7.38-1,4.6,.11,11.52,4.08,12.89,1.81,.6-5.42,1.57-10.52-2.15-3.58-2.6-6.27-6.24-7.71-10.42-.5,2.23-1.33,4.37-2.47,6.35-2.26,4.12-3.27,11,.13,13.52,1.46,1.07-5.74,0-9.6-5.15-1.86-2.32-3.37-4.9-4.48-7.65-1.11,2.75-2.62,5.33-4.48,7.65-3.88,5.07-11.08,6.21-9.6,5.15,3.39-2.47,2.38-9.41,.13-13.52-1.15-1.99-2.01-4.13-2.53-6.37-1.42,4.18-4.09,7.81-7.65,10.42-5.18,3.72-12.24,2.74-10.51,2.15,4-1.37,5-8.29,4.08-12.89-.58-2.41-.78-4.9-.61-7.38-2.63,3.72-6.36,6.52-10.67,8-6.1,2.02-12.55-1.03-10.73-1.08,4.19-.11,7.22-6.39,7.78-11,.12-2.21,.54-4.39,1.26-6.48-3.46,2.54-7.61,3.97-11.9,4.1-6.37,.13-11.64-4.69-9.89-4.21,4,1.14,8.86-4,10.69-8.29,.84-2.2,2-4.27,3.43-6.14-4.08,1.72-8.64,1.98-12.89,.74-6.13-1.85-9.76-7.92-8.23-6.92,3.61,2.26,9.62-1,12.64-4.64,1.54-1.98,3.37-3.72,5.42-5.16-4.54,.26-9.05-.94-12.87-3.41-5.33-3.5-7-10.45-5.78-9,2.69,3.21,9.55,1.81,13.5-.81,1.91-1.29,4-2.3,6.19-3-4.23-1.17-8.01-3.61-10.83-6.98-4.06-5-3.61-12.08-2.89-10.4,1.62,3.88,8.61,4.48,13.12,3.23,2.27-.66,4.63-1,7-1-3.78-2.37-6.74-5.86-8.44-9.99-2.4-5.92,.18-12.55,.32-10.74,.44,4.17,7,6.75,11.71,6.9,2.05,0,4.09,.11,6.12,.36-2.51-3.22-4.05-7.08-4.46-11.14-.54-6.37,3.9-11.93,3.61-10.15-.85,4.1,4.57,8.56,9,10.07,2.13,.63,4.23,1.38,6.28,2.24-1.52-3.9-1.87-8.16-1-12.26,1.39-6.23,7.22-10.2,6.41-8.61-2,3.61,1.81,9.53,5.54,12.33,.88,.65,1.81,1.32,2.65,2.08,5.42-8.5,8.52-17.2,9.19-17.2s3.61,8.65,9,17.19c.87-.74,1.81-1.39,2.62-2,3.77-2.8,7.58-8.67,5.54-12.33-.88-1.59,5,2.38,6.41,8.61,.87,4.1,.52,8.36-1,12.26,2.08-.9,4.21-1.67,6.38-2.32,4.44-1.52,9.86-6,9-10.07-.38-1.81,4.06,3.77,3.5,10.15-.4,4.05-1.94,7.91-4.44,11.13,2.03-.24,4.07-.35,6.12-.34,4.69-.14,11.26-2.73,11.66-6.9,.18-1.81,2.76,4.82,.36,10.74-1.73,4.13-4.69,7.62-8.48,10,2.37,.02,4.73,.38,7,1.07,4.53,1.25,11.52,.65,13.14-3.23,.69-1.74,1.2,5.32-2.86,10.32-2.82,3.38-6.59,5.82-10.83,7,2.19,.7,4.28,1.71,6.19,3,4,2.53,10.83,4,13.5,.81,1.17-1.41-.45,5.54-5.78,9-3.81,2.46-8.31,3.65-12.84,3.39,2.05,1.45,3.87,3.19,5.42,5.16,3,3.61,9,6.9,12.64,4.64,1.53-1-2.09,5.15-8.23,6.9M75.25,54.31c1.39-.47,2.86-.66,4.33-.54,3.29,.16,6.51,.99,9.46,2.44,4.66,2.08,8.29-2.2,5.33-4.26h.09c6.82,.31,12.28,3.05,15.45,7.4,3.18-4.35,8.65-7.11,15.51-7.4v.09c-2.85,2.17,.78,6.33,5.45,4.27,2.97-1.46,6.2-2.31,9.5-2.49,1.42-.1,2.84,.06,4.19,.49,.23,0,.25,0,0-.22-3.28-2.04-7.2-2.8-11-2.13-1.81-.38-7-2.35-4.21-7.22,.03-.03,.03-.09,0-.12h-.07c-4.06,1.81-9.5,2.33-11.46,4.86-4.01-3.27-7.22-12.07-7.78-12.65-.51,.69-3.81,9.44-7.8,12.73-1.95-2.51-7.33-3.11-11.39-4.82-.11,0-.22,0-.16,.11,2.71,4.95-2.51,6.91-4.22,7.22-3.9-.76-7.95,0-11.31,2.14-.16,.11-.09,.2,0,.14m40.13,49c.72-.43,2.92,0,3.61-.45,1.8-.99,3.16-2.62,3.81-4.57,0-.14,0-.2-.11-.13-.92,.59-1.98,.91-3.07,.94-1.18-.33-2.39-.53-3.61-.6-2.17,0-2.69,1.07-6,1.07s-3.83-1.07-6-1.07c-1.22,.07-2.43,.27-3.61,.6-1.06-.03-2.1-.34-3-.9-.13-.09-.2,0-.16,0,.69,2.01,2.12,3.68,4,4.66,.61,.36,2.82,0,3.52,.45s0,1.81,.72,2.27c2.12,1.19,3.74,3.12,4.53,5.42,0,.06,.07,.11,.13,.11,.06,0,.11-.05,.13-.11,.79-2.3,2.39-4.23,4.51-5.42,.78-.56,0-1.81,.72-2.27m-17.7-12.83c-.1,.33-.17,.66-.22,1,0,.23,0,.29,.14,0,.78-1.57,3.47-7,4.42-8.7,1.81-3.07,2.56-5,2.08-5.7-5.58,5.79-9.21-2.94-13.72-3.61-3.25-.51-4.3-.16-7.13-.6,.54,2.9,2.35,5.41,4.93,6.84,5.42,2.83,8.2,1.52,10.56,2.73,1.57,.81-.4,6.1-1.07,8m34.13-10.79c3.61-1.81,4.1-4.6,4.84-6.84-2.83,.43-3.79,.09-7,.6-4.51,.69-8.14,9.42-13.72,3.61-.51,.72,.34,2.64,2.08,5.7,1,1.81,3.77,7.4,4.48,8.81,0,.2,.13,.16,.11,0-.05-.39-.12-.77-.23-1.14-.69-1.91-2.64-7.22-1.07-8,2.36-1.21,5.24,.11,10.56-2.73m6.14,21c2.18-4.68,9.26-7.64,15.27-7.82v-.12c-2.7-1.47-5.73-2.25-8.81-2.24,2.74-4.66,4-8.38,3.09-16.12,2.39-3.38,3.22-7.61,2.27-11.64,0-.2-.18-.22-.22,0-.44,2.05-1.31,3.99-2.53,5.7v.15c-.52,.61-1.44,.69-2.06,.16s-.69-1.44-.16-2.06c.25-.29,.6-.47,.97-.51-2.31-4.24-6.35-3.72-7.08-5.63-.19-.51-.1-1.09,.22-1.53-2.35-.08-4.19,1.38-3.16,3.16,.63,1,3,1.35,5.74,3.43-2.06,1,0,3.05,.56,4.55,1.94,3.66,2.49,7.89,1.57,11.93-1.4,5.77-4.92,10.8-9.86,14.09,0,.81,.11,3.83-5.13,9.39-.63,.65,.79,.32,2.36-.51,.41,1.72,.68,3.47,.78,5.24-3.04-.29-6.11-.29-9.15,0-1,.14,.81,.9,1.81,1,2.43,.37,4.84,.87,7.22,1.5-.04,.94-.24,1.87-.61,2.74-3.52-1.12-7.15-1.87-10.83-2.24-.94,0,.36,.83,1.21,1.07,2.91,1.08,5.76,2.3,8.55,3.67-.84,1.59-2,3-3.39,4.14-1.91-1.1-3.92-2.02-6-2.76-1.21-.43-2.55-1-3.86-1.52-2.24-1.14-6-2.46-6.59-3.94-.56,1.41-4,2.69-6.28,3.79-1.44,.6-2.91,1.19-4.22,1.66-2.07,.75-4.08,1.66-6,2.74-1.39-1.15-2.53-2.57-3.36-4.17,2.79-1.35,5.65-2.55,8.56-3.61,.85-.23,2.15-1.12,1.19-1.07-3.68,.37-7.31,1.13-10.83,2.26-.35-.88-.55-1.81-.61-2.76,2.38-.64,4.79-1.15,7.22-1.52,1-.13,2.73-.88,1.81-1-3.05-.29-6.12-.29-9.17,0,.1-1.77,.36-3.52,.79-5.24,1.59,.85,3,1.17,2.4,.52-5.24-5.56-5.05-8.58-5.13-9.39-4.96-3.29-8.49-8.35-9.86-14.15-.93-4.03-.38-8.27,1.55-11.93,.65-1.5,2.62-3.61,.56-4.55,2.79-2.06,5.13-2.36,5.75-3.36,1-1.81-.79-3.21-3.14-3.11,.32,.44,.4,1.02,.2,1.53-.7,1.93-4.77,1.39-7.08,5.65,.76,.05,1.35,.69,1.34,1.46,0,.81-.64,1.46-1.45,1.47,0,0-.01,0-.02,0-.54,0-1.04-.3-1.3-.78-1.23-1.72-2.08-3.67-2.51-5.74,0-.14-.14,0-.18,.09-.91,4.05-.03,8.3,2.42,11.66-.81,7.67,.36,11.39,3.09,16.05-3.1,.03-6.13,.84-8.83,2.36,6,.14,13.16,3.12,15.33,7.82-4.84-1.61-9.68,1.46-14,4.95,5.63-1.81,13-.94,16.54,3-5.11,0-7.94,4.26-11,9.3v.14c3.59-1.81,7.57-2.68,11.59-2.53-4.59,8.5,2.13,16.25,11.08,22.42,4.75,2.93,9.21,6.31,13.32,10.09,4.13-3.76,8.72-7,13.65-9.64,9.02-6.19,15.72-13.92,11.13-22.46,4.01-.14,8,.73,11.59,2.53v-.13c-3.09-5-5.92-9.3-11-9.23,3.61-3.92,10.83-4.75,16.5-3.07v-.1c-4.3-3.47-9-6.5-13.94-4.91"/>
      </g>
      <g>
        <path class="cls-2" d="M65.51,178.9h3.28l2.89,7.99c.36,1.04,.69,2.14,1.05,3.21h.1c.36-1.07,.67-2.17,1.03-3.21l2.83-7.99h3.28v16.35h-2.66v-7.48c0-1.51,.23-3.68,.37-5.2h-.1l-1.32,3.8-2.69,7.34h-1.72l-2.7-7.34-1.3-3.8h-.1c.14,1.51,.37,3.69,.37,5.2v7.48h-2.61v-16.35Z"/>
        <path class="cls-2" d="M87.33,178.9h3.4l5.33,16.35h-3.07l-2.49-8.7c-.52-1.73-1-3.59-1.48-5.39h-.1c-.45,1.81-.93,3.66-1.45,5.39l-2.51,8.7h-2.96l5.33-16.35Zm-2.18,9.64h7.7v2.27h-7.7v-2.27Z"/>
        <path class="cls-2" d="M98.08,178.9h2.9v6.57h6.61v-6.57h2.9v16.35h-2.9v-7.25h-6.61v7.25h-2.9v-16.35Z"/>
        <path class="cls-2" d="M122.94,188.29c-.76,.12-1.53,.21-2.71,.21-3.78,0-6.07-1.49-6.07-5.66v-3.94h2.84v3.94c0,2.49,1.18,3.32,3.52,3.32,1.08,0,1.83-.09,2.42-.21v-7.05h2.9v16.35h-2.9v-6.96Z"/>
        <path class="cls-2" d="M133.21,178.9h3.4l5.33,16.35h-3.07l-2.49-8.7c-.52-1.73-1-3.59-1.48-5.39h-.1c-.45,1.81-.93,3.66-1.45,5.39l-2.51,8.7h-2.96l5.33-16.35Zm-2.18,9.64h7.7v2.27h-7.7v-2.27Z"/>
        <path class="cls-2" d="M143.96,178.9h5.15c3.63,0,6.32,1.26,6.32,5.04s-2.7,5.3-6.22,5.3h-2.35v6.01h-2.9v-16.35Zm5.01,8.02c2.44,0,3.6-.97,3.6-2.98s-1.27-2.72-3.7-2.72h-2.01v5.7h2.11Z"/>
        <path class="cls-2" d="M94.64,214.99c2.42-2.29,4.13-3.92,4.13-5.28,0-.92-.51-1.43-1.35-1.43-.68,0-1.22,.47-1.69,.97l-1.2-1.19c.94-1,1.83-1.51,3.19-1.51,1.88,0,3.16,1.2,3.16,3.04,0,1.6-1.5,3.31-3.06,4.93,.49-.05,1.15-.11,1.6-.11h1.92v1.85h-6.7v-1.26Z"/>
        <path class="cls-2" d="M102.56,211.44c0-3.24,1.36-4.9,3.41-4.9s3.41,1.67,3.41,4.9-1.36,4.98-3.41,4.98-3.41-1.74-3.41-4.98Zm4.73,0c0-2.6-.58-3.2-1.32-3.2s-1.32,.6-1.32,3.2,.58,3.28,1.32,3.28,1.32-.68,1.32-3.28Z"/>
        <path class="cls-2" d="M110.48,214.99c2.42-2.29,4.13-3.92,4.13-5.28,0-.92-.51-1.43-1.35-1.43-.68,0-1.22,.47-1.69,.97l-1.2-1.19c.94-1,1.83-1.51,3.19-1.51,1.88,0,3.16,1.2,3.16,3.04,0,1.6-1.5,3.31-3.06,4.93,.49-.05,1.15-.11,1.6-.11h1.92v1.85h-6.7v-1.26Z"/>
        <path class="cls-2" d="M118.89,214.47h2.08v-5.51h-1.78v-1.37c1.02-.19,1.7-.45,2.36-.87h1.63v7.75h1.78v1.78h-6.07v-1.78Z"/>
      </g>
    </g>
  </g>
</svg>