<?xml version="1.0" encoding="utf-8"?>
<!-- Generator: Adobe Illustrator 27.0.0, SVG Export Plug-In . SVG Version: 6.00 Build 0)  -->
<svg version="1.1" id="Слой_1" xmlns="http://www.w3.org/2000/svg" xmlns:xlink="http://www.w3.org/1999/xlink" x="0px" y="0px"
	 viewBox="0 0 566 566" style="enable-background:new 0 0 566 566;" xml:space="preserve">
<style type="text/css">
	.st0{fill:#003E81;}
	.st1{fill:#FFFFFF;}
	.st2{fill:#199FD6;}
	.st3{display:none;fill:#FFFFFF;}
	.st4{fill:#FFCC00;}
	.st5{display:none;}
	.st6{display:inline;fill:#FFFFFF;}
</style>
<circle class="st0" cx="283" cy="283" r="283"/>
<path class="st1" d="M74.7,283C74.7,168,168,74.7,283,74.7c115,0,208.3,93.3,208.3,208.3c0,115-93.3,208.3-208.3,208.3
	C168,491.3,74.7,398,74.7,283z"/>
<path class="st2" d="M141.7,141.7c-36.2,36.2-58.5,86.1-58.5,141.3c0,55.2,22.4,105.2,58.5,141.3c36.2,36.2,86.1,58.5,141.3,58.5
	c55.2,0,105.2-22.4,141.3-58.5c36.2-36.2,58.5-86.1,58.5-141.3c0-55.2-22.4-105.2-58.5-141.3c-36.2-36.2-86.1-58.5-141.3-58.5
	C227.8,83.1,177.8,105.5,141.7,141.7z"/>
<path class="st3" d="M165.9,386.9c20.5-2.4,30.1-4.8,30.1-27.4V197.5c-19.1-23.6-24.6-24.6-29.1-24.6v-8.5h72.1l118.6,146h0.7V206.8
	c0-20.5-4.1-31.8-31.8-33.8v-8.5h73.5v8.5c-24.6,3.1-26.7,10.9-26.7,27.4v201.4h-9.6L211.7,216.3H211v136.8
	c0,24.6,7.2,31.1,32.5,33.9v8.5h-77.6L165.9,386.9L165.9,386.9z"/>
<g>
	<path class="st1" d="M386.2,276.4c0.9,0,1.6,0,2.3,0c5.7,0,11.5,0,17.2,0c0.5,0,0.9,0,1.4,0c0.8,0,1.2,0.5,1.2,1.3
		c0,0.5,0,0.9,0,1.4c0,32.5,0,65.1,0,97.6c0,3.1,0,3.1-3.1,3.1c-81.5,0-163,0-244.4,0c-3.1,0-3.1,0-3.1-3.1c0-32.3,0-64.7,0-97
		c0-1,0.2-2.1,0.3-3.2c7.4,0,14.5,0,21.8,0c0.1,1.2,0.3,2.2,0.3,3.3c0,23.5,0,47,0,70.5c0,1.8-0.1,3.6,0,5.4c0,1.5,0.4,1.8,2,1.9
		c0.4,0,0.8,0,1.2,0c15.8,0,31.5,0,47.3,0c0.3,0,0.7,0,1,0c2.1,0,2.2-0.2,2.3-2.3c0-1.1,0-2.3,0-3.4c0-38.4,0-76.8,0-115.2
		c0-12.6,0-25.3,0-37.9c0-3.8,0-3.6,3.7-3.6c5.4,0,10.8,0,16.2,0c2.2,0,2.4,0.2,2.4,2.4c0,2.5,0,5.1,0,7.6c0,50,0,100.1,0,150.1
		c0,2.1,0.2,2.3,2.3,2.3c16.4,0,32.8,0,49.1,0c2,0,2.2-0.3,2.2-2.4c0-52.3,0-104.6,0.1-156.9c0-0.5,0-0.9,0-1.4
		c0.1-1.4,0.3-1.6,1.7-1.7c0.1,0,0.3,0,0.4,0c5.9,0,11.9,0,17.8,0c2.2,0,2.4,0.2,2.3,2.4c-0.1,4.4-0.2,8.8-0.2,13.2
		c0,12.6,0.2,25.2,0.2,37.9c0,34.6,0,69.2,0,103.8c0,1,0,2,0,3c0.1,1.8,0.2,2,2.1,2.1c0.3,0,0.7,0,1,0c15.8,0,31.7,0,47.5,0
		c3.1,0,3.1,0,3.1-3.1c0-24.5,0-49,0-73.6C386,279.5,386.1,278,386.2,276.4z"/>
	<g>
		<path class="st4" d="M187,245c0-1.1-0.1-1.8,0-2.4c0.6-3.8,1.3-7.5,2-11.2c0.4-1.9,0.1-3.5-1.5-4.8c-3-2.7-5.9-5.6-8.8-8.4
			c-0.4-0.4-0.8-0.9-1.5-1.8c1.3-0.3,2.2-0.5,3.1-0.6c4-0.6,8.1-1.2,12.1-1.7c1.4-0.2,2.3-0.8,2.9-2.1c1.8-3.7,3.6-7.3,5.5-10.9
			c0.3-0.6,0.7-1.3,1.1-2.1c0.4,0.5,0.8,0.7,1,1.1c1.7,3.2,3.4,6.4,4.9,9.6c1.9,3.9,1.8,4,6,4.7c3.9,0.6,7.8,1.2,11.7,1.7
			c0.3,0,0.6,0.2,0.9,0.2c0.3,0.9-0.4,1.3-0.8,1.7c-2.6,2.6-5.3,5.1-8,7.6c-3.5,3.4-2.9,2.5-2.2,7c0.5,3.3,1.2,6.6,1.7,9.9
			c0.1,0.7,0,1.5,0,2.7c-1.6-0.8-2.9-1.3-4.1-2c-3.1-1.6-6.2-3.2-9.2-4.9c-1.2-0.7-2.3-0.5-3.4,0.1c-3.5,1.9-7.1,3.7-10.7,5.5
			C189,244.2,188.2,244.5,187,245z"/>
		<path class="st4" d="M349.1,244.8c0.1-0.9,0.1-1.5,0.2-2.2c0.7-4.1,1.4-8.3,2.2-12.4c0.3-1.3-0.1-2.3-1-3.2
			c-3.1-2.9-6.1-5.8-9.1-8.7c-0.5-0.5-1-1.1-1.6-1.8c0.7-0.2,1-0.5,1.4-0.5c4.6-0.7,9.1-1.4,13.7-2c1.3-0.2,2.1-0.7,2.6-1.8
			c1.9-3.8,3.8-7.5,5.6-11.3c0.3-0.6,0.7-1.2,1-1.8c1.1,0.1,1.2,1,1.6,1.6c1.8,3.6,3.7,7.3,5.5,10.9c0.7,1.6,1.7,2.3,3.5,2.5
			c4,0.4,7.9,1.1,11.9,1.7c0.7,0.1,1.4,0.3,2.3,0.5c-0.3,0.6-0.5,1-0.8,1.3c-3.3,3.2-6.6,6.4-9.9,9.6c-0.8,0.8-1.1,1.5-0.9,2.6
			c0.8,4.4,1.6,8.8,2.3,13.2c0.1,0.5,0,1,0,1.9c-0.9-0.3-1.7-0.5-2.3-0.8c-3.6-1.8-7.2-3.6-10.7-5.6c-1.7-0.9-3-0.8-4.6,0.1
			c-3.7,2.1-7.6,4-11.4,6C350.2,244.7,349.7,244.6,349.1,244.8z"/>
		<path class="st4" d="M309.2,164c-0.6,0.8-0.9,1.2-1.4,1.6c-1.9,1.8-3.9,3.6-5.8,5.5c-1,0.9-1.8,2-2.9,2.8c-1.6,1.3-2,2.8-1.6,4.7
			c0.8,3.8,1.4,7.6,2.1,11.4c0.1,0.7,0.1,1.4,0.2,2.5c-1-0.4-1.7-0.6-2.3-0.9c-3.7-1.9-7.4-3.7-11-5.7c-1.5-0.8-2.6-0.7-4.1,0.1
			c-3.8,2.1-7.7,4-11.5,6c-0.4,0.2-1,0.3-1.7,0.6c0-0.8,0-1.3,0.1-1.8c0.7-4.4,1.5-8.8,2.3-13.2c0.2-1.1-0.1-1.9-0.9-2.7
			c-3.4-3.3-6.8-6.6-10.2-9.9c-0.2-0.2-0.4-0.5-0.7-1.1c1-0.3,1.8-0.5,2.6-0.6c4.2-0.6,8.3-1.3,12.5-1.8c1.5-0.2,2.3-0.9,3-2.3
			c1.8-3.7,3.7-7.4,5.5-11.1c0.3-0.6,0.6-1.1,1.1-2c0.5,0.9,0.9,1.4,1.1,2c1.8,3.6,3.7,7.1,5.3,10.8c0.8,1.7,1.9,2.5,3.8,2.8
			c3.9,0.5,7.8,1.1,11.7,1.7C307.3,163.5,308.1,163.8,309.2,164z"/>
	</g>
</g>
<g id="ch" class="st5">
	<path class="st6" d="M291.2,392.4l18.7-4.7v-82.6c-3.7,2.1-7.4,3.6-10.9,4.7c-8.9,3.1-18.8,4.7-29.6,4.7
		c-25.6,0-44.4-4.8-56.6-14.3c-12.2-9.6-18.2-23-18.2-40.2v-71.7l-18.7-4.7v-4.7h88.8v4.7l-18.7,4.7V260c0,16.8,2.9,28.8,8.7,36
		c5.8,7.2,14.8,10.7,27.1,10.7c7.1,0,13.7-1.6,19.9-4.7c3.1-1.5,5.8-3,8.1-4.7V188.3l-18.7-4.7v-4.7H380v4.7l-18.7,4.7v199.4
		l18.7,4.7v4.7h-88.8V392.4z"/>
</g>
</svg>
