<svg width="1024" height="981" viewBox="0 0 1024 981" fill="none" xmlns="http://www.w3.org/2000/svg">
<path fill-rule="evenodd" clip-rule="evenodd" d="M683.541 81.8973C668.713 84.518 668.14 95.0008 668.14 95.0008C666.482 94.8444 664.927 94.1252 663.735 92.9631C662.543 91.8009 661.784 90.2657 661.586 88.6129C660.03 82.3068 654.295 60.604 632.996 74.8541C629.583 76.808 626.659 79.5139 624.449 82.7661C622.238 86.0183 620.797 89.7315 620.237 93.6235C619.676 97.5155 620.01 101.484 621.213 105.228C622.416 108.972 624.456 112.392 627.18 115.229C630.023 116.691 633.192 117.406 636.388 117.306C639.584 117.205 642.702 116.294 645.448 114.656C645.448 114.656 648.561 150.2 620.053 153.23C597.934 155.523 597.361 119.488 597.361 119.488L587.94 117.85C587.94 117.85 576.225 148.316 544.277 147.415C512.328 146.514 518.799 98.2767 529.203 86.4016C539.607 74.5265 560.087 64.9445 595.886 75.5912C595.886 75.5912 595.886 49.3841 574.751 41.3581C569.063 38.8723 562.809 37.9709 556.651 38.7494C550.493 39.528 544.66 41.9575 539.771 45.7806C539.771 45.7806 536.822 45.7806 539.771 38.6555C542.72 31.5305 540.672 0 512 0C483.328 0 481.116 31.3667 484.147 38.3279C487.178 45.2892 484.147 45.453 484.147 45.453C479.274 41.6317 473.46 39.1962 467.318 38.4034C461.176 37.6107 454.933 38.49 449.249 40.9486C427.786 49.1384 428.114 75.1817 428.114 75.1817C463.913 64.5351 484.311 73.9532 494.797 85.9921C505.283 98.031 511.754 145.777 479.724 147.006C447.693 148.234 436.06 117.441 436.06 117.441L426.639 119.079C426.639 119.079 425.984 155.605 403.948 152.902C375.439 149.872 378.552 114.329 378.552 114.329C381.249 116.056 384.341 117.068 387.538 117.269C390.734 117.469 393.929 116.852 396.82 115.475C399.544 112.638 401.584 109.217 402.787 105.474C403.99 101.73 404.324 97.7612 403.763 93.8692C403.203 89.9771 401.762 86.264 399.551 83.0118C397.341 79.7596 394.417 77.0537 391.004 75.0998C369.705 60.8497 363.971 82.5525 362.414 88.8586C362.216 90.5114 361.457 92.0466 360.265 93.2088C359.073 94.3709 357.518 95.09 355.86 95.2465C355.86 95.2465 355.287 84.7637 340.46 82.143C336.589 81.1676 332.522 81.3034 328.726 82.5347C324.929 83.7661 321.557 86.0431 318.996 89.1042C370.852 115.066 387.809 221.614 387.809 221.614H636.191C636.191 221.614 653.148 115.148 705.004 89.1042C702.472 85.9995 699.112 83.6749 695.314 82.3994C691.516 81.124 687.434 80.9499 683.541 81.8973Z" fill="#E8B639"/>
<path d="M512.002 870.322C700.937 870.322 854.099 717.202 854.099 528.319C854.099 339.436 700.937 186.316 512.002 186.316C323.066 186.316 169.904 339.436 169.904 528.319C169.904 717.202 323.066 870.322 512.002 870.322Z" fill="#002876"/>
<path d="M512 750.998C467.946 750.998 424.882 737.938 388.252 713.47C351.623 689.002 323.074 654.224 306.215 613.535C289.356 572.846 284.945 528.072 293.54 484.877C302.134 441.682 323.348 402.004 354.499 370.862C385.65 339.72 425.338 318.512 468.546 309.919C511.753 301.327 556.539 305.737 597.239 322.591C637.94 339.445 672.727 367.986 697.202 404.606C721.677 441.225 734.741 484.278 734.741 528.319C734.676 587.358 711.188 643.959 669.43 685.705C627.672 727.451 571.055 750.933 512 750.998Z" fill="white"/>
<path fill-rule="evenodd" clip-rule="evenodd" d="M198.492 208.51C200.36 209.967 202.507 211.026 204.8 211.623L206.274 210.312L210.78 205.89L217.334 199.174L221.102 195.161C222.134 194.19 223.121 193.13 224.129 192.045C224.482 191.666 224.837 191.284 225.198 190.903C226.697 189.054 228.348 187.176 230.059 185.23C231.153 183.985 232.271 182.712 233.39 181.402L237.568 176.407L241.582 171.247C244.144 167.855 246.523 164.328 248.709 160.682C250.779 157.355 252.482 153.812 253.788 150.118C255.017 146.432 256.327 142.993 257.802 139.799C259.277 136.605 260.751 133.738 262.144 131.036L264.765 127.268C264.988 126.897 265.137 126.63 265.275 126.379L265.276 126.378C265.596 125.802 265.868 125.312 266.895 123.829C267.239 123.332 267.574 122.844 267.902 122.367C268.981 120.796 269.986 119.333 270.991 118.014C272.974 115.408 275.108 112.919 277.381 110.561L279.839 108.186C264.445 116.019 249.826 125.287 236.175 135.868C233.256 137.997 230.717 140.126 228.266 142.183L228.265 142.183L227.983 142.419L224.379 145.613L221.02 148.807C218.89 150.855 216.842 152.902 214.958 154.868C213.77 156.107 212.68 157.346 211.626 158.544L211.625 158.546C211.007 159.247 210.402 159.935 209.797 160.601C208.159 162.402 206.766 164.204 205.455 166.006C205.281 166.245 205.108 166.482 204.937 166.716L204.73 167L204.726 167.005C203.689 168.423 202.716 169.753 201.851 171.083C199.873 173.975 198.12 177.014 196.608 180.174C194.493 184.486 193.188 189.15 192.758 193.933C192.419 196.648 192.767 199.405 193.769 201.951C194.77 204.498 196.394 206.753 198.492 208.51ZM825.916 208.51C824.048 209.967 821.901 211.026 819.608 211.623L817.724 210.312L813.219 205.89L806.665 199.174L802.897 195.161C801.865 194.19 800.878 193.129 799.869 192.045C799.517 191.666 799.162 191.284 798.801 190.903C797.302 189.054 795.651 187.176 793.94 185.23C792.846 183.985 791.727 182.712 790.609 181.402L786.431 176.407L782.417 171.247C779.855 167.855 777.476 164.328 775.29 160.682C773.22 157.355 771.517 153.812 770.211 150.118C768.982 146.432 767.671 142.993 766.197 139.799C764.722 136.605 763.248 133.738 761.855 131.036L759.233 127.268C759.01 126.896 758.862 126.629 758.722 126.378C758.403 125.802 758.131 125.312 757.104 123.829C756.76 123.332 756.425 122.845 756.097 122.367C755.018 120.796 754.013 119.333 753.008 118.014C751.024 115.408 748.891 112.919 746.618 110.561L744.16 108.186C759.554 116.019 774.173 125.287 787.823 135.868C790.742 137.997 793.281 140.126 795.733 142.182L796.016 142.419L799.62 145.613L802.979 148.807C805.109 150.855 807.157 152.902 809.041 154.868C810.228 156.106 811.318 157.345 812.371 158.542L812.373 158.544L812.376 158.548L812.379 158.551L812.387 158.561C813 159.257 813.601 159.94 814.202 160.601C815.84 162.402 817.233 164.204 818.543 166.006C818.79 166.344 819.033 166.677 819.273 167.005C820.31 168.423 821.283 169.753 822.148 171.083C824.126 173.975 825.878 177.014 827.391 180.174C829.648 184.458 831.092 189.123 831.651 193.933C831.989 196.648 831.641 199.405 830.64 201.951C829.638 204.498 828.014 206.753 825.916 208.51ZM858.767 261.252C860.388 259.383 861.564 257.171 862.208 254.782L860.979 252.407L856.31 247.821L852.951 244.791L849.019 241.433C846.233 239.058 843.039 236.601 839.68 234.226L834.355 230.623L828.784 227.183L822.886 224.153L819.937 222.679L816.906 221.45C814.858 220.631 812.892 219.894 810.844 219.239C808.882 218.606 806.886 218.086 804.864 217.683C802.915 217.295 800.946 217.022 798.966 216.864C797.085 216.701 795.194 216.701 793.313 216.864C785.695 217.437 778.977 217.437 773.325 217.437H765.133H761.774H758.743C757.153 217.286 755.703 217.047 754.409 216.834C752.903 216.586 751.608 216.373 750.551 216.373L747.684 215.799C759.175 222.889 769.14 229.348 778.001 235.09L778.004 235.092C780.196 236.513 782.32 237.89 784.384 239.222L798.72 248.231L805.11 252.08L811.008 255.438C820.859 261.888 832.079 265.954 843.776 267.313C846.577 267.566 849.397 267.149 852.005 266.095C854.612 265.041 856.93 263.381 858.767 261.252ZM899.563 305.723C902.164 305.79 904.753 305.345 907.182 304.412C909.891 303.242 912.259 301.403 914.064 299.068C915.87 296.734 917.053 293.979 917.504 291.063C917.759 289.987 917.924 288.891 917.995 287.787C918.082 286.533 918.082 285.274 917.995 284.02C917.964 281.03 917.718 278.047 917.258 275.093C916.583 271.329 915.68 267.61 914.554 263.955C913.899 261.908 913.162 259.778 912.343 257.485C911.523 255.192 910.54 252.899 909.393 250.524C908.924 249.551 908.454 248.538 907.973 247.5L907.972 247.496L907.971 247.495C907.279 246 906.562 244.454 905.789 242.907C904.817 240.964 903.665 238.931 902.5 236.875L902.491 236.859L902.477 236.834C902.078 236.13 901.678 235.424 901.283 234.718C897.925 229.067 894.074 223.006 889.405 216.618L887.603 214.161L885.719 211.705L881.868 206.791C880.561 205.075 879.09 203.359 877.619 201.643L877.619 201.643L877.618 201.642L877.618 201.642L877.617 201.641L877.617 201.641L877.617 201.641L877.616 201.64L877.616 201.64L877.616 201.639L877.615 201.639L877.615 201.639L877.615 201.638L877.614 201.638L877.614 201.637L877.613 201.637L877.613 201.636L877.613 201.636L877.612 201.636L877.612 201.635L877.612 201.635L877.611 201.634L877.611 201.634L877.611 201.634L877.609 201.631L873.103 196.39L868.27 191.148L865.73 188.446L863.027 185.743L857.538 180.174L851.64 174.687C851.64 174.687 852.377 175.752 853.524 177.881C853.72 178.244 853.886 178.552 854.032 178.822L854.033 178.822L854.034 178.825L854.035 178.827C854.744 180.136 854.961 180.537 855.572 181.894C855.635 182.033 855.699 182.174 855.764 182.317C855.853 182.513 855.944 182.713 856.036 182.915L856.056 182.959C856.685 184.335 857.383 185.863 858.03 187.545C862.776 199.919 865.541 212.965 866.222 226.2C866.346 228.261 866.592 230.312 866.959 232.343C866.959 233.945 867.423 235.547 867.897 237.184C868.053 237.723 868.21 238.265 868.352 238.813C868.925 241.024 869.58 243.071 870.318 245.282L870.319 245.287C871.056 247.497 871.793 249.706 872.611 251.916C873.121 253.292 873.345 253.812 873.541 254.264C873.625 254.459 873.703 254.641 873.797 254.874C873.836 254.97 873.877 255.074 873.922 255.192C874.332 256.257 874.823 257.403 875.315 258.468C875.518 258.909 875.876 259.743 876.296 260.72L876.296 260.721C876.89 262.103 877.606 263.772 878.182 265.02L881.131 271.326L884.08 277.468C885.063 279.434 886.046 281.399 887.029 283.201C887.517 284.095 887.985 285.009 888.442 285.904C888.907 286.812 889.361 287.699 889.815 288.524L894.566 297.533L897.843 303.511L899.563 305.723ZM928.646 365.917L930.039 364.033L928.646 361.658C928.312 361.057 927.937 360.333 927.51 359.509C926.89 358.312 926.161 356.904 925.288 355.352C923.813 352.732 922.011 349.701 919.881 346.344L916.44 341.266L914.556 338.563L912.508 335.861L908.166 330.456L903.333 325.214L900.875 322.593L898.254 320.136C896.534 318.499 894.731 316.942 892.929 315.468C886.343 309.7 878.568 305.45 870.155 303.02C858.047 300.494 846.117 297.184 834.438 293.11C832.472 292.373 830.834 291.718 829.441 291.063L825.837 289.507C824.883 289.066 823.953 288.574 823.052 288.033L827.557 292.947L831.817 297.779C832.248 298.317 832.714 298.82 833.169 299.311L833.171 299.313C833.408 299.568 833.641 299.82 833.865 300.072L835.913 302.447L839.763 306.869L853.853 323.249C862.537 333.322 869.746 341.594 876.299 348.227C879.412 351.585 882.28 354.533 885.311 357.072C888.342 359.611 891.045 361.822 893.503 363.624C895.774 365.309 898.155 366.841 900.63 368.21C902.614 369.33 904.698 370.262 906.856 370.995C910.138 372.149 913.633 372.568 917.096 372.223C919.685 371.881 922.172 370.987 924.386 369.602C925.971 368.579 927.405 367.338 928.646 365.917ZM951.665 428.978C954.273 429.987 957.064 430.434 959.857 430.288C963.076 430.044 966.177 428.973 968.86 427.18C971.544 425.386 973.719 422.931 975.176 420.051C975.804 419.03 976.351 417.962 976.814 416.857C977.418 415.648 977.912 414.387 978.289 413.09C979.31 409.963 980.077 406.758 980.583 403.508C981.167 399.384 981.468 395.225 981.484 391.059C981.509 385.807 981.235 380.557 980.665 375.335C978.927 361.049 975.659 346.991 970.916 333.404L968.704 327.098L967.476 323.904L966.165 320.628C965.346 318.417 964.445 316.205 963.461 313.912C962.478 311.619 961.414 309.326 960.349 307.033C959.914 306.097 959.657 305.529 959.465 305.107C959.188 304.495 959.05 304.19 958.71 303.511C958.138 302.367 957.565 301.141 956.993 299.915L956.99 299.908C956.416 298.679 954.614 295.076 953.303 292.537C951.659 289.454 949.95 286.307 948.216 283.115C947.187 281.22 946.149 279.308 945.111 277.386C945.111 277.386 945.111 278.696 946.094 281.317C946.926 285.123 947.501 288.981 947.815 292.865C948.942 307.27 947.724 321.763 944.21 335.779C943.137 340.291 942.533 344.901 942.408 349.538V356.99V360.757V364.607C943.063 374.844 944.374 385.327 945.849 394.827C945.849 396.566 946.2 398.261 946.549 399.945C946.677 400.56 946.804 401.174 946.914 401.788C947.091 402.783 947.238 403.731 947.381 404.654L947.381 404.657C947.568 405.86 947.747 407.018 947.979 408.176C948.634 412.271 949.289 415.956 949.863 419.068C949.983 419.718 950.099 420.34 950.21 420.932L950.318 421.508C950.69 423.488 950.996 425.115 951.174 426.357L951.665 428.978ZM954.45 503.34C957.444 502.763 960.255 501.47 962.642 499.573C962.642 499.573 961.741 498.918 961.495 497.116C961.249 495.315 960.84 492.694 960.266 489.5V486.961L959.693 484.258C959.456 483.169 959.192 482.079 958.916 480.942L958.915 480.94C958.714 480.112 958.507 479.259 958.3 478.362C957.945 476.825 957.505 475.33 957.041 473.755L957.04 473.75C956.862 473.145 956.68 472.528 956.498 471.892L956.497 471.889C955.842 469.597 955.187 467.305 954.368 465.012C951.11 455.299 946.71 446.007 941.261 437.331C939.868 435.202 938.394 433.154 936.919 431.189L934.625 428.323L932.168 425.62C930.556 423.978 928.861 422.42 927.089 420.952C925.38 419.542 923.573 418.256 921.682 417.103L916.111 413.745L910.95 410.551C908.718 409.19 906.666 407.829 904.723 406.54L904.715 406.535C903.738 405.886 902.789 405.257 901.857 404.654C899.072 402.852 896.614 401.133 894.403 399.495C894.156 399.312 893.912 399.132 893.67 398.953C893.451 398.792 893.233 398.632 893.018 398.473L893.012 398.469L893.007 398.465C891.329 397.23 889.775 396.085 888.422 394.99L883.917 391.387L880.804 388.602L879.002 386.801L878.428 386.227C882.442 394.908 886.211 403.098 889.405 410.796C890.951 414.521 892.458 418.092 893.909 421.528C895.456 425.195 896.939 428.708 898.335 432.09C899.322 434.387 900.279 436.626 901.212 438.805C905.465 448.748 909.192 457.46 912.753 464.849C917.845 477.716 925.802 489.254 936.018 498.59C938.508 500.763 941.471 502.323 944.671 503.148C947.871 503.972 951.22 504.038 954.45 503.34ZM961.413 573.854C963.79 575.869 966.589 577.324 969.605 578.113C972.421 578.954 975.395 579.123 978.288 578.604C980.108 578.281 981.873 577.702 983.531 576.884C984.465 576.457 985.369 575.964 986.234 575.41C987.202 574.753 988.131 574.042 989.02 573.281C993.805 569.08 997.728 563.99 1000.57 558.294C1001.55 556.492 1002.45 554.526 1003.36 552.479C1004.26 550.432 1005.16 548.138 1006.06 545.763L1007.37 542.078C1007.37 541.278 1007.67 540.478 1007.99 539.66C1008.19 539.137 1008.39 538.607 1008.52 538.065C1009.34 535.362 1010.15 532.414 1010.81 529.302C1014.14 513.938 1015.79 498.258 1015.73 482.539V475.25V467.633C1015.73 462.829 1015.16 457.812 1014.55 452.449L1014.55 452.447C1014.5 452.051 1014.46 451.654 1014.41 451.254C1014.41 449.862 1014.41 448.469 1014.01 446.995C1013.82 446.325 1013.8 445.672 1013.79 445.021C1013.76 444.239 1013.74 443.459 1013.43 442.655C1013.43 440.601 1013.01 438.464 1012.59 436.333L1012.59 436.332L1012.59 436.331L1012.59 436.331C1012.43 435.487 1012.26 434.645 1012.12 433.81C1011.63 430.861 1011.06 427.667 1010.48 424.555C1009.91 421.443 1009.25 418.249 1008.52 414.973V419.478C1008.08 423.724 1007.37 427.937 1006.39 432.09C1002.6 447.373 996.316 461.928 987.791 475.168C985.131 479.479 982.882 484.031 981.073 488.763C980.09 491.22 979.189 493.759 978.37 496.297C978.283 496.567 978.195 496.838 978.107 497.111L978.107 497.112C977.361 499.413 976.571 501.852 975.912 504.487C973.032 514.681 970.892 525.392 968.929 535.216L968.622 536.755C968.622 537.983 968.622 539.294 967.966 540.522L967.229 544.207C967.229 545.79 966.889 547.304 966.56 548.772L966.559 548.774C966.377 549.585 966.199 550.382 966.082 551.169C965.263 555.591 964.607 559.358 964.034 562.962C963.949 563.499 963.867 564.01 963.789 564.499C963.342 567.29 963.014 569.34 962.805 571.152V573.363L961.413 573.854ZM937.082 650.592C940.217 651.036 943.411 650.756 946.421 649.773C946.421 649.773 947.896 648.79 948.387 646.907C948.762 645.468 949.138 643.457 949.586 641.055C949.725 640.311 949.871 639.53 950.026 638.717C950.681 635.277 951.254 631.101 951.746 626.514V622.911V619.225V611.036C952.04 600.026 950.967 589.022 948.551 578.277C946.511 568.209 942.195 558.741 935.935 550.596C926.531 539.673 917.804 528.186 909.803 516.199C908.745 514.612 907.847 513.133 907.066 511.846L907.065 511.844L906.818 511.436C906.719 511.273 906.621 511.113 906.526 510.957L904.314 507.026C903.167 504.897 902.676 503.75 902.676 503.75C904.806 524.716 905.789 542.324 906.608 557.475C907.427 572.626 908.164 585.32 909.311 596.049C909.647 610.931 913.344 625.546 920.125 638.799C921.857 641.933 924.287 644.627 927.228 646.672C930.168 648.717 933.54 650.059 937.082 650.592ZM916.276 724.545C917.805 727.486 919.958 730.057 922.584 732.08C925.605 734.379 929.173 735.852 932.936 736.355C936.699 736.857 940.528 736.372 944.047 734.946C950.583 732.509 956.59 728.839 961.742 724.136C965.499 720.884 969.004 717.353 972.227 713.571C974.01 711.635 975.719 709.405 977.493 707.09L977.798 706.692C979.232 704.823 979.574 704.328 980.089 703.585C980.251 703.352 980.43 703.094 980.665 702.761C981.648 701.369 982.549 700.058 983.532 698.584C992.93 684.096 1000.68 668.603 1006.63 652.394C1010.58 641.672 1013.92 630.735 1016.63 619.635C1019.85 606.602 1022.31 593.395 1024 580.079C1024 580.079 1023.43 581.635 1022.03 584.583C1021.76 585.101 1021.48 585.675 1021.17 586.298L1021.16 586.3C1020.64 587.351 1020.05 588.539 1019.33 589.824C1018.18 591.872 1016.79 594.165 1015.15 596.704C1013.52 599.243 1011.63 602.027 1009.34 604.893C1008.58 605.945 1007.73 606.998 1006.87 608.079L1006.84 608.116C1006.74 608.242 1006.63 608.369 1006.53 608.496C1006.43 608.625 1006.33 608.753 1006.22 608.882C1006.15 608.974 1006.08 609.065 1006.01 609.157L1005.9 609.289L1005.81 609.398L1001.72 614.148C1000.33 615.704 998.77 617.342 997.131 618.98C996.899 619.212 996.666 619.446 996.433 619.682C996.258 619.858 996.083 620.035 995.908 620.213L995.907 620.214L995.906 620.214C994.668 621.468 993.406 622.745 992.052 623.976L991.56 624.423C989.907 625.926 988.187 627.489 986.4 629.053L983.369 631.51L980.174 634.049C975.85 637.444 971.847 641.227 968.213 645.351C964.267 649.801 960.549 654.448 957.072 659.273C949.945 669.019 943.228 679.584 937.248 689.166C937.022 689.542 936.798 689.916 936.576 690.288L936.569 690.299L936.565 690.305C935.338 692.357 934.151 694.341 932.906 696.209L928.974 702.761C928.72 703.173 928.479 703.584 928.241 703.991C927.862 704.637 927.491 705.27 927.09 705.873L925.369 708.739L922.256 713.899L917.833 721.433L916.276 724.545ZM860.569 791.783C863.508 793.541 866.82 794.579 870.236 794.813L871.547 792.11L872.612 790.636L873.84 788.835L876.626 784.494L878.264 781.955L879.903 779.171L883.425 772.946L887.03 765.903L887.931 764.02L888.75 762.136L890.47 758.205C895.317 747.194 898.731 735.606 900.628 723.726C902.561 712.809 901.916 701.591 898.744 690.967C893.511 676.377 889.108 661.503 885.555 646.415C884.9 643.876 884.49 641.747 884.162 639.863C884.048 639.206 883.914 638.579 883.787 637.988C883.552 636.886 883.343 635.913 883.343 635.113V631.182C880.804 641.911 878.182 652.148 875.151 660.993C872.12 669.838 869.417 678.028 866.959 686.217L866.526 687.537C861.638 702.433 857.529 714.954 854.425 725.774C851.687 734.95 849.607 744.31 848.2 753.783C847.708 755.748 847.708 757.632 847.708 759.352V764.347C847.722 767.256 847.968 770.159 848.445 773.028C848.891 776.875 850.216 780.568 852.318 783.82C854.421 787.072 857.244 789.797 860.569 791.783ZM808.716 856.973C808.995 860.534 810.028 863.996 811.747 867.128C813.385 870.19 815.747 872.805 818.628 874.745C820.39 875.974 822.322 876.939 824.362 877.611C826.847 878.476 829.438 878.999 832.063 879.167C835.36 879.481 838.679 879.481 841.975 879.167C846.17 878.512 850.306 877.526 854.345 876.219C865.942 872.225 876.96 866.718 887.113 859.839C902.679 849.166 916.947 836.715 929.63 822.74C938.056 813.576 945.935 803.923 953.223 793.83C961.853 781.882 969.732 769.41 976.816 756.485C976.816 756.485 975.505 757.877 972.965 760.334C969.217 763.756 965.249 766.93 961.087 769.834C954.547 774.501 947.644 778.637 940.443 782.201L937.248 783.757L933.808 785.231C931.514 786.296 929.138 787.278 926.599 788.261C924.697 788.997 922.795 789.641 920.859 790.296L920.854 790.298L920.848 790.3L920.847 790.301L920.845 790.301L920.844 790.302L920.842 790.302L920.841 790.303L920.839 790.303L920.468 790.429C920.205 790.518 919.941 790.608 919.677 790.698L919.427 790.783C919.251 790.843 919.075 790.903 918.898 790.964C916.277 791.865 913.409 792.766 910.706 793.503C898.84 797.247 887.54 802.592 877.119 809.391C874.252 811.111 871.466 812.912 868.927 814.714C867.712 815.576 866.384 816.438 865.043 817.309L865.042 817.31C863.58 818.259 862.102 819.219 860.735 820.201C859.26 821.261 857.708 822.294 856.151 823.331C854.94 824.138 853.726 824.946 852.543 825.77L844.842 831.175C834.848 838.3 825.919 844.852 819.447 849.602L811.747 855.171L808.716 856.973ZM724.253 899.478C726.413 902.503 729.209 905.019 732.445 906.849L733.51 905.62L735.804 904.31L739.409 902.099C739.506 902.036 739.605 901.972 739.704 901.908L739.79 901.854L739.94 901.758C740.156 901.621 740.376 901.481 740.6 901.34L740.609 901.334C741.708 900.639 742.912 899.877 744.16 898.986C753.131 893.065 761.573 886.379 769.391 879.004C778.845 870.116 787.106 860.041 793.967 849.029C795.196 847.064 796.378 844.868 797.48 842.822L797.481 842.821C797.849 842.139 798.207 841.474 798.555 840.839C799.947 838.301 801.176 835.434 802.241 832.65C803.202 829.964 804.023 827.231 804.699 824.46C805.338 821.769 805.749 819.03 805.928 816.27C807.484 793.503 809.286 777.287 811.17 766.395C811.359 765.389 811.536 764.419 811.705 763.49C811.976 761.999 812.229 760.613 812.481 759.352C812.645 758.532 812.862 757.778 813.062 757.079L813.063 757.078C813.363 756.031 813.628 755.109 813.628 754.274C813.938 752.917 814.321 751.577 814.775 750.261C807.566 759.843 800.603 768.36 794.131 776.222C787.659 784.085 781.515 791.292 775.781 797.843L759.889 816.025L756.366 820.119L753.007 824.05C752.477 824.679 751.951 825.299 751.432 825.91L751.397 825.95L751.394 825.954C749.764 827.873 748.203 829.712 746.781 831.503C740.113 839.4 734.035 847.776 728.595 856.564C726.593 859.811 724.84 863.206 723.352 866.719C722.089 869.555 721.048 872.485 720.239 875.482C720.174 875.76 720.105 876.036 720.037 876.308C719.764 877.398 719.502 878.447 719.502 879.495V883.18C719.449 885.375 719.614 887.57 719.993 889.732C720.728 893.239 722.178 896.557 724.253 899.478ZM643.481 940.099C642.139 943.736 641.581 947.615 641.843 951.483C642.005 955.242 643.103 958.902 645.038 962.129C647.738 966.585 651.585 970.234 656.179 972.694C659.328 974.428 662.65 975.828 666.091 976.871C670.56 978.202 675.138 979.134 679.772 979.655C693.155 981.041 706.667 980.545 719.913 978.181L726.302 976.953L729.579 976.379L732.938 975.56L739.901 973.841C741.962 973.343 744.023 972.722 746.138 972.086L746.146 972.083L746.149 972.082C746.468 971.986 746.788 971.89 747.11 971.793C752.107 970.401 757.186 968.681 762.593 966.797L770.785 963.685L774.963 961.965L779.223 960.164L783.564 958.28L787.906 956.233L796.917 951.81L806.174 946.896C809.286 945.259 812.479 943.377 815.672 941.494L815.672 941.494L815.677 941.491C829.577 933.272 842.931 924.163 855.654 914.219C855.654 914.219 853.77 915.12 850.165 916.43C844.812 918.32 839.338 919.852 833.781 921.017C830.177 921.836 826.245 922.491 821.903 923.146C817.561 923.801 812.728 924.211 807.649 924.538H799.457H791.265C785.094 924.301 778.941 923.727 772.833 922.818L768.163 922.245H763.412H753.418C750.059 922.245 746.537 922.245 743.014 922.9C740.99 923.277 738.965 923.437 736.925 923.599C735.415 923.718 733.897 923.838 732.364 924.047C718.219 925.845 703.747 928.541 690.577 930.995L690.503 931.008L657.08 937.478L656.455 937.598C652.483 938.362 649.262 938.981 647.004 939.526L643.481 940.099ZM161.792 254.782C162.435 257.171 163.612 259.383 165.233 261.252C167.07 263.381 169.388 265.041 171.995 266.095C174.602 267.149 177.423 267.566 180.224 267.313C192.063 266.016 203.43 261.948 213.402 255.438L219.3 252.08L225.69 248.231L240.026 239.222C242.089 237.89 244.213 236.513 246.405 235.093L246.406 235.092C255.267 229.349 265.233 222.89 276.726 215.799L273.859 216.373C272.801 216.373 271.507 216.586 270.001 216.834L270.001 216.834L270.001 216.834L270 216.834L269.999 216.834C268.706 217.047 267.256 217.286 265.667 217.437H262.636H259.277H251.085C245.432 217.437 238.715 217.437 231.096 216.864C229.216 216.701 227.324 216.701 225.444 216.864C223.463 217.022 221.494 217.295 219.546 217.683C217.524 218.086 215.527 218.606 213.565 219.239C211.517 219.894 209.551 220.631 207.503 221.45L204.472 222.679L201.523 224.153L195.625 227.183L190.054 230.623L184.73 234.226C181.371 236.601 178.176 239.058 175.391 241.433L171.459 244.791L168.1 247.821L163.43 252.407L161.792 254.782ZM116.818 304.412C119.247 305.345 121.836 305.79 124.437 305.723L125.911 303.511C126.649 302.037 127.796 299.99 129.188 297.533L133.94 288.524C134.394 287.699 134.847 286.812 135.312 285.904C135.769 285.009 136.237 284.095 136.725 283.201C137.708 281.399 138.773 279.434 139.674 277.468C140.128 276.479 140.623 275.469 141.128 274.438C141.626 273.421 142.135 272.383 142.623 271.326L145.572 265.02C146.147 263.774 146.863 262.107 147.456 260.726L147.457 260.723L147.458 260.722L147.458 260.721C147.878 259.743 148.236 258.909 148.439 258.468C148.749 257.797 149.026 257.126 149.312 256.435C149.48 256.029 149.65 255.616 149.832 255.192L151.143 251.916C151.962 249.705 152.699 247.494 153.437 245.282C154.174 243.071 154.829 241.024 155.403 238.813C155.976 236.602 156.386 234.472 156.795 232.343L156.795 232.343C157.162 230.312 157.408 228.261 157.533 226.2C158.213 212.965 160.978 199.919 165.725 187.545C166.372 185.863 167.07 184.334 167.698 182.959C167.865 182.593 168.027 182.238 168.182 181.894C168.794 180.535 169.011 180.135 169.722 178.822L169.722 178.82C169.868 178.551 170.035 178.243 170.23 177.881C171.377 175.752 172.114 174.687 172.114 174.687L166.216 180.174L160.727 185.743L158.024 188.446L155.485 191.148L150.651 196.39L146.146 201.631L146.145 201.632C144.671 203.351 143.196 205.071 141.886 206.791L138.036 211.705L136.151 214.161L134.349 216.618C129.68 223.006 125.829 229.067 122.471 234.718C122.069 235.437 121.661 236.156 121.255 236.873L121.255 236.874L121.254 236.875C120.089 238.931 118.937 240.964 117.965 242.907C117.192 244.454 116.475 246 115.782 247.496L115.782 247.497C115.301 248.536 114.831 249.55 114.361 250.524C113.214 252.899 112.231 255.192 111.412 257.485C110.592 259.778 109.855 261.908 109.2 263.955C108.074 267.61 107.171 271.329 106.496 275.093C106.118 278.053 105.954 281.036 106.005 284.02C105.918 285.274 105.918 286.533 106.005 287.787C106.076 288.891 106.241 289.987 106.496 291.063C106.947 293.979 108.13 296.734 109.936 299.068C111.741 301.403 114.109 303.242 116.818 304.412ZM93.9633 364.033L95.3559 365.917C96.597 367.338 98.0308 368.579 99.6157 369.602C101.831 370.987 104.317 371.881 106.907 372.223C110.369 372.568 113.864 372.149 117.147 370.995C119.304 370.262 121.388 369.33 123.373 368.21C125.847 366.841 128.228 365.309 130.5 363.624C132.957 361.822 135.661 359.611 138.692 357.072C141.723 354.533 144.59 351.585 147.703 348.227C154.174 341.594 161.465 333.322 170.149 323.249L184.239 306.869L188.089 302.447L190.137 300.072C190.361 299.82 190.595 299.568 190.831 299.313C191.287 298.821 191.754 298.318 192.185 297.779L196.445 292.947L200.951 288.033C200.049 288.574 199.12 289.066 198.165 289.507L194.561 291.063C193.168 291.718 191.53 292.373 189.564 293.11C177.886 297.184 165.955 300.494 153.847 303.02C145.434 305.45 137.66 309.7 131.073 315.468C129.271 316.942 127.469 318.499 125.748 320.136L123.127 322.593L120.669 325.214L115.836 330.456L111.494 335.861L109.446 338.563L107.562 341.266L104.121 346.344C101.991 349.701 100.189 352.732 98.7146 355.352C97.8417 356.904 97.1123 358.312 96.4924 359.508C96.0653 360.333 95.6901 361.057 95.3559 361.658L93.9633 364.033ZM64.1443 430.288C66.9368 430.434 69.7286 429.987 72.3363 428.978L73.1555 426.357C73.3193 425.497 73.5036 424.453 73.7187 423.235C73.9337 422.017 74.1795 420.624 74.4662 419.068C75.0396 415.956 75.695 412.271 76.3504 408.176C76.5819 407.019 76.7611 405.861 76.9471 404.659L76.9471 404.659L76.9472 404.659L76.9472 404.658L76.9473 404.658L76.9473 404.658L76.9474 404.658L76.9474 404.657L76.9475 404.657L76.9477 404.656C77.0905 403.733 77.2375 402.783 77.4153 401.788C77.525 401.174 77.6522 400.56 77.7798 399.945C78.1288 398.261 78.4803 396.566 78.4803 394.827C79.9548 385.327 81.2656 374.844 81.9209 364.607V360.757V356.99V349.538C81.7696 344.899 81.1381 340.288 80.0368 335.779C76.5503 321.758 75.3607 307.266 76.5142 292.865C76.828 288.981 77.4028 285.123 78.2345 281.317C78.808 278.696 79.2176 277.386 79.2176 277.386C78.1832 279.302 77.1488 281.207 76.1229 283.096L76.117 283.107L76.1131 283.114C74.3797 286.306 72.6704 289.454 71.0256 292.537C69.7148 295.076 67.9126 298.679 67.3392 299.908C67.1242 300.368 66.8978 300.817 66.6728 301.263L66.6724 301.264L66.672 301.265C66.2969 302.008 65.9259 302.744 65.6188 303.511L63.9804 307.033C62.9155 309.326 61.8505 311.619 60.8675 313.912C59.8844 316.205 58.9833 318.417 58.1641 320.628L56.8534 323.904L55.6246 327.098L53.4128 333.404C48.6703 346.991 45.4021 361.049 43.6643 375.335C43.0935 380.557 42.82 385.807 42.8451 391.059C42.8611 395.225 43.1622 399.384 43.7462 403.508C44.2515 406.758 45.0186 409.963 46.04 413.09C46.4174 414.387 46.911 415.648 47.5145 416.857C47.9775 417.962 48.5253 419.03 49.1529 420.051C50.5809 422.886 52.7054 425.313 55.3274 427.103C57.9494 428.894 60.9831 429.99 64.1443 430.288ZM61.3593 499.573C63.6278 501.413 66.2915 502.702 69.1416 503.34C72.3717 504.038 75.7203 503.972 78.9204 503.148C82.1205 502.323 85.0836 500.763 87.5736 498.59C97.79 489.254 105.746 477.716 110.839 464.849C114.4 457.459 118.127 448.748 122.381 438.804L122.381 438.803L122.385 438.794C123.316 436.618 124.272 434.383 125.257 432.09C126.652 428.709 128.134 425.197 129.681 421.533L129.682 421.53L129.682 421.529L129.683 421.528C131.133 418.092 132.641 414.521 134.186 410.796C137.381 403.098 141.149 394.908 145.163 386.227L144.59 386.801C144.59 386.801 143.607 387.865 142.788 388.602L139.675 391.387L135.169 394.99C133.816 396.086 132.259 397.232 130.58 398.469C130.125 398.804 129.661 399.145 129.189 399.495C126.977 401.133 124.52 402.852 121.734 404.654C120.805 405.255 119.857 405.884 118.883 406.531L118.871 406.538L118.869 406.54L118.868 406.54L118.867 406.541L118.864 406.543C116.923 407.831 114.872 409.191 112.641 410.551L107.48 413.745L101.91 417.103C100.019 418.256 98.2117 419.542 96.5029 420.952C94.731 422.42 93.0358 423.978 91.4239 425.62L88.9663 428.323L86.6725 431.189C85.198 433.154 83.7234 435.202 82.3308 437.331C76.8817 446.007 72.4819 455.299 69.2236 465.012C68.4044 467.306 67.749 469.599 67.0937 471.892C66.8927 472.595 66.6686 473.237 66.4546 473.85L66.4544 473.85C65.9703 475.236 65.5372 476.476 65.5372 477.952C65.5372 479.335 65.1225 480.615 64.7195 481.858C64.5021 482.529 64.2881 483.189 64.1445 483.849L63.5711 486.551L63.1615 489.09C62.5881 492.284 62.1785 494.905 61.9327 496.707C61.6869 498.509 61.3593 499.573 61.3593 499.573ZM54.3951 578.113C57.4103 577.324 60.2099 575.869 62.5871 573.854L61.1126 573.363V571.152C60.9035 569.34 60.5759 567.292 60.1298 564.503L60.1296 564.502L59.998 563.679L59.8838 562.962C59.3103 559.358 58.655 555.591 57.8358 551.169C57.7191 550.381 57.5402 549.584 57.3581 548.772C57.0286 547.304 56.6889 545.79 56.6889 544.207L55.9516 540.522C55.2962 539.294 55.2962 537.983 55.2962 536.755L54.9892 535.219C53.0261 525.394 50.8856 514.682 48.0054 504.487C47.3462 501.851 46.5562 499.412 45.8108 497.111C45.7224 496.838 45.6346 496.567 45.5478 496.297C44.7285 493.759 43.8274 491.22 42.8444 488.763C41.0363 484.031 38.7872 479.479 36.1269 475.168C27.6021 461.928 21.3192 447.373 17.5311 432.09C16.5457 427.937 15.8341 423.724 15.4012 419.478V414.973C14.6639 418.249 14.0086 421.443 13.4351 424.555C12.8617 427.667 12.2882 430.861 11.7967 433.81C11.6573 434.646 11.4916 435.488 11.3257 436.332L11.3256 436.333C10.9064 438.464 10.486 440.601 10.486 442.655C9.91255 444.129 9.91255 445.603 9.91255 446.995L9.50295 451.254C9.45785 451.654 9.41275 452.052 9.36786 452.449C8.76049 457.811 8.19223 462.829 8.19223 467.633V475.25V482.539C8.23935 498.27 9.9973 513.95 13.4351 529.302C14.0905 532.414 14.9097 535.362 15.7289 538.065C16.124 538.905 16.2809 539.625 16.451 540.406C16.5629 540.92 16.6806 541.46 16.8757 542.078L18.1865 545.763C19.0876 548.138 19.9887 550.432 20.8898 552.479C21.791 554.526 22.6921 556.492 23.6751 558.294C26.5179 563.99 30.4408 569.08 35.2258 573.281C36.1936 574.049 37.2057 574.76 38.2569 575.41C39.1224 575.964 40.0257 576.457 40.9602 576.884C42.4631 577.66 44.0601 578.239 45.7116 578.604C48.6046 579.123 51.5791 578.954 54.3951 578.113ZM77.5769 649.773C80.5865 650.756 83.7811 651.036 86.9158 650.592C90.4579 650.059 93.8296 648.717 96.7702 646.672C99.7107 644.627 102.141 641.933 103.873 638.799C110.654 625.546 114.351 610.931 114.687 596.049C115.834 585.32 116.571 572.626 117.39 557.475C118.209 542.324 119.192 524.716 121.322 503.75C121.322 503.75 120.831 504.897 119.684 507.026L117.472 510.957C117.398 511.079 117.322 511.203 117.245 511.329L117.077 511.607L116.936 511.839L116.933 511.843C116.152 513.131 115.254 514.611 114.195 516.199C106.194 528.186 97.4668 539.673 88.0627 550.596C81.8025 558.741 77.4874 568.209 75.447 578.277C73.0311 589.022 71.9579 600.026 72.2521 611.036V619.225V622.911C72.2521 624.139 72.2521 625.368 72.6617 626.514C73.7267 630.609 74.5459 635.114 75.2013 638.799C75.8566 642.484 76.3481 645.105 76.8397 646.989C77.3312 648.872 77.5769 649.773 77.5769 649.773ZM101.417 732.08C104.043 730.057 106.196 727.486 107.725 724.545L106.168 721.761L101.745 714.226L98.6317 709.067L96.9114 706.2C96.5095 705.598 96.1384 704.964 95.7603 704.319L95.7597 704.318C95.5214 703.911 95.2804 703.5 95.0272 703.088L91.095 696.536C89.8488 694.667 88.6611 692.682 87.4329 690.628L87.4326 690.628C87.2077 690.252 86.9815 689.873 86.7533 689.493C80.7731 679.747 73.728 669.346 66.9286 659.519C63.4522 654.693 59.7337 650.046 55.7875 645.596C52.1539 641.472 48.1505 637.689 43.8272 634.294L40.6323 631.755L37.6013 629.299C35.8134 627.735 34.0932 626.171 32.4408 624.668L31.9488 624.221C30.5944 622.99 29.3325 621.713 28.0936 620.459C27.684 620.044 27.2769 619.632 26.8698 619.225C25.2314 617.587 23.6749 615.949 22.2822 614.393L18.1862 609.643C17.8359 609.2 17.4856 608.763 17.1391 608.33L17.1358 608.326C16.268 607.244 15.4241 606.191 14.6637 605.139C12.3699 602.272 10.4858 599.488 8.84736 596.949C7.20896 594.41 5.81632 592.117 4.66944 590.07C3.94923 588.784 3.35824 587.595 2.83561 586.544L2.83503 586.543C2.52564 585.92 2.2402 585.346 1.96608 584.828C0.57344 581.88 0 580.324 0 580.324C1.70295 593.558 4.1646 606.683 7.3728 619.635C10.0816 630.735 13.4184 641.672 17.367 652.394C23.3223 668.603 31.0709 684.095 40.4685 698.584C41.4515 700.058 42.3526 701.368 43.3357 702.76C43.5706 703.093 43.7493 703.351 43.9111 703.584C44.4263 704.328 44.7689 704.822 46.2029 706.692L46.5094 707.091C48.2832 709.406 49.9917 711.635 51.7734 713.571C54.9966 717.352 58.5019 720.884 62.2592 724.136C67.4107 728.839 73.4177 732.509 79.9539 734.946C83.4726 736.372 87.3019 736.857 91.0651 736.354C94.8284 735.852 98.396 734.379 101.417 732.08ZM153.763 794.813C157.319 794.644 160.779 793.604 163.839 791.783C167.164 789.797 169.987 787.072 172.09 783.82C174.192 780.568 175.518 776.875 175.963 773.028C176.44 770.159 176.686 767.256 176.7 764.347V759.352C176.7 757.632 176.7 755.748 176.209 753.783C174.802 744.31 172.721 734.95 169.983 725.774C166.879 714.954 162.771 702.435 157.883 687.539L157.882 687.538L157.449 686.217L149.257 660.993C146.472 651.82 143.604 641.911 141.065 631.182C141.065 631.182 141.065 632.575 140.655 635.113C140.655 635.913 140.447 636.887 140.211 637.988L140.211 637.989L140.211 637.99L140.211 637.991C140.084 638.581 139.95 639.207 139.836 639.863C139.508 641.747 139.099 643.876 138.444 646.415C134.891 661.503 130.487 676.377 125.254 690.967C122.083 701.591 121.437 712.809 123.37 723.726C125.268 735.606 128.682 747.194 133.528 758.205L135.249 762.136L136.068 764.02L136.969 765.903L140.573 772.946L144.096 779.171L145.734 781.955L147.373 784.494L150.158 788.835L151.387 790.636L152.452 792.11C153.025 793.912 153.763 794.813 153.763 794.813ZM212.253 867.128C213.972 863.996 215.005 860.534 215.284 856.973L212.745 854.844L205.126 849.275C198.655 844.525 189.725 837.973 179.731 830.848L172.031 825.443C170.848 824.619 169.635 823.811 168.424 823.005L168.424 823.004L168.422 823.003L168.419 823.001L168.417 823C166.861 821.964 165.311 820.932 163.839 819.874C162.471 818.891 160.993 817.931 159.531 816.982L159.527 816.979L159.525 816.978C158.186 816.108 156.86 815.247 155.647 814.386C153.107 812.585 150.322 810.783 147.455 809.063C136.837 802.332 125.342 797.096 113.294 793.503C110.591 792.766 107.723 791.865 105.102 790.964C104.452 790.74 103.807 790.522 103.166 790.305L103.161 790.304L103.161 790.303L103.16 790.303C101.218 789.646 99.3095 789 97.4015 788.261C94.862 787.278 92.4863 786.296 90.1925 785.231L86.7519 783.757L83.557 782.201C76.3562 778.637 69.4528 774.501 62.9132 769.834C58.751 766.93 54.7831 763.756 51.0348 760.334C48.4953 757.877 47.1845 756.485 47.1845 756.485C54.2679 769.41 62.1474 781.882 70.7775 793.83C78.0656 803.923 85.9437 813.576 94.3705 822.74C107.053 836.715 121.321 849.166 136.887 859.839C147.04 866.718 158.058 872.225 169.655 876.219C173.694 877.526 177.83 878.512 182.025 879.167C185.321 879.481 188.641 879.481 191.937 879.167C194.563 878.999 197.153 878.476 199.638 877.611C201.678 876.939 203.61 875.974 205.372 874.745C208.253 872.805 210.615 870.19 212.253 867.128ZM291.553 906.849C294.789 905.019 297.585 902.503 299.745 899.478C301.821 896.557 303.271 893.239 304.005 889.732C304.385 887.57 304.55 885.375 304.497 883.18V879.495C304.497 878.185 304.497 876.874 303.759 875.482C302.95 872.485 301.91 869.555 300.646 866.719C299.159 863.206 297.406 859.811 295.404 856.564C289.964 847.776 283.886 839.4 277.217 831.503C275.795 829.71 274.233 827.871 272.601 825.949L272.58 825.925C272.057 825.309 271.527 824.685 270.991 824.05L267.633 820.119L264.11 816.025L248.218 797.843C242.483 791.292 236.339 784.085 229.868 776.222C223.396 768.36 216.433 759.843 209.224 750.261C209.678 751.577 210.061 752.917 210.371 754.274C210.371 755.109 210.636 756.032 210.936 757.079C211.137 757.778 211.354 758.532 211.518 759.352C211.77 760.613 212.022 761.998 212.294 763.489C212.463 764.418 212.639 765.388 212.828 766.395C214.712 777.287 216.515 793.503 218.071 816.27C218.249 819.03 218.661 821.769 219.3 824.46C219.976 827.231 220.796 829.964 221.758 832.65C222.822 835.434 224.051 838.301 225.444 840.839C225.792 841.474 226.151 842.14 226.518 842.822C227.62 844.868 228.803 847.064 230.031 849.029C237.019 860.065 245.419 870.142 255.017 879.004C262.836 886.379 271.277 893.065 280.248 898.986C281.496 899.877 282.7 900.639 283.799 901.333C284.215 901.597 284.617 901.851 285 902.099L288.604 904.31L290.898 905.62L291.553 906.849ZM382.157 951.483C382.419 947.615 381.861 943.736 380.519 940.099L376.914 939.526C374.656 938.981 371.435 938.362 367.463 937.598L366.838 937.478L333.415 931.008L333.341 930.995C320.172 928.541 305.699 925.845 291.553 924.047C290.021 923.838 288.502 923.718 286.993 923.599C284.953 923.437 282.928 923.277 280.904 922.9C277.381 922.245 273.859 922.245 270.5 922.245H260.506H255.754L251.085 922.818C244.977 923.727 238.824 924.301 232.653 924.538H224.461H216.269C211.19 924.211 206.357 923.801 202.015 923.146C197.673 922.491 193.741 921.836 190.137 921.017C184.58 919.852 179.106 918.32 173.753 916.43C170.148 915.12 168.264 914.219 168.264 914.219C180.987 924.163 194.341 933.272 208.241 941.491L208.244 941.493C211.438 943.376 214.632 945.259 217.744 946.896L227.001 951.81L236.012 956.233L240.354 958.28L244.695 960.164L248.955 961.965L253.215 963.685L261.407 966.797C266.814 968.681 271.893 970.401 276.89 971.793C277.212 971.89 277.532 971.986 277.851 972.082C279.97 972.72 282.034 973.342 284.099 973.841L291.062 975.56L294.421 976.379L297.698 976.953L304.087 978.181C317.333 980.545 330.845 981.041 344.228 979.655C348.862 979.134 353.44 978.202 357.909 976.871C361.349 975.828 364.672 974.428 367.821 972.694C372.414 970.234 376.262 966.585 378.962 962.129C380.897 958.902 381.995 955.242 382.157 951.483Z" fill="#E8B639"/>
<path d="M511.999 769.507L524.041 793.83L550.829 797.761L531.414 816.68L536.001 843.378L511.999 830.766L487.996 843.378L492.584 816.68L473.169 797.761L499.957 793.83L511.999 769.507Z" fill="#E8B639"/>
<path d="M632.667 737.239L655.195 752.308L680.427 742.235L673.054 768.36L690.421 789.162L663.305 790.227L648.805 813.158L639.385 787.77L613.088 781.054L634.388 764.265L632.667 737.239Z" fill="#E8B639"/>
<path d="M720.977 648.872L748.01 650.674L764.804 629.38L771.521 655.669L796.998 665.088L774.061 679.502L772.996 706.609L752.106 689.329L725.974 696.618L736.05 671.476L720.977 648.872Z" fill="#E8B639"/>
<path d="M303.022 648.954L287.949 671.476L298.025 696.7L271.892 689.329L251.003 706.609L249.938 679.583L227 665.088L252.477 655.669L259.195 629.38L275.988 650.674L303.022 648.954Z" fill="#E8B639"/>
<path d="M391.332 737.239L389.611 764.265L410.911 781.054L384.614 787.77L375.193 813.24L360.694 790.309L333.66 789.162L350.945 768.36L343.572 742.235L368.804 752.308L391.332 737.239Z" fill="#E8B639"/>
<path d="M318.75 609.889C338.945 658.038 376.314 696.968 423.603 719.125C470.892 741.281 524.729 745.083 574.664 729.792C624.599 714.502 667.071 681.209 693.836 636.377C720.601 591.544 729.75 538.369 719.508 487.173C709.266 435.976 680.363 390.41 638.408 359.317C596.454 328.225 544.441 313.824 492.465 318.91C440.488 323.996 392.255 348.206 357.128 386.841C322 425.477 302.484 475.781 302.366 527.992C302.265 556.114 307.837 583.968 318.75 609.889ZM339.967 462.474C343.385 453.227 347.808 444.384 353.156 436.103L400.342 410.141C410.255 424.146 430.243 447.568 437.452 456.004L417.218 536.345L362.741 570.087L328.171 530.612C327.64 507.349 331.647 484.205 339.967 462.474ZM444.006 355.27C468.073 346.736 493.668 343.359 519.126 345.361C526.005 346 532.807 347.289 539.442 349.21L570.982 388.439C561.397 399.658 539.197 425.702 525.188 445.03L444.333 450.435C437.288 442.245 416.644 417.676 407.142 404.49L444.006 355.27ZM581.631 683.514C556.661 679.735 532.272 672.8 509.05 662.876C504.354 638.12 500.963 613.134 498.892 588.022L563.691 533.888C588.297 541.918 613.459 548.131 638.975 552.479L647.823 622.419C629.253 646.269 606.891 666.909 581.631 683.514ZM450.559 692.605C422.724 681.649 396.855 666.242 373.964 646.988L366.591 578.031L420.495 544.617L490.127 588.186C492.236 613.683 495.681 639.051 500.448 664.187C484.732 674.905 468.218 684.406 451.051 692.605H450.559ZM641.023 543.961C615.009 539.555 589.374 533.148 564.346 524.798L533.216 449.206C547.552 429.551 570.244 402.934 579.01 392.779L648.15 414.154C663.014 439.043 673.748 466.175 679.935 494.496L641.023 543.961ZM352.255 650.1L367.902 653.294C391.988 673.646 419.319 689.814 448.757 701.122C453.503 709.41 459.283 717.061 465.96 723.89C420.667 713.171 380.487 687.096 352.255 650.1ZM574.504 719.304C575.897 715.618 580.976 702.023 584.089 692.359C611.445 675.089 635.566 653.165 655.359 627.579C668.044 627.438 680.524 624.354 691.814 618.57C679.841 642.258 663.308 663.35 643.163 680.637C623.018 697.923 599.658 711.063 574.422 719.304H574.504ZM712.703 521.767C705.316 511.856 697.094 502.595 688.127 494.086C681.867 463.476 670.336 434.185 654.048 407.521C655.229 401.327 655.995 395.062 656.342 388.766C691.027 424.546 711.122 471.967 712.703 521.767ZM511.999 327.589C530.328 327.564 548.574 330.044 566.23 334.96C558.476 336.225 550.872 338.283 543.538 341.102C531.119 337.448 518.227 335.655 505.282 335.779C483.602 336.028 462.106 339.79 441.63 346.917C441.156 347.051 440.711 347.273 440.319 347.572C436.387 347.572 430.735 347.572 422.87 348.309C450.573 334.594 481.085 327.501 511.999 327.589ZM344.719 416.857C343.856 422.547 343.636 428.316 344.063 434.055C339.358 441.876 335.355 450.097 332.103 458.624C322.689 483.043 318.395 509.134 319.487 535.28L312.524 553.298C311.588 545.006 311.177 536.663 311.295 528.319C311.154 488.677 322.787 449.884 344.719 416.857Z" fill="#002876"/>
<path d="M525.19 454.284C532.002 476.015 532.718 499.199 527.257 521.309C521.797 543.418 510.371 563.605 494.224 579.669L555.664 528.401L525.19 454.284Z" fill="white"/>
<path d="M360.447 576.721L326.04 537.492C348.26 570.226 362.435 607.743 367.41 646.989L360.447 576.721Z" fill="white"/>
<path d="M350.044 430.452L400.425 402.689L436.879 354.042C411.99 383.779 382.708 409.546 350.044 430.452Z" fill="white"/>
<path fill-rule="evenodd" clip-rule="evenodd" d="M545.423 213.097L533.463 211.459L528.22 249.05C526.453 256.855 527.681 265.038 531.661 271.981C533.732 274.722 536.355 276.998 539.36 278.663C542.366 280.327 545.687 281.343 549.109 281.645C552.629 282.334 556.253 282.282 559.751 281.492C563.249 280.702 566.544 279.193 569.426 277.059C575.331 271.616 578.911 264.107 579.42 256.093L584.663 218.584L572.702 216.946L567.296 255.192C565.575 267.722 560.087 273.373 550.912 272.063C548.995 271.872 547.155 271.212 545.555 270.14C543.955 269.069 542.643 267.62 541.737 265.921C539.603 261.374 539.027 256.25 540.098 251.343L545.423 213.097ZM448.757 286.149L436.96 221.942C442.702 219.824 448.625 218.234 454.655 217.192C461.644 215.284 469.076 215.833 475.709 218.748C479.436 221.09 482.167 224.726 483.377 228.959C484.587 233.191 484.19 237.721 482.262 241.679C480.559 244.852 478.006 247.489 474.889 249.295C477.565 249.995 480.02 251.361 482.026 253.266C484.031 255.171 485.522 257.552 486.358 260.188C491.273 270.752 494.059 276.567 494.55 277.468L482.344 279.679C479.492 275.141 477.078 270.342 475.135 265.347C474.019 262.16 472.067 259.331 469.483 257.157C466.99 255.771 464.08 255.335 461.291 255.929L455.311 257.076L460.226 283.774L448.757 286.149ZM450.559 227.92L454.327 248.476L461.455 247.166C464.889 246.77 468.062 245.14 470.384 242.58C471.297 241.444 471.954 240.124 472.307 238.71C472.661 237.296 472.703 235.822 472.432 234.39C472.241 232.917 471.713 231.508 470.889 230.273C470.065 229.037 468.967 228.008 467.68 227.265C464.612 225.824 461.143 225.477 457.85 226.282C455.371 226.585 452.929 227.133 450.559 227.92ZM371.671 246.429L397.149 306.296C402.076 304.737 406.892 302.849 411.566 300.645C419.897 298.025 427.072 292.617 431.883 285.33C433.033 282.985 433.631 280.408 433.631 277.796C433.631 275.184 433.033 272.606 431.883 270.261C430.447 266.654 427.694 263.727 424.182 262.071C420.746 260.516 416.929 260.003 413.205 260.597C415.72 258.427 417.567 255.587 418.53 252.408C419.274 249.432 419.015 246.294 417.792 243.481C416.902 241.103 415.364 239.022 413.351 237.473C411.339 235.924 408.933 234.97 406.405 234.718C399.862 233.995 393.25 235.22 387.4 238.239C381.904 240.453 376.636 243.196 371.671 246.429ZM385.872 249.033L393.216 265.839L398.869 263.382C402.211 262.311 405.097 260.148 407.061 257.24C407.783 256.086 408.206 254.77 408.292 253.412C408.378 252.053 408.124 250.695 407.552 249.459C405.177 243.89 400.18 242.662 392.561 245.938C390.225 246.723 387.982 247.761 385.872 249.033ZM404.603 293.438L396.411 273.537L401.654 271.162C405.104 269.554 408.931 268.93 412.713 269.36C414.314 269.6 415.821 270.267 417.075 271.29C418.329 272.313 419.284 273.655 419.84 275.175C420.586 276.652 420.932 278.298 420.846 279.949C420.76 281.601 420.244 283.202 419.349 284.593C417.114 287.59 414.075 289.89 410.583 291.227C408.642 292.097 406.644 292.836 404.603 293.438ZM363.316 305.805L346.359 318.253L352.831 336.762L342.754 344.133L320.8 278.451L333.252 269.36L389.695 310.309L379.291 318.007L363.316 305.805ZM342.509 309.736L356.271 299.662L342.427 289.589C340.87 288.442 337.512 285.822 332.432 281.399C332.432 281.399 333.17 283.283 334.48 286.313L337.184 293.274L342.509 309.736ZM303.105 369.766L308.922 378.447C311.482 377.519 313.907 376.252 316.131 374.68C318.931 372.724 321.488 370.442 323.749 367.883C328.553 363.153 331.466 356.834 331.941 350.111C331.968 347.419 331.403 344.755 330.284 342.306C329.166 339.858 327.522 337.685 325.47 335.943C322.339 333.008 318.211 331.369 313.919 331.356C308.816 331.732 303.862 333.243 299.419 335.779C296.212 337.472 292.797 338.738 289.261 339.546C288.142 339.753 286.99 339.698 285.896 339.385C284.801 339.073 283.794 338.511 282.953 337.744C282.136 337.042 281.495 336.157 281.082 335.161C280.669 334.165 280.497 333.086 280.577 332.012C280.803 329.093 282.084 326.356 284.182 324.313C287.12 320.696 290.924 317.879 295.241 316.124L289.753 307.934C284.766 310.138 280.362 313.475 276.891 317.68C272.622 322.113 270.067 327.918 269.682 334.059C269.547 336.678 270.024 339.293 271.077 341.696C272.129 344.098 273.727 346.223 275.744 347.9C282.216 353.551 290.981 353.223 302.04 346.999C304.983 345.212 308.234 343.99 311.625 343.395C312.774 343.266 313.938 343.382 315.039 343.735C316.141 344.088 317.155 344.67 318.015 345.443C318.98 346.264 319.741 347.298 320.239 348.463C320.736 349.629 320.956 350.894 320.882 352.158C320.524 355.251 319.14 358.135 316.95 360.348C313.305 364.718 308.509 367.981 303.105 369.766ZM284.427 401.297L293.93 403.426C293.71 409.296 292.229 415.05 289.588 420.297C287.964 424.524 285.501 428.38 282.347 431.631C279.194 434.882 275.415 437.462 271.238 439.215C267.082 440.623 262.685 441.181 258.308 440.858C253.932 440.534 249.665 439.335 245.761 437.332C241.288 435.634 237.228 433.003 233.852 429.614C230.476 426.225 227.861 422.155 226.182 417.676C224.09 410.506 223.999 402.901 225.92 395.684C227.84 388.466 231.699 381.911 237.077 376.728L244.86 382.952C241.651 386.156 239.165 390.009 237.569 394.254C236.179 397.013 235.368 400.027 235.185 403.111C235.002 406.196 235.451 409.285 236.504 412.189C239.402 417.952 244.181 422.554 250.049 425.234C255.918 427.914 262.526 428.513 268.78 426.931C271.673 425.762 274.293 424.01 276.478 421.784C278.663 419.557 280.365 416.904 281.478 413.991C283.265 409.987 284.266 405.678 284.427 401.297ZM200.376 481.31L265.175 495.069L268.124 483.276L240.517 477.379L245.596 453.547L236.011 451.5L230.932 475.332L212.992 471.483L218.235 445.849L208.568 443.802L200.376 481.31ZM244.531 543.388V522.341L263.373 515.953V503.013L197.264 525.125V540.522L263.291 561.406V548.876L244.531 543.388ZM235.602 524.47V541.423L219.3 536.263C217.744 535.772 215.286 535.199 212.091 534.462L206.848 533.233C213.32 531.595 217.416 530.449 219.218 529.794L235.602 524.47ZM587.612 288.279L610.877 226.282L622.182 230.541L602.521 283.037L627.998 292.619L624.394 302.119L587.612 288.279ZM654.131 297.369L671.744 308.835L666.091 327.589L676.987 334.551L695.173 267.313L682.229 259.123L628.244 303.02L638.976 309.981L654.131 297.369ZM674.611 300.072L660.357 290.736L673.71 280.171L679.28 275.093L683.131 271.49C681.001 277.796 679.69 281.809 679.116 283.692L674.611 300.072ZM690.175 348.391L682.556 340.202L731.708 295.404L741.129 305.641L731.708 337.417C729.222 345.254 726.212 352.915 722.697 360.348C727.53 355.025 734.002 348.555 742.194 341.02L759.233 325.378L766.77 333.568L717.618 378.366L709.426 369.111L719.174 336.352C721.655 328.162 724.609 320.123 728.022 312.275C722.451 318.007 715.652 324.559 707.706 331.848L690.175 348.391ZM759.07 412.271L767.262 431.517L752.599 444.457L757.76 456.414L810.024 410.224L803.799 396.137L734.576 403.017L739.573 414.482L759.07 412.271ZM774.881 425.948L768.081 410.387L785.203 408.586L792.494 407.439L797.818 406.538C792.494 410.797 789.217 413.417 787.742 414.728L774.881 425.948ZM823.952 449.78L826 461.737L787.99 468.289C782.974 468.806 778.261 470.932 774.555 474.349C773.238 475.736 772.28 477.423 771.766 479.265C771.252 481.107 771.197 483.046 771.606 484.914C773.162 494.086 779.797 497.608 792.659 495.397L830.752 488.845L832.8 500.72L795.526 507.19C787.741 509.196 779.479 508.079 772.507 504.078C769.576 502.018 767.112 499.363 765.277 496.287C763.442 493.21 762.277 489.781 761.857 486.224C761.098 482.895 761.057 479.443 761.735 476.096C762.413 472.75 763.795 469.586 765.789 466.815C771.119 460.851 778.478 457.085 786.433 456.25L823.952 449.78ZM833.537 528.319L767.345 524.961L765.379 564.6L775.456 565.091L776.848 537.738L832.881 540.522L833.537 528.319Z" fill="#E8B639"/>
<path opacity="0.2" fill-rule="evenodd" clip-rule="evenodd" d="M484.149 45.453C484.149 45.453 487.18 45.2892 484.149 38.3279C481.118 31.3667 483.33 0 512.002 0C540.674 0 542.722 31.5305 539.773 38.6555C536.823 45.7806 539.773 45.7806 539.773 45.7806C544.662 41.9575 550.495 39.528 556.653 38.7494C562.811 37.9709 569.065 38.8723 574.753 41.3581C595.888 49.3841 595.888 75.5912 595.888 75.5912C560.089 64.9445 539.609 74.5265 529.205 86.4016C518.801 98.2767 512.329 146.514 544.278 147.415C576.227 148.316 587.942 117.85 587.942 117.85L597.362 119.488C597.362 119.488 597.936 155.523 620.054 153.23C648.562 150.2 645.449 114.656 645.449 114.656C642.703 116.294 639.586 117.205 636.39 117.306C633.194 117.406 630.025 116.691 627.181 115.229C624.458 112.392 622.418 108.972 621.215 105.228C620.012 101.484 619.678 97.5155 620.238 93.6235C620.799 89.7315 622.24 86.0183 624.45 82.7661C626.661 79.5139 629.584 76.808 632.998 74.8541C654.297 60.604 660.031 82.3068 661.588 88.6129C661.786 90.2657 662.545 91.8009 663.737 92.9631C664.929 94.1252 666.483 94.8444 668.141 95.0008C668.141 95.0008 668.715 84.518 683.542 81.8973C687.435 80.9499 691.517 81.124 695.316 82.3994C699.114 83.6749 702.474 85.9995 705.005 89.1042C663.39 109.906 644.303 182.549 638.322 210.476C684.685 228.981 726.455 257.37 760.722 293.664C794.988 329.958 820.928 373.284 836.733 420.624C728.479 412.592 620.265 451.402 512.042 490.216L512.042 490.216C398.488 530.941 284.924 571.67 171.296 558.294C170.477 548.384 169.904 538.393 169.904 528.319C169.902 459.831 190.468 392.92 228.94 336.251C267.411 279.582 322.015 235.765 385.681 210.476C379.701 182.549 360.45 109.906 318.998 89.1042C321.559 86.0431 324.931 83.7661 328.727 82.5347C332.524 81.3034 336.591 81.1676 340.461 82.143C355.289 84.7637 355.862 95.2465 355.862 95.2465C357.52 95.09 359.074 94.3709 360.267 93.2088C361.459 92.0466 362.217 90.5114 362.416 88.8586C363.972 82.5525 369.707 60.8497 391.006 75.0998C394.419 77.0537 397.342 79.7596 399.553 83.0118C401.764 86.264 403.204 89.9771 403.765 93.8692C404.326 97.7612 403.992 101.73 402.789 105.474C401.586 109.217 399.545 112.638 396.822 115.475C393.931 116.852 390.736 117.469 387.54 117.269C384.343 117.068 381.251 116.056 378.554 114.329C378.554 114.329 375.441 149.872 403.949 152.902C425.986 155.605 426.641 119.079 426.641 119.079L436.062 117.441C436.062 117.441 447.695 148.234 479.725 147.006C511.756 145.777 505.284 98.031 494.799 85.9921C484.313 73.9532 463.915 64.5351 428.116 75.1817C428.116 75.1817 427.788 49.1384 449.251 40.9486C454.935 38.49 461.177 37.6107 467.32 38.4034C473.462 39.1962 479.276 41.6317 484.149 45.453ZM942.08 356.99V349.538C942.231 344.899 942.863 340.288 943.964 335.779C947.478 321.763 948.695 307.27 947.569 292.865C947.255 288.981 946.68 285.123 945.848 281.317C944.865 278.696 944.865 277.386 944.865 277.386C945.856 279.221 946.846 281.045 947.829 282.855L947.858 282.909L947.863 282.917L947.909 283.002L947.922 283.026L947.943 283.066L947.973 283.12L947.974 283.123C949.706 286.312 951.414 289.457 953.057 292.537C954.368 295.076 956.17 298.679 956.744 299.908C956.959 300.369 957.186 300.818 957.411 301.265L957.412 301.266C957.786 302.009 958.157 302.744 958.464 303.511L960.102 307.033C961.167 309.326 962.232 311.619 963.215 313.912C964.198 316.205 965.1 318.417 965.919 320.628L967.229 323.904L968.458 327.098L970.67 333.404C975.413 346.992 978.681 361.049 980.419 375.335C980.989 380.557 981.263 385.807 981.238 391.059C981.222 395.225 980.921 399.384 980.337 403.508C979.831 406.758 979.064 409.963 978.043 413.09C977.665 414.387 977.172 415.648 976.568 416.857C976.105 417.962 975.558 419.03 974.93 420.051C973.473 422.931 971.298 425.386 968.614 427.18C965.931 428.973 962.83 430.044 959.611 430.288C956.818 430.434 954.027 429.987 951.419 428.978L950.846 426.357C950.668 425.117 950.363 423.493 949.992 421.516L949.99 421.509L949.99 421.506C949.847 420.745 949.694 419.932 949.535 419.068C948.961 415.956 948.306 412.271 947.651 408.176C947.419 407.018 947.24 405.86 947.054 404.657C946.911 403.734 946.764 402.784 946.586 401.788C946.476 401.175 946.349 400.562 946.222 399.947L946.221 399.945C945.872 398.261 945.521 396.566 945.521 394.827C944.046 385.327 942.735 374.844 942.08 364.607V360.757V356.99ZM1015.15 467.633C1015.15 462.828 1014.58 457.81 1013.98 452.446C1013.93 452.05 1013.89 451.653 1013.84 451.254L1013.43 446.995C1013.43 445.603 1013.43 444.129 1012.86 442.655C1012.86 440.601 1012.44 438.464 1012.02 436.333C1011.85 435.489 1011.69 434.646 1011.55 433.81C1011.06 430.861 1010.48 427.667 1009.91 424.555C1009.34 421.443 1008.68 418.249 1007.94 414.973V419.478C1007.51 423.724 1006.8 427.937 1005.81 432.09C1002.67 444.934 997.764 457.282 991.232 468.78C999.424 473.53 1007.62 478.771 1015.81 484.34C1015.85 483.741 1015.85 483.139 1015.81 482.539V475.25C1015.81 473.804 1015.64 472.33 1015.46 470.828L1015.46 470.827C1015.34 469.776 1015.22 468.712 1015.15 467.633ZM756.752 122.04C755.673 120.469 754.668 119.005 753.663 117.686C751.458 115.174 749.105 112.795 746.618 110.561L744.16 108.186C759.554 116.019 774.173 125.287 787.824 135.868C790.742 137.997 793.281 140.126 795.733 142.182L796.016 142.419L799.62 145.613L802.979 148.807C805.109 150.855 807.157 152.902 809.041 154.868C810.227 156.106 811.316 157.343 812.369 158.54L812.372 158.544C812.99 159.246 813.596 159.935 814.202 160.601C815.84 162.402 817.233 164.204 818.544 166.006C818.79 166.344 819.033 166.677 819.273 167.005L819.274 167.007C820.311 168.424 821.284 169.754 822.148 171.084C824.126 173.975 825.879 177.014 827.391 180.174C829.62 184.545 831.01 189.295 831.487 194.179C831.825 196.894 831.478 199.651 830.476 202.197C829.474 204.744 827.85 206.999 825.753 208.756C823.884 210.213 821.738 211.272 819.445 211.868L817.724 210.312L813.219 205.89L806.665 199.174L802.897 195.161C801.865 194.191 800.878 193.13 799.87 192.046C799.517 191.667 799.162 191.285 798.801 190.903C797.302 189.055 795.651 187.176 793.941 185.23C792.846 183.985 791.728 182.713 790.609 181.403L786.431 176.407L782.417 171.247C779.855 167.855 777.476 164.328 775.29 160.683C773.22 157.355 771.517 153.813 770.211 150.118C768.982 146.432 767.671 142.993 766.197 139.799C764.722 136.605 763.248 133.738 761.855 131.036L759.889 126.941C759.665 126.568 759.517 126.301 759.378 126.051C759.058 125.474 758.786 124.985 757.759 123.501C757.415 123.005 757.08 122.517 756.752 122.04ZM942.081 436.922C940.688 434.793 939.214 432.745 937.739 430.78L935.445 427.913L932.988 425.211C931.376 423.569 929.68 422.01 927.909 420.542C926.2 419.133 924.393 417.847 922.502 416.693L916.931 413.335L911.77 410.141C908.412 408.094 905.462 406.129 902.677 404.245C901.185 403.236 899.81 402.273 898.502 401.358C897.369 400.565 896.287 399.808 895.222 399.085C892.929 397.529 890.963 395.973 889.242 394.581L884.737 390.978L881.624 388.193L879.821 386.391L879.248 385.818C883.262 394.581 886.948 402.853 890.225 410.387L898.417 430.452C915.196 434.649 931.628 440.125 947.569 446.831C945.912 443.436 944.08 440.128 942.081 436.922ZM833.335 299.395L833.333 299.393C832.878 298.902 832.412 298.399 831.981 297.861L827.721 292.701L823.216 287.787C824.117 288.328 825.047 288.82 826.001 289.261L829.606 290.817C830.998 291.473 832.637 292.128 834.603 292.865C846.222 297.015 858.098 300.407 870.156 303.02C878.721 305.419 886.641 309.7 893.339 315.55C895.142 317.024 896.944 318.581 898.664 320.218L901.286 322.675L903.743 325.296L908.576 330.538L912.918 335.943L914.966 338.645L916.85 341.348L920.291 346.426C922.421 349.783 924.223 352.814 925.698 355.434C926.571 356.986 927.3 358.394 927.92 359.59L927.921 359.591C928.348 360.416 928.722 361.139 929.057 361.74L930.203 364.115L928.811 365.999C927.57 367.42 926.136 368.661 924.551 369.684C922.336 371.069 919.85 371.963 917.26 372.305C913.798 372.65 910.302 372.231 907.02 371.077C904.863 370.344 902.778 369.412 900.794 368.292C898.32 366.923 895.939 365.39 893.667 363.706C891.046 361.904 888.26 359.775 885.475 357.154C885.196 356.892 884.914 356.627 884.629 356.36L884.574 356.308L884.53 356.266L884.529 356.266C881.994 353.886 879.229 351.292 876.464 348.309C869.91 341.676 862.701 333.404 854.018 323.331L839.927 306.951L836.077 302.529L834.029 300.154C833.805 299.902 833.572 299.65 833.335 299.395ZM798.31 248.231L804.7 252.08L810.598 255.438C820.449 261.888 831.669 265.953 843.366 267.313C846.167 267.566 848.988 267.149 851.595 266.095C854.202 265.041 856.52 263.381 858.357 261.252C859.978 259.383 861.155 257.171 861.798 254.782L860.16 252.981L855.49 248.394L852.131 245.364L848.199 242.006C845.414 239.631 842.219 237.174 838.86 234.799L833.536 231.196L827.965 227.756L822.067 224.726L819.118 223.252L816.087 222.023C814.039 221.204 812.073 220.467 810.025 219.812C808.063 219.179 806.066 218.659 804.044 218.256C802.096 217.868 800.127 217.595 798.146 217.437C796.266 217.274 794.374 217.274 792.494 217.437C784.875 217.847 778.158 218.092 772.505 218.01H764.313H760.955H757.923C755.101 218.01 752.831 217.551 751.18 217.217L751.179 217.217L751.178 217.217C750.625 217.105 750.142 217.007 749.731 216.946L746.864 216.372C761.2 225.217 773.161 232.752 783.564 239.795L798.31 248.231ZM858.44 187.545C857.62 185.416 856.801 183.532 855.982 181.894C855.591 180.981 855.246 180.507 854.836 179.944C854.475 179.447 854.063 178.88 853.524 177.881C852.377 175.752 851.64 174.687 851.64 174.687L857.538 180.174L863.027 185.743L865.73 188.446L868.27 191.148L873.103 196.39L877.609 201.631L877.611 201.634L877.611 201.634L877.612 201.634L877.612 201.635L877.612 201.635L877.613 201.636L877.613 201.636L877.613 201.636L877.614 201.637C879.087 203.355 880.56 205.073 881.869 206.791L885.719 211.705L887.603 214.161L889.405 216.618C894.075 223.006 897.925 229.067 901.284 234.718C901.686 235.438 902.094 236.158 902.5 236.875C903.665 238.931 904.817 240.964 905.789 242.907C906.562 244.454 907.279 246 907.972 247.495L907.972 247.496C908.453 248.535 908.924 249.55 909.394 250.524C910.541 252.899 911.524 255.192 912.343 257.485C913.162 259.778 913.899 261.908 914.555 263.955C915.681 267.61 916.583 271.329 917.258 275.093C917.718 278.047 917.965 281.03 917.995 284.02C918.082 285.274 918.082 286.533 917.995 287.787C917.924 288.891 917.76 289.987 917.504 291.063C917.045 293.988 915.85 296.748 914.03 299.083C912.209 301.419 909.825 303.253 907.1 304.412C904.671 305.345 902.082 305.79 899.481 305.723L898.253 303.511L894.976 297.533L890.224 288.524C889.773 287.704 889.322 286.822 888.86 285.919L888.858 285.914L888.856 285.911L888.854 285.906L888.852 285.904C888.395 285.01 887.927 284.095 887.439 283.201C886.456 281.399 885.391 279.434 884.49 277.468C884.036 276.479 883.542 275.469 883.036 274.438C882.538 273.421 882.029 272.383 881.541 271.326L878.592 265.02C878.016 263.772 877.3 262.103 876.706 260.721L876.706 260.72C876.286 259.743 875.928 258.909 875.725 258.468C875.233 257.403 874.742 256.257 874.332 255.192C874.177 254.79 874.069 254.54 873.951 254.265L873.95 254.264C873.755 253.811 873.531 253.291 873.021 251.916C872.203 249.706 871.466 247.497 870.729 245.287L870.727 245.282C869.99 243.071 869.335 241.024 868.761 238.813C868.62 238.266 868.463 237.725 868.307 237.188L868.307 237.186L868.307 237.185L868.307 237.184C867.833 235.547 867.369 233.945 867.369 232.343C867.002 230.312 866.756 228.261 866.631 226.2C865.951 212.965 863.186 199.919 858.44 187.545ZM78.1513 281.317C78.7247 278.696 79.1343 277.386 79.1343 277.386C76.0213 282.546 73.2361 287.623 70.9423 292.537C70.2833 293.814 69.6657 295.069 69.0583 296.304C68.4576 297.526 67.8669 298.727 67.2559 299.908C66.0271 302.283 66.0271 302.283 65.5356 303.511C65.2629 304.193 64.9398 304.849 64.6222 305.494C64.3674 306.012 64.116 306.522 63.8972 307.033C63.6936 307.508 63.2933 308.376 62.8242 309.393C62.1609 310.832 61.3601 312.569 60.7842 313.912C59.8012 316.205 58.9001 318.417 58.0809 320.628L56.7702 323.904L55.5414 327.098L53.3295 333.404C48.5871 346.992 45.3189 361.049 43.581 375.335C43.0103 380.557 42.7367 385.807 42.7618 391.059C42.7779 395.225 43.079 399.384 43.663 403.508C44.1683 406.758 44.9353 409.963 45.9567 413.09C46.3342 414.387 46.8277 415.648 47.4313 416.857C47.8943 417.962 48.4421 419.03 49.0697 420.051C50.5264 422.931 52.7017 425.386 55.3853 427.18C58.0689 428.973 61.17 430.044 64.3887 430.288C67.1813 430.434 69.973 429.987 72.5807 428.978L73.1542 426.357C73.1542 425.2 73.4882 423.671 73.8814 421.871L73.8814 421.871C74.0724 420.997 74.2774 420.059 74.4649 419.068C75.0383 416.038 75.6937 412.271 76.349 408.176C76.5696 407.074 76.7426 405.948 76.9193 404.798C77.0708 403.812 77.2249 402.809 77.414 401.788C77.8236 399.577 78.1512 397.202 78.4789 394.827L78.479 394.827C79.9535 385.327 81.2642 374.844 81.9196 364.607V360.757V356.99V349.538C81.7682 344.899 81.1368 340.288 80.0354 335.779C76.5215 321.763 75.3042 307.27 76.431 292.865C76.7448 288.981 77.3195 285.123 78.1513 281.317ZM235.929 135.54C249.58 124.959 264.199 115.691 279.593 107.859L277.135 110.234C274.862 112.592 272.729 115.08 270.745 117.686C269.435 119.406 267.305 122.354 266.649 123.501C266.281 124.146 265.886 124.765 265.481 125.401C265.165 125.897 264.842 126.403 264.519 126.941L262.308 130.79C262.043 131.304 261.772 131.824 261.498 132.351C260.329 134.595 259.094 136.966 257.966 139.553C256.573 142.747 255.18 146.187 253.952 149.872C252.62 153.57 250.889 157.113 248.791 160.437C246.605 164.083 244.226 167.609 241.664 171.001L237.65 176.161L233.472 181.157C230.962 184.475 228.133 187.553 225.379 190.549L225.379 190.549L225.28 190.657C224.919 191.039 224.564 191.421 224.211 191.8L224.211 191.8L224.211 191.8L224.211 191.8L224.209 191.801C223.201 192.885 222.215 193.945 221.184 194.915L217.252 199.256L210.698 205.972L206.192 210.394L204.472 211.95C202.179 211.354 200.032 210.295 198.164 208.838C196.066 207.08 194.443 204.825 193.441 202.279C192.439 199.732 192.092 196.976 192.43 194.26C192.923 189.344 194.34 184.564 196.608 180.174C198.026 176.909 199.697 173.761 201.605 170.756C202.67 169.118 203.899 167.398 205.209 165.678C206.52 163.958 207.995 162.157 209.551 160.273C210.78 158.786 212.111 157.349 213.544 155.803C213.926 155.391 214.316 154.971 214.712 154.54C216.572 152.519 218.591 150.578 220.691 148.56L220.691 148.56L220.691 148.56L220.691 148.56L220.691 148.559L220.691 148.559L220.691 148.559L220.774 148.48L224.133 145.286L227.737 142.092C228.887 141.186 230.022 140.266 231.167 139.337L231.168 139.336L231.175 139.33L231.178 139.328C232.722 138.076 234.285 136.808 235.929 135.54ZM116.817 304.412C119.246 305.345 121.834 305.79 124.435 305.723L125.664 303.511C126.401 302.037 127.548 299.99 128.941 297.533L133.692 288.524C134.305 287.411 134.917 286.222 135.556 284.983L135.556 284.982C135.857 284.398 136.163 283.804 136.478 283.201C137.461 281.317 138.444 279.434 139.427 277.468L142.376 271.326L145.325 265.02C146.308 262.89 147.291 260.679 148.192 258.468C148.809 256.954 149.004 256.515 149.223 256.021L149.223 256.021L149.223 256.02L149.223 256.02C149.324 255.792 149.43 255.553 149.585 255.192L150.895 251.916L150.896 251.916C151.715 249.705 152.534 247.494 153.189 245.282C153.449 244.405 153.722 243.541 153.993 242.684C154.404 241.381 154.809 240.097 155.155 238.813C155.683 236.855 156.071 234.827 156.449 232.858L156.548 232.343C156.915 230.312 157.161 228.261 157.285 226.2C157.966 212.965 160.731 199.919 165.477 187.545C166.296 185.416 167.116 183.532 167.935 181.894C168.564 180.496 169.194 179.336 169.721 178.364C169.811 178.198 169.899 178.037 169.983 177.881C170.556 176.816 171.867 174.687 171.867 174.687L165.969 180.174L160.48 185.743L157.777 188.446L155.237 191.148L150.404 196.39L145.898 201.631L145.898 201.631L145.898 201.632L145.898 201.632L145.898 201.632L145.898 201.632L145.897 201.632C144.423 203.352 142.949 205.071 141.638 206.791L137.788 211.705L135.904 214.161L134.102 216.618C130.877 221.03 128.2 225.285 125.637 229.357C124.489 231.182 123.364 232.969 122.223 234.718C120.667 237.502 119.11 240.287 117.718 242.907C116.325 245.528 115.178 248.067 114.113 250.524C113.048 252.981 112.065 255.274 111.164 257.485C110.42 259.312 109.843 261.139 109.296 262.873L109.295 262.873C109.18 263.238 109.066 263.599 108.952 263.955C107.909 267.615 107.089 271.334 106.495 275.093C106.035 278.047 105.788 281.03 105.758 284.02C105.671 285.274 105.671 286.533 105.758 287.787C105.829 288.891 105.993 289.987 106.249 291.063C106.723 294.005 107.943 296.777 109.793 299.114C111.643 301.451 114.061 303.275 116.817 304.412ZM225.69 248.231L219.3 252.08L213.402 254.864C203.43 261.374 192.063 265.443 180.224 266.739C177.423 266.993 174.602 266.575 171.995 265.521C169.388 264.467 167.07 262.807 165.233 260.679C163.612 258.81 162.435 256.598 161.792 254.209L163.43 252.407L168.1 247.821L171.459 244.791L175.391 241.433C178.176 239.058 181.371 236.601 184.73 234.226L190.054 230.623L195.625 227.183L201.523 224.153L204.472 222.679L207.503 221.45C209.551 220.631 211.517 219.894 213.565 219.239C215.527 218.606 217.524 218.086 219.546 217.683C221.494 217.295 223.463 217.022 225.444 216.864C227.324 216.701 229.216 216.701 231.096 216.864C238.715 217.437 245.432 217.437 251.085 217.437H259.277H262.636H265.667C267.257 217.286 268.707 217.047 270.001 216.834L270.001 216.834L270.001 216.834C271.507 216.586 272.801 216.372 273.859 216.372L276.726 215.799C265.233 222.89 255.267 229.349 246.406 235.092L246.405 235.093C244.213 236.513 242.089 237.89 240.026 239.222L225.69 248.231ZM119.933 507.026L117.721 510.957C117.547 511.241 117.368 511.537 117.182 511.843C116.401 513.131 115.502 514.611 114.444 516.198C110.43 522.423 104.45 530.694 96.1758 540.768C103.467 543.388 110.839 545.6 118.212 547.647C118.949 534.641 119.849 520.082 121.565 503.562C121.569 503.539 121.571 503.52 121.571 503.504L121.565 503.562C121.506 503.9 121.006 505.032 119.933 507.026ZM187.924 302.529L184.074 306.951L170.394 323.249C161.71 333.322 154.501 341.594 147.948 348.227C144.835 351.585 141.967 354.533 138.936 357.072C135.905 359.611 133.202 361.822 130.744 363.624C128.473 365.308 126.092 366.841 123.617 368.21C121.633 369.33 119.549 370.262 117.391 370.995C114.109 372.149 110.614 372.568 107.151 372.223C104.562 371.881 102.075 370.987 99.8605 369.602C98.2756 368.579 96.8418 367.338 95.6006 365.917L94.208 364.033L95.3549 361.658C95.6891 361.057 96.0643 360.333 96.4914 359.508C97.1113 358.312 97.8407 356.904 98.7136 355.352C100.188 352.732 101.99 349.701 104.12 346.344L107.561 341.266L109.445 338.563L111.493 335.861L115.835 330.456L120.668 325.214L123.126 322.593L125.747 320.136C127.468 318.499 129.27 316.942 131.072 315.468C137.659 309.7 145.433 305.45 153.846 303.02C165.897 300.514 177.772 297.232 189.399 293.192C191.365 292.455 193.004 291.8 194.396 291.145L198.001 289.589C198.955 289.148 199.885 288.656 200.786 288.115L196.28 293.028L192.02 297.86C191.589 298.399 191.122 298.903 190.667 299.395C190.43 299.65 190.196 299.902 189.972 300.154L187.924 302.529ZM87.5734 498.509C97.7898 489.173 105.746 477.634 110.839 464.767C114.4 457.378 118.127 448.665 122.381 438.721C123.313 436.542 124.27 434.304 125.257 432.008C126.652 428.626 128.135 425.113 129.683 421.446L129.683 421.445C131.133 418.009 132.641 414.439 134.186 410.715C137.381 403.017 141.149 394.827 145.163 386.146L144.59 386.719C144.59 386.719 143.607 387.784 142.788 388.521L139.675 391.305L135.169 394.909C133.816 396.004 132.259 397.15 130.58 398.387L130.579 398.387C130.124 398.722 129.66 399.064 129.189 399.413C126.977 401.051 124.519 402.771 121.734 404.573C120.801 405.177 119.849 405.808 118.869 406.458L118.868 406.458C116.925 407.747 114.874 409.108 112.641 410.469L107.48 413.663L101.909 417.021C100.018 418.174 98.2115 419.461 96.5027 420.87C94.7308 422.338 93.0356 423.896 91.4237 425.538L88.9661 428.241L86.6723 431.107C85.1977 433.073 83.7232 435.12 82.3306 437.25C76.8815 445.926 72.4816 455.218 69.2233 464.931C68.4041 467.224 67.7488 469.517 67.0934 471.81C66.898 472.494 66.6807 473.127 66.472 473.735C65.9808 475.166 65.5369 476.458 65.5369 477.953C65.5369 479.336 65.1222 480.615 64.7193 481.858C64.5019 482.529 64.2879 483.189 64.1443 483.849L63.5709 486.552L63.1613 489.091C62.5878 492.285 62.1782 494.905 61.9325 496.707C61.6867 498.509 61.9325 499.492 61.9325 499.492C64.201 501.331 66.8647 502.62 69.7149 503.259C72.8572 503.865 76.0959 503.752 79.1886 502.93C82.2813 502.107 85.1478 500.596 87.5734 498.509ZM46.6951 496.298C47.5963 499.164 48.4155 501.785 49.1527 504.487C49.5854 506.149 50.0053 507.823 50.4285 509.51C51.5277 513.893 52.6483 518.361 54.0679 522.914C38.6819 515.132 23.8226 506.35 9.58538 496.625C9.17578 492.203 9.17578 487.616 9.17578 482.785V475.496V467.879C9.50346 462.474 9.83114 457.069 10.4865 451.5L10.8961 447.241C10.9552 446.739 11.0463 446.226 11.1386 445.706C11.3022 444.785 11.4695 443.843 11.4695 442.901C11.5278 442.493 11.5861 442.083 11.6446 441.672C11.9973 439.194 12.3587 436.655 12.7803 434.056C13.2718 431.025 13.8452 427.913 14.4187 424.801C15.0194 421.689 15.6748 418.495 16.3847 415.219V419.724C16.8822 423.891 17.6484 428.022 18.6785 432.09C22.4666 447.374 28.7495 461.928 37.2743 475.168C39.9346 479.479 42.1837 484.031 43.9918 488.763C44.9748 491.22 45.794 493.431 46.6951 496.298Z" fill="url(#paint0_linear_132_594)"/>
<path d="M457.04 974H421.28V964.72L437.12 947.52C440.107 944.427 442.16 941.947 443.28 940.08C444.453 938.213 445.04 936.32 445.04 934.4C445.04 932.373 444.427 930.773 443.2 929.6C441.973 928.427 440.347 927.84 438.32 927.84C436.453 927.84 434.747 928.32 433.2 929.28C431.707 930.24 430 931.76 428.08 933.84L422.08 926.08C424.533 923.093 427.093 920.907 429.76 919.52C432.427 918.08 435.68 917.36 439.52 917.36C444.747 917.36 448.907 918.773 452 921.6C455.147 924.427 456.72 928.267 456.72 933.12V933.36C456.72 936.987 455.867 940.133 454.16 942.8C452.453 945.467 449.413 948.907 445.04 953.12L436.24 963.68H457.04V974Z" fill="#002876"/>
<path d="M515.298 946.48C515.298 955.067 513.325 961.947 509.378 967.12C505.485 972.293 500.258 974.88 493.698 974.88C487.138 974.88 481.911 972.32 478.018 967.2C474.125 962.027 472.178 955.147 472.178 946.56V945.52C472.178 936.933 474.125 930.053 478.018 924.88C481.965 919.707 487.218 917.12 493.778 917.12C500.338 917.12 505.565 919.707 509.458 924.88C513.351 930 515.298 936.853 515.298 945.44V946.48ZM503.538 946.56V945.6C503.538 939.787 502.631 935.333 500.818 932.24C499.058 929.093 496.685 927.52 493.698 927.52C490.658 927.52 488.258 929.067 486.498 932.16C484.791 935.2 483.938 939.627 483.938 945.44V946.4C483.938 952.213 484.818 956.693 486.578 959.84C488.338 962.933 490.738 964.48 493.778 964.48C496.818 964.48 499.191 962.96 500.898 959.92C502.658 956.827 503.538 952.373 503.538 946.56Z" fill="#002876"/>
<path d="M565.149 974H529.389V964.72L545.229 947.52C548.216 944.427 550.269 941.947 551.389 940.08C552.563 938.213 553.149 936.32 553.149 934.4C553.149 932.373 552.536 930.773 551.309 929.6C550.083 928.427 548.456 927.84 546.429 927.84C544.563 927.84 542.856 928.32 541.309 929.28C539.816 930.24 538.109 931.76 536.189 933.84L530.189 926.08C532.643 923.093 535.203 920.907 537.869 919.52C540.536 918.08 543.789 917.36 547.629 917.36C552.856 917.36 557.016 918.773 560.109 921.6C563.256 924.427 564.829 928.267 564.829 933.12V933.36C564.829 936.987 563.976 940.133 562.269 942.8C560.563 945.467 557.523 948.907 553.149 953.12L544.349 963.68H565.149V974Z" fill="#002876"/>
<path d="M600.128 974H588.688V929.52L580.128 931.76L578.368 921.76L592.208 917.6H600.128V974Z" fill="#002876"/>
<defs>
<linearGradient id="paint0_linear_132_594" x1="9361.52" y1="5066.5" x2="9361.52" y2="2969.82" gradientUnits="userSpaceOnUse">
<stop stop-color="white"/>
<stop offset="1" stop-color="white"/>
</linearGradient>
</defs>
</svg>
