<?xml version="1.0" encoding="UTF-8"?>
<svg id="_Слой_2" data-name="Слой 2" xmlns="http://www.w3.org/2000/svg" viewBox="0 0 700.31 700.32">
  <defs>
    <style>
      .cls-1 {
        fill: #fff;
      }

      .cls-2 {
        fill: #fecb2b;
      }

      .cls-3 {
        fill-rule: evenodd;
      }

      .cls-3, .cls-4 {
        fill: #1d1d1b;
      }

      .cls-5 {
        fill: #fecb2a;
      }
    </style>
  </defs>
  <g id="_Слой_3" data-name="Слой 3">
    <g>
      <g>
        <circle class="cls-4" cx="350.16" cy="350.16" r="340.16"/>
        <path class="cls-2" d="m350.16,700.32c-47.27,0-93.12-9.26-136.3-27.52-41.7-17.64-79.14-42.88-111.3-75.04-32.15-32.16-57.4-69.6-75.04-111.3C9.26,443.28,0,397.42,0,350.16s9.26-93.12,27.52-136.3c17.64-41.7,42.88-79.14,75.04-111.3,32.16-32.15,69.6-57.4,111.3-75.04C257.03,9.26,302.89,0,350.16,0s93.12,9.26,136.3,27.52c41.7,17.64,79.14,42.88,111.3,75.04,32.15,32.15,57.4,69.6,75.04,111.3,18.26,43.18,27.52,89.03,27.52,136.3s-9.26,93.12-27.52,136.3c-17.64,41.7-42.88,79.14-75.04,111.3-32.15,32.15-69.6,57.4-111.3,75.04-43.18,18.26-89.03,27.52-136.3,27.52Zm0-680.32C168.11,20,20,168.11,20,350.16s148.11,330.16,330.16,330.16,330.16-148.11,330.16-330.16S532.21,20,350.16,20Z"/>
      </g>
      <path class="cls-2" d="m350.16,586.93c-63.24,0-122.7-24.63-167.42-69.35-44.72-44.72-69.35-104.18-69.35-167.42s24.63-122.7,69.35-167.42c44.72-44.72,104.18-69.35,167.42-69.35s122.7,24.63,167.42,69.35c44.72,44.72,69.35,104.18,69.35,167.42s-24.63,122.7-69.35,167.42-104.18,69.35-167.42,69.35Zm0-453.54c-119.53,0-216.77,97.24-216.77,216.77s97.24,216.77,216.77,216.77,216.77-97.24,216.77-216.77-97.24-216.77-216.77-216.77Z"/>
      <path class="cls-5" d="m525.91,376.59v-214.54H174.41v214.54h0c4.36,91.61,87.44,193.34,175.75,210.65,107.09-28.56,175.22-130.41,175.75-210.65h0Z"/>
      <path class="cls-3" d="m374.31,217.67c0,4.85-3.34,9.18-8.59,12.08h3.02c8.21,0,14.86,6.66,14.86,14.86v13.01s-5.57-11.15-13.94-11.15c-3.43,0-4.36,7.83-4.26,17.05,2.99,36.23,23.18,55.57,51.04,79.58,26.33,20.02,43.34,51.69,43.34,87.32,0,60.55-49.08,109.63-109.63,109.63-60.55,0-109.63-49.08-109.63-109.63,0-35.24,16.62-66.59,42.46-86.65,27.06-23.88,48-42.98,51.72-78.27-.15-10.06-1.31-19.04-4.99-19.04-8.36,0-13.01,11.15-13.01,11.15v-13.01c0-8.21,6.66-14.86,14.86-14.86h3.02c-5.25-2.9-8.59-7.23-8.59-12.08,0-8.72,9.29-26.01,24.16-34.37,13.01,8.36,24.15,25.65,24.15,34.37Zm50.17,212.75c0,41.05-33.28,74.32-74.32,74.32-41.05,0-74.32-33.28-74.32-74.32,0-41.05,33.28-74.32,74.32-74.32,41.05,0,74.32,33.28,74.32,74.32Z"/>
      <g>
        <rect class="cls-2" x="405.65" y="411.3" width="56.69" height="5.67" transform="translate(-92.4 126.44) rotate(-15)"/>
        <rect class="cls-2" x="409.74" y="426.53" width="56.69" height="5.67" transform="translate(-96.2 128.01) rotate(-15)"/>
        <rect class="cls-2" x="413.82" y="441.75" width="56.69" height="5.67" transform="translate(-100 129.59) rotate(-15)"/>
      </g>
      <g>
        <rect class="cls-2" x="235.77" y="411.3" width="56.69" height="5.67" transform="translate(412.04 882.51) rotate(-165)"/>
        <rect class="cls-2" x="231.69" y="426.53" width="56.69" height="5.67" transform="translate(400.08 911.39) rotate(-165)"/>
        <rect class="cls-2" x="227.61" y="441.75" width="56.69" height="5.67" transform="translate(388.12 940.27) rotate(-165)"/>
      </g>
      <g>
        <path class="cls-1" d="m106.95,530.16l7.36-.08c-.05,4.69,1.36,9.48,4.53,13.13,3.53,4.05,7.16,4.65,9.57,2.55,3.07-2.68,1.82-5.78.29-10.41l-2.1-6.58c-1.77-4.88-2.38-10.99,2.69-15.4,5.49-4.78,14.07-3.49,20.25,3.61,3.72,4.27,5.58,9.72,5.31,14.96l-6.65.23c-.19-4-1.21-7.34-4.26-10.84-2.88-3.3-6.29-4.24-8.84-2.02-2.69,2.34-1.25,5.97.3,10.17l2.01,6.28c2.17,5.9,2.28,11.32-2.71,15.66-5.61,4.88-14.43,4.19-21.51-3.94-4.26-4.89-6.45-11.14-6.23-17.33Z"/>
        <path class="cls-1" d="m145.91,555.88l18.41-21.5,6.27,5.37-18.8,21.95c-4.83,5.64-4.57,10.07-.84,13.26,3.76,3.22,8.25,2.86,13.08-2.78l18.8-21.95,6.01,5.15-18.41,21.5c-8.13,9.49-16.4,10.05-24.09,3.46-7.72-6.61-8.55-14.98-.43-24.46Z"/>
        <path class="cls-1" d="m197.97,561.8l6.91,4.35-20.75,32.93,18.31,11.54-3.65,5.79-25.21-15.9,24.4-38.72Z"/>
        <path class="cls-1" d="m237.46,591.96l-13.29-5.89,2.77-6.26,34.08,15.1-2.77,6.26-13.29-5.89-15.77,35.58-7.5-3.32,15.77-35.59Z"/>
        <path class="cls-1" d="m276.92,599.55l9.32,2.6,2.11,48.1-8.41-2.34-.15-25.3c-.04-5.02-.07-10.42.08-15.64l-.27-.08c-2.61,4.53-5.33,9.16-7.97,13.44l-13.3,21.55-8.09-2.25,26.68-40.07Zm-13.09,24.35l20.83,5.8-1.72,6.19-20.83-5.8,1.73-6.19Z"/>
        <path class="cls-1" d="m304.87,606.73l8.55,1.08,8.88,27.03,2.93,10.22.19.02c.25-4.68.21-10.53.85-15.6l2.5-19.74,7.76.98-5.74,45.41-8.55-1.08-8.88-27.06-2.93-10.2-.19-.02c-.27,4.88-.2,10.45-.83,15.47l-2.51,19.87-7.76-.98,5.74-45.41Z"/>
        <path class="cls-1" d="m345.28,630.9l31.43-.68.12,5.83-31.43.68-.13-5.83Z"/>
        <path class="cls-1" d="m383.9,609.8l8.96-1.54,8.43,16.66,3.03,6.43.28-.05.66-7.07,2.42-18.53,8.96-1.54,7.77,45.1-7.15,1.23-3.13-18.2c-.82-4.74-1.63-14.25-2.01-18.69l-.21.04-1.23,11-2.55,15.12-4.58.79-7.42-13.4-4.75-9.97-.19.03c1.22,4.29,3.54,13.54,4.36,18.28l3.13,18.2-7.01,1.21-7.77-45.1Z"/>
        <path class="cls-1" d="m434.35,598.83l9.19-3.04,28.57,38.75-8.29,2.74-14.23-20.92c-2.84-4.15-5.87-8.61-8.65-13.03l-.27.09c.36,5.21.68,10.58.88,15.6l.98,25.31-7.97,2.64-.19-48.14Zm2.71,27.51l20.54-6.8,2.02,6.1-20.53,6.8-2.02-6.11Z"/>
        <path class="cls-1" d="m461.33,589.28l7.37-3.71,8.26,16.39,14.09-7.1-8.26-16.39,7.37-3.71,20.6,40.87-7.37,3.71-9.13-18.11-14.09,7.1,9.13,18.11-7.37,3.71-20.6-40.87Z"/>
        <path class="cls-1" d="m496.44,571.03l7.43-5.23,14.76,11.44,5.5,4.51.23-.16-2.43-6.67-5.76-17.78,7.43-5.23,26.35,37.42-5.93,4.18-10.63-15.1c-2.77-3.94-7.59-12.18-9.82-16.03l-.17.12,3.61,10.46,4.18,14.75-3.8,2.68-12.45-8.92-8.57-6.97-.16.11c2.94,3.35,9.01,10.71,11.78,14.65l10.63,15.1-5.81,4.09-26.35-37.42Z"/>
        <path class="cls-1" d="m548.72,567.75l-19.55-20.47,5.97-5.7,19.97,20.9c5.13,5.37,9.56,5.55,13.11,2.16,3.58-3.42,3.66-7.93-1.46-13.29l-19.97-20.9,5.72-5.47,19.55,20.47c8.63,9.03,8.36,17.33,1.04,24.32-7.35,7.02-15.75,7.01-24.38-2.02Z"/>
        <path class="cls-1" d="m557.96,518.88l7.4-9.55c8.34-10.77,19.31-12.6,31.27-3.34,11.99,9.29,13.25,20.6,5.18,31.02l-7.67,9.89-36.18-28.03Zm38.05,14.83c5.39-6.96,4.35-14.15-4.55-21.05-8.87-6.87-15.79-5.86-21.18,1.1l-2.07,2.67,25.74,19.94,2.07-2.67Z"/>
      </g>
      <g>
        <path class="cls-1" d="m207.19,125.73l2.19-10.33c4.99,1.01,10.33.68,14.79-1.68,4.42-2.35,5.56-5.14,4.37-7.39-1.76-3.32-4.92-2.67-10.25-2.18l-7.36.62c-6.13.77-12.87-.68-16.42-7.38-4.04-7.63-.4-17.37,9.6-22.67,5.54-2.94,12.24-3.83,18.5-2.08l-1.77,9.35c-4.48-.61-8.02-.36-12.52,2.03-3.43,1.82-5.01,4.48-3.58,7.17,1.47,2.77,5.09,2.15,10.39,1.46l6.9-.6c7.23-.94,13.03.81,16.48,7.3,4.06,7.66,1.15,17.7-10.25,23.74-6.22,3.3-13.86,4.43-21.06,2.64Z"/>
        <path class="cls-1" d="m235.79,60.63l11.24-3.67,6.22,19.08,13.44-4.39-6.23-19.08,11.24-3.67,16.17,49.56-11.24,3.67-6.75-20.68-13.44,4.39,6.75,20.68-11.24,3.67-16.17-49.56Z"/>
        <path class="cls-1" d="m300.03,43.37l14-2.01,23.47,49.3-12.38,1.77-10.41-25.17c-2.05-4.97-4.48-10.79-6.5-16.05l-.32.04c-.48,5.63-1.05,11.88-1.62,17.22l-2.96,27.09-11.95,1.71,8.68-53.91Zm-1.1,31.01l24.69-3.54,1.3,9.1-24.69,3.54-1.3-9.1Z"/>
        <path class="cls-1" d="m337.89,38.58l12.25.36.71,27.8c0,4.46-.03,8.41-.1,13.09h.3c.87-4.65,1.95-8.62,2.95-12.97l3.93-14.45,7.55.22,2.85,14.65c.71,4.29,1.53,8.31,2.17,13.13h.32c.23-4.78.39-8.72.65-13.04l2.31-27.73,11.47.34-8.01,51.94-12.59-.37-2.62-16.24c-.53-3.33-1.01-6.85-1.11-10h-.24c-.42,3.12-.95,6.61-1.67,9.91l-3.46,16.06-12.31-.36-5.36-52.34Z"/>
        <path class="cls-1" d="m397.29,41.82l11.58,2.36-4,19.67,13.86,2.82,4-19.67,11.58,2.36-10.4,51.09-11.58-2.36,4.34-21.32-13.86-2.82-4.34,21.32-11.58-2.36,10.4-51.09Z"/>
        <path class="cls-1" d="m461.56,58.42l13.18,5.13-3.8,54.46-11.66-4.54,3.31-27.03c.66-5.33,1.4-11.59,2.23-17.18l-.3-.12c-3.19,4.66-6.75,9.83-9.87,14.2l-15.89,22.13-11.25-4.38,34.05-42.68Zm-16.2,26.46l23.24,9.06-3.34,8.56-23.24-9.06,3.34-8.56Z"/>
        <path class="cls-1" d="m503.9,77.09l10.08,6.09-21.84,36.16,19.86,12-5.12,8.47-29.95-18.09,26.96-44.63Z"/>
      </g>
      <g>
        <path class="cls-4" d="m351.17,379.35c29.15,0,52.87,23.72,52.87,52.87s-23.72,52.87-52.87,52.87-52.87-23.72-52.87-52.87,23.72-52.87,52.87-52.87m0-3.83c-31.31,0-56.69,25.38-56.69,56.69s25.38,56.69,56.69,56.69,56.69-25.38,56.69-56.69-25.38-56.69-56.69-56.69h0Z"/>
        <g>
          <path class="cls-4" d="m313.23,417.57v-22.82l-5.06.51c-8.53,9.92-13.69,22.83-13.69,36.95,0,.35,0,.7.01,1.05l3.52,2.72,15.23-18.41Z"/>
          <path class="cls-4" d="m327.49,462.44l-23.95-6.74-1.77,4.34c7.13,12.63,18.96,22.25,33.12,26.49l4.6-2.3-12-21.79Z"/>
          <path class="cls-4" d="m389.1,417.57v-22.82l5.06.51c8.53,9.92,13.69,22.83,13.69,36.95,0,.35,0,.7-.01,1.05l-3.52,2.72-15.23-18.41Z"/>
          <path class="cls-4" d="m374.84,462.44l23.95-6.74,1.77,4.34c-7.13,12.63-18.96,22.25-33.12,26.49l-4.6-2.3,12-21.79Z"/>
          <polygon class="cls-4" points="336.53 448.7 327.49 420.87 351.17 403.67 374.84 420.87 365.8 448.7 336.53 448.7"/>
          <path class="cls-4" d="m370.27,378.82c-5.97-2.14-12.4-3.3-19.1-3.3s-13.13,1.16-19.1,3.3l-1.9,4.61,21,6.62,21-6.62-1.9-4.61Z"/>
        </g>
      </g>
      <g>
        <path class="cls-4" d="m209.8,291.84c11.83-9.66,20.51-17.08,20.51-23.1,0-3.99-2.52-5.88-6.44-5.88-3.29,0-5.88,2.1-8.26,4.2l-6.37-6.44c4.83-4.9,9.31-7.14,16.31-7.14,9.52,0,16.17,5.74,16.17,14.56,0,7.14-7.42,14.98-14.7,21.14,2.45-.28,5.81-.56,7.98-.56h8.96v10.08h-34.16v-6.86Z"/>
        <path class="cls-4" d="m251.66,276.3c0-15.19,7.07-22.82,17.5-22.82s17.5,7.63,17.5,22.82-7.07,23.24-17.5,23.24-17.5-8.05-17.5-23.24Zm24.36,0c0-11.06-3.15-13.58-6.86-13.58s-6.86,2.52-6.86,13.58,3.15,14,6.86,14,6.86-2.94,6.86-14Zm-12.46,0c0-3.36,2.38-5.6,5.6-5.6s5.6,2.24,5.6,5.6-2.38,5.6-5.6,5.6-5.6-2.24-5.6-5.6Z"/>
      </g>
      <g>
        <path class="cls-4" d="m420.75,291.84c11.83-9.66,20.51-17.08,20.51-23.1,0-3.99-2.52-5.88-6.44-5.88-3.29,0-5.88,2.1-8.26,4.2l-6.37-6.44c4.83-4.9,9.31-7.14,16.31-7.14,9.52,0,16.17,5.74,16.17,14.56,0,7.14-7.42,14.98-14.7,21.14,2.45-.28,5.81-.56,7.98-.56h8.96v10.08h-34.16v-6.86Z"/>
        <path class="cls-4" d="m464.15,289.04h11.62v-22.96h-9.8v-7.42c6.3-.98,9.38-2.1,13.02-4.34h8.82v34.72h9.52v9.66h-33.18v-9.66Z"/>
      </g>
    </g>
  </g>
</svg>