<?xml version="1.0" encoding="utf-8"?>
<!-- Generator: Adobe Illustrator 27.0.0, SVG Export Plug-In . SVG Version: 6.00 Build 0)  -->
<svg version="1.1" id="Layer_1" xmlns="http://www.w3.org/2000/svg" xmlns:xlink="http://www.w3.org/1999/xlink" x="0px" y="0px"
	 viewBox="0 0 306 308" style="enable-background:new 0 0 306 308;" xml:space="preserve">
<style type="text/css">
	.st0{fill:#FF0006;}
	.st1{fill:#004895;}
	.st2{fill:#FFFFFF;}
</style>
<g>
	<path class="st0" d="M153,62.3c50.6,0,91.7,41.2,91.7,91.7s-41.2,91.7-91.7,91.7S61.3,204.6,61.3,154S102.4,62.3,153,62.3
		 M153,12.3C74.7,12.3,11.3,75.7,11.3,154S74.7,295.7,153,295.7S294.7,232.3,294.7,154S231.3,12.3,153,12.3L153,12.3z"/>
</g>
<g>
	<circle class="st1" cx="153" cy="154" r="87.9"/>
</g>
<g>
	<path class="st2" d="M149.5,188.5c-4.4-0.6-8.8-1-13.2-1.9c-6.6-1.5-7.6-3.1-8.2-9.7c-0.3-3-1.6-6-2.4-8.9
		c-0.6,0.1-1.3,0.2-1.9,0.4c0.1,1.3,0.2,2.6,0.4,3.8c1.4,6.6-1.4,11.8-7.8,14c-2.1,0.7-2.9,1.9-3.9,4c-1.6,3.5-4.7,6.4-7.4,9.8
		c0.8,0.3,2.6,1,4.4,1.6c7.6,2.7,15.1,5.6,22.8,8c2,0.6,4.5,0.1,6.8-0.3c1.7-0.3,3.3-1.1,5.2-1.7c0.7,1.4,1.3,2.5,2.4,4.7
		c0.5-2.4,1.2-3.8,1.1-5.2c-0.3-3.8,0.2-5.8,4.5-3c0.7,0.5,2.7-0.5,3.9-1.1c16.9-9.1,33.6-18.5,50.7-27.4c7.6-4,15.8-6.9,23.7-10.3
		c1.3-0.6,2.7-0.8,4.4-0.7c-20.8,23.8-48.4,38.4-74.6,55.5c0.4,0.9,1.2,1.8,1.2,2.7c0.1,1-0.2,2.3-0.8,3c-0.3,0.4-1.9,0-2.7-0.5
		c-2.2-1.4-4.2-3.2-6.5-4.6c-2.2-1.3-4.5-2.2-7.2-3.4c0,5.3,4.1,5.8,8.6,7.1c-1.6,1.5-2.5,2.9-3.7,3.4c-3.2,1.3-6.9,1.6-9.9,3.2
		c-4.5,2.4-8.4,2.2-10.9-2c-4.3-7.1-10.2-8.5-17.8-6.9c-4.2,0.9-8.1-0.7-11.3-4c-5.8-6.1-11.9-11.9-17.8-17.9
		c0.6-0.3,1.2-0.5,1.7-0.8c0.3-2.5,0.8-5,0.7-7.4c-0.2-7,3-12.2,7.8-16.8c1.5-1.4,2.8-3.4,3.2-5.4c3.5-16.4,18.5-26.2,35-22.9
		c2.4,0.5,5.4-0.6,7.8-1.7c3.4-1.5,6.4-3.7,9.8-5.7c3.9,5.3,11.4,8.8,5.3,17.4c-5.4,0.6-9.9-3.1-15-5.6c2.5,6.8,8.5,8.7,14.7,10.1
		c3.3,0.7,7,1.8,9.8-2.5c-1.9-0.8-3.3-1.4-4.7-2c2.8-6.5,3.9-7,10.2-5c1.5,0.5,3.2,0.6,4,0.8c1.9-4.6,2.6-9.8,5.5-12.7
		c3-3,8.2-3.9,12.9-5.9c-1.6-2.4-2.9-4.3-4.4-6.5c4.9-3.1,10.3-4.5,15.8-4.2c3.5,0.2,5.3-1.3,7.4-3.7c2.8-3.1,6.3-5.6,9.7-8.1
		c3.5-2.5,5.8-1.4,7.9,2.5c6.1,11.3,5.1,15.4-6.3,21.8c-0.4,0.2-0.8,0.5-1.2,0.6c-8.5,1.9-13.8,8.2-19.9,13.8
		c-5.2,4.8-12.1,7.8-18.5,11.1c-2.5,1.3-3.7,2.2-3.6,5.1c0.3,7.4-2.2,14-5.6,20.4c-3.8,7.4-11.4,11.3-17.9,12
		c-6.3,0.7-9.5,5.2-14.6,6.6c-2,0.5-4.4,1-6.2,0.4c-4.3-1.5-8.4-3.8-12.6-5.7c-2.7-1.2-3.6-3-2.5-5.7c1.2-2.9,2.5-5.8,6.6-5.4
		c6.5,0.6,13,1.2,19.6,1.5c1.9,0.1,3.8-0.7,5.7-1.1C149.7,189.4,149.6,189,149.5,188.5z M156.2,210.8c0,0.6,0,1.2,0,1.8
		c1.2-0.1,2.6,0.2,3.5-0.3c5.8-3.4,11.5-6.8,17.1-10.4c10.7-6.8,21.4-13.7,32-20.6c-0.2-0.3-0.4-0.6-0.6-0.9
		C190.9,190.5,173.5,200.7,156.2,210.8z M158.8,167.4c-0.9,5.8-1.8,12.1-2.7,18.2C162,183.1,163.3,172.1,158.8,167.4z"/>
	<path class="st2" d="M177.3,105.1c-5.4-6.8-10.8-13.1-19.8-14c-5.8-0.6-11.2,0.7-16.3,3.6c-11.8,6.9-15.7,18-11.7,34.4
		c-13.5,5.8-27,11.7-40.5,17.5c-0.4-0.5-0.8-1.1-1.3-1.6c1.2-1.3,2.3-2.8,3.7-3.7c6.7-4.1,12.4-9,14.9-16.6
		c1.6-4.9,2.7-10.1,3.5-15.2c4.2-28.2,31.6-46.2,59.1-38.8c8.2,2.2,16,5.4,22.4,11.5c1.1,1.1,3.5,0.8,5.3,1.1
		c1.1,0.2,2.2,0.3,4.5,0.7C192.6,91.6,185.2,98.2,177.3,105.1z"/>
	<path class="st2" d="M171.6,136.5c-2.4,3.3-3,8.1-1.9,13.4c-9.7-2.3-15.7-8.5-19.5-17.8c-8.1,6.4-16.8,10.3-28.3,7.1
		c1.9-1.1,2.9-1.7,3.9-2.1c6.5-2.9,8.6-6.9,7.1-13.6c-2.3-10.1,2.5-20.9,11.5-25.9c8.3-4.7,18.9-3.3,26,3.5c4.7,4.4,6.6,10,6.6,16.4
		c0,1.9,0.9,3.9,1.9,5.6c2,3.3,4.4,6.3,6.9,9.8c-2.6,1.2-4.7,2.1-7.5,3.4c-1.3-4.7-2.3-9.1-3.7-13.4c-1.2-3.9-5-2.9-7.6-2.7
		c-2.2,0.2-2.6,1.2-3.3,5.1C163.2,129.7,164.3,133,171.6,136.5z"/>
	<path class="st2" d="M193.5,120.2C191.7,110.1,197,97.4,207,89c4.7,5.3,9.5,10.6,14.7,16.4c-3.2,1.4-5.4,2.1-7.4,3.3
		c-2.5,1.5-5.5,3-7,5.3C204,119.5,198.7,119.4,193.5,120.2z"/>
	<path class="st2" d="M177,233.3c-13.8,3.8-26.6,4.8-39.8,1.7c4.7-3.3,10.1-4,15.6-4.7c2.2-0.3,4.5-0.3,6.5-1.1
		c3.5-1.4,7.7-2.7,4.9-8.1c-0.1-0.2,0.4-0.7,1.2-2.2C169.4,223.8,172.9,228.2,177,233.3z"/>
	<path class="st2" d="M213.5,151.5c4.5-8.8,15.6-6.3,20-14c0.5,0.1,1,0.2,1.4,0.4c0.5,5.7,0.9,11.4,1.4,17.4
		C227.9,156.8,220.7,155.3,213.5,151.5z"/>
	<polygon class="st2" points="169.3,128 172.5,127 175.2,135.9 	"/>
</g>
<g>
	<path class="st2" d="M81.3,78.6l-4.2,4.3l-17-2.4l10,9.7l-4.3,4.4L48.6,77.8l4.4-4.6l16.2,2.3l-9.5-9.2l4.3-4.5L81.3,78.6z"/>
	<path class="st2" d="M101.5,65.3l-14.9,9.4L73.8,54.4L88.7,45l2.9,4.6L82,55.7l2,3.2l9.4-6l2.9,4.6l-9.4,6l2.2,3.4l9.6-6.1
		L101.5,65.3z"/>
	<path class="st2" d="M130.2,54.9l-6.3,1.9l-7.9-13.3L117,59l-6.3,1.9L97.1,40l6.6-2l8.2,14.3l-0.8-16.5l4.5-1.4l8.6,14.1L123.1,32
		l6.7-2L130.2,54.9z"/>
	<path class="st2" d="M164.7,53.7l-6.2-0.5l1.4-18.6l-6.7-0.5l0.4-5.4l19.6,1.5l-0.4,5.4l-6.7-0.5L164.7,53.7z"/>
	<path class="st2" d="M194.9,60.5l-6.8-1.9l-0.2-3.6l-9.1-2.5l-2.1,3l-6.8-1.9L185,32.8l7.5,2.1L194.9,60.5z M187.7,49.3l-0.6-9.5
		l-5.3,7.9L187.7,49.3z"/>
	<path class="st2" d="M216.4,72.3l-6.2-3.5l0.4-9l-2.8-1.5l-3.9,7l-5.4-3l11.7-21l10.5,5.9c2.3,1.3,3.7,2.9,4.2,5
		c0.6,2,0.3,4.1-0.8,6.1c-0.9,1.7-2.1,2.8-3.5,3.4c-1.4,0.6-2.8,0.8-4.2,0.5L216.4,72.3z M214.7,56c0.7,0.4,1.5,0.6,2.2,0.4
		c0.7-0.1,1.3-0.5,1.7-1.2c0.4-0.7,0.4-1.4,0.2-2.1c-0.3-0.7-0.8-1.2-1.5-1.6l-4.3-2.4l-2.5,4.5L214.7,56z"/>
	<path class="st2" d="M236.8,90.3l-5.6-5.1l1.5-10.9l-2.6,0.4l-4.7,5.2l-4.6-4.2L237,58l4.6,4.2l-6.7,7.3l12.1-2.3l5.6,5.2l-14.5,2
		L236.8,90.3z"/>
	<path class="st2" d="M243,99.1l-3.8-4.9l19.1-14.6l3.8,4.9L243,99.1z"/>
</g>
<g>
	<path class="st2" d="M69.4,254.2l-5.5-4.2l14.5-19.1L94,242.8l-3.3,4.3l-10.2-7.7l-2.3,3l9.9,7.5l-3.3,4.3l-9.9-7.5L69.4,254.2z"/>
	<path class="st2" d="M101.9,273.2c-3.9-1.6-6.6-3.9-8.3-7.1c-1.7-3.2-1.9-6.5-0.5-9.8c1.4-3.4,3.8-5.7,7.2-6.8s7.1-0.9,10.9,0.7
		c5,2,7.8,5.5,8.4,10.3l-6.5,0.1c-0.1-1.1-0.4-2.1-1.2-3.2c-0.7-1-1.7-1.8-2.8-2.2c-2-0.8-3.9-0.9-5.7-0.2s-3.1,2-3.8,3.8
		s-0.7,3.6,0.1,5.4c0.8,1.8,2.2,3,4.2,3.9c1.2,0.5,2.4,0.6,3.6,0.4c1.2-0.2,2.2-0.7,3-1.5l4.6,4.6c-1.6,1.3-3.6,2.2-5.8,2.6
		C107.1,274.7,104.6,274.3,101.9,273.2z"/>
	<path class="st2" d="M149.5,282.3c-5-0.1-8.9-1.4-11.8-4l3.7-4.6c2.3,2.1,5.2,3.2,8.5,3.3c1.2,0,2.1-0.2,2.8-0.5
		c0.7-0.4,1-0.8,1-1.4c0-0.5-0.4-0.9-1.1-1.3c-0.7-0.3-1.7-0.6-2.8-0.8c-1.1-0.2-2.3-0.4-3.6-0.8c-1.3-0.4-2.5-0.8-3.6-1.3
		c-1.1-0.5-2-1.2-2.8-2.3c-0.7-1-1.1-2.3-1.1-3.7c0-2.1,1-3.9,3-5.4c1.9-1.5,4.6-2.2,7.9-2.1c4.4,0.1,8,1.2,10.8,3.5l-3.8,4.4
		c-2.2-1.7-4.8-2.6-7.8-2.6c-1.9,0-2.9,0.5-2.9,1.7c0,0.5,0.4,0.9,1.1,1.2c0.7,0.3,1.7,0.6,2.8,0.8c1.1,0.2,2.3,0.5,3.6,0.8
		c1.3,0.4,2.5,0.8,3.6,1.3c1.1,0.5,2,1.3,2.8,2.3c0.7,1,1.1,2.2,1.1,3.6c0,2.4-1,4.4-3,5.8C155.8,281.7,153.1,282.4,149.5,282.3z"/>
	<path class="st2" d="M196.2,275l-6.7,1.6l-2.3-9.4l-10.8,2.6l2.3,9.4l-6.7,1.6l-5.7-23.3l6.7-1.6l2.1,8.7l10.8-2.6l-2.1-8.7
		l6.7-1.6L196.2,275z"/>
	<path class="st2" d="M219.8,263.9c-3.6,2.1-6.8,3-9.6,2.5c-2.8-0.5-5-2.1-6.5-4.7l-7.3-12.3l6.1-3.6l7.2,12.1
		c0.7,1.3,1.8,2,3.1,2.3c1.3,0.3,2.7-0.1,4.3-1c1.5-0.9,2.5-2,2.9-3.3c0.4-1.3,0.2-2.5-0.5-3.8l-7.2-12.1l6-3.6l7.3,12.3
		c1.6,2.7,1.9,5.3,1,8S223.4,261.8,219.8,263.9z"/>
	<path class="st2" d="M261,224.5l-4.4,5.4l-12.1-9.9l7.8,15.1l-1.9,2.4l-16.4-4.6l12.1,9.9l-4.4,5.4l-18.6-15.2l6.1-7.5l13.6,3.9
		l-6.5-12.6l6.1-7.5L261,224.5z"/>
</g>
</svg>
