<?xml version="1.0" encoding="utf-8"?>
<!-- Generator: Adobe Illustrator 27.0.0, SVG Export Plug-In . SVG Version: 6.00 Build 0)  -->
<svg version="1.1" id="_Слой_2" xmlns="http://www.w3.org/2000/svg" xmlns:xlink="http://www.w3.org/1999/xlink" x="0px"
	 y="0px" viewBox="0 0 170.1 283.5" style="enable-background:new 0 0 170.1 283.5;" xml:space="preserve">
<style type="text/css">
	.st0{fill:#86CFED;}
	.st1{fill:#FFFFFF;stroke:#86CFED;}
	.st2{fill:#002F69;}
	.st3{fill:#FFFFFF;}
	.st4{font-family:'ArialMT';}
	.st5{font-size:14px;}
	.st6{fill:none;stroke:#FFFFFF;stroke-width:0.25;}
	.st7{fill:#86CFED;stroke:#FFFFFF;stroke-miterlimit:10;}
</style>
<g id="Layer_1">
	<g>
		<g>
			<ellipse class="st0" cx="85" cy="141.7" rx="85" ry="141.7"/>
			<path class="st1" d="M85,11.5c19.3,0,37.6,13.3,51.5,37.5c14.2,24.7,22,57.6,22,92.7s-7.8,68-22,92.7
				C122.7,258.6,104.4,272,85,272s-37.6-13.3-51.5-37.5c-14.2-24.7-22-57.6-22-92.7s7.8-68,22-92.7C47.4,24.8,65.7,11.5,85,11.5
				 M85,8.5C42.8,8.5,8.5,68.2,8.5,141.7S42.8,275,85,275s76.5-59.6,76.5-133.2S127.3,8.5,85,8.5L85,8.5z"/>
			<g>
				<path class="st2" d="M149.2,54.4c-20.3-7-41.8-10.5-64.2-10.5s-43.9,3.5-64.2,10.5C36.5,21.8,60.2,2.5,85,2.5
					S133.6,21.8,149.2,54.4L149.2,54.4z"/>
				<path class="st2" d="M85,5c12.6,0,24.8,5,36,14.8c8.7,7.6,16.6,18,23.2,30.3c-18.8-5.8-38.7-8.8-59.2-8.8s-40.4,3-59.2,8.8
					C32.4,37.7,40.3,27.4,49,19.8C60.3,10,72.4,5,85,5 M85,0C56.7,0,31.5,23.1,16.1,58.8C37,50.8,60.4,46.4,85,46.4
					s48,4.4,68.9,12.4C138.5,23.1,113.4,0,85,0L85,0z"/>
			</g>
			<g>
				<path class="st2" d="M94.4,281.1l-11.8,1.7c0-8.9-1.9-12.9-4.4-18c-2.7-5.7-5.8-12.2-5.8-24.5s3.1-18.8,5.8-24.5
					c2.4-5.1,4.4-9.1,4.4-18s-1.9-12.9-4.4-18c-2.7-5.7-5.8-12.2-5.8-24.5s3.1-18.8,5.8-24.5c2.4-5.1,4.4-9.1,4.4-18
					s-1.9-12.9-4.4-18c-2.7-5.7-5.8-12.2-5.8-24.5s3.1-18.8,5.8-24.5c2.4-5.1,4.4-9.1,4.4-18h15c0,12.3-3.1,18.8-5.8,24.5
					c-2.4,5.1-4.4,9.1-4.4,18s1.9,12.9,4.4,18c2.7,5.7,5.8,12.2,5.8,24.5s-3.1,18.8-5.8,24.5c-2.4,5.1-4.4,9.1-4.4,18
					s1.9,12.9,4.4,18c2.7,5.7,5.8,12.2,5.8,24.5s-3.1,18.8-5.8,24.5c-2.4,5.1-4.4,9.1-4.4,18s1.9,12.9,4.4,18c2.4,5,5,10.5,5.7,19.9
					C97.6,279.7,94.4,279.5,94.4,281.1z"/>
				<path class="st2" d="M120.2,268.8l-6,3.8c-3.8,3-1.9,3-2.6,0.4c-0.8-3-1.9-5.4-3.2-8.1c-2.7-5.7-5.8-12.2-5.8-24.5
					s3.1-18.8,5.8-24.5c2.4-5.1,4.4-9.1,4.4-18s-1.9-12.9-4.4-18c-2.7-5.7-5.8-12.2-5.8-24.5s3.1-18.8,5.8-24.5
					c2.4-5.1,4.4-9.1,4.4-18s-1.9-12.9-4.4-18c-2.7-5.7-5.8-12.2-5.8-24.5s3.1-18.8,5.8-24.5c2.4-5.1,4.4-9.1,4.4-18h15
					c0,12.3-3.1,18.8-5.8,24.5c-2.4,5.1-4.4,9.1-4.4,18s1.9,12.9,4.4,18c2.7,5.7,5.8,12.2,5.8,24.5s-3.1,18.8-5.8,24.5
					c-2.4,5.1-4.4,9.1-4.4,18s1.9,12.9,4.4,18c2.7,5.7,5.8,12.2,5.8,24.5s-3.1,18.8-5.8,24.5c-2.4,5.1-4.4,9.1-4.4,18
					s1.9,12.9,4.4,18c0.8,1.6,1.6,3.3,2.3,5.1C122.3,266,120.3,266.5,120.2,268.8L120.2,268.8z"/>
				<path class="st2" d="M65.4,278l-8.2-4.1c-4.5-2.8-4.2-2.3-7.5-6c-0.7-0.8-0.9-2-1.4-3.1c-2.7-5.7-5.8-12.2-5.8-24.5
					s3.1-18.8,5.8-24.5c2.4-5.1,4.4-9.1,4.4-18s-1.9-12.9-4.4-18c-2.7-5.7-5.8-12.2-5.8-24.5s3.1-18.8,5.8-24.5
					c2.4-5.1,4.4-9.1,4.4-18s-1.9-12.9-4.4-18c-2.7-5.7-5.8-12.2-5.8-24.5s3.1-18.8,5.8-24.5c2.4-5.1,4.4-9.1,4.4-18h15
					c0,12.3-3.1,18.8-5.8,24.5c-2.4,5.1-4.4,9.1-4.4,18s1.9,12.9,4.4,18c2.7,5.7,5.8,12.2,5.8,24.5s-3.1,18.8-5.8,24.5
					c-2.4,5.1-4.4,9.1-4.4,18s1.9,12.9,4.4,18c2.7,5.7,5.8,12.2,5.8,24.5s-3.1,18.8-5.8,24.5c-2.4,5.1-4.4,9.1-4.4,18
					s1.9,12.9,4.4,18c2.3,4.9,5,10.3,5.6,19.5C67.6,279.4,65.4,276.3,65.4,278L65.4,278z"/>
			</g>
			<path class="st2" d="M85,5c20.9,0,40.7,13.9,55.8,39.1c15.6,26,24.2,60.7,24.2,97.7s-8.6,71.6-24.2,97.6
				c-15.1,25.2-35,39.1-55.8,39.1s-40.7-13.9-55.8-39.1C13.6,213.4,5,178.7,5,141.7S13.6,70.1,29.2,44C44.3,18.9,64.2,5,85,5 M85,0
				C38.1,0,0,63.5,0,141.7s38.1,141.7,85,141.7s85-63.5,85-141.7S132,0,85,0L85,0z"/>
		</g>
		<circle class="st2" cx="84" cy="149.7" r="34"/>
		<path class="st3" d="M74.4,126.4c-3.2,1.3-6,3.2-8.4,5.6s-4.3,5.3-5.6,8.4c-1.2,3.1-1.9,6.3-1.9,9.6s0.6,6.5,1.9,9.6
			c1.3,3.2,3.2,6,5.6,8.4c2.4,2.4,5.3,4.3,8.4,5.6c3.1,1.2,6.3,1.9,9.6,1.9s6.5-0.6,9.6-1.9c3.2-1.3,6-3.2,8.4-5.6
			c2.4-2.4,4.3-5.3,5.6-8.4c1.2-3.1,1.9-6.3,1.9-9.6s-0.6-6.5-1.9-9.6c-1.3-3.2-3.2-6-5.6-8.4s-5.3-4.3-8.4-5.6
			c-3.1-1.2-6.3-1.9-9.6-1.9S77.5,125.2,74.4,126.4z M64.9,160.8c-1.2-0.8-2.4-1.7-3.4-2.7c-1.5-4.3-1.8-9-0.8-13.4
			c0.5-0.9,1-1.9,1.6-2.7c0.2-0.3,0.4-0.6,0.6-0.8l5.8,3.4v0.1c0,3.1,0.3,6.2,0.9,9.2l0,0l-4.5,7C65.1,160.9,65,160.9,64.9,160.8
			L64.9,160.8z M82,172.7c1,0.5,2,0.9,3.1,1.3c-4.5,0.2-9-0.9-12.9-3.1l9.7,1.7C81.9,172.6,81.9,172.6,82,172.7L82,172.7z M82,170.9
			l-11.4-2c-1.3-1.6-2.5-3.3-3.6-5.2c-0.3-0.5-0.6-0.9-0.8-1.4l4.5-7c0.1,0,0.2,0.1,0.3,0.1c2.8,0.8,5.6,1.3,8.5,1.7
			c0.2,0,0.3,0,0.4,0.1l5.3,9.2c-0.9,1.3-1.9,2.6-2.8,3.9C82.3,170.5,82.2,170.7,82,170.9z M100.9,167c-0.9,0.9-1.9,1.7-2.9,2.4
			c-0.2-1.3-0.5-2.6-0.9-3.9l5.7-10.6c1.6-0.7,3.1-1.5,4.5-2.5c0.2-0.1,0.3-0.3,0.5-0.4C107.4,157.4,105.1,162.8,100.9,167z
			 M100.7,153.2c0.2,0.4,0.4,0.8,0.6,1.2l-5.5,10.3h-0.1c-3,0.6-6,0.9-9,0.9l-5.5-9.5c0.9-1.6,1.7-3.2,2.6-4.8
			c0.6-1.1,1.1-2.2,1.7-3.3l11.4-1.2C98.2,148.9,99.5,151,100.7,153.2L100.7,153.2z M98.4,141c-0.5,1.4-1.1,2.8-1.7,4.2l-11.1,1.1
			c-0.1-0.2-0.3-0.4-0.4-0.5c-1.3-1.5-2.6-3-3.9-4.4l0,0c-0.5-0.5-1.1-1.1-1.6-1.6l3.1-9.3c0.2-0.1,0.4-0.1,0.6-0.1
			c1.7-0.2,3.4-0.4,5-0.5c1-0.1,2.1-0.1,3.1,0l7.6,8.6C99,139.4,98.7,140.2,98.4,141L98.4,141z M100.9,133.2
			c2.1,2.1,3.7,4.5,4.9,7.1c-1.4-1-2.9-1.8-4.6-2.4c-0.2-0.1-0.5-0.2-0.8-0.3l-7.5-8.5c0.1-0.4,0.1-0.7,0.1-1.1
			C95.9,129.1,98.6,130.9,100.9,133.2L100.9,133.2z M76.4,127.5C76.4,127.5,76.4,127.6,76.4,127.5c1.8,0.6,3.3,1.5,4.8,2.6l-2.9,8.7
			l0,0c-0.6,0.2-1.2,0.5-1.8,0.7c-2.4,1.1-4.7,2.3-6.9,3.7l-5.7-3.4c0-0.2,0-0.4,0.1-0.5c0.4-1,0.8-2,1.2-3c0.3-0.8,0.7-1.5,1.1-2.2
			c0.3-0.3,0.6-0.6,0.8-0.9C69.8,130.5,73,128.6,76.4,127.5L76.4,127.5L76.4,127.5z"/>
	</g>
</g>
<text transform="matrix(1 0 0 1 71.9359 19.5422)" class="st3 st4 st5">AFC</text>
<text transform="matrix(1 0 0 1 71.9359 19.5422)" class="st6 st4 st5">AFC</text>
<g>
	<path class="st7" d="M48.2,29.4c0,2.2,0,3.4,0,5.6c0,2.1,0.9,2.9,2.2,2.7c1.4-0.2,2.3-1.2,2.3-3.3c0-2.2,0-3.4,0-5.6
		c0.5-0.1,0.7-0.1,1.2-0.2c0,2.2,0,3.3,0,5.5c0,2.9-1.5,4.3-3.6,4.6C48.5,38.9,47,38,47,35.1c0-2.2,0-3.3,0-5.6
		C47.5,29.5,47.8,29.4,48.2,29.4z"/>
	<path class="st7" d="M64,36.6c-0.4,0.3-1.3,0.6-2.5,0.7c-2.7,0.3-4.7-1.2-4.7-4.3c0-3,2-5.2,4.9-5.5c1.2-0.1,1.9,0.1,2.2,0.2
		c-0.1,0.4-0.2,0.6-0.3,1c-0.5-0.2-1.1-0.3-1.9-0.2c-2.2,0.2-3.7,1.8-3.7,4.3c0,2.3,1.3,3.6,3.6,3.4c0.7-0.1,1.5-0.3,2-0.6
		C63.9,36.1,63.9,36.2,64,36.6z"/>
	<path class="st7" d="M68.2,27.2c0,1.6,0,2.4,0,3.9c1.8-0.1,2.7-0.2,4.6-0.3c0-1.6,0-2.4,0-3.9c0.5,0,0.7,0,1.2-0.1
		c0,3.8,0,5.7,0,9.4c-0.5,0-0.7,0-1.2,0.1c0-1.8,0-2.7,0-4.4C71,32,70.1,32,68.2,32.2c0,1.8,0,2.7,0,4.4c-0.5,0-0.7,0.1-1.2,0.1
		c0-3.8,0-5.7,0-9.4C67.5,27.2,67.7,27.2,68.2,27.2z"/>
	<path class="st7" d="M77.5,26.8c0.5-0.1,1.4-0.2,2.2-0.3c1.2,0,2,0.2,2.6,0.6c0.5,0.4,0.8,0.9,0.8,1.7c0,0.9-0.6,1.7-1.6,2.1l0,0
		c0.9,0.2,2,0.9,2,2.3c0,0.8-0.3,1.4-0.8,1.9C82.1,35.7,81,36,79.4,36c-0.8,0-1.5,0-1.9-0.1C77.5,32.4,77.5,30.5,77.5,26.8z
		 M78.7,30.7c0.4,0,0.7,0,1.1,0c1.3,0,2.1-0.7,2.1-1.6c0-1.1-0.8-1.5-2.1-1.5c-0.6,0-0.9,0.1-1.1,0.1C78.7,28.8,78.7,29.4,78.7,30.7
		z M78.7,35.2c0.2,0,0.6,0,1,0c1.3,0,2.4-0.5,2.4-1.9c0-1.3-1.1-1.8-2.4-1.8c-0.4,0-0.6,0-1,0C78.7,33,78.7,33.8,78.7,35.2z"/>
	<path class="st7" d="M87.8,26.6c0,2.2,0,3.4,0,5.6c0,2.1,0.9,3,2.2,3c1.4,0,2.3-0.9,2.3-3c0-2.2,0-3.4,0-5.6c0.5,0,0.7,0,1.2,0
		c0,2.2,0,3.3,0,5.5c0,2.9-1.5,4-3.6,4c-1.9,0-3.4-1.2-3.4-4.1c0-2.2,0-3.3,0-5.6C87,26.6,87.3,26.6,87.8,26.6z"/>
	<path class="st7" d="M97,26.9c0.5,0,0.7,0,1.2,0.1c0,3.4,0,5.1,0,8.4c1.6,0.1,2.4,0.1,4,0.3c0,0.4,0,0.6,0,1
		c-2.1-0.1-3.2-0.2-5.3-0.3C97,32.5,97,30.7,97,26.9z"/>
	<path class="st7" d="M106.6,34c-0.4,1.2-0.6,1.7-1,2.9c-0.5,0-0.8-0.1-1.3-0.1c1.3-3.7,1.9-5.5,3.2-9.2c0.6,0.1,0.9,0.1,1.5,0.1
		c1.3,3.9,1.9,5.9,3.2,9.8c-0.5-0.1-0.8-0.1-1.3-0.1c-0.4-1.2-0.6-1.8-1-3.1C108.6,34.2,107.9,34.1,106.6,34z M109.7,33.3
		c-0.4-1.1-0.6-1.7-0.9-2.8c-0.2-0.6-0.4-1.2-0.5-1.8l0,0c-0.1,0.5-0.3,1.1-0.5,1.7c-0.4,1.1-0.6,1.6-0.9,2.6
		C108,33.2,108.5,33.2,109.7,33.3z"/>
	<path class="st7" d="M122.5,40.3c-1.3-0.5-2.5-1.1-3.6-1.6c-0.2-0.1-0.4-0.2-0.6-0.2c-2.2-0.4-4.1-2.3-4.1-5.3s1.8-4.8,4.4-4.4
		s4.2,2.6,4.2,5.4c0,2.4-1.1,3.8-2.7,4.1c0,0,0,0,0,0.1c0.9,0.4,2,0.8,2.7,1C122.8,39.7,122.7,39.9,122.5,40.3z M121.5,34
		c0-1.9-1-4-3-4.3c-2.1-0.3-3,1.5-3,3.6c0,2,1.1,3.9,3,4.2C120.5,37.7,121.5,36.2,121.5,34z"/>
</g>
<g>
	<path class="st2" d="M20.4,160.8v-1.9l3.7-6.9c0.2-0.3,0.3-0.7,0.3-0.9c0-0.3,0-0.6,0-1c0-0.2,0-0.4,0-0.5c0-0.2,0-0.4-0.1-0.5
		s-0.2-0.3-0.3-0.4c-0.1-0.1-0.3-0.1-0.6-0.1c-0.3,0-0.6,0.1-0.7,0.3c-0.2,0.2-0.3,0.4-0.3,0.8v1.2h-2v-1.1c0-0.4,0.1-0.8,0.2-1.2
		c0.2-0.4,0.4-0.7,0.7-1c0.3-0.3,0.6-0.5,1-0.7s0.8-0.2,1.2-0.2c0.5,0,1,0.1,1.4,0.3s0.7,0.5,1,0.8c0.2,0.3,0.4,0.7,0.5,1.1
		s0.2,0.9,0.2,1.4c0,0.3,0,0.6,0,0.9c0,0.2,0,0.5-0.1,0.7c0,0.2-0.1,0.4-0.2,0.6s-0.2,0.5-0.4,0.8l-3,5.8h3.7v2h-6.2V160.8z"/>
	<path class="st2" d="M28.5,149.5c0-0.5,0.1-0.9,0.2-1.3c0.2-0.4,0.4-0.7,0.7-1c0.3-0.3,0.6-0.5,1-0.6s0.8-0.2,1.2-0.2
		s0.8,0.1,1.1,0.2c0.4,0.1,0.7,0.3,1,0.6s0.5,0.6,0.7,1s0.2,0.8,0.2,1.3v8.4c0,0.5-0.1,0.9-0.2,1.3c-0.2,0.4-0.4,0.7-0.7,1
		s-0.6,0.5-1,0.6s-0.8,0.2-1.1,0.2c-0.4,0-0.8-0.1-1.2-0.2s-0.7-0.3-1-0.6s-0.5-0.6-0.7-1s-0.2-0.8-0.2-1.3
		C28.5,157.9,28.5,149.5,28.5,149.5z M30.5,157.9c0,0.3,0.1,0.5,0.3,0.7c0.2,0.2,0.4,0.3,0.7,0.3c0.3,0,0.5-0.1,0.7-0.3
		s0.3-0.4,0.3-0.7v-8.4c0-0.3-0.1-0.5-0.3-0.7s-0.4-0.3-0.7-0.3c-0.3,0-0.5,0.1-0.7,0.3s-0.3,0.4-0.3,0.7V157.9z"/>
</g>
<g>
	<path class="st2" d="M132.4,160.8v-1.9l3.7-6.9c0.2-0.3,0.3-0.7,0.3-0.9c0-0.3,0-0.6,0-1c0-0.2,0-0.4,0-0.5c0-0.2,0-0.4-0.1-0.5
		s-0.2-0.3-0.3-0.4c-0.1-0.1-0.3-0.1-0.6-0.1s-0.6,0.1-0.7,0.3s-0.3,0.4-0.3,0.8v1.2h-2v-1.1c0-0.4,0.1-0.8,0.2-1.2
		c0.2-0.4,0.4-0.7,0.7-1s0.6-0.5,1-0.7s0.8-0.2,1.2-0.2c0.5,0,1,0.1,1.4,0.3s0.7,0.5,1,0.8c0.2,0.3,0.4,0.7,0.5,1.1s0.2,0.9,0.2,1.4
		c0,0.3,0,0.6,0,0.9c0,0.2,0,0.5-0.1,0.7c0,0.2-0.1,0.4-0.2,0.6s-0.2,0.5-0.4,0.8l-3,5.8h3.7v2h-6.2V160.8z"/>
	<path class="st2" d="M140.5,160.8v-1.9l3.7-6.9c0.2-0.3,0.3-0.7,0.3-0.9c0-0.3,0-0.6,0-1c0-0.2,0-0.4,0-0.5c0-0.2,0-0.4-0.1-0.5
		s-0.2-0.3-0.3-0.4c-0.1-0.1-0.3-0.1-0.6-0.1s-0.5,0.1-0.7,0.3s-0.3,0.4-0.3,0.8v1.2h-2v-1.1c0-0.4,0.1-0.8,0.2-1.2
		c0.2-0.4,0.4-0.7,0.7-1s0.6-0.5,1-0.7s0.8-0.2,1.2-0.2c0.5,0,1,0.1,1.4,0.3s0.7,0.5,0.9,0.8s0.4,0.7,0.5,1.1s0.2,0.9,0.2,1.4
		c0,0.3,0,0.6,0,0.9c0,0.2,0,0.5-0.1,0.7c0,0.2-0.1,0.4-0.2,0.6s-0.2,0.5-0.4,0.8l-3,5.8h3.7v2h-6.1V160.8z"/>
</g>
</svg>
